<svg width="491" height="491" viewBox="0 0 491 491" fill="none" xmlns="http://www.w3.org/2000/svg">
    <path d="M246.502 482.967C375.927 482.967 480.846 419.498 480.846 341.206C480.846 262.913 375.927 199.444 246.502 199.444C117.077 199.444 12.1572 262.913 12.1572 341.206C12.1572 419.498 117.077 482.967 246.502 482.967Z" fill="#F5F5F5"/>
    <path d="M288.708 219.546C276.845 226.42 276.845 237.507 288.708 244.361C300.57 251.215 319.818 251.235 331.69 244.361C343.562 237.487 343.562 226.4 331.69 219.546C319.818 212.691 300.6 212.691 288.708 219.546Z" fill="#E0E0E0"/>
    <path d="M100.655 350.27L29.617 309.634C29.4483 309.555 29.3056 309.429 29.2057 309.272C29.1058 309.115 29.0527 308.932 29.0527 308.746C29.0527 308.559 29.1058 308.377 29.2057 308.219C29.3056 308.062 29.4483 307.936 29.617 307.857L223.572 195.909C224.05 195.667 224.578 195.54 225.114 195.54C225.649 195.54 226.178 195.667 226.655 195.909L297.693 236.544C297.862 236.623 298.005 236.749 298.104 236.907C298.204 237.064 298.257 237.246 298.257 237.433C298.257 237.619 298.204 237.802 298.104 237.959C298.005 238.117 297.862 238.242 297.693 238.322L103.738 350.27C103.261 350.512 102.732 350.638 102.197 350.638C101.661 350.638 101.133 350.512 100.655 350.27Z" fill="#E0E0E0"/>
    <path d="M156.491 412.342C166.091 412.342 173.873 407.849 173.873 402.306C173.873 396.763 166.091 392.27 156.491 392.27C146.892 392.27 139.11 396.763 139.11 402.306C139.11 407.849 146.892 412.342 156.491 412.342Z" fill="#E0E0E0"/>
    <path d="M464.751 355.533L279.575 462.335L185.559 408.355L370.734 301.552L464.751 355.533Z" fill="#E0E0E0"/>
    <path d="M47.5091 286.538C47.5091 286.538 47.951 271.975 44.406 261.909C40.861 251.844 33.9379 244.577 26.8773 242.269C19.8168 239.961 12.4616 245.215 19.0802 251.608C25.6989 258.001 38.298 265.857 40.5664 284.328L47.5091 286.538Z" fill="#277FE5"/>
    <g opacity="0.15">
        <path opacity="0.15" d="M47.5091 286.538C47.5091 286.538 47.951 271.975 44.406 261.909C40.861 251.844 33.9379 244.577 26.8773 242.269C19.8168 239.961 12.4616 245.215 19.0802 251.608C25.6989 258.001 38.298 265.857 40.5664 284.328L47.5091 286.538Z" fill="black"/>
    </g>
    <path d="M44.6517 280.135H44.7302C44.8338 280.118 44.9266 280.062 44.9889 279.977C45.0513 279.893 45.0783 279.787 45.0641 279.683C41.8824 259.248 29.2735 248.014 23.0575 244.95C22.9637 244.903 22.8552 244.896 22.7557 244.929C22.6563 244.962 22.5741 245.033 22.5272 245.127C22.4803 245.221 22.4726 245.329 22.5058 245.429C22.5389 245.528 22.6102 245.61 22.704 245.657C28.8022 248.652 41.1459 259.66 44.308 279.801C44.3187 279.888 44.3587 279.968 44.4211 280.029C44.4836 280.089 44.5649 280.127 44.6517 280.135Z" fill="white"/>
    <path d="M15.6335 267.32C15.7121 268.871 16.9003 270.119 18.0493 271.179C19.1982 272.24 20.4355 273.379 20.681 274.911C21.1917 278.004 17.411 280.655 18.0493 283.749C18.6876 286.842 22.5174 287.775 25.0116 288.816C26.6823 289.377 28.0651 290.573 28.8611 292.145C29.2498 293.551 29.3402 295.023 29.1262 296.466C29.028 299.117 29.4896 303.055 31.6696 304.872C34.1933 306.983 38.4749 308.142 41.4896 306.698C47.1459 303.988 52.8906 299.677 53.4307 292.901C53.5778 290.911 53.2755 288.913 52.5463 287.055C51.8171 285.197 50.6796 283.527 49.2179 282.168C48.0985 281.137 46.8121 280.312 45.7515 279.222C43.5813 277.012 43.9446 273.988 43.2769 271.15C42.6778 268.616 40.2228 267.389 37.8267 266.907C35.4307 266.426 33.0346 266.907 30.8742 265.925C28.7138 264.943 26.9462 263.647 24.6778 262.979C23.5115 262.573 22.2681 262.437 21.0416 262.582C19.815 262.726 18.6373 263.148 17.5975 263.814C17.0095 264.195 16.5232 264.713 16.181 265.324C15.8387 265.935 15.6508 266.62 15.6335 267.32Z" fill="#277FE5"/>
    <path d="M42.8741 299.392C42.9201 299.397 42.9666 299.394 43.011 299.381C43.0554 299.368 43.0967 299.346 43.1325 299.316C43.1683 299.287 43.1977 299.251 43.2191 299.21C43.2406 299.169 43.2535 299.124 43.2571 299.078C45.5354 277.179 25.6793 266.328 20.6711 264.816C20.6273 264.802 20.5812 264.798 20.5355 264.802C20.4899 264.807 20.4457 264.821 20.4054 264.843C20.3651 264.864 20.3297 264.894 20.3011 264.93C20.2725 264.966 20.2514 265.007 20.239 265.051C20.2111 265.14 20.2191 265.236 20.2614 265.319C20.3037 265.401 20.3768 265.464 20.4649 265.493C25.3749 266.966 44.8185 277.582 42.5992 299.009C42.5875 299.096 42.6095 299.184 42.6606 299.255C42.7117 299.326 42.7881 299.375 42.8741 299.392Z" fill="white"/>
    <path d="M23.4404 280.45C23.507 280.474 23.5799 280.474 23.6466 280.45C26.2166 279.504 28.9638 279.137 31.6918 279.377C34.4198 279.616 37.0613 280.455 39.4273 281.834C39.5081 281.881 39.6041 281.893 39.6942 281.869C39.7843 281.846 39.8613 281.787 39.9085 281.707C39.9311 281.666 39.9455 281.621 39.9508 281.575C39.9561 281.529 39.9523 281.482 39.9395 281.437C39.9268 281.393 39.9053 281.351 39.8764 281.315C39.8475 281.278 39.8117 281.248 39.771 281.225C37.3104 279.792 34.5635 278.921 31.7268 278.673C28.8901 278.425 26.0336 278.807 23.3618 279.792C23.2922 279.82 23.2338 279.871 23.1957 279.935C23.1575 280 23.1417 280.076 23.1506 280.151C23.1595 280.225 23.1927 280.295 23.245 280.349C23.2974 280.403 23.366 280.438 23.4404 280.45Z" fill="white"/>
    <path d="M286.862 195.899C286.876 195.751 286.929 195.61 287.015 195.489C287.101 195.369 287.218 195.273 287.353 195.211C287.72 195.027 288.125 194.932 288.536 194.932C288.947 194.932 289.352 195.027 289.719 195.211C289.854 195.273 289.971 195.369 290.057 195.489C290.143 195.61 290.196 195.751 290.21 195.899L284.25 231.074C284.237 231.175 284.199 231.272 284.139 231.354C284.079 231.437 283.999 231.503 283.906 231.545C283.647 231.676 283.361 231.744 283.071 231.744C282.781 231.744 282.495 231.676 282.237 231.545C282.144 231.503 282.064 231.437 282.003 231.354C281.943 231.272 281.905 231.175 281.893 231.074L286.862 195.899Z" fill="#455A64"/>
    <path d="M332.81 195.899C332.798 195.751 332.745 195.609 332.659 195.488C332.573 195.367 332.455 195.271 332.319 195.211C331.951 195.027 331.546 194.932 331.135 194.932C330.725 194.932 330.319 195.027 329.952 195.211C329.817 195.273 329.701 195.369 329.615 195.489C329.528 195.61 329.475 195.751 329.461 195.899L335.422 231.074C335.436 231.175 335.475 231.271 335.535 231.353C335.595 231.435 335.674 231.501 335.766 231.545C336.026 231.676 336.314 231.744 336.605 231.744C336.897 231.744 337.184 231.676 337.445 231.545C337.536 231.501 337.616 231.435 337.676 231.353C337.736 231.271 337.774 231.175 337.789 231.074L332.81 195.899Z" fill="#455A64"/>
    <path d="M311.716 198.56C311.701 198.414 311.648 198.275 311.562 198.156C311.476 198.037 311.36 197.942 311.225 197.883C310.859 197.694 310.454 197.596 310.042 197.596C309.63 197.596 309.225 197.694 308.859 197.883C308.724 197.942 308.608 198.037 308.522 198.156C308.436 198.275 308.383 198.414 308.368 198.56L308.859 240.403C308.87 240.505 308.908 240.602 308.968 240.685C309.028 240.767 309.109 240.833 309.202 240.875C309.462 241.01 309.75 241.08 310.042 241.08C310.334 241.08 310.622 241.01 310.882 240.875C310.975 240.833 311.056 240.767 311.116 240.685C311.176 240.602 311.214 240.505 311.225 240.403L311.716 198.56Z" fill="#455A64"/>
    <path d="M340.03 184.313C340.03 179.884 337.084 175.475 331.271 172.067C319.555 165.311 300.573 165.311 288.858 172.067C282.966 175.455 280.099 179.923 280.099 184.313V186.689C280.167 191.069 283.104 195.429 288.878 198.758C300.593 205.524 319.575 205.524 331.29 198.758C337.074 195.429 340.001 191.069 340.069 186.689L340.03 184.313Z" fill="#277FE5"/>
    <path d="M288.836 172.066C277.12 178.832 277.12 189.791 288.836 196.557C300.551 203.323 319.533 203.313 331.248 196.557C342.963 189.801 342.963 178.881 331.248 172.066C319.533 165.251 300.551 165.31 288.836 172.066Z" fill="#277FE5"/>
    <path opacity="0.45" d="M288.836 172.066C277.12 178.832 277.12 189.791 288.836 196.557C300.551 203.323 319.533 203.313 331.248 196.557C342.963 189.801 342.963 178.881 331.248 172.066C319.533 165.251 300.551 165.31 288.836 172.066Z" fill="white"/>
    <g opacity="0.05">
        <path opacity="0.05" d="M316.607 178.586C320.348 180.747 320.348 184.243 316.607 186.442C314.511 187.503 312.194 188.056 309.845 188.056C307.496 188.056 305.18 187.503 303.084 186.442C299.343 184.282 299.343 180.786 303.084 178.586C305.18 177.526 307.496 176.973 309.845 176.973C312.194 176.973 314.511 177.526 316.607 178.586Z" fill="black"/>
    </g>
    <path d="M303.9 182.976C300.639 179.657 298.734 171.369 301.936 168.737H318.08C321.252 171.369 319.346 179.657 316.116 182.976L316.027 183.064L315.909 183.172L315.615 183.437L315.536 183.496L315.291 183.683C315.158 183.778 315.02 183.867 314.878 183.948C313.377 184.713 311.717 185.111 310.032 185.111C308.348 185.111 306.687 184.713 305.186 183.948C305.039 183.869 304.901 183.781 304.754 183.683L304.528 183.506L304.43 183.437L304.155 183.182L304.017 183.054L303.9 182.976Z" fill="#EBEBEB"/>
    <path d="M316.646 167.676C320.338 169.797 320.338 173.254 316.646 175.375C314.58 176.424 312.295 176.971 309.978 176.971C307.661 176.971 305.376 176.424 303.31 175.375C299.628 173.254 299.628 169.797 303.31 167.676C305.376 166.627 307.661 166.081 309.978 166.081C312.295 166.081 314.58 166.627 316.646 167.676Z" fill="#FAFAFA"/>
    <path d="M314.034 169.179C316.282 170.475 316.282 172.577 314.034 173.873C312.776 174.507 311.387 174.838 309.978 174.838C308.569 174.838 307.18 174.507 305.922 173.873C303.683 172.577 303.683 170.475 305.922 169.179C307.18 168.544 308.569 168.214 309.978 168.214C311.387 168.214 312.776 168.544 314.034 169.179Z" fill="#EBEBEB"/>
    <path d="M305.922 171.408C307.179 170.769 308.568 170.436 309.978 170.436C311.388 170.436 312.777 170.769 314.034 171.408C314.576 171.701 315.038 172.122 315.379 172.635C315.041 173.154 314.579 173.58 314.034 173.873C312.776 174.507 311.387 174.838 309.978 174.838C308.569 174.838 307.18 174.507 305.922 173.873C305.377 173.58 304.915 173.154 304.577 172.635C304.918 172.122 305.38 171.701 305.922 171.408Z" fill="#E0E0E0"/>
    <path d="M313.543 172.635C314.696 171.464 315.687 170.143 316.489 168.707C317.844 166.311 318.099 163.1 317.392 162.698C316.685 162.295 313.837 165.506 313.837 165.506C314.1 164.158 314.203 162.783 314.142 161.411C314.024 159.28 313.503 157.336 312.885 156.953C312.266 156.57 310.921 159.251 310.322 161.205C309.723 163.159 309.389 164.76 309.389 164.76C309.153 163.239 308.801 161.739 308.338 160.272C307.621 158.239 306.973 157.788 306.472 157.984C305.971 158.18 305.647 159.133 305.49 161.824C305.434 163.114 305.473 164.408 305.608 165.693C305.608 165.693 304.626 164.583 303.487 163.513C302.348 162.442 301.739 162.167 301.385 162.393C301.032 162.619 300.934 164.455 302.839 167.892C303.781 169.641 304.99 171.231 306.423 172.606C306.423 172.606 309.055 174.334 313.543 172.635Z" fill="#277FE5"/>
    <path opacity="0.3" d="M313.543 172.635C314.696 171.464 315.687 170.143 316.489 168.707C317.844 166.311 318.099 163.1 317.392 162.698C316.685 162.295 313.837 165.506 313.837 165.506C314.1 164.158 314.203 162.783 314.142 161.411C314.024 159.28 313.503 157.336 312.885 156.953C312.266 156.57 310.921 159.251 310.322 161.205C309.723 163.159 309.389 164.76 309.389 164.76C309.153 163.239 308.801 161.739 308.338 160.272C307.621 158.239 306.973 157.788 306.472 157.984C305.971 158.18 305.647 159.133 305.49 161.824C305.434 163.114 305.473 164.408 305.608 165.693C305.608 165.693 304.626 164.583 303.487 163.513C302.348 162.442 301.739 162.167 301.385 162.393C301.032 162.619 300.934 164.455 302.839 167.892C303.781 169.641 304.99 171.231 306.423 172.606C306.423 172.606 309.055 174.334 313.543 172.635Z" fill="black"/>
    <path d="M311.736 124.625C311.402 124.397 311.012 124.266 310.608 124.245C310.205 124.224 309.803 124.315 309.448 124.508C307.209 125.49 305.078 128.868 304.695 132.108C304.469 134.072 304.911 135.457 305.775 136.095L308.024 137.765C308.358 137.988 308.747 138.116 309.148 138.135C309.55 138.154 309.949 138.064 310.302 137.873C312.541 136.891 314.672 133.513 315.055 130.272C315.281 128.367 314.849 126.943 313.995 126.344C313.612 126.01 312.119 124.91 311.736 124.625Z" fill="#277FE5"/>
    <path opacity="0.3" d="M311.736 124.625C311.402 124.397 311.012 124.266 310.608 124.245C310.205 124.224 309.803 124.315 309.448 124.508C307.209 125.49 305.078 128.868 304.695 132.108C304.469 134.072 304.911 135.457 305.775 136.095L308.024 137.765C308.358 137.988 308.747 138.116 309.148 138.135C309.55 138.154 309.949 138.064 310.302 137.873C312.541 136.891 314.672 133.513 315.055 130.272C315.281 128.367 314.849 126.943 313.995 126.344C313.612 126.01 312.119 124.91 311.736 124.625Z" fill="black"/>
    <path d="M315.674 113.509C313.818 112.144 311.353 111.919 308.495 113.146C303.585 115.238 299.736 120.128 296.898 126.845C296.318 128.21 296.368 129.575 297.006 130.086C297.752 130.685 299.039 131.549 299.667 132.05C300.462 132.688 301.867 131.725 302.613 130.007C304.577 125.244 307.101 122.053 310.538 120.58C311.647 120.052 312.899 119.9 314.102 120.148C314.488 120.756 314.782 121.418 314.976 122.112C315.038 122.37 315.183 122.602 315.389 122.77L318.07 124.734C318.639 125.146 319.582 124.734 320.368 123.683C320.766 123.167 321.054 122.575 321.212 121.943C321.371 121.311 321.398 120.653 321.291 120.01C320.837 118.234 319.825 116.651 318.404 115.493L315.674 113.509Z" fill="#277FE5"/>
    <path opacity="0.3" d="M315.674 113.509C313.818 112.144 311.353 111.919 308.495 113.146C303.585 115.238 299.736 120.128 296.898 126.845C296.318 128.21 296.368 129.575 297.006 130.086C297.752 130.685 299.039 131.549 299.667 132.05C300.462 132.688 301.867 131.725 302.613 130.007C304.577 125.244 307.101 122.053 310.538 120.58C311.647 120.052 312.899 119.9 314.102 120.148C314.488 120.756 314.782 121.418 314.976 122.112C315.038 122.37 315.183 122.602 315.389 122.77L318.07 124.734C318.639 125.146 319.582 124.734 320.368 123.683C320.766 123.167 321.054 122.575 321.212 121.943C321.371 121.311 321.398 120.653 321.291 120.01C320.837 118.234 319.825 116.651 318.404 115.493L315.674 113.509Z" fill="black"/>
    <path d="M325.258 110.161C324.442 107.938 323.024 105.987 321.163 104.524C320.702 104.18 318.895 102.835 318.443 102.56C315.497 100.341 311.49 99.9773 306.904 101.941C299.657 105.054 293.795 111.172 289.16 120.963C288.482 122.406 288.443 123.909 289.16 124.488C289.936 125.117 291.124 125.902 291.821 126.452C292.587 127.081 293.913 126.187 294.679 124.557C298.44 116.544 303.016 111.928 308.947 109.375C312.011 108.069 314.731 108.03 316.96 109.051C317.868 110.084 318.583 111.271 319.072 112.557C319.15 112.77 319.286 112.957 319.464 113.097L322.135 115.061C322.715 115.493 323.638 115.13 324.433 114.079C324.859 113.531 325.155 112.894 325.298 112.215C325.441 111.536 325.427 110.834 325.258 110.161Z" fill="#277FE5"/>
    <path opacity="0.3" d="M325.258 110.161C324.442 107.938 323.024 105.987 321.163 104.524C320.702 104.18 318.895 102.835 318.443 102.56C315.497 100.341 311.49 99.9773 306.904 101.941C299.657 105.054 293.795 111.172 289.16 120.963C288.482 122.406 288.443 123.909 289.16 124.488C289.936 125.117 291.124 125.902 291.821 126.452C292.587 127.081 293.913 126.187 294.679 124.557C298.44 116.544 303.016 111.928 308.947 109.375C312.011 108.069 314.731 108.03 316.96 109.051C317.868 110.084 318.583 111.271 319.072 112.557C319.15 112.77 319.286 112.957 319.464 113.097L322.135 115.061C322.715 115.493 323.638 115.13 324.433 114.079C324.859 113.531 325.155 112.894 325.298 112.215C325.441 111.536 325.427 110.834 325.258 110.161Z" fill="black"/>
    <path d="M315.055 130.272C314.672 133.513 312.541 136.91 310.302 137.873C308.063 138.835 306.551 136.999 306.934 133.768C307.317 130.537 309.448 127.13 311.687 126.167C313.926 125.205 315.438 127.041 315.055 130.272Z" fill="#277FE5"/>
    <path d="M311.166 115.12C306.256 117.221 302.397 122.112 299.569 128.868C298.989 130.233 299.039 131.598 299.667 132.108C300.462 132.747 301.867 131.784 302.613 130.066C304.577 125.303 307.101 122.112 310.538 120.639C313.975 119.166 316.636 120.639 317.647 124.125C318.011 125.391 319.327 125.185 320.368 123.751C320.766 123.236 321.054 122.643 321.212 122.011C321.371 121.38 321.398 120.722 321.291 120.079C319.818 115.149 316.047 113.028 311.166 115.12Z" fill="#277FE5"/>
    <path d="M309.575 103.866C302.319 106.989 296.456 113.097 291.831 122.897C291.143 124.331 291.114 125.843 291.831 126.413C292.597 127.041 293.922 126.148 294.688 124.517C298.449 116.504 303.026 111.889 308.957 109.336C314.888 106.783 319.582 109.022 321.723 114.491C322.165 115.611 323.402 115.405 324.413 114.01C324.834 113.471 325.129 112.844 325.275 112.176C325.421 111.509 325.415 110.816 325.258 110.151C322.597 103.493 316.852 100.753 309.575 103.866Z" fill="#277FE5"/>
    <path d="M225.909 202.066L229.965 199.729L252.05 84.1869C252.786 80.3276 250.636 78.7859 247.228 80.7499L69.8988 183.006C66.1602 185.446 63.4834 189.21 62.4061 193.542L40.7432 306.885C40.6167 307.525 40.6913 308.188 40.9568 308.784C41.2223 309.38 41.6656 309.88 42.226 310.214L91.925 338.977L277.405 231.939L225.909 202.066Z" fill="#455A64"/>
    <path d="M64.6254 194.966L43.0214 308.093L232.547 199.395L254.279 85.6011C255.016 81.7517 252.855 80.2099 249.457 82.1739L72.1278 184.43C68.3856 186.868 65.7051 190.632 64.6254 194.966Z" fill="#263238"/>
    <path d="M228.472 201.006L42.9822 308.093L93.3784 337.199L278.859 230.112L228.472 201.006Z" fill="#37474F"/>
    <path d="M252.462 84.3831L73.7384 187.375C69.8104 189.634 68.5928 193.267 69.29 198.118L88.6943 333.487C89.3915 338.309 93.2311 341.137 97.1493 338.868L274.273 236.662C278.201 234.403 280.803 228.659 280.116 223.827L260.809 89.028C260.122 84.2063 256.381 82.1245 252.462 84.3831Z" fill="#455A64"/>
    <path d="M264.512 87.5355C263.715 87.2616 262.867 87.1732 262.032 87.277C261.196 87.3808 260.395 87.6741 259.69 88.1345L82.5667 190.361C80.582 191.605 79.0102 193.409 78.0495 195.546L72.3342 193.12C73.5912 190.38 75.781 189.379 77.6567 188.289L254.77 86.0625C255.501 85.5787 256.339 85.2795 257.211 85.1906C258.084 85.1016 258.965 85.2256 259.778 85.5519L264.512 87.5355Z" fill="#277FE5"/>
    <path opacity="0.1" d="M264.512 87.5355C263.715 87.2616 262.867 87.1732 262.032 87.277C261.196 87.3808 260.395 87.6741 259.69 88.1345L82.5667 190.361C80.582 191.605 79.0102 193.409 78.0495 195.546L72.3342 193.12C73.5912 190.38 75.781 189.379 77.6567 188.289L254.77 86.0625C255.501 85.5787 256.339 85.2795 257.211 85.1906C258.084 85.1016 258.965 85.2256 259.778 85.5519L264.512 87.5355Z" fill="black"/>
    <path d="M94.439 340.361C92.6812 339.644 91.385 337.818 91.002 335.166L71.8137 201.114C71.3816 198.099 71.2343 195.398 72.3342 193.12L78.0494 195.546C77.9021 195.86 77.7646 196.184 77.6272 196.528C77.4897 196.871 77.4308 197.058 77.3424 197.323C77.3367 197.362 77.3367 197.402 77.3424 197.441C77.2344 197.745 77.146 198.06 77.0674 198.364C76.9889 198.668 76.9103 199.012 76.8612 199.346C76.814 199.589 76.7812 199.835 76.763 200.082C76.6157 201.121 76.6157 202.176 76.763 203.215L96.0298 337.975C96.4128 340.656 97.7385 342.502 99.5159 343.209L94.439 340.361Z" fill="#277FE5"/>
    <path opacity="0.3" d="M99.5158 343.209L99.231 343.091L94.4389 340.371C92.6811 339.654 91.3849 337.837 91.0019 335.176L71.8136 201.123C71.3717 198.099 71.2342 195.398 72.3243 193.12L77.2342 195.182C76.3839 197.307 76.1557 199.63 76.5763 201.88L76.7727 203.195L96.0297 337.995C96.0496 338.163 96.0791 338.33 96.1181 338.495C96.132 338.585 96.1517 338.673 96.177 338.76C96.196 338.884 96.2256 339.005 96.2654 339.124C96.2654 339.251 96.3243 339.369 96.3636 339.487L96.4814 339.831C96.5271 339.969 96.5829 340.104 96.6484 340.234C96.7073 340.371 96.7662 340.499 96.835 340.626C96.9037 340.754 96.9626 340.872 97.0314 340.99C97.2327 341.34 97.4696 341.669 97.7384 341.972L97.9937 342.237L98.2785 342.492C98.6518 342.793 99.0691 343.035 99.5158 343.209Z" fill="black"/>
    <path d="M259.69 88.1445L80.9659 191.127C77.0379 193.395 75.83 197.019 76.5174 201.929L96.0101 338.034C96.6975 342.865 100.439 344.908 104.357 342.679L281.49 240.413C285.418 238.155 288.03 232.4 287.382 227.579L268.086 92.7893C267.35 87.9579 263.608 85.8859 259.69 88.1445Z" fill="#277FE5"/>
    <path opacity="0.2" d="M259.69 88.1445L80.9659 191.127C77.0379 193.395 75.83 197.019 76.5174 201.929L96.0101 338.034C96.6975 342.865 100.439 344.908 104.357 342.679L281.49 240.413C285.418 238.155 288.03 232.4 287.382 227.579L268.086 92.7893C267.35 87.9579 263.608 85.8859 259.69 88.1445Z" fill="black"/>
    <path d="M271.081 239.608L112.979 330.836C110.946 332.014 109.051 330.934 108.649 328.43L89.9512 197.795C89.8018 196.515 90.0044 195.218 90.5374 194.045C91.0704 192.872 91.9135 191.866 92.9758 191.137L251.078 99.9088C253.111 98.7304 255.006 99.8106 255.399 102.315L274.106 232.97C274.256 234.247 274.053 235.541 273.52 236.711C272.987 237.881 272.143 238.883 271.081 239.608Z" fill="#263238"/>
    <path d="M89.9512 197.794L108.658 328.45L108.717 328.744L266.819 237.507C267.885 236.783 268.731 235.779 269.264 234.607C269.798 233.434 269.998 232.137 269.844 230.858L251.088 99.9087L92.9856 191.137C91.9215 191.865 91.0765 192.87 90.5417 194.043C90.007 195.216 89.8028 196.514 89.9512 197.794Z" fill="#277FE5"/>
    <path opacity="0.85" d="M89.9512 197.794L108.658 328.45L108.717 328.744L266.819 237.507C267.885 236.783 268.731 235.779 269.264 234.607C269.798 233.434 269.998 232.137 269.844 230.858L251.088 99.9087L92.9856 191.137C91.9215 191.865 91.0765 192.87 90.5417 194.043C90.007 195.216 89.8028 196.514 89.9512 197.794Z" fill="white"/>
    <path d="M95.4209 270.875C95.497 271.517 95.3954 272.169 95.127 272.757C94.8586 273.346 94.4338 273.85 93.8988 274.214C92.9168 274.803 91.9348 274.263 91.7188 273.006C91.6481 272.357 91.7574 271.702 92.0345 271.111C92.3117 270.52 92.746 270.017 93.29 269.657C94.272 269.068 95.254 269.608 95.4209 270.875Z" fill="#263238"/>
    <path d="M90.3442 249.065C89.928 249.349 89.5974 249.742 89.388 250.201C89.1786 250.659 89.0984 251.166 89.1559 251.667L90.8253 263.304C90.9628 264.286 91.719 264.698 92.5144 264.286C92.9305 264.001 93.2611 263.609 93.4705 263.15C93.6799 262.691 93.7602 262.184 93.7026 261.684L92.0332 250.047C91.8466 249.035 91.0905 248.613 90.3442 249.065Z" fill="#263238"/>
    <path d="M221.755 263.481L199.926 276.08L194.829 279.026L160.518 298.813C162.953 277.209 166.98 246.914 171.32 237.222L219.438 238.204L221.755 263.481Z" fill="#455A64"/>
    <path d="M213.556 250.017C210.345 260.829 200.525 266.122 200.525 266.122L199.926 276.129L194.829 279.075L196.263 264.03C196.263 264.03 208.783 258.934 213.556 250.017Z" fill="#37474F"/>
    <path d="M202.813 172.135C206.603 169.749 213.831 167.854 219.988 169.965C228.983 164.809 236.888 165.821 244.469 166.97C246.345 167.254 252.561 166.351 253.739 167.421C254.633 168.236 254.888 169.189 255.32 171.084L251.539 181.15C244.97 182.456 241.179 184.096 231.772 185.549C224.358 186.718 219.615 187.444 218.8 190.95C212.185 185.896 206.733 179.479 202.813 172.135Z" fill="#FFA8A7"/>
    <path d="M258.522 177.467C259.769 175.906 259.808 173.991 259.661 171.487C259.435 167.47 258.747 159.575 258.148 156.109C257.166 150.58 256.823 147.114 255.674 143.578C254.191 139.002 254.692 136.155 252.63 133.051C250.567 129.948 240.59 127.66 238.4 132.227C237.173 134.848 241.67 136.155 241.798 138.119C241.798 138.119 238.283 140.868 240.816 141.811C242.78 142.557 244.685 142.871 245.274 149.087C245.795 154.577 243.958 160.695 243.958 168.993C243.958 172.41 245.677 182.466 245.677 182.466C249.9 181.326 255.733 180.963 258.522 177.467Z" fill="#FFA8A7"/>
    <path d="M241.12 141.005C241.415 142.086 246.374 142.969 247.484 142.753C247.785 142.711 248.071 142.59 248.31 142.402C248.55 142.214 248.736 141.966 248.849 141.683L252.256 142.724L252.384 139.886L241.346 139.356C241.176 139.888 241.1 140.447 241.12 141.005Z" fill="#F28F8F"/>
    <path d="M251.54 170.868C251.54 170.868 250.862 167.274 244.067 164.839C244.067 165.497 243.958 166.263 243.958 166.871C246.814 167.455 249.445 168.841 251.54 170.868Z" fill="#F28F8F"/>
    <path d="M232.96 128.22C231.716 129.602 230.816 131.257 230.331 133.052C229.847 134.847 229.792 136.731 230.171 138.551C231.045 141.84 233.716 142.567 236.132 140.161C237.376 138.779 238.276 137.124 238.761 135.329C239.245 133.534 239.3 131.65 238.921 129.83C238.047 126.541 235.376 125.814 232.96 128.22Z" fill="#37474F"/>
    <path d="M255.88 137.078H255.831L235.68 131.461C235.422 131.401 235.152 131.415 234.902 131.502C234.652 131.589 234.431 131.745 234.266 131.952C233.792 132.477 233.448 133.106 233.26 133.788C233.073 134.47 233.047 135.186 233.186 135.88C233.231 136.14 233.346 136.382 233.519 136.581C233.692 136.781 233.917 136.928 234.168 137.009L254.338 142.665C254.594 142.718 254.86 142.699 255.106 142.61C255.352 142.522 255.569 142.368 255.733 142.164C256.205 141.638 256.547 141.009 256.733 140.327C256.919 139.645 256.943 138.929 256.803 138.236C256.766 137.979 256.661 137.735 256.499 137.532C256.337 137.328 256.123 137.171 255.88 137.078Z" fill="#263238"/>
    <path d="M253.415 141.546C253.749 142.812 254.77 143.087 255.703 142.164C256.175 141.638 256.518 141.009 256.704 140.327C256.89 139.645 256.914 138.929 256.774 138.236C256.76 137.974 256.663 137.722 256.498 137.518C256.333 137.314 256.107 137.167 255.854 137.098C255.6 137.029 255.331 137.043 255.085 137.136C254.84 137.229 254.63 137.398 254.486 137.618C254.013 138.144 253.671 138.773 253.485 139.455C253.299 140.137 253.275 140.853 253.415 141.546Z" fill="#455A64"/>
    <path d="M253.003 133.719C252.07 131.009 252.384 130.449 250.135 129.958C247.886 129.467 247.867 127.601 245.628 127.866C243.389 128.132 241.7 128.848 240.718 128.583C239.736 128.318 237.723 129.359 236.79 130.862C235.857 132.364 235.877 134.583 236.004 136.105C236.132 137.628 237.693 139.513 240.914 140.338C244.135 141.163 247.405 141.87 248.083 140.338C248.613 139.12 248.132 138.079 248.289 137.392C248.387 136.978 248.578 136.591 248.846 136.261C249.115 135.931 249.455 135.667 249.841 135.487L251.422 135.919L253.003 133.719Z" fill="#FFA8A7"/>
    <path d="M256.931 134.829C255.687 136.211 254.786 137.866 254.302 139.661C253.817 141.456 253.763 143.34 254.142 145.16C255.026 148.449 257.687 149.176 260.103 146.77C261.347 145.388 262.248 143.733 262.734 141.939C263.221 140.144 263.278 138.26 262.901 136.439C262.018 133.14 259.356 132.423 256.931 134.829Z" fill="#37474F"/>
    <path d="M245.108 148.037C244.607 146.407 241.464 144.345 239.52 143.294C238.752 142.948 238.07 142.438 237.52 141.8C236.971 141.162 236.567 140.412 236.338 139.601C236.26 139.309 236.251 139.003 236.31 138.707C236.37 138.411 236.497 138.132 236.682 137.893C237.138 137.507 237.639 137.177 238.175 136.911L240.296 135.791C241.101 135.359 241.867 134.809 242.643 134.318C242.829 134.192 243.03 134.089 243.242 134.014C243.351 133.98 243.466 133.97 243.579 133.983C243.692 133.997 243.802 134.034 243.9 134.092C244.666 134.633 244.567 136.115 244.253 136.862C243.884 137.571 243.388 138.207 242.79 138.737C242.248 139.188 241.829 139.769 241.572 140.426C241.454 141.045 242.23 141.516 242.692 141.723C243.541 142.12 244.43 142.426 245.343 142.636C246.531 142.872 244.754 146.888 245.108 148.037Z" fill="#FFA8A7"/>
    <path d="M217.022 187.248C215.677 179.529 208.911 172.744 199.091 171.703L185.883 171.477C185.883 171.477 182.475 172.047 176.583 173.284C170.691 174.521 167.647 177.3 167.127 181.994C166.783 185.146 166.911 186.904 167.971 192.158L169.267 201.163C169.267 201.163 173.824 213.693 174.177 218.495C174.71 224.877 173.724 231.294 171.3 237.222C188.682 244.862 204.885 247.278 218.348 237.575C220.371 225.86 220.744 208.322 217.022 187.248Z" fill="#FFA8A7"/>
    <path d="M220.577 199.169C218.986 180.688 202.813 172.135 202.813 172.135L191.854 169.886L176.397 173.323C176.397 173.323 180.256 192.512 169.307 201.153C169.307 201.153 170.122 204.57 171.998 211.621C173.873 218.672 175.268 228.109 169.552 239.314C169.552 239.314 174.364 244.067 192.62 245.353C210.875 246.639 219.477 238.204 219.477 238.204C219.477 238.204 222.129 217.7 220.577 199.169Z" fill="#277FE5"/>
    <path opacity="0.1" d="M189.202 245.058C190.184 243.487 191.166 241.376 191.166 240.001C191.068 237.585 182.122 236.544 180.472 235.592C178.822 234.639 179.412 226.842 178.803 220.557C178.194 214.273 174.266 203.863 172.322 198.855L172.754 197.53C171.799 198.902 170.648 200.126 169.336 201.163C169.336 201.163 170.151 204.58 172.027 211.631C173.903 218.682 175.297 228.119 169.582 239.323C169.552 239.323 173.814 243.467 189.202 245.058Z" fill="black"/>
    <path d="M176.397 173.333C176.397 173.333 168.865 171.369 163.896 174.315C159.811 176.731 157.592 179.647 155.677 185.48C152.452 188.015 149.559 190.945 147.065 194.2C142.547 200.377 139.209 207.585 136.685 211.543C135.31 213.683 133.483 215.736 133.955 218.819C134.141 220.017 134.937 220.705 136.321 222.03L150.168 218.171C154.233 213.732 163.258 207.369 168.826 200.171L169.307 201.153C171.68 199.673 173.665 197.647 175.095 195.243C176.525 192.839 177.359 190.128 177.526 187.336C178.184 175.935 176.397 173.333 176.397 173.333Z" fill="#FFA8A7"/>
    <path d="M134.789 220.439C136.321 222.001 138.806 225.585 143.627 229.709C147.29 232.852 155.333 237.565 158.357 239.304C162.521 241.7 164.102 242.878 167.313 244.793C169.739 246.227 175.091 248.996 180.187 249.025C183.133 249.025 186.835 247.15 189.114 242.711C190.282 240.443 186.61 238.989 181.67 238.194C175.503 237.212 174.305 235.876 172.783 235.071C171.801 234.521 171.801 233.844 172.184 232.744C172.462 231.962 172.669 231.157 172.803 230.338C172.567 230.171 171.379 230.338 170.014 231.418C168.364 232.744 166.979 233.068 163.061 229.052C159.006 224.888 157.356 220.793 152.053 216.286C146.75 211.778 134.789 220.439 134.789 220.439Z" fill="#FFA8A7"/>
    <path d="M172.194 197.186C172.292 195.693 172.272 194.976 172.272 194.976C171.217 196.759 170.067 198.483 168.826 200.141L169.307 201.123C170.381 200.48 171.371 199.705 172.253 198.816C172.175 198.276 172.155 197.729 172.194 197.186Z" fill="#F28F8F"/>
    <path d="M152.033 216.266C150.806 215.607 149.459 215.203 148.072 215.078C146.685 214.953 145.286 215.11 143.961 215.539C143.961 215.539 147.33 212.171 153.84 214.626L152.033 216.266Z" fill="#F28F8F"/>
    <path d="M181.209 131.893C180.204 132.175 179.29 132.711 178.552 133.448C177.814 134.186 177.278 135.101 176.996 136.105C176.259 138.531 176.682 143.117 178.204 149.127C179.159 153.092 180.6 156.925 182.495 160.538C183.084 161.56 184.044 162.316 185.176 162.649L184.96 155.52L184.665 150.541C184.665 150.541 187.837 146.161 188.161 142.587C188.584 137.991 187.602 136.115 187.602 136.115L181.209 131.893Z" fill="#37474F"/>
    <path d="M181.533 133.483L176.23 132.393C176.38 131.66 176.804 131.011 177.415 130.579C178.026 130.147 178.778 129.963 179.52 130.066C179.877 130.156 180.214 130.317 180.509 130.538C180.804 130.759 181.052 131.036 181.24 131.354C181.427 131.672 181.549 132.024 181.6 132.389C181.65 132.755 181.627 133.127 181.533 133.483Z" fill="#37474F"/>
    <path d="M181.67 132.118L177.742 128.455C178.238 127.891 178.936 127.544 179.685 127.489C180.435 127.434 181.175 127.675 181.749 128.161C182.007 128.424 182.21 128.736 182.346 129.078C182.483 129.421 182.549 129.787 182.542 130.156C182.534 130.525 182.453 130.888 182.304 131.225C182.154 131.562 181.939 131.866 181.67 132.118Z" fill="#37474F"/>
    <path d="M192.335 140.357C192.356 142.653 193.058 144.891 194.351 146.787C195.644 148.684 197.471 150.155 199.6 151.014C201.729 151.872 204.065 152.08 206.312 151.611C208.559 151.143 210.617 150.018 212.225 148.38C213.833 146.741 214.919 144.663 215.346 142.407C215.773 140.152 215.522 137.82 214.623 135.708C213.725 133.595 212.221 131.796 210.3 130.538C208.38 129.281 206.13 128.621 203.834 128.642C202.31 128.656 200.803 128.97 199.4 129.567C197.997 130.163 196.726 131.03 195.658 132.118C194.59 133.206 193.747 134.493 193.177 135.907C192.607 137.321 192.32 138.833 192.335 140.357Z" fill="#37474F"/>
    <path d="M184.852 149.745C183.654 150.796 182.662 148.105 181.651 147.064C180.639 146.023 177.33 144.619 175.759 148.046C174.187 151.473 177.251 156.491 179.785 157.473C180.373 157.737 181.022 157.838 181.663 157.765C182.304 157.693 182.913 157.449 183.428 157.061L183.526 172.194C185.264 175.582 192.119 179.961 199.935 178.616C203.284 178.046 201.723 173.961 199.935 171.673L199.867 166.095C201.855 166.391 203.87 166.477 205.876 166.351C209.156 165.811 210.845 163.326 211.768 159.771C213.31 154.056 213.89 144.472 211.631 133.414C207.948 130.596 195.222 131.146 187.552 136.076C188.23 145.925 186.04 148.704 184.852 149.745Z" fill="#FFA8A7"/>
    <path d="M213.458 125.598C213.418 125.501 213.354 125.416 213.271 125.352C213.188 125.289 213.09 125.248 212.986 125.235C212.819 125.252 212.661 125.321 212.535 125.431C211.61 126.168 210.624 126.825 209.589 127.395C209.838 126.097 209.838 124.764 209.589 123.467C209.441 122.662 209.196 120.786 208.194 120.6C207.605 120.482 207.084 120.983 206.643 121.395C202.665 125.166 197.422 123.467 192.6 123.654C188.564 123.801 183.703 125.48 181.906 129.408C181.081 131.215 180.924 133.1 182.603 134.318C184.079 135.29 185.759 135.909 187.513 136.125C195.566 137.47 207.153 140.711 213.045 133.179C213.905 132.056 214.337 130.663 214.263 129.251C214.264 128.009 213.982 126.783 213.438 125.667L213.458 125.598Z" fill="#37474F"/>
    <path d="M199.877 166.135C199.877 166.135 192.551 164.731 189.978 163.395C188.26 162.502 185.952 161.039 185.53 160.037C185.623 160.94 185.906 161.813 186.362 162.598C186.817 163.384 187.434 164.064 188.171 164.593C192.099 167.539 199.906 168.521 199.906 168.521L199.877 166.135Z" fill="#F28F8F"/>
    <path d="M197.873 146.966C197.884 147.361 197.738 147.743 197.467 148.03C197.197 148.317 196.824 148.485 196.43 148.498C196.032 148.491 195.653 148.326 195.376 148.042C195.098 147.757 194.944 147.374 194.947 146.976C194.947 146.586 195.102 146.211 195.378 145.935C195.654 145.658 196.029 145.503 196.42 145.503C196.81 145.503 197.185 145.658 197.461 145.935C197.738 146.211 197.893 146.586 197.893 146.976L197.873 146.966Z" fill="#263238"/>
    <path d="M197.058 142.498L193.798 143.981C193.609 143.534 193.6 143.032 193.772 142.578C193.943 142.125 194.284 141.755 194.721 141.546C194.936 141.45 195.169 141.398 195.405 141.394C195.641 141.39 195.875 141.434 196.093 141.523C196.311 141.612 196.509 141.745 196.675 141.912C196.841 142.08 196.971 142.279 197.058 142.498Z" fill="#263238"/>
    <path d="M198.069 156.364L203.961 158.505C203.836 158.894 203.634 159.255 203.368 159.565C203.102 159.875 202.776 160.129 202.41 160.312C202.044 160.495 201.646 160.603 201.238 160.63C200.83 160.657 200.42 160.602 200.033 160.469C199.237 160.174 198.587 159.58 198.22 158.814C197.854 158.048 197.8 157.169 198.069 156.364Z" fill="#B16668"/>
    <path d="M199.985 160.479C200.504 160.666 201.065 160.703 201.605 160.587C201.572 159.855 201.257 159.166 200.726 158.662C200.194 158.158 199.489 157.88 198.757 157.886C198.491 157.893 198.226 157.936 197.971 158.014C198.06 158.566 198.293 159.084 198.646 159.517C199 159.95 199.462 160.281 199.985 160.479Z" fill="#F28F8F"/>
    <path d="M211.209 143.47L207.811 142.243C207.882 142.018 207.997 141.81 208.15 141.632C208.303 141.453 208.491 141.307 208.702 141.202C208.913 141.098 209.143 141.037 209.378 141.023C209.613 141.01 209.848 141.044 210.07 141.123C210.523 141.296 210.892 141.635 211.104 142.071C211.316 142.507 211.353 143.008 211.209 143.47Z" fill="#263238"/>
    <path d="M210.453 146.534C210.443 146.82 210.35 147.097 210.184 147.331C210.018 147.565 209.788 147.745 209.521 147.848C209.254 147.952 208.962 147.975 208.682 147.915C208.402 147.855 208.146 147.714 207.946 147.509C207.745 147.305 207.609 147.046 207.554 146.765C207.499 146.484 207.528 146.193 207.637 145.928C207.746 145.663 207.931 145.436 208.168 145.275C208.405 145.114 208.684 145.026 208.97 145.022C209.367 145.027 209.745 145.189 210.023 145.472C210.301 145.755 210.455 146.137 210.453 146.534Z" fill="#263238"/>
    <path d="M202.42 144.904L203.323 154.184L208.233 152.515L202.42 144.904Z" fill="#F28F8F"/>
    <path d="M464.751 347.677L279.576 454.479L185.559 400.499L370.735 293.696L464.751 347.677Z" fill="#277FE5"/>
    <path opacity="0.7" d="M464.751 347.677L279.576 454.479L185.559 400.499L370.735 293.696L464.751 347.677Z" fill="white"/>
    <path d="M464.751 347.677V350.299L279.576 457.101V454.479L464.751 347.677Z" fill="#277FE5"/>
    <path opacity="0.5" d="M464.751 347.677V350.299L279.576 457.101V454.479L464.751 347.677Z" fill="white"/>
    <path d="M279.576 454.479L185.559 400.499V403.12L279.576 457.101V454.479Z" fill="#277FE5"/>
    <path opacity="0.4" d="M279.576 454.479L185.559 400.499V403.12L279.576 457.101V454.479Z" fill="white"/>
    <path opacity="0.1" d="M291.949 431.579L289.857 430.371C288.433 429.546 288.433 428.221 289.857 427.425L294.531 424.725L279.939 416.289L275.264 418.99C274.464 419.392 273.582 419.601 272.687 419.601C271.791 419.601 270.909 419.392 270.109 418.99L268.017 417.772C266.593 416.957 266.593 415.622 268.017 414.826L282.197 406.548C282.994 406.141 283.876 405.929 284.77 405.929C285.665 405.929 286.546 406.141 287.343 406.548L289.444 407.756C290.868 408.581 290.868 409.906 289.444 410.702L284.279 413.648L298.872 422.083L304.037 419.137C304.835 418.735 305.716 418.525 306.61 418.525C307.503 418.525 308.385 418.735 309.183 419.137L311.284 420.355C312.708 421.17 312.708 422.505 311.284 423.301L297.104 431.481C296.313 431.903 295.434 432.132 294.538 432.149C293.642 432.166 292.755 431.971 291.949 431.579Z" fill="black"/>
    <path d="M284.782 402.974C284.782 402.974 284.782 402.974 284.782 402.925C284.781 401.63 284.439 400.358 283.788 399.238C283.138 398.118 282.203 397.19 281.078 396.548C279.954 395.906 278.68 395.573 277.385 395.582C276.09 395.591 274.82 395.943 273.705 396.601H273.656L273.479 396.718C273.41 396.755 273.344 396.798 273.283 396.846C271.443 398.132 269.919 399.82 268.827 401.782C267.735 403.743 267.103 405.927 266.978 408.168V408.247C266.978 408.473 266.978 408.699 266.978 408.915C267.071 409.956 267.386 410.965 267.901 411.874C268.417 412.784 269.121 413.572 269.967 414.186C270.813 414.8 271.78 415.226 272.805 415.435C273.829 415.643 274.886 415.63 275.905 415.396C276.667 415.248 277.398 414.969 278.065 414.571C280.01 413.306 281.628 411.6 282.788 409.592C283.949 407.583 284.618 405.329 284.743 403.013C284.743 403.013 284.782 402.993 284.782 402.974Z" fill="#455A64"/>
    <path d="M278.073 399.193C276.128 400.458 274.51 402.164 273.35 404.172C272.189 406.181 271.52 408.435 271.395 410.751C271.395 415.013 274.39 416.741 278.073 414.61C280.017 413.345 281.636 411.639 282.796 409.631C283.956 407.622 284.626 405.368 284.75 403.052C284.78 398.79 281.755 397.062 278.073 399.193Z" fill="#37474F"/>
    <path d="M298.381 413.609H298.332L281.166 403.602C280.817 403.416 280.422 403.333 280.028 403.363C279.633 403.392 279.255 403.533 278.937 403.769C278.041 404.353 277.294 405.141 276.759 406.067C276.223 406.993 275.913 408.033 275.854 409.101C275.825 409.487 275.901 409.873 276.074 410.219C276.247 410.565 276.51 410.857 276.836 411.065L294.001 421.013C294.351 421.188 294.742 421.263 295.132 421.23C295.522 421.197 295.895 421.057 296.211 420.826C297.106 420.242 297.851 419.454 298.385 418.528C298.919 417.601 299.227 416.562 299.284 415.494C299.302 415.13 299.229 414.766 299.071 414.437C298.913 414.108 298.676 413.823 298.381 413.609Z" fill="#263238"/>
    <path d="M293.088 419.128C293.088 421.092 294.462 421.887 296.161 420.905C297.057 420.32 297.801 419.533 298.335 418.606C298.869 417.68 299.178 416.64 299.235 415.573C299.235 413.609 297.86 412.813 296.161 413.795C295.266 414.38 294.521 415.168 293.987 416.094C293.453 417.021 293.145 418.06 293.088 419.128Z" fill="#455A64"/>
    <path d="M306.993 415.818C306.994 414.853 306.805 413.897 306.436 413.004C306.068 412.112 305.527 411.301 304.845 410.618C304.163 409.935 303.352 409.393 302.461 409.023C301.569 408.654 300.613 408.463 299.647 408.463C298.341 408.45 297.055 408.789 295.926 409.445H295.876L295.7 409.553L295.493 409.681C293.656 410.969 292.135 412.657 291.044 414.618C289.954 416.58 289.323 418.763 289.199 421.003V421.092C289.199 421.308 289.199 421.534 289.199 421.76C289.293 422.801 289.609 423.81 290.125 424.72C290.642 425.629 291.347 426.417 292.194 427.031C293.04 427.645 294.009 428.071 295.033 428.279C296.058 428.488 297.116 428.475 298.135 428.241C298.899 428.097 299.63 427.817 300.295 427.416C302.24 426.151 303.858 424.445 305.019 422.437C306.179 420.428 306.849 418.174 306.973 415.858C306.973 415.858 306.993 415.848 306.993 415.818Z" fill="#455A64"/>
    <path d="M300.325 412.037C298.379 413.303 296.76 415.011 295.6 417.021C294.439 419.031 293.77 421.287 293.647 423.605C293.647 427.857 296.593 429.586 300.325 427.455C302.269 426.19 303.888 424.484 305.048 422.476C306.209 420.467 306.878 418.213 307.003 415.897C307.003 411.635 304.007 409.916 300.325 412.037Z" fill="#37474F"/>
    <path d="M168.727 380.859C168.225 379.048 167.544 377.291 166.695 375.615C166.606 375.419 166.508 375.232 166.42 375.036C165.607 373.466 165.194 371.719 165.218 369.951C165.242 368.183 165.702 366.449 166.557 364.901C166.626 364.793 166.685 364.685 166.744 364.577C167.797 362.765 168.34 360.702 168.315 358.607C168.249 357.46 167.904 356.346 167.31 355.362C166.716 354.378 165.891 353.554 164.907 352.96C164.399 352.668 163.871 352.412 163.326 352.194C162.822 351.997 162.388 351.653 162.082 351.207C161.775 350.76 161.61 350.232 161.608 349.69V346.646H151.719V349.739C151.711 350.281 151.541 350.808 151.231 351.252C150.921 351.696 150.486 352.038 149.981 352.234C149.431 352.442 148.899 352.695 148.39 352.99C147.402 353.574 146.571 354.392 145.97 355.371C145.369 356.35 145.017 357.461 144.943 358.607C144.898 360.701 145.424 362.769 146.465 364.587L146.632 364.892C147.48 366.448 147.931 368.19 147.947 369.962C147.962 371.735 147.541 373.484 146.721 375.055C146.623 375.242 146.524 375.428 146.436 375.625C145.568 377.294 144.874 379.048 144.364 380.859C144.008 382.61 143.847 384.395 143.883 386.181L143.824 400.577C143.824 402.443 145.042 404.319 147.497 405.743C149.699 406.952 152.139 407.665 154.645 407.834C155.835 407.933 157.03 407.933 158.22 407.834C160.713 407.682 163.142 406.988 165.339 405.802C167.814 404.397 169.051 402.532 169.061 400.666V390.257C169.061 388.96 169.12 387.605 169.12 386.25C169.19 384.444 169.059 382.636 168.727 380.859Z" fill="#455A64"/>
    <path d="M166.557 364.901C166.626 364.793 166.685 364.685 166.744 364.577C167.642 363.034 168.166 361.302 168.276 359.52C168.034 360.242 167.704 360.931 167.294 361.572C166.073 363.355 164.567 364.925 162.835 366.217C161.136 367.602 159.251 369.163 159.045 371.353C158.839 373.543 160.331 375.379 161.991 376.656C163.65 377.933 165.663 378.826 167.176 380.299C167.829 380.95 168.409 381.672 168.904 382.45C168.835 381.91 168.757 381.379 168.649 380.859C168.146 379.048 167.465 377.291 166.616 375.615C166.528 375.419 166.429 375.232 166.341 375.036C165.54 373.459 165.141 371.709 165.179 369.941C165.216 368.174 165.69 366.442 166.557 364.901Z" fill="#37474F"/>
    <path d="M150.059 350.014V351.674C150.112 352.267 150.322 352.835 150.667 353.32C151.012 353.805 151.48 354.19 152.023 354.433C153.497 355.179 155.125 355.567 156.776 355.567C158.428 355.567 160.056 355.179 161.529 354.433C162.111 354.122 162.617 353.686 163.012 353.157C163.322 352.735 163.494 352.227 163.503 351.703V350.014C163.507 349.862 163.49 349.71 163.454 349.563C163.321 349.064 163.082 348.599 162.753 348.201C162.424 347.803 162.014 347.48 161.549 347.255L161.451 347.206C159.99 346.475 158.38 346.094 156.747 346.094C155.114 346.094 153.503 346.475 152.043 347.206C151.571 347.421 151.15 347.736 150.811 348.13C150.472 348.523 150.222 348.985 150.079 349.484C150.049 349.659 150.042 349.838 150.059 350.014Z" fill="#277FE5"/>
    <path opacity="0.1" d="M150.059 350.014V351.674C150.112 352.267 150.322 352.835 150.667 353.32C151.012 353.805 151.48 354.19 152.023 354.433C153.497 355.179 155.125 355.567 156.776 355.567C158.428 355.567 160.056 355.179 161.529 354.433C162.111 354.122 162.617 353.686 163.012 353.157C163.322 352.735 163.494 352.227 163.503 351.703V350.014C163.507 349.862 163.49 349.71 163.454 349.563C163.321 349.064 163.082 348.599 162.753 348.201C162.424 347.803 162.014 347.48 161.549 347.255L161.451 347.206C159.99 346.475 158.38 346.094 156.747 346.094C155.114 346.094 153.503 346.475 152.043 347.206C151.571 347.421 151.15 347.736 150.811 348.13C150.472 348.523 150.222 348.985 150.079 349.484C150.049 349.659 150.042 349.838 150.059 350.014Z" fill="black"/>
    <path opacity="0.2" d="M161.519 352.784C164.141 351.281 164.151 348.855 161.519 347.294C160.047 346.546 158.418 346.156 156.767 346.156C155.115 346.156 153.486 346.546 152.014 347.294C149.382 348.797 149.372 351.222 152.014 352.774C153.486 353.523 155.114 353.914 156.765 353.916C158.417 353.918 160.046 353.53 161.519 352.784Z" fill="black"/>
    <path d="M150.06 348.07V349.052C150.057 349.211 150.073 349.369 150.109 349.523C150.245 350.02 150.486 350.481 150.814 350.877C151.143 351.273 151.552 351.595 152.014 351.821C153.307 352.521 154.747 352.908 156.217 352.951C158.052 353.083 159.888 352.702 161.52 351.851C162.105 351.54 162.615 351.105 163.012 350.574C163.226 350.281 163.376 349.947 163.454 349.592C163.49 349.441 163.507 349.286 163.503 349.131V348.1C163.451 347.508 163.241 346.941 162.896 346.457C162.551 345.974 162.082 345.591 161.539 345.35C161.421 345.281 161.304 345.212 161.176 345.154C159.738 344.492 158.169 344.163 156.587 344.19C155.004 344.217 153.448 344.6 152.033 345.311C151.489 345.553 151.018 345.937 150.671 346.422C150.324 346.907 150.113 347.476 150.06 348.07Z" fill="#277FE5"/>
    <path opacity="0.1" d="M150.06 348.07V349.052C150.057 349.211 150.073 349.369 150.109 349.523C150.245 350.02 150.486 350.481 150.814 350.877C151.143 351.273 151.552 351.595 152.014 351.821C153.307 352.521 154.747 352.908 156.217 352.951C158.052 353.083 159.888 352.702 161.52 351.851C162.105 351.54 162.615 351.105 163.012 350.574C163.226 350.281 163.376 349.947 163.454 349.592C163.49 349.441 163.507 349.286 163.503 349.131V348.1C163.451 347.508 163.241 346.941 162.896 346.457C162.551 345.974 162.082 345.591 161.539 345.35C161.421 345.281 161.304 345.212 161.176 345.154C159.738 344.492 158.169 344.163 156.587 344.19C155.004 344.217 153.448 344.6 152.033 345.311C151.489 345.553 151.018 345.937 150.671 346.422C150.324 346.907 150.113 347.476 150.06 348.07Z" fill="black"/>
    <path d="M150.059 348.041C150.059 350.172 153.055 351.91 156.767 351.969C160.478 352.028 163.493 350.26 163.503 348.129C163.513 345.998 160.508 344.26 156.796 344.201C153.084 344.142 150.069 345.91 150.059 348.041Z" fill="#277FE5"/>
    <path d="M154.469 344.073V347.559C154.464 347.612 154.464 347.664 154.469 347.716C154.518 347.889 154.602 348.049 154.717 348.186C154.833 348.323 154.975 348.434 155.137 348.512C155.582 348.758 156.081 348.893 156.59 348.905C157.226 348.956 157.864 348.823 158.426 348.522C158.629 348.417 158.804 348.266 158.937 348.08C159.015 347.979 159.069 347.861 159.094 347.736C159.099 347.684 159.099 347.631 159.094 347.579V344.093C159.08 343.883 159.009 343.682 158.89 343.509C158.771 343.336 158.607 343.199 158.417 343.111L158.299 343.052C157.8 342.822 157.256 342.707 156.707 342.715C156.158 342.724 155.618 342.856 155.127 343.101C154.941 343.19 154.781 343.327 154.666 343.498C154.55 343.669 154.482 343.867 154.469 344.073Z" fill="#277FE5"/>
    <path opacity="0.1" d="M154.469 344.073V347.559C154.464 347.612 154.464 347.664 154.469 347.716C154.518 347.889 154.602 348.049 154.717 348.186C154.833 348.323 154.975 348.434 155.137 348.512C155.582 348.758 156.081 348.893 156.59 348.905C157.226 348.956 157.864 348.823 158.426 348.522C158.629 348.417 158.804 348.266 158.937 348.08C159.015 347.979 159.069 347.861 159.094 347.736C159.099 347.684 159.099 347.631 159.094 347.579V344.093C159.08 343.883 159.009 343.682 158.89 343.509C158.771 343.336 158.607 343.199 158.417 343.111L158.299 343.052C157.8 342.822 157.256 342.707 156.707 342.715C156.158 342.724 155.618 342.856 155.127 343.101C154.941 343.19 154.781 343.327 154.666 343.498C154.55 343.669 154.482 343.867 154.469 344.073Z" fill="black"/>
    <path d="M154.469 344.063C154.469 344.8 155.51 345.409 156.796 345.409C158.083 345.409 159.124 344.82 159.124 344.083C159.124 343.347 158.142 342.738 156.806 342.738C155.47 342.738 154.469 343.327 154.469 344.063Z" fill="#277FE5"/>
    <path d="M155.971 344.073C155.971 344.328 156.335 344.544 156.796 344.544C157.258 344.544 157.621 344.338 157.621 344.073C157.621 343.808 157.258 343.602 156.796 343.602C156.335 343.602 155.971 343.808 155.971 344.073Z" fill="#277FE5"/>
    <path opacity="0.3" d="M155.971 344.073C155.971 344.328 156.335 344.544 156.796 344.544C157.258 344.544 157.621 344.338 157.621 344.073C157.621 343.808 157.258 343.602 156.796 343.602C156.335 343.602 155.971 343.808 155.971 344.073Z" fill="black"/>
    <path opacity="0.1" d="M397.347 333.232C396.679 335.854 396.993 338.652 396.237 341.245C395.147 344.957 392.004 347.716 388.636 349.611C375.252 357.134 358.302 353.539 343.68 358.243C339.153 359.706 334.4 362.584 333.517 367.258C332.878 370.616 334.499 374.132 337.013 376.44C339.624 378.66 342.686 380.289 345.988 381.212C359.019 385.513 373.081 385.071 386.653 382.98C401.059 380.751 414.64 372.522 419.687 368.682C427.543 362.741 433.278 353.117 431.893 343.395C430.627 334.557 422.358 328.017 414.286 325.032C407.893 322.665 399.085 326.446 397.347 333.232Z" fill="black"/>
    <path d="M409.062 149.824C412.558 147.614 419.245 145.896 424.931 147.86C434.751 144.472 439.661 145.091 447.517 145.081C449.275 145.081 455 144.521 456.08 145.513C456.905 146.259 457.15 147.143 457.543 148.891L454.047 158.2C447.979 159.398 444.483 160.881 435.782 162.256C428.908 163.346 424.548 164.004 423.792 167.254C417.694 162.562 412.671 156.619 409.062 149.824Z" fill="#B16668"/>
    <path d="M460.558 154.753C461.716 153.31 461.746 151.542 461.618 149.225C461.402 145.513 460.047 138.423 459.487 135.261C458.604 130.144 457.602 127.061 456.875 122.976C456.099 118.596 456.561 116.298 454.99 112.832C453.556 109.67 443.952 108.727 441.969 112.94C440.829 115.365 444.993 116.583 445.111 118.429C445.111 118.429 441.311 117.241 442.106 119.578C443.088 122.387 446.672 122.22 447.104 125.814C447.723 130.871 447.104 139.297 447.104 146.966C447.104 150.128 448.695 159.418 448.695 159.418C452.574 158.318 457.965 157.984 460.558 154.753Z" fill="#B16668"/>
    <path d="M454.44 122.976L455.903 118.341L442.97 115.876C443.952 116.75 445.033 117.536 445.091 118.478C445.091 118.478 441.291 117.29 442.087 119.627C442.308 120.242 442.679 120.793 443.167 121.228C444.427 121.963 445.74 122.603 447.095 123.143C449.442 123.86 451.229 123.634 452.113 122.259C452.152 122.171 454.44 122.976 454.44 122.976Z" fill="#9A4A4D"/>
    <path d="M447.085 144.973C449.779 145.024 452.358 146.074 454.322 147.919C454.322 147.919 453.831 144.275 447.095 143.087V144.894L447.085 144.973Z" fill="#9A4A4D"/>
    <path d="M442.41 110.681C442.164 109.756 441.677 108.912 440.999 108.235C440.322 107.558 439.477 107.072 438.552 106.825C437.626 106.579 436.652 106.582 435.727 106.833C434.803 107.084 433.962 107.575 433.288 108.256C433.249 108.289 433.213 108.325 433.18 108.364L433.062 108.491C431.993 109.763 431.226 111.261 430.818 112.871C430.41 114.482 430.371 116.163 430.705 117.791V117.84C430.705 118.007 430.803 118.164 430.852 118.311C431.321 119.583 432.246 120.634 433.449 121.259C434.651 121.883 436.043 122.037 437.353 121.689C437.74 121.579 438.115 121.431 438.473 121.248C438.987 121.002 439.455 120.67 439.857 120.266C441.008 118.989 441.841 117.46 442.29 115.802C442.738 114.143 442.79 112.403 442.44 110.721L442.41 110.681Z" fill="#455A64"/>
    <path d="M436.921 109.247C435.765 110.526 434.928 112.06 434.479 113.724C434.03 115.389 433.982 117.135 434.338 118.822C435.153 121.866 437.618 122.534 439.847 120.315C440.998 119.039 441.831 117.509 442.28 115.851C442.728 114.192 442.78 112.452 442.43 110.77C441.615 107.686 439.15 107.038 436.921 109.247Z" fill="#37474F"/>
    <path d="M458.103 117.428H458.054L439.396 112.243C439.158 112.187 438.909 112.2 438.677 112.28C438.446 112.36 438.243 112.504 438.09 112.694C437.648 113.184 437.328 113.771 437.157 114.408C436.987 115.044 436.97 115.713 437.108 116.357C437.143 116.596 437.243 116.82 437.397 117.005C437.552 117.19 437.754 117.33 437.982 117.408L456.64 122.593C456.876 122.64 457.12 122.622 457.347 122.541C457.574 122.459 457.774 122.318 457.926 122.131C458.368 121.64 458.688 121.051 458.858 120.413C459.029 119.775 459.046 119.105 458.908 118.459C458.874 118.232 458.781 118.018 458.64 117.838C458.499 117.657 458.314 117.516 458.103 117.428Z" fill="#263238"/>
    <path d="M455.825 121.552C455.834 121.796 455.922 122.03 456.073 122.22C456.225 122.411 456.433 122.549 456.668 122.613C456.903 122.678 457.153 122.666 457.381 122.579C457.609 122.493 457.803 122.336 457.936 122.131C458.378 121.64 458.697 121.051 458.868 120.413C459.039 119.775 459.056 119.105 458.918 118.459C458.604 117.29 457.661 117.035 456.807 117.889C456.365 118.378 456.045 118.966 455.874 119.602C455.704 120.239 455.687 120.907 455.825 121.552Z" fill="#455A64"/>
    <path d="M455.441 114.325C454.587 111.821 454.872 111.3 452.79 110.848C450.708 110.397 450.698 108.668 448.626 108.884C446.554 109.1 444.993 109.866 444.07 109.542C443.147 109.218 441.301 110.269 440.446 111.654C439.735 113.161 439.486 114.846 439.73 116.495C439.847 117.899 441.33 119.568 444.188 120.737C447.045 121.906 451.199 123.683 452.103 121.297L450.924 120.973C450.526 120.07 450.47 119.053 450.766 118.111C451.062 117.17 451.691 116.369 452.535 115.857L453.988 116.259L455.441 114.325Z" fill="#B16668"/>
    <path d="M464.564 116.779C464.191 115.386 463.281 114.198 462.032 113.477C460.784 112.755 459.3 112.558 457.906 112.93C456.97 113.177 456.119 113.672 455.442 114.364L455.343 114.482L455.216 114.609C454.146 115.88 453.378 117.378 452.972 118.989C452.565 120.6 452.53 122.282 452.869 123.909V123.968C452.918 124.125 452.967 124.282 453.026 124.439C453.494 125.711 454.42 126.762 455.622 127.386C456.825 128.011 458.217 128.165 459.527 127.817C459.914 127.713 460.289 127.569 460.646 127.385C461.162 127.137 461.633 126.805 462.041 126.403C463.186 125.125 464.014 123.594 464.456 121.935C464.897 120.277 464.941 118.537 464.584 116.858C464.585 116.83 464.579 116.803 464.564 116.779Z" fill="#455A64"/>
    <path d="M459.075 115.346C457.926 116.623 457.095 118.153 456.648 119.811C456.201 121.469 456.151 123.21 456.502 124.891C457.307 127.935 459.772 128.603 462.011 126.374C463.157 125.101 463.988 123.577 464.435 121.923C464.882 120.27 464.933 118.535 464.584 116.858C463.779 113.794 461.314 113.127 459.075 115.346Z" fill="#37474F"/>
    <path d="M343.336 367.562C343.012 367.671 342.963 369.527 343.258 370.165C343.553 370.803 345.625 373.111 349.798 373.926C353.972 374.741 359.716 373.926 362.181 373.779C364.646 373.631 372.404 374.574 374.869 374.908C378.738 375.428 381.743 374.584 383.166 373.18C383.401 372.899 383.574 372.572 383.674 372.22C383.774 371.868 383.798 371.499 383.746 371.137C383.677 369.497 383.53 369.173 383.333 369.173L343.336 367.562Z" fill="#37474F"/>
    <path d="M382.695 364.322C382.774 364.649 382.842 364.977 382.901 365.304C383.276 366.952 383.399 368.647 383.265 370.332C382.958 370.891 382.537 371.381 382.029 371.768C381.522 372.155 380.939 372.432 380.319 372.581C377.373 373.504 375.173 373.356 371.942 372.748C368.692 372.269 365.407 372.065 362.122 372.139C359.275 372.483 356.407 372.628 353.539 372.571C351.376 372.473 349.242 372.036 347.215 371.275C345.516 370.548 343.788 369.625 343.376 367.877C343.256 366.708 343.498 365.53 344.069 364.503C344.64 363.476 345.512 362.648 346.567 362.132C349.68 360.306 353.657 360.276 357.163 360.168C359.981 360.08 362.908 360.011 365.412 358.715C366.652 357.904 367.941 357.169 369.271 356.515C370.241 356.321 371.234 356.275 372.217 356.378C374.407 356.329 376.597 356.279 378.777 356.26C379.376 356.26 379.975 356.26 380.564 356.26C381.742 356.358 381.959 360.433 382.096 361.219C382.214 361.847 382.233 362.505 382.4 363.114C382.489 363.517 382.597 363.919 382.695 364.322Z" fill="#455A64"/>
    <path d="M363.34 359.51C361.934 360.637 360.999 362.248 360.718 364.027C360.777 365.265 358.607 365.373 358.548 364.135C358.548 364.135 358.744 361.337 360.443 360.001C361.331 359.533 362.346 359.361 363.34 359.51Z" fill="#FAFAFA"/>
    <path d="M358.312 360.129C358.312 360.129 356.633 361.013 356.201 364.057C356.201 364.97 354.237 364.891 354.305 363.978C354.305 363.978 354.6 361.347 356.034 360.158C356.633 359.775 358.116 359.766 358.312 360.129Z" fill="#FAFAFA"/>
    <path d="M402.708 330.266C401.972 333.153 402.06 334.4 402.914 336.659C404.132 339.909 406.292 341.402 407.746 342.669C409.391 344.127 410.832 345.802 412.027 347.647C413.212 349.668 414.722 351.48 416.495 353.009C417.88 354.158 421.71 354.188 423.546 353.373C425.383 352.557 425.982 351.85 425.815 348.904C425.648 345.958 416.672 345.124 416.672 345.124L402.708 330.266Z" fill="#37474F"/>
    <path d="M424.42 340.194C425.177 340.469 425.402 341.913 425.569 344.78C425.707 346.95 426.679 350.122 423.713 351.546C421.317 352.705 417.448 352.047 415.769 350.024C413.687 347.51 412.263 345.291 409.288 342.227C406.715 339.566 404.073 338.711 402.836 333.32C402.05 329.854 403.543 328.41 405.861 327.428C409.052 325.995 413.481 329.392 415.789 330.983C417.654 332.22 423.654 339.929 424.42 340.194Z" fill="#455A64"/>
    <path d="M415.788 330.826L415.356 330.688C413.895 330.803 412.491 331.301 411.284 332.132C410.077 332.963 409.11 334.098 408.482 335.422C408.06 336.404 409.415 337.101 410.191 336.345C410.865 335.058 411.845 333.956 413.043 333.134C414.241 332.313 415.622 331.797 417.065 331.631C416.699 331.279 416.264 331.005 415.788 330.826Z" fill="#FAFAFA"/>
    <path d="M417.919 332.436C416.535 332.609 415.217 333.129 414.087 333.948C412.957 334.767 412.053 335.858 411.458 337.12C411.045 338.102 412.391 338.8 413.167 338.044C413.735 336.918 414.546 335.933 415.541 335.159C416.536 334.385 417.691 333.841 418.921 333.566C418.607 333.163 418.253 332.77 417.919 332.436Z" fill="#FAFAFA"/>
    <path d="M423.704 276.659C423.203 266.092 424.352 247.582 424.234 234.58C427.583 223.14 425.216 218.318 422.27 212.672C420.102 208.36 417.634 204.206 414.885 200.24L408.011 229.199L396.983 240.924C396.983 240.924 403.553 274.989 405.173 282.335C406.548 288.58 414.011 340.675 414.011 340.675C414.708 344.073 422.614 344.505 424.489 342.099C425.019 330.541 427.131 297.664 427.16 293.981C427.268 283.189 423.704 276.659 423.704 276.659Z" fill="#B16668"/>
    <path d="M375.733 224.74C375.733 224.74 371.363 287.333 371.363 299.755C371.363 304.508 368.77 358.312 368.77 358.312C368.77 359.716 370.076 360.757 373.307 360.62C377.913 360.414 380.525 359.559 380.711 358.656C380.849 358.017 387.909 328.499 389.736 318.855C391.081 311.664 391.339 304.313 390.502 297.045C393.104 283.199 398.358 253.022 399.585 243.114C400.656 234.639 375.733 224.74 375.733 224.74Z" fill="#B16668"/>
    <path d="M377.274 202.174C375.045 215.657 374.643 219.85 373.003 237.133C371.726 250.587 370.94 289.474 370.882 294.904C370.823 300.335 369.792 333.88 369.792 333.88C369.792 333.88 379.936 337.7 386.387 334.862C386.387 334.862 389.245 323.176 390.482 317.873C392.22 310.43 392.181 305.186 391.337 296.809L398.702 251.048C398.702 251.048 404.594 283.925 406.342 293.274C408.09 302.623 409.788 311.706 409.788 311.706C412.545 312.709 415.469 313.172 418.401 313.071C421.377 312.952 424.238 311.889 426.571 310.037C426.571 310.037 427.435 297.644 427.464 293.451C427.514 286.763 426.924 283.434 424.086 276.472L425.019 234.551C425.019 234.551 428.073 227.097 426.001 219.821C423.369 210.717 415.347 197.028 415.347 197.028L377.274 202.174Z" fill="#37474F"/>
    <path d="M398.692 251.117L401.638 240.236C401.638 240.236 410.761 239.51 415.612 233.215C414.06 236.161 412.568 239.667 404.338 242.799L401.461 253.906L405.723 290.181L398.692 251.117Z" fill="#263238"/>
    <path d="M423.802 162.364C423.183 157.974 421.622 152.652 417.399 150.825C413.176 148.999 405.566 149.716 405.566 149.716C404.967 151.68 397.71 154.282 394.077 150.825C390.581 151.562 386.289 152.357 381.586 153.506C377.854 154.409 375.693 168.54 373.209 173.146C370.322 178.498 373.995 183.948 377.667 186.796C377.667 186.796 377.569 195.339 377.284 202.223C383.726 207.624 395.756 209.097 405.055 206.672C412.057 204.845 414.807 202.665 415.386 199.945C415.848 197.824 417.085 190.95 418.106 187.248C420.463 178.665 424.627 168.207 423.802 162.364Z" fill="#B16668"/>
    <path d="M417.399 150.825C413.166 149.009 405.556 149.716 405.556 149.716C404.957 151.68 397.7 154.282 394.066 150.825C390.571 151.562 386.279 152.357 381.575 153.506C377.844 154.41 373.778 163.424 371.697 172.636C370.361 178.528 373.749 183.752 377.412 186.56C377.412 186.56 377.52 189.055 377.559 192.236C384.836 195.742 394.577 197.441 406.116 195.241C409.991 194.512 413.718 193.141 417.143 191.186C417.379 190.479 417.625 189.359 419.206 184.803C420.787 180.246 424.626 168.207 423.801 162.364C423.183 157.974 421.621 152.652 417.399 150.825Z" fill="#277FE5"/>
    <path d="M381.576 153.506C375.909 153.123 369.664 154.842 367.15 165.977C365.186 168.796 362.103 172.144 359.294 176.436C356.152 181.346 354.384 185.549 351.438 190.92C348.58 196.636 349.857 198.354 352.675 200.976C355.258 203.382 371.029 213.742 371.972 214.94C372.914 216.138 371.972 227.853 373.67 229.523C373.67 229.591 373.67 229.611 373.67 229.523C373.67 229.159 373.995 227.647 374.427 225.762C375.354 222.772 376.675 219.919 378.355 217.277C379.769 214.901 381.065 212.2 380.652 209.421C380.427 207.879 378.227 206.799 376.724 205.346C372.747 201.546 365.206 194.131 365.206 194.131L383.382 173.706C386.525 169.64 388.322 157.218 381.576 153.506Z" fill="#B16668"/>
    <path opacity="0.1" d="M365.235 194.141C363.664 195.625 361.892 196.882 359.972 197.873C362.236 197.58 364.377 196.669 366.158 195.241L365.235 194.141Z" fill="black"/>
    <path d="M379.13 109.287V109.218C379.039 108.544 379.085 107.859 379.268 107.204C379.45 106.548 379.764 105.937 380.191 105.408C380.93 104.778 381.809 104.334 382.754 104.112C385.278 103.316 387.801 102.521 390.355 101.823C395.166 100.508 400.175 99.5354 405.144 100.164C410.113 100.792 415.023 103.208 417.674 107.441C418.2 108.16 418.556 108.989 418.715 109.866C418.764 110.455 418.528 110.986 418.558 111.585C418.646 113.421 419.54 115.208 419.775 117.025C420.007 118.98 420.102 120.949 420.06 122.917C420.06 131.067 400.901 135.536 401.029 141.123C397.847 136.901 394.669 132.671 391.494 128.436C391.494 127.925 390.148 126.59 389.854 126.148C389.284 125.313 388.783 124.419 388.263 123.555C386.653 120.855 383.932 119.431 382.057 116.995C380.332 114.776 379.313 112.091 379.13 109.287Z" fill="#263238"/>
    <path d="M382.774 123.516C382.774 123.516 379.297 128.22 379.7 128.75C380.442 129.282 381.274 129.678 382.155 129.919L382.774 123.516Z" fill="#9A4A4D"/>
    <path d="M393.418 108.589C390.178 110.062 384.58 112.802 382.616 124.223C380.652 135.948 383.137 140.161 384.708 141.781C385.769 142.871 391.445 143.499 394.459 142.763C398.22 141.781 406.45 138.226 410.486 132.314C415.248 125.342 416.584 115.846 411.615 111.879C404.672 106.262 396.168 107.342 393.418 108.589Z" fill="#B16668"/>
    <path d="M392.918 142.085L392.77 151.542C395.972 155.765 407.795 155.048 407.206 149.863L407.432 139.984L392.918 142.085Z" fill="#B16668"/>
    <path d="M385.042 141.997C386.348 142.793 390.06 143.274 392.898 142.979L392.967 140.848C391.732 141.319 390.457 141.674 389.157 141.909C387.798 142.152 386.41 142.182 385.042 141.997Z" fill="#9A4A4D"/>
    <path d="M392.044 108.177C390.681 108.613 389.403 109.277 388.263 110.141C387.692 110.577 387.22 111.129 386.878 111.761C386.604 112.353 386.485 113.006 386.535 113.657C386.586 114.543 386.87 115.399 387.358 116.141C387.845 116.882 388.52 117.482 389.314 117.879C388.864 118.445 388.544 119.101 388.374 119.804C388.205 120.506 388.19 121.236 388.332 121.945C388.849 123.599 389.79 125.088 391.062 126.265C391.127 126.343 391.207 126.407 391.297 126.452C391.389 126.468 391.483 126.464 391.573 126.44C391.662 126.416 391.746 126.373 391.818 126.315C393.87 125.067 395.206 122.828 397.985 123.869C401.618 125.244 401.667 128.838 399.34 131.922C398.951 132.537 398.43 133.057 397.816 133.446C397.201 133.835 396.507 134.082 395.785 134.171C395.374 134.223 394.956 134.181 394.563 134.048C394.17 133.916 393.812 133.696 393.517 133.405C393.517 133.405 393.821 140.279 398.898 142.842C398.898 142.842 404.103 144.698 407.432 142.734C409.504 139.218 412.95 136.969 415.288 133.896C421.474 125.735 426.865 111.977 413.972 107.126C413.53 106.959 413.078 106.802 412.626 106.665C406.351 104.746 399.601 105.094 393.556 107.647C393.055 107.804 392.545 108.02 392.044 108.177Z" fill="#263238"/>
    <path d="M433.062 147.958C431.195 147.959 429.346 147.593 427.621 146.879C425.896 146.166 424.328 145.119 423.008 143.799C421.687 142.48 420.64 140.913 419.925 139.188C419.21 137.464 418.843 135.615 418.843 133.748V110.553C422.612 110.553 426.227 112.05 428.894 114.715C431.56 117.379 433.059 120.994 433.062 124.763V147.958Z" fill="#263238"/>
    <path d="M390.649 130.41C390.312 130.277 390.005 130.078 389.745 129.825C389.485 129.572 389.279 129.27 389.137 128.937C388.995 128.603 388.921 128.244 388.92 127.882C388.918 127.519 388.989 127.16 389.127 126.825C389.418 126.149 389.962 125.613 390.644 125.334C391.325 125.055 392.089 125.054 392.771 125.333L390.649 130.41Z" fill="#263238"/>
    <path d="M417.733 110.092C417.978 110.297 418.261 110.452 418.567 110.546C418.872 110.641 419.193 110.673 419.511 110.642C419.83 110.611 420.138 110.517 420.42 110.365C420.701 110.213 420.949 110.007 421.15 109.758C421.555 109.249 421.743 108.6 421.673 107.953C421.603 107.306 421.281 106.713 420.777 106.302L417.733 110.092Z" fill="#263238"/>
    <path d="M127.405 109.189L123.241 101.333L126.59 91.6503V85.7583L116.328 91.6503V97.5423L120.737 105.182C120.805 105.303 120.912 105.397 121.041 105.447L127.405 109.189Z" fill="#277FE5"/>
    <path opacity="0.2" d="M127.405 109.189L123.241 101.333L126.59 91.6503V85.7583L116.328 91.6503V97.5423L120.737 105.182C120.805 105.303 120.912 105.397 121.041 105.447L127.405 109.189Z" fill="black"/>
    <path d="M147.094 62.4847C147.036 61.4182 146.728 60.3804 146.194 59.4555C145.66 58.5307 144.915 57.7449 144.02 57.1622L141.516 55.7089C140.56 55.2302 139.506 54.981 138.437 54.981C137.368 54.981 136.314 55.2302 135.359 55.7089L62.5434 97.9349C61.6481 98.5197 60.9033 99.3072 60.3693 100.234C59.8353 101.16 59.5271 102.199 59.4697 103.267V124.38C59.5278 125.446 59.8364 126.484 60.3704 127.409C60.9045 128.333 61.6489 129.119 62.5434 129.703L65.0475 131.146C66.0015 131.63 67.0563 131.882 68.1261 131.882C69.1958 131.882 70.2506 131.63 71.2046 131.146L122.75 101.333L127.159 108.963C127.223 109.071 127.316 109.159 127.428 109.215C127.54 109.272 127.666 109.296 127.791 109.283C127.916 109.271 128.034 109.223 128.133 109.145C128.232 109.068 128.306 108.963 128.347 108.845L133.002 95.421L144 88.9299C144.896 88.3451 145.64 87.5576 146.174 86.6311C146.708 85.7047 147.017 84.6655 147.074 83.5977L147.094 62.4847Z" fill="#277FE5"/>
    <path opacity="0.2" d="M59.4697 124.351C59.5278 125.417 59.8364 126.455 60.3704 127.379C60.9045 128.304 61.6489 129.09 62.5434 129.673L65.0475 131.117C65.9142 131.554 66.8637 131.803 67.8336 131.847C68.8034 131.891 69.7716 131.729 70.6743 131.372C69.2308 131.912 68.131 131.097 68.131 129.339V108.236C68.1683 107.165 68.4757 106.122 69.0246 105.202L60.3732 100.164C59.8168 101.081 59.5057 102.126 59.4697 103.198V124.351Z" fill="black"/>
    <path opacity="0.4" d="M146.995 61.6106C146.632 60.3045 145.444 59.8921 144.049 60.7071L71.2341 102.933C70.3225 103.496 69.5743 104.289 69.0639 105.231L60.4125 100.242C60.9194 99.3008 61.6643 98.5086 62.5729 97.9446L135.388 55.7186C136.342 55.2346 137.397 54.9824 138.467 54.9824C139.537 54.9824 140.591 55.2346 141.545 55.7186L144.049 57.1621C144.815 57.6665 145.471 58.3206 145.977 59.0851C146.484 59.8496 146.83 60.7087 146.995 61.6106Z" fill="white"/>
    <path d="M71.6858 113.323C71.6099 113.2 71.5819 113.053 71.6073 112.91C71.6285 112.734 71.6853 112.563 71.7742 112.41L74.9362 106.851C75.0148 106.714 75.1032 106.547 75.221 106.37C75.3149 106.202 75.4501 106.06 75.6138 105.958L77.4011 104.927C77.4394 104.89 77.4904 104.87 77.5435 104.87C77.5965 104.87 77.6475 104.89 77.6858 104.927C77.7298 104.976 77.7629 105.033 77.7832 105.096C77.8035 105.158 77.8105 105.225 77.8037 105.29V119.912C77.8021 120.086 77.7618 120.257 77.6858 120.413C77.6287 120.552 77.529 120.668 77.4011 120.747L75.4371 121.866C75.3984 121.898 75.3498 121.916 75.2996 121.916C75.2494 121.916 75.2008 121.898 75.1621 121.866C75.1192 121.817 75.0866 121.759 75.0664 121.696C75.0462 121.634 75.0386 121.568 75.0443 121.503V111.604L73.2865 114.658C73.2299 114.787 73.1288 114.892 73.0017 114.953C72.9545 114.974 72.901 114.977 72.8519 114.96C72.8028 114.944 72.7616 114.91 72.7366 114.865L71.6858 113.323Z" fill="#FAFAFA"/>
    <path d="M79.6104 116.171C79.6379 115.927 79.7008 115.689 79.797 115.464C79.8802 115.237 80.0399 115.046 80.2487 114.924L82.0555 113.912C82.0873 113.886 82.1272 113.871 82.1685 113.871C82.2097 113.871 82.2497 113.886 82.2814 113.912C82.318 113.951 82.3457 113.998 82.3626 114.049C82.3795 114.1 82.3853 114.153 82.3796 114.207C82.385 114.262 82.385 114.318 82.3796 114.374L81.2405 119.539C81.1921 119.742 81.123 119.939 81.0343 120.128C80.9525 120.34 80.7998 120.517 80.6022 120.629L79.5024 121.267C79.4716 121.296 79.4313 121.311 79.3894 121.311C79.3476 121.311 79.3073 121.296 79.2765 121.267C79.2399 121.228 79.2122 121.182 79.1953 121.131C79.1784 121.08 79.1726 121.026 79.1783 120.973L79.6104 116.171Z" fill="#FAFAFA"/>
    <path d="M91.8661 101.647C91.866 102.087 91.8365 102.526 91.7777 102.963C91.7117 103.425 91.6099 103.881 91.4733 104.328C91.3232 104.829 91.1362 105.318 90.9135 105.791C90.6627 106.346 90.3807 106.887 90.069 107.411L88.0068 110.966L91.6991 108.835C91.7375 108.798 91.7885 108.778 91.8415 108.778C91.8945 108.778 91.9455 108.798 91.9839 108.835C92.0278 108.884 92.061 108.942 92.0813 109.004C92.1016 109.067 92.1085 109.133 92.1017 109.198V111.594C92.1002 111.768 92.0599 111.939 91.9839 112.095C91.9242 112.235 91.8253 112.354 91.6991 112.439L83.9413 116.917C83.9019 116.951 83.8513 116.97 83.7989 116.97C83.7465 116.97 83.6959 116.951 83.6565 116.917C83.6136 116.867 83.5811 116.809 83.5608 116.747C83.5406 116.685 83.533 116.619 83.5387 116.553V114.589C83.5393 114.328 83.5723 114.067 83.6369 113.814C83.7002 113.528 83.8132 113.255 83.9708 113.008L88.38 105.683C88.6643 105.232 88.8826 104.742 89.0281 104.229C89.1104 103.908 89.1566 103.579 89.1656 103.247C89.1656 103.139 89.1656 103.002 89.1656 102.825C89.1413 102.659 89.0846 102.498 88.9986 102.354C88.9135 102.22 88.7796 102.125 88.6255 102.089C88.3921 102.067 88.1587 102.13 87.9675 102.265C87.7017 102.411 87.4731 102.616 87.2998 102.864C87.1382 103.087 87.0031 103.328 86.8971 103.581C86.8146 103.799 86.7458 104.022 86.6909 104.249L86.6025 104.73C86.5701 104.93 86.4892 105.119 86.3668 105.28C86.2707 105.404 86.1504 105.508 86.0133 105.585L84.1966 106.635C84.1649 106.662 84.1249 106.676 84.0837 106.676C84.0424 106.676 84.0025 106.662 83.9708 106.635C83.9035 106.553 83.8717 106.447 83.8824 106.341C83.8989 105.652 83.9878 104.968 84.1475 104.298C84.2967 103.551 84.5306 102.822 84.8447 102.128C85.1812 101.424 85.6034 100.764 86.1017 100.164C86.6028 99.5602 87.2081 99.0514 87.889 98.6614C88.4022 98.3275 88.9957 98.1376 89.6075 98.1115C90.0632 98.1047 90.5048 98.2695 90.8448 98.5731C91.2077 98.9162 91.4722 99.3502 91.6107 99.83C91.7843 100.42 91.8703 101.032 91.8661 101.647Z" fill="#FAFAFA"/>
    <path d="M93.6236 108.079C93.6511 107.835 93.7139 107.597 93.8101 107.372C93.8968 107.147 94.0557 106.957 94.2619 106.832L96.0687 105.781C96.1005 105.755 96.1404 105.74 96.1817 105.74C96.2229 105.74 96.2629 105.755 96.2946 105.781C96.3312 105.82 96.3589 105.867 96.3758 105.918C96.3927 105.968 96.3985 106.022 96.3928 106.076C96.3982 106.131 96.3982 106.187 96.3928 106.243L95.2537 111.428C95.2053 111.63 95.1362 111.828 95.0475 112.017C94.9657 112.229 94.813 112.406 94.6154 112.518L93.5155 113.156C93.4847 113.184 93.4444 113.2 93.4026 113.2C93.3608 113.2 93.3205 113.184 93.2897 113.156C93.2531 113.117 93.2254 113.07 93.2085 113.019C93.1915 112.968 93.1857 112.915 93.1915 112.861L93.6236 108.079Z" fill="#FAFAFA"/>
    <path d="M105.349 88.7729C105.385 88.737 105.435 88.7168 105.486 88.7168C105.538 88.7168 105.587 88.737 105.624 88.7729C105.667 88.8204 105.7 88.8764 105.72 88.9373C105.74 88.9982 105.748 89.0626 105.742 89.1265V91.5324C105.741 91.7072 105.708 91.8805 105.643 92.043C105.575 92.2198 105.506 92.3671 105.447 92.4947L103.67 96.2852C103.993 96.2023 104.332 96.1992 104.657 96.2761C104.982 96.3531 105.283 96.5079 105.535 96.7271C105.813 97.062 106.021 97.4493 106.145 97.866C106.27 98.2827 106.31 98.7203 106.262 99.1527C106.308 100.706 105.925 102.243 105.156 103.594C104.387 104.945 103.261 106.058 101.902 106.812C101.333 107.167 100.698 107.404 100.036 107.509C99.5623 107.58 99.0784 107.501 98.6515 107.284C98.2677 107.058 97.9679 106.713 97.7972 106.302C97.5856 105.843 97.4783 105.343 97.4829 104.838C97.4836 104.699 97.5137 104.562 97.5713 104.436C97.6202 104.322 97.7024 104.226 97.807 104.161L99.6532 103.09C99.8561 102.973 100.013 102.953 100.125 103.032L100.488 103.287C100.641 103.385 100.817 103.442 100.998 103.454C101.323 103.441 101.636 103.336 101.902 103.149C102.37 102.894 102.781 102.547 103.11 102.128C103.414 101.716 103.576 101.216 103.571 100.704C103.571 100.184 103.414 99.8793 103.11 99.8204C102.692 99.7829 102.275 99.8942 101.931 100.135L100.714 100.842C100.675 100.874 100.626 100.891 100.576 100.891C100.526 100.891 100.477 100.874 100.439 100.842C100.396 100.792 100.363 100.734 100.343 100.672C100.323 100.61 100.315 100.544 100.321 100.478V98.5144C100.322 98.3396 100.355 98.1665 100.419 98.0037C100.488 97.827 100.557 97.6698 100.625 97.5225L102.128 94.2721L98.2882 96.4915C98.2495 96.5234 98.2009 96.5408 98.1507 96.5408C98.1005 96.5408 98.0519 96.5234 98.0132 96.4915C97.9703 96.4418 97.9378 96.3841 97.9175 96.3217C97.8973 96.2593 97.8898 96.1935 97.8954 96.1281V93.6633C97.8971 93.4928 97.9374 93.325 98.0132 93.1723C98.0671 93.0321 98.1632 92.912 98.2882 92.8286L105.349 88.7729Z" fill="#FAFAFA"/>
    <path d="M110.377 101.146C110.375 101.32 110.335 101.491 110.259 101.647C110.202 101.788 110.102 101.908 109.974 101.991L108.01 103.1C107.973 103.136 107.924 103.156 107.872 103.156C107.821 103.156 107.772 103.136 107.735 103.1C107.691 103.051 107.658 102.994 107.638 102.931C107.617 102.868 107.61 102.802 107.617 102.737V99.7909C107.619 99.6204 107.659 99.4526 107.735 99.2999C107.789 99.1597 107.885 99.0396 108.01 98.9562L109.974 97.8465C110.013 97.812 110.064 97.793 110.116 97.793C110.169 97.793 110.219 97.812 110.259 97.8465C110.302 97.8961 110.334 97.9539 110.354 98.0163C110.375 98.0787 110.382 98.1445 110.377 98.2099V101.146Z" fill="#FAFAFA"/>
    <path d="M114.599 98.6614C114.598 98.835 114.557 99.0061 114.481 99.1622C114.424 99.3035 114.325 99.4236 114.197 99.5059L112.233 100.616C112.195 100.649 112.146 100.668 112.095 100.668C112.044 100.668 111.995 100.649 111.958 100.616C111.915 100.566 111.882 100.508 111.862 100.446C111.842 100.383 111.834 100.318 111.84 100.252V97.3062C111.841 97.1326 111.882 96.9615 111.958 96.8054C112.014 96.6691 112.11 96.5528 112.233 96.4716L114.197 95.3521C114.238 95.321 114.288 95.3042 114.339 95.3042C114.39 95.3042 114.44 95.321 114.481 95.3521C114.524 95.4017 114.557 95.4594 114.577 95.5218C114.597 95.5842 114.605 95.6501 114.599 95.7154V98.6614Z" fill="#FAFAFA"/>
    <path d="M118.822 96.2362C118.82 96.4098 118.78 96.5809 118.704 96.737C118.647 96.8757 118.552 96.9951 118.429 97.0807L116.465 98.1903C116.426 98.2249 116.375 98.2439 116.323 98.2439C116.27 98.2439 116.22 98.2249 116.18 98.1903C116.137 98.1407 116.105 98.083 116.085 98.0206C116.064 97.9582 116.057 97.8924 116.062 97.827V94.881C116.064 94.7074 116.104 94.5363 116.18 94.3802C116.24 94.2432 116.339 94.127 116.465 94.0463L118.429 92.9268C118.468 92.8949 118.516 92.8774 118.567 92.8774C118.617 92.8774 118.665 92.8949 118.704 92.9268C118.747 92.9764 118.78 93.0342 118.8 93.0966C118.82 93.159 118.828 93.2248 118.822 93.2902V96.2362Z" fill="#FAFAFA"/>
    <path d="M124.655 81.0151C124.337 81.1988 124.051 81.4345 123.81 81.7123C123.588 81.9881 123.403 82.2918 123.26 82.6157C123.122 82.9311 123.016 83.2603 122.946 83.5977C122.877 83.9548 122.828 84.3154 122.799 84.6779C122.799 84.8841 122.799 85.1591 122.799 85.5126V86.5928C122.799 86.9562 122.799 87.3195 122.799 87.673C122.799 88.0265 122.799 88.2917 122.799 88.4783C122.816 88.7863 122.862 89.092 122.936 89.3915C122.996 89.6287 123.106 89.8499 123.26 90.0396C123.331 90.119 123.417 90.1828 123.513 90.2268C123.61 90.2708 123.714 90.294 123.82 90.295C124.119 90.2908 124.409 90.1986 124.655 90.0298C124.917 89.8791 125.158 89.6942 125.372 89.4799C125.605 89.2548 125.803 88.9967 125.961 88.7139C126.133 88.4046 126.265 88.0746 126.354 87.7319C126.455 87.3274 126.505 86.9116 126.501 86.4946L125.274 87.2115C125.233 87.2425 125.183 87.2594 125.131 87.2594C125.08 87.2594 125.03 87.2425 124.989 87.2115C124.946 87.1619 124.913 87.1041 124.893 87.0417C124.873 86.9793 124.865 86.9135 124.871 86.8481V84.4521C124.871 84.2814 124.912 84.1132 124.989 83.9611C125.046 83.8198 125.145 83.6997 125.274 83.6174L128.828 81.5552C128.866 81.5213 128.915 81.5026 128.966 81.5026C129.017 81.5026 129.066 81.5213 129.103 81.5552C129.147 81.6023 129.18 81.6582 129.2 81.7192C129.221 81.7802 129.228 81.8448 129.221 81.9087V84.8056C129.224 85.753 129.105 86.6969 128.868 87.6141C128.646 88.4928 128.316 89.3406 127.886 90.1378C127.492 90.8879 127.003 91.5842 126.432 92.2099C125.912 92.7867 125.306 93.2802 124.635 93.673C124.07 94.0344 123.42 94.241 122.75 94.2721C122.233 94.2758 121.731 94.0947 121.336 93.7614C120.905 93.379 120.591 92.8817 120.432 92.3277C120.206 91.6294 120.083 90.9014 120.069 90.1673C120.069 89.5715 120.069 88.9169 120.069 88.2033C120.069 87.4963 120.069 86.8089 120.069 86.1509C120.092 85.2829 120.21 84.4201 120.422 83.5781C120.635 82.7234 120.938 81.8939 121.326 81.1034C121.707 80.3349 122.186 79.6186 122.75 78.9725C123.292 78.3461 123.932 77.8121 124.645 77.3915C125.201 77.0405 125.835 76.8346 126.491 76.7925C126.985 76.7706 127.474 76.8971 127.896 77.1558C128.282 77.4193 128.591 77.7823 128.789 78.2065C129.005 78.6478 129.125 79.1297 129.143 79.6206C129.15 79.7603 129.12 79.8995 129.054 80.0232C129.002 80.1374 128.921 80.2357 128.819 80.308L126.855 81.4373C126.707 81.5159 126.589 81.5159 126.511 81.4373L126.265 81.1722C126.127 80.977 125.931 80.8295 125.706 80.7499C125.522 80.7218 125.334 80.7307 125.153 80.7762C124.973 80.8218 124.804 80.903 124.655 81.0151Z" fill="#FAFAFA"/>
    <path d="M138.383 78.796C138.383 79.0121 138.383 79.3067 138.383 79.6602C138.383 80.0137 138.383 80.3083 138.383 80.5342C138.361 81.2872 138.252 82.0351 138.059 82.7633C137.867 83.5002 137.597 84.2146 137.254 84.8942C136.918 85.5543 136.502 86.171 136.017 86.7306C135.549 87.2639 134.999 87.7183 134.387 88.0759C133.899 88.3844 133.342 88.5667 132.766 88.6062C132.315 88.6272 131.872 88.4842 131.519 88.2036C131.148 87.884 130.869 87.4701 130.714 87.0055C130.505 86.4123 130.395 85.7884 130.39 85.1594C130.39 84.9335 130.39 84.6487 130.39 84.2952C130.39 83.9417 130.39 83.6471 130.39 83.4114C130.401 82.662 130.503 81.9167 130.694 81.1921C130.889 80.4548 131.163 79.7405 131.509 79.0612C131.852 78.3943 132.274 77.7711 132.766 77.2052C133.225 76.6642 133.773 76.2058 134.387 75.85C134.875 75.5379 135.437 75.3585 136.017 75.3296C136.467 75.3198 136.908 75.4655 137.264 75.742C137.638 76.0588 137.917 76.4737 138.069 76.94C138.276 77.5371 138.382 78.1642 138.383 78.796ZM133.031 83.4703C133.018 83.6746 133.047 83.8793 133.116 84.0719C133.186 84.2645 133.294 84.4408 133.434 84.5898C133.582 84.6883 133.758 84.7359 133.935 84.7252C134.112 84.7146 134.281 84.6464 134.416 84.5309C134.839 84.2887 135.181 83.9264 135.398 83.49C135.644 82.998 135.781 82.4588 135.801 81.909C135.801 81.6733 135.801 81.4081 135.801 81.1234C135.801 80.8386 135.801 80.5833 135.801 80.377C135.814 80.1728 135.785 79.968 135.716 79.7755C135.646 79.5829 135.538 79.4066 135.398 79.2576C135.25 79.1591 135.074 79.1115 134.897 79.1222C134.72 79.1328 134.551 79.201 134.416 79.3165C133.995 79.5614 133.654 79.923 133.434 80.3574C133.191 80.8504 133.053 81.389 133.031 81.9384C133.031 82.1741 133.031 82.4392 133.031 82.724C133.031 83.0088 133.012 83.3034 133.031 83.4703Z" fill="#FAFAFA"/>
    <path d="M142.459 77.7058C142.457 77.8794 142.417 78.0505 142.341 78.2066C142.287 78.3469 142.191 78.4669 142.066 78.5503L140.21 79.6207C140.172 79.6545 140.123 79.6732 140.072 79.6732C140.022 79.6732 139.973 79.6545 139.935 79.6207C139.892 79.5711 139.859 79.5134 139.839 79.451C139.819 79.3886 139.811 79.3227 139.817 79.2574V69.4766C139.819 69.3062 139.859 69.1383 139.935 68.9856C139.989 68.8454 140.085 68.7253 140.21 68.6419L142.066 67.5716C142.104 67.5377 142.153 67.519 142.203 67.519C142.254 67.519 142.303 67.5377 142.341 67.5716C142.384 67.6212 142.416 67.6789 142.437 67.7413C142.457 67.8037 142.464 67.8695 142.459 67.9349V77.7058ZM142.459 82.6158C142.457 82.7894 142.417 82.9605 142.341 83.1166C142.284 83.2553 142.189 83.3747 142.066 83.4603L140.21 84.4521C140.171 84.4841 140.123 84.5015 140.072 84.5015C140.022 84.5015 139.974 84.4841 139.935 84.4521C139.892 84.4025 139.859 84.3448 139.839 84.2824C139.819 84.22 139.811 84.1542 139.817 84.0888V81.8204C139.819 81.6468 139.859 81.4757 139.935 81.3196C139.992 81.1809 140.087 81.0615 140.21 80.9759L142.066 79.9055C142.105 79.8736 142.153 79.8561 142.203 79.8561C142.254 79.8561 142.302 79.8736 142.341 79.9055C142.384 79.9551 142.416 80.0128 142.437 80.0752C142.457 80.1376 142.464 80.2035 142.459 80.2688V82.6158Z" fill="#FAFAFA"/>
    <path d="M401.078 85.8856L396.905 78.0296L400.263 68.3471V62.4551L390.001 68.3471V74.2391L394.41 81.879C394.481 81.9971 394.588 82.0899 394.715 82.1442L401.078 85.8856Z" fill="#277FE5"/>
    <path opacity="0.2" d="M401.078 85.8856L396.905 78.0296L400.263 68.3471V62.4551L390.001 68.3471V74.2391L394.41 81.879C394.481 81.9971 394.588 82.0899 394.715 82.1442L401.078 85.8856Z" fill="black"/>
    <path d="M427.651 35.2929C427.594 34.2252 427.286 33.1859 426.752 32.2595C426.217 31.333 425.473 30.5455 424.577 29.9607L422.073 28.4779C421.119 27.9939 420.065 27.7417 418.995 27.7417C417.925 27.7417 416.87 27.9939 415.916 28.4779L363.978 58.4092C363.083 58.9926 362.337 59.7782 361.802 60.7028C361.266 61.6273 360.955 62.6649 360.895 63.7317V84.8447C360.954 85.9131 361.264 86.9527 361.8 87.879C362.335 88.8054 363.082 89.5926 363.978 90.1769L366.482 91.6205C367.435 92.1043 368.488 92.3565 369.556 92.3565C370.624 92.3565 371.677 92.1043 372.63 91.6205L396.443 78.0296L400.842 85.6597C400.906 85.7679 401 85.8555 401.111 85.9124C401.223 85.9692 401.349 85.9928 401.474 85.9804C401.599 85.968 401.718 85.9201 401.817 85.8424C401.915 85.7647 401.989 85.6605 402.031 85.5419L406.685 72.118L424.577 61.7382C425.473 61.1534 426.217 60.3658 426.752 59.4394C427.286 58.513 427.594 57.4737 427.651 56.4059V35.2929Z" fill="#277FE5"/>
    <path opacity="0.2" d="M360.895 84.8445C360.954 85.913 361.264 86.9525 361.8 87.8789C362.335 88.8053 363.082 89.5925 363.978 90.1768L366.482 91.6204C367.35 92.0563 368.3 92.3035 369.269 92.3458C370.239 92.3882 371.207 92.2246 372.109 91.8659C370.656 92.4158 369.556 91.6007 369.556 89.8429V68.7397C369.592 67.6707 369.903 66.629 370.459 65.7152L361.798 60.7168C361.247 61.6326 360.936 62.6731 360.895 63.7414V84.8445Z" fill="black"/>
    <path opacity="0.4" d="M427.553 34.419C427.19 33.113 426.001 32.7005 424.607 33.5156L372.659 63.4077C371.75 63.9735 371.002 64.7651 370.489 65.7055L361.838 60.7072C362.353 59.7688 363.1 58.9779 364.008 58.4093L415.916 28.4779C416.872 27.9992 417.926 27.75 418.995 27.75C420.064 27.75 421.118 27.9992 422.073 28.4779L424.577 29.9313C425.353 30.4371 426.017 31.0961 426.529 31.8679C427.04 32.6396 427.389 33.5077 427.553 34.419Z" fill="white"/>
    <path d="M373.572 73.6501C373.495 73.531 373.467 73.3868 373.494 73.2475C373.515 73.071 373.572 72.9006 373.661 72.7466L376.823 67.1787C376.901 67.0511 376.99 66.8841 377.107 66.6975C377.202 66.5318 377.337 66.3932 377.5 66.2949L379.287 65.3129C379.326 65.2763 379.377 65.2559 379.43 65.2559C379.483 65.2559 379.534 65.2763 379.572 65.3129C379.615 65.3604 379.648 65.4164 379.668 65.4772C379.689 65.5381 379.696 65.6026 379.69 65.6664V80.2982C379.69 80.4688 379.649 80.637 379.572 80.7892C379.515 80.9305 379.416 81.0506 379.287 81.1329L377.323 82.2524C377.285 82.2843 377.236 82.3018 377.186 82.3018C377.136 82.3018 377.087 82.2843 377.048 82.2524C377.006 82.2028 376.973 82.1451 376.953 82.0826C376.933 82.0202 376.925 81.9544 376.931 81.889V71.9316L375.173 74.9856C375.11 75.1105 375.011 75.2132 374.888 75.2802C374.841 75.3014 374.787 75.3041 374.738 75.2878C374.689 75.2714 374.648 75.2371 374.623 75.1918L373.572 73.6501Z" fill="#FAFAFA"/>
    <path d="M381.536 76.4878C381.565 76.2477 381.628 76.013 381.723 75.7906C381.809 75.5627 381.968 75.3694 382.175 75.2407L383.962 74.1998C383.993 74.1715 384.033 74.1558 384.075 74.1558C384.117 74.1558 384.157 74.1715 384.188 74.1998C384.224 74.2389 384.252 74.2855 384.269 74.3364C384.286 74.3872 384.292 74.4411 384.286 74.4944C384.291 74.5499 384.291 74.6058 384.286 74.6613L383.147 79.8266C383.098 80.0296 383.029 80.227 382.941 80.4158C382.859 80.6277 382.706 80.8047 382.508 80.9166L381.409 81.5549C381.377 81.5813 381.337 81.5957 381.296 81.5957C381.254 81.5957 381.214 81.5813 381.183 81.5549C381.146 81.5158 381.118 81.4692 381.102 81.4183C381.085 81.3675 381.079 81.3136 381.085 81.2603L381.536 76.4878Z" fill="#FAFAFA"/>
    <path d="M393.782 61.9737C393.781 62.4138 393.752 62.8534 393.694 63.2896C393.626 63.7516 393.525 64.2079 393.389 64.6546C393.237 65.155 393.05 65.6439 392.829 66.1178C392.579 66.6733 392.297 67.2143 391.985 67.7381L389.923 71.3322L393.615 69.2012C393.653 69.1646 393.704 69.1442 393.757 69.1442C393.81 69.1442 393.861 69.1646 393.9 69.2012C393.943 69.2487 393.976 69.3047 393.996 69.3656C394.016 69.4265 394.024 69.4909 394.018 69.5548V71.9803C394.016 72.1539 393.976 72.325 393.9 72.4811C393.84 72.6181 393.741 72.7343 393.615 72.815L385.857 77.3027C385.818 77.3373 385.767 77.3563 385.715 77.3563C385.662 77.3563 385.612 77.3373 385.572 77.3027C385.529 77.2531 385.497 77.1954 385.477 77.133C385.456 77.0706 385.449 77.0048 385.454 76.9394V74.9754C385.456 74.7105 385.489 74.4468 385.553 74.1898C385.618 73.9076 385.731 73.6386 385.887 73.3944L390.276 66.0097C390.561 65.5588 390.779 65.0693 390.924 64.5564C391.006 64.2351 391.052 63.9058 391.062 63.5744C391.062 63.4664 391.062 63.3289 391.062 63.1521C391.039 62.9852 390.982 62.8248 390.895 62.6808C390.81 62.5472 390.676 62.4521 390.522 62.4156C390.289 62.3826 390.053 62.4425 389.864 62.5826C389.6 62.7347 389.372 62.9424 389.196 63.1914C389.032 63.4126 388.897 63.6535 388.793 63.9083C388.709 64.1259 388.641 64.349 388.587 64.576L388.499 65.0474C388.468 65.2506 388.387 65.443 388.263 65.6071C388.164 65.7288 388.044 65.8319 387.909 65.9115L386.093 66.9525C386.062 66.9808 386.022 66.9965 385.98 66.9965C385.938 66.9965 385.898 66.9808 385.867 66.9525C385.8 66.8698 385.768 66.7639 385.779 66.6579C385.794 65.9695 385.883 65.2848 386.044 64.6153C386.213 63.872 386.467 63.1505 386.8 62.4647C387.136 61.7608 387.558 61.1011 388.057 60.5007C388.557 59.8712 389.166 59.3359 389.854 58.9197C390.367 58.5879 390.961 58.4013 391.572 58.3796C392.028 58.3728 392.47 58.5375 392.81 58.8411C393.173 59.1843 393.437 59.6183 393.576 60.0981C393.738 60.7094 393.808 61.3417 393.782 61.9737Z" fill="#FAFAFA"/>
    <path d="M395.549 68.4058C395.577 68.1624 395.64 67.9242 395.736 67.6988C395.822 67.4709 395.981 67.2776 396.188 67.1489L397.995 66.108C398.025 66.0797 398.066 66.064 398.108 66.064C398.149 66.064 398.19 66.0797 398.22 66.108C398.257 66.1471 398.285 66.1937 398.302 66.2446C398.319 66.2954 398.324 66.3493 398.319 66.4026C398.324 66.4581 398.324 66.514 398.319 66.5695L397.18 71.7348C397.131 71.9378 397.062 72.1352 396.973 72.324C396.892 72.5359 396.739 72.7129 396.541 72.8248L395.441 73.4631C395.41 73.4895 395.37 73.5039 395.328 73.5039C395.287 73.5039 395.247 73.4895 395.215 73.4631C395.179 73.424 395.151 73.3774 395.134 73.3265C395.117 73.2757 395.112 73.2218 395.117 73.1685L395.549 68.4058Z" fill="#FAFAFA"/>
    <path d="M407.274 49.0997C407.313 49.0678 407.362 49.0503 407.412 49.0503C407.462 49.0503 407.511 49.0678 407.549 49.0997C407.592 49.1493 407.625 49.207 407.645 49.2694C407.665 49.3318 407.673 49.3977 407.667 49.463V51.8689C407.667 52.0438 407.634 52.2171 407.569 52.3796C407.5 52.5563 407.432 52.7036 407.373 52.8313L405.566 56.6218C405.89 56.5427 406.229 56.5424 406.554 56.621C406.878 56.6996 407.179 56.8547 407.432 57.0735C407.71 57.4078 407.918 57.795 408.043 58.2119C408.168 58.6288 408.207 59.0666 408.158 59.4991C408.191 61.081 407.794 62.6421 407.009 64.0163C406.234 65.3252 405.126 66.4059 403.798 67.1488C403.231 67.5097 402.596 67.7504 401.932 67.8559C401.459 67.9217 400.976 67.8429 400.548 67.63C400.164 67.4041 399.864 67.0594 399.693 66.648C399.482 66.1895 399.375 65.6898 399.379 65.1848C399.38 65.0459 399.41 64.9087 399.468 64.7822C399.519 64.6681 399.601 64.5698 399.703 64.4974L401.549 63.4369C401.756 63.3092 401.913 63.2994 402.021 63.378L402.384 63.6333C402.538 63.7311 402.713 63.7885 402.895 63.8002C403.219 63.7876 403.533 63.6819 403.798 63.4958C404.257 63.2353 404.655 62.8806 404.967 62.4549C405.277 62.0456 405.443 61.5447 405.438 61.031C405.438 60.5007 405.281 60.2061 404.967 60.1472C404.552 60.1059 404.136 60.2176 403.798 60.4614L402.58 61.1586C402.544 61.1946 402.494 61.2148 402.443 61.2148C402.392 61.2148 402.342 61.1946 402.306 61.1586C402.262 61.1111 402.23 61.0552 402.209 60.9943C402.189 60.9334 402.182 60.869 402.188 60.8051V58.9197C402.188 58.7448 402.221 58.5715 402.286 58.409C402.355 58.2323 402.423 58.0752 402.492 57.9279L404.054 54.6087L400.214 56.8182C400.177 56.8542 400.128 56.8743 400.076 56.8743C400.025 56.8743 399.976 56.8542 399.939 56.8182C399.896 56.7707 399.863 56.7147 399.843 56.6539C399.822 56.593 399.815 56.5286 399.821 56.4647V54.0097C399.823 53.8361 399.863 53.665 399.939 53.5089C399.995 53.3726 400.091 53.2562 400.214 53.175L407.274 49.0997Z" fill="#FAFAFA"/>
    <path d="M412.302 61.4241C412.301 61.5977 412.261 61.7688 412.185 61.9249C412.125 62.0646 412.026 62.184 411.9 62.2686L409.936 63.3783C409.898 63.4121 409.849 63.4308 409.798 63.4308C409.748 63.4308 409.699 63.4121 409.661 63.3783C409.618 63.3287 409.585 63.271 409.565 63.2086C409.545 63.1462 409.537 63.0803 409.543 63.015V60.069C409.545 59.8953 409.585 59.7242 409.661 59.5681C409.717 59.4318 409.813 59.3155 409.936 59.2343L411.9 58.1148C411.941 58.0837 411.991 58.0669 412.042 58.0669C412.094 58.0669 412.144 58.0837 412.185 58.1148C412.227 58.1644 412.26 58.2221 412.28 58.2845C412.3 58.3469 412.308 58.4127 412.302 58.4781V61.4241Z" fill="#FAFAFA"/>
    <path d="M416.525 58.9886C416.523 59.1622 416.483 59.3333 416.407 59.4894C416.348 59.6291 416.249 59.7485 416.122 59.8331L414.158 60.9427C414.121 60.9766 414.072 60.9953 414.021 60.9953C413.97 60.9953 413.921 60.9766 413.883 60.9427C413.841 60.8931 413.808 60.8354 413.788 60.773C413.768 60.7106 413.76 60.6448 413.766 60.5794V57.6334C413.767 57.4598 413.807 57.2887 413.883 57.1326C413.94 56.9939 414.035 56.8745 414.158 56.7889L416.122 55.6792C416.163 55.6482 416.213 55.6313 416.265 55.6313C416.316 55.6313 416.366 55.6482 416.407 55.6792C416.45 55.7288 416.483 55.7866 416.503 55.849C416.523 55.9114 416.531 55.9772 416.525 56.0426V58.9886Z" fill="#FAFAFA"/>
    <path d="M420.738 56.5531C420.736 56.7267 420.696 56.8978 420.62 57.0539C420.563 57.1926 420.468 57.312 420.345 57.3976L418.381 58.5072C418.341 58.5418 418.291 58.5608 418.238 58.5608C418.186 58.5608 418.135 58.5418 418.096 58.5072C418.053 58.4576 418.021 58.3999 418 58.3375C417.98 58.2751 417.973 58.2093 417.978 58.1439V55.1979C417.98 55.0243 418.02 54.8532 418.096 54.6971C418.156 54.5574 418.255 54.438 418.381 54.3534L420.345 53.2437C420.384 53.2118 420.432 53.1943 420.482 53.1943C420.533 53.1943 420.581 53.2118 420.62 53.2437C420.663 53.2933 420.695 53.3511 420.716 53.4135C420.736 53.4759 420.743 53.5417 420.738 53.6071V56.5531Z" fill="#FAFAFA"/>
</svg>
