<svg width="331" height="331" viewBox="0 0 331 331" fill="none" xmlns="http://www.w3.org/2000/svg">
<path d="M164.871 316.966C245.781 316.966 311.372 282.905 311.372 240.889C311.372 198.872 245.781 164.812 164.871 164.812C83.961 164.812 18.3705 198.872 18.3705 240.889C18.3705 282.905 83.961 316.966 164.871 316.966Z" fill="#F5F5F5"/>
<path d="M269.096 269.732C285.944 269.732 299.601 262.364 299.601 253.274C299.601 244.185 285.944 236.817 269.096 236.817C252.249 236.817 238.591 244.185 238.591 253.274C238.591 262.364 252.249 269.732 269.096 269.732Z" fill="#EBEBEB"/>
<g opacity="0.8">
<path opacity="0.8" d="M48.7167 271.486C47.7162 271.513 46.7252 271.286 45.837 270.824L36.0063 265.144C35.6337 264.999 35.3137 264.745 35.0881 264.415C34.8625 264.084 34.7418 263.694 34.7418 263.294C34.7418 262.894 34.8625 262.504 35.0881 262.173C35.3137 261.843 35.6337 261.589 36.0063 261.444L96.7117 226.404C97.5994 225.944 98.5848 225.704 99.5848 225.704C100.585 225.704 101.57 225.944 102.458 226.404L112.295 232.077C112.67 232.222 112.992 232.476 113.219 232.807C113.447 233.138 113.568 233.53 113.568 233.931C113.568 234.332 113.447 234.724 113.219 235.055C112.992 235.386 112.67 235.64 112.295 235.785L51.5898 270.791C50.7067 271.263 49.7179 271.502 48.7167 271.486ZM99.5848 226.404C98.7 226.386 97.8251 226.593 97.0427 227.006L36.3373 262.02C36.0791 262.129 35.8544 262.305 35.6858 262.53C35.5173 262.754 35.4109 263.019 35.3774 263.297C35.4122 263.575 35.5191 263.84 35.6875 264.064C35.8558 264.288 36.0798 264.464 36.3373 264.575L46.168 270.248C46.957 270.648 47.829 270.856 48.7134 270.856C49.5978 270.856 50.4698 270.648 51.2588 270.248L111.964 235.242C112.245 235.166 112.492 234.999 112.669 234.768C112.845 234.537 112.941 234.255 112.941 233.964C112.941 233.673 112.845 233.391 112.669 233.16C112.492 232.929 112.245 232.763 111.964 232.686L102.127 227.006C101.345 226.592 100.47 226.385 99.5848 226.404Z" fill="#277FE5"/>
</g>
<path d="M119.921 274.465C118.919 274.48 117.93 274.239 117.048 273.764L81.6246 253.314C81.5867 253.293 81.5535 253.265 81.5269 253.23C81.5003 253.196 81.4809 253.157 81.4698 253.115C81.4587 253.073 81.4561 253.029 81.4622 252.986C81.4684 252.943 81.4831 252.901 81.5054 252.864C81.5498 252.789 81.6213 252.734 81.7052 252.711C81.7891 252.687 81.8788 252.697 81.9556 252.738L117.379 273.194C118.169 273.592 119.04 273.8 119.925 273.8C120.809 273.8 121.681 273.592 122.47 273.194L236.533 207.339C236.79 207.229 237.014 207.053 237.182 206.828C237.349 206.604 237.454 206.339 237.486 206.061C237.452 205.783 237.347 205.519 237.179 205.295C237.012 205.071 236.789 204.894 236.533 204.783L206.637 187.525C206.57 187.477 206.524 187.406 206.507 187.325C206.491 187.245 206.504 187.162 206.545 187.091C206.586 187.02 206.652 186.967 206.73 186.942C206.808 186.917 206.893 186.922 206.968 186.956L236.864 204.214C237.236 204.359 237.556 204.613 237.782 204.944C238.007 205.274 238.128 205.664 238.128 206.064C238.128 206.464 238.007 206.855 237.782 207.185C237.556 207.515 237.236 207.769 236.864 207.914L122.801 273.764C121.917 274.239 120.925 274.481 119.921 274.465Z" fill="#277FE5"/>
<path d="M198.733 185.512C199.52 185.914 200.391 186.123 201.275 186.123C202.158 186.123 203.029 185.914 203.817 185.512C205.22 184.704 205.22 183.387 203.817 182.579C203.028 182.181 202.158 181.974 201.275 181.974C200.392 181.974 199.521 182.181 198.733 182.579C197.329 183.374 197.329 184.698 198.733 185.512Z" fill="#455A64"/>
<path d="M201.248 188.451C199.45 188.486 197.673 188.062 196.084 187.22C194.641 186.386 193.847 185.234 193.847 184.049C193.847 182.864 194.641 181.706 196.084 180.878C198.931 179.23 203.565 179.236 206.412 180.878C207.848 181.706 208.643 182.864 208.643 184.049C208.643 185.234 207.848 186.386 206.412 187.22C204.823 188.062 203.046 188.486 201.248 188.451ZM196.415 186.644C197.913 187.405 199.569 187.801 201.248 187.801C202.928 187.801 204.583 187.405 206.081 186.644C207.305 185.936 207.981 185.016 207.981 184.049C207.981 183.083 207.319 182.156 206.081 181.447C204.582 180.69 202.927 180.295 201.248 180.295C199.569 180.295 197.914 180.69 196.415 181.447C195.184 182.156 194.509 183.083 194.509 184.049C194.509 185.016 195.171 185.936 196.415 186.644Z" fill="#455A64"/>
<path d="M79.248 254.493C80.0352 254.894 80.9064 255.104 81.7901 255.104C82.6738 255.104 83.545 254.894 84.3322 254.493C85.7356 253.685 85.7356 252.368 84.3322 251.56C83.545 251.158 82.6738 250.949 81.7901 250.949C80.9064 250.949 80.0352 251.158 79.248 251.56C77.8446 252.368 77.8446 253.685 79.248 254.493Z" fill="#455A64"/>
<path d="M201.248 184.38C201.16 184.38 201.076 184.345 201.014 184.283C200.952 184.221 200.917 184.137 200.917 184.049V74.0512C200.917 73.9634 200.952 73.8792 201.014 73.8172C201.076 73.7551 201.16 73.7202 201.248 73.7202C201.335 73.7219 201.418 73.7573 201.48 73.819C201.542 73.8807 201.577 73.964 201.579 74.0512V184.036C201.58 184.08 201.572 184.124 201.556 184.166C201.54 184.207 201.516 184.245 201.485 184.277C201.454 184.309 201.417 184.334 201.377 184.352C201.336 184.37 201.292 184.379 201.248 184.38Z" fill="#277FE5"/>
<path d="M234.56 41.2418L225.954 36.2835C224.802 35.5155 223.266 35.5222 221.565 36.5019L220.949 36.8594C221.12 35.6532 221.206 34.4366 221.207 33.2184C221.222 31.5991 221.033 29.9845 220.645 28.4123L225.08 27.3332L216.567 22.4146C214.23 21.0906 211.178 21.1899 207.842 23.1163C204.505 25.0427 201.294 28.6109 198.931 32.8013C198.904 30.6573 198.57 28.5282 197.938 26.4792L201.811 24.9964L193.582 20.2631C190.57 18.2771 186.538 18.3102 182.096 20.8721C172.782 26.2674 165.222 40.699 165.222 53.1314C165.216 54.5078 165.32 55.8825 165.533 57.2424L164.368 57.9044C158.41 61.3269 153.63 70.4824 153.63 78.4264C153.63 82.789 155.1 85.9004 157.41 87.2442L166.016 92.2158L167.44 84.9338L179.978 77.6916L221.578 53.6874C225.113 51.6551 227.973 46.2135 228.019 41.4934L233.024 44.1811L234.56 41.2418Z" fill="#277FE5"/>
<path opacity="0.1" d="M234.56 41.2418L225.954 36.2835C224.802 35.5155 223.266 35.5222 221.565 36.5019L220.949 36.8594C221.12 35.6532 221.206 34.4366 221.207 33.2184C221.222 31.5991 221.033 29.9845 220.645 28.4123L225.08 27.3332L216.567 22.4146C214.23 21.0906 211.178 21.1899 207.842 23.1163C204.505 25.0427 201.294 28.6109 198.931 32.8013C198.904 30.6573 198.57 28.5282 197.938 26.4792L201.811 24.9964L193.582 20.2631C190.57 18.2771 186.538 18.3102 182.096 20.8721C172.782 26.2674 165.222 40.699 165.222 53.1314C165.216 54.5078 165.32 55.8825 165.533 57.2424L164.368 57.9044C158.41 61.3269 153.63 70.4824 153.63 78.4264C153.63 82.789 155.1 85.9004 157.41 87.2442L166.016 92.2158L167.44 84.9338L179.978 77.6916L221.578 53.6874C225.113 51.6551 227.973 46.2135 228.019 41.4934L233.024 44.1811L234.56 41.2418Z" fill="white"/>
<path d="M216.593 22.4155C214.256 21.0915 211.204 21.1908 207.868 23.1172C206.243 24.0842 204.761 25.2741 203.466 26.6523L214.448 33.0339L220.982 30.0682C220.896 29.4922 220.79 28.9362 220.658 28.4132L225.08 27.3341L216.593 22.4155Z" fill="#277FE5"/>
<path d="M198.322 27.8504C198.209 27.3804 198.084 26.9236 197.938 26.4867L201.248 25.2355L201.632 24.8847L193.615 20.2507C190.603 18.2647 186.572 18.2978 182.129 20.8597C177.899 23.3025 174.04 27.6121 171.074 32.7757L184.42 40.4748L198.322 27.8504Z" fill="#277FE5"/>
<path d="M165.533 57.2432L161.998 59.6396C158.778 62.6539 156.373 66.4344 155.007 70.6288L165.056 76.4279L174.106 62.228L165.533 57.2432Z" fill="#277FE5"/>
<path opacity="0.4" d="M216.593 22.4155C214.256 21.0915 211.204 21.1908 207.868 23.1172C206.243 24.0842 204.761 25.2741 203.466 26.6523L214.448 33.0339L220.982 30.0682C220.896 29.4922 220.79 28.9362 220.658 28.4132L225.08 27.3341L216.593 22.4155Z" fill="white"/>
<path opacity="0.4" d="M198.322 27.8504C198.209 27.3804 198.084 26.9236 197.938 26.4867L201.248 25.2355L201.632 24.8847L193.615 20.2507C190.603 18.2647 186.572 18.2978 182.129 20.8597C177.899 23.3025 174.04 27.6121 171.074 32.7757L184.42 40.4748L198.322 27.8504Z" fill="white"/>
<path opacity="0.4" d="M165.533 57.2432L161.998 59.6396C158.778 62.6539 156.373 66.4344 155.007 70.6288L165.056 76.4279L174.106 62.228L165.533 57.2432Z" fill="white"/>
<path d="M230.171 41.4743L229.555 41.8317C229.726 40.6233 229.812 39.4045 229.813 38.1841C229.813 28.3534 223.855 23.832 216.454 28.0886C213.032 30.0746 209.914 33.5832 207.55 37.7671C207.219 25.9239 199.798 20.5882 190.689 25.8511C181.388 31.2265 173.815 45.678 173.815 58.0905C173.801 59.4752 173.899 60.8588 174.106 62.228L172.941 62.89C166.983 66.3125 162.203 75.468 162.203 83.4119C162.203 91.3229 167.009 95.1293 172.941 91.7002L188.557 82.6904L230.171 58.6532C233.732 56.601 236.612 51.0865 236.612 46.3466C236.612 41.6 233.732 39.4221 230.171 41.4743Z" fill="#277FE5"/>
<path opacity="0.6" d="M230.171 41.4743L229.555 41.8317C229.726 40.6233 229.812 39.4045 229.813 38.1841C229.813 28.3534 223.855 23.832 216.454 28.0886C213.032 30.0746 209.914 33.5832 207.55 37.7671C207.219 25.9239 199.798 20.5882 190.689 25.8511C181.388 31.2265 173.815 45.678 173.815 58.0905C173.801 59.4752 173.899 60.8588 174.106 62.228L172.941 62.89C166.983 66.3125 162.203 75.468 162.203 83.4119C162.203 91.3229 167.009 95.1293 172.941 91.7002L188.557 82.6904L230.171 58.6532C233.732 56.601 236.612 51.0865 236.612 46.3466C236.612 41.6 233.732 39.4221 230.171 41.4743Z" fill="white"/>
<path d="M103.312 91.7929C103.179 90.833 102.405 90.4689 101.478 91.0184L50.6032 120.391C50.0654 120.743 49.6179 121.216 49.297 121.773C48.9762 122.329 48.7909 122.954 48.7563 123.595V235.864C48.7563 236.956 49.458 237.446 50.3715 237.049C49.8196 237.282 49.2236 237.393 48.6248 237.373C48.0259 237.354 47.4384 237.205 46.9027 236.936L44.7843 235.712C44.2437 235.363 43.7938 234.89 43.4716 234.333C43.1493 233.776 42.9639 233.15 42.9307 232.508V120.246C42.9645 119.602 43.1501 118.976 43.4722 118.418C43.7944 117.86 44.244 117.386 44.7843 117.035L95.659 87.662C96.2315 87.3681 96.8657 87.2148 97.5093 87.2148C98.1528 87.2148 98.7871 87.3681 99.3595 87.662L101.478 88.8801C101.975 89.2052 102.396 89.6338 102.713 90.1364C103.029 90.6391 103.233 91.2041 103.312 91.7929Z" fill="#455A64"/>
<path d="M101.478 91.0184L50.6033 120.391C50.0655 120.743 49.618 121.216 49.2971 121.773C48.9762 122.329 48.791 122.954 48.7563 123.595V235.864C48.7563 237.042 49.5838 237.526 50.6033 236.936L101.478 207.563C102.017 207.212 102.465 206.739 102.787 206.183C103.109 205.626 103.296 205.001 103.332 204.359V92.0908C103.332 90.9058 102.498 90.4292 101.478 91.0184ZM100.664 193.787C100.664 194.794 99.9554 195.436 99.0816 195.939L52.821 222.65C51.9472 223.154 51.2322 222.743 51.2322 221.73V134.346C51.2636 133.796 51.4237 133.261 51.6996 132.784C51.9756 132.306 52.3597 131.901 52.821 131.599L99.0816 104.894C99.9554 104.384 100.664 104.801 100.664 105.807V193.787Z" fill="#37474F"/>
<path d="M50.3715 237.049C49.8196 237.282 49.2236 237.393 48.6248 237.373C48.0259 237.354 47.4384 237.205 46.9027 236.936L44.7843 235.712C44.2441 235.362 43.7945 234.889 43.4723 234.332C43.1501 233.776 42.9645 233.15 42.9307 232.508V120.246C42.9514 119.598 43.1384 118.966 43.4735 118.412L49.2991 121.775C48.9659 122.325 48.779 122.952 48.7563 123.595V235.864C48.7563 236.956 49.458 237.446 50.3715 237.049Z" fill="#263238"/>
<path d="M76.044 108.177C76.706 107.787 77.2819 108.105 77.2819 108.899C77.2579 109.328 77.1334 109.746 76.9184 110.119C76.7033 110.491 76.4039 110.808 76.044 111.044C75.382 111.441 74.7994 111.117 74.7994 110.329C74.8227 109.898 74.9475 109.478 75.1638 109.104C75.3801 108.73 75.6817 108.413 76.044 108.177Z" fill="black"/>
<path d="M75.1768 219.645C74.8512 219.649 74.5307 219.565 74.25 219.4C73.9007 219.161 73.6218 218.833 73.4425 218.45C73.2632 218.067 73.19 217.643 73.2305 217.222C73.2896 216.152 73.5997 215.111 74.1356 214.183C74.6715 213.255 75.4182 212.466 76.3154 211.879C76.6605 211.635 77.0645 211.487 77.4857 211.451C77.907 211.415 78.3302 211.492 78.7118 211.674C79.0622 211.912 79.3418 212.24 79.5213 212.623C79.7007 213.006 79.7733 213.431 79.7313 213.852C79.6732 214.922 79.3636 215.964 78.8276 216.892C78.2916 217.82 77.5443 218.609 76.6464 219.195C76.2047 219.471 75.6977 219.627 75.1768 219.645ZM77.785 212.098C77.3807 212.115 76.9881 212.239 76.6464 212.455C75.8454 212.978 75.1786 213.682 74.7002 214.51C74.2218 215.338 73.9451 216.267 73.8925 217.222C73.8155 217.529 73.8405 217.852 73.9636 218.143C74.0868 218.435 74.3014 218.678 74.5751 218.836C74.8488 218.995 75.1666 219.06 75.4806 219.022C75.7946 218.984 76.0876 218.845 76.3154 218.625C77.1169 218.102 77.7839 217.397 78.2624 216.568C78.7408 215.738 79.0172 214.808 79.0693 213.852C79.1092 213.551 79.069 213.244 78.9528 212.963C78.8366 212.681 78.6485 212.436 78.4073 212.25C78.219 212.14 78.0028 212.087 77.785 212.098Z" fill="#E6E6E6"/>
<path d="M71.2511 115.724L80.8302 110.197C81.3996 109.866 81.863 110.097 81.863 110.719C81.8378 111.066 81.7312 111.402 81.5517 111.7C81.3723 111.998 81.1251 112.25 80.8302 112.434L71.2511 117.968C70.6818 118.293 70.2184 118.061 70.2184 117.445C70.2436 117.098 70.3502 116.761 70.5296 116.462C70.7089 116.163 70.9561 115.91 71.2511 115.724Z" fill="black"/>
<path d="M100.664 193.787C100.664 194.793 99.9554 195.436 99.0815 195.939L52.821 222.65C51.9471 223.153 51.2322 222.743 51.2322 221.73V134.346C51.2635 133.796 51.4236 133.261 51.6996 132.783C51.9755 132.306 52.3596 131.901 52.821 131.599L99.0815 104.894C99.9554 104.384 100.664 104.801 100.664 105.807V193.787Z" fill="#277FE5"/>
<path d="M94.2225 159.356L91.7069 158.165C95.4009 146.116 91.654 142.144 85.1399 141.615C87.7018 143.19 89.006 149.724 86.8876 155.901L84.372 154.709C83.8821 154.478 83.048 155.371 83.048 156.133L82.8494 167.757C82.8494 168.293 83.2267 168.479 83.6901 168.161L93.7326 161.21C94.4211 160.714 94.7124 159.595 94.2225 159.356Z" fill="white"/>
<path opacity="0.8" d="M86.5499 149.506C86.5499 145.759 85.4046 142.641 83.743 141.622C83.743 141.622 76.8847 142.211 70.2911 151.883C70.2911 151.883 79.6717 144.137 86.5499 149.506Z" fill="white"/>
<path d="M58.6334 168.148L61.149 169.346C57.455 181.395 61.2086 185.367 67.716 185.896C65.1541 184.321 63.85 177.793 65.9684 171.61L68.484 172.809C68.9738 173.04 69.808 172.147 69.808 171.385L70.0066 159.754C70.0066 159.224 69.6292 159.039 69.1658 159.357L59.1233 166.308C58.4348 166.824 58.1435 167.923 58.6334 168.148Z" fill="white"/>
<path opacity="0.8" d="M66.306 178.005C66.306 181.759 67.4513 184.87 69.1129 185.896C69.1129 185.896 75.9712 185.3 82.5647 175.635C82.5647 175.635 73.1842 183.374 66.306 178.005Z" fill="white"/>
</svg>
