<svg width="336" height="336" viewBox="0 0 336 336" fill="none" xmlns="http://www.w3.org/2000/svg">
<path d="M167.362 328.285C244.773 328.285 307.527 290.734 307.527 244.413C307.527 198.092 244.773 160.541 167.362 160.541C89.9502 160.541 27.1958 198.092 27.1958 244.413C27.1958 290.734 89.9502 328.285 167.362 328.285Z" fill="#F0F0F0"/>
<path d="M61.5955 270.816L143.244 317.937C143.763 318.204 144.339 318.343 144.924 318.343C145.508 318.343 146.084 318.204 146.604 317.937L254.829 255.441C255.75 254.91 255.75 254.043 254.829 253.512L173.181 206.385C172.66 206.121 172.085 205.983 171.501 205.983C170.917 205.983 170.342 206.121 169.821 206.385L61.6291 268.914C60.6749 269.472 60.6749 270.305 61.5955 270.816Z" fill="#E0E0E0"/>
<path d="M269.721 255.609C278.921 255.609 286.38 251.303 286.38 245.992C286.38 240.681 278.921 236.376 269.721 236.376C260.52 236.376 253.062 240.681 253.062 245.992C253.062 251.303 260.52 255.609 269.721 255.609Z" fill="#E0E0E0"/>
<path d="M113.534 272.187C133.004 272.187 148.788 263.074 148.788 251.832C148.788 240.59 133.004 231.477 113.534 231.477C94.0647 231.477 78.2814 240.59 78.2814 251.832C78.2814 263.074 94.0647 272.187 113.534 272.187Z" fill="#E0E0E0"/>
<path d="M152.584 76.003C148.808 72.139 146.489 72.9387 146.536 77.3C146.59 80.5256 145.508 79.8334 145.508 79.8334L143.136 84.6718C143.432 85.4858 143.432 86.3779 143.136 87.1918C141.664 90.9953 136.416 99.093 132.754 104.133C129.858 100.138 127.181 95.9875 124.737 91.701C121.269 85.8478 117.862 79.605 111.485 79.8267L110.564 93.5422C114.509 100.188 117.284 103.219 126.296 113.474C127.734 115.105 129.363 116.558 131.148 117.801C134.125 119.77 138.19 115.328 140.374 111.673C143.237 106.875 146.207 100.108 149.688 92.8971C150.992 90.2091 152.564 87.2053 153.364 84.9877C155.42 79.195 153.935 77.3806 152.584 76.003Z" fill="#965656"/>
<path d="M153.955 82.9381L152.416 81.07L152.934 79.1951L151.798 81.2581L145.75 79.9141C145.687 79.9158 145.625 79.9019 145.569 79.8738H145.528L145.38 80.1628C145.38 80.5928 145.683 81.2044 146.691 82.0444C147.548 82.8536 148.677 83.3117 149.856 83.3279C150.11 83.3281 150.362 83.2849 150.602 83.2002L153.384 84.86C153.612 84.1544 153.807 83.5228 153.955 82.9381Z" fill="#663838"/>
<path d="M129.877 70.8892C129.877 71.877 129.844 73.8527 132.989 75.2639C136.134 76.6751 139.635 75.1362 139.635 73.0597L129.877 70.8892Z" fill="#EBEBEB"/>
<path d="M159.499 85.0953L138.264 72.838L137.962 74.5919L137.874 75.2639L157.819 86.7753C158.111 86.9535 158.44 87.0615 158.781 87.0906C159.121 87.1198 159.464 87.0694 159.781 86.9433C159.862 86.9041 159.93 86.8442 159.98 86.7698C160.03 86.6954 160.058 86.6092 160.064 86.5199C160.064 86.3855 160.064 85.8883 160.064 85.7606C160.064 85.5724 159.869 85.3439 159.499 85.0953Z" fill="#EBEBEB"/>
<path d="M132.021 73.5167C134.252 74.807 137.29 75.1497 138.795 74.2761C140.3 73.4025 139.722 71.6486 137.491 70.3583C135.26 69.0681 132.229 68.7187 130.717 69.5923C129.205 70.4659 129.79 72.2198 132.021 73.5167Z" fill="#F5F5F5"/>
<path d="M136.584 73.8124L138.264 72.838L159.506 85.0953C160.124 85.4582 160.252 85.9622 159.781 86.231C159.464 86.3585 159.122 86.4104 158.781 86.3824C158.441 86.3544 158.111 86.2473 157.819 86.0697L136.584 73.8124Z" fill="#F5F5F5"/>
<path d="M137.955 74.6054L137.874 75.311L157.819 86.8224V86.0697L137.955 74.6054Z" fill="#E0E0E0"/>
<path d="M120.288 107.311L111.854 95.8874C111.854 95.8874 106.653 85.6192 110.336 79.6317C110.336 79.6317 116.7 79.168 120.086 83.7981C122.902 87.6621 127.008 93.9318 129.877 98.656C129.111 102.547 125.059 106.397 120.288 107.311Z" fill="#37474F"/>
<path d="M135.469 73.9199C138.022 73.9199 138.432 73.0127 138.331 71.9039C138.23 70.7951 136.9 69.2159 134.427 68.7925C131.954 68.3692 130.395 69.142 130.119 70.1365C129.696 71.6889 132.908 73.9199 135.469 73.9199Z" fill="#277FE5"/>
<path opacity="0.1" d="M138.331 71.9039C138.291 71.5826 138.184 71.2734 138.016 70.9967C137.861 71.9375 136.436 72.7103 134.514 72.4952C132.297 72.2466 130.214 70.8488 130.335 69.7131C130.239 69.8458 130.166 69.9934 130.12 70.1499C129.716 71.7224 132.908 73.9467 135.496 73.9467C138.083 73.9467 138.432 73.0059 138.331 71.9039Z" fill="black"/>
<path d="M144.305 76.9776C144.085 76.5634 143.711 76.2519 143.264 76.11C142.817 75.968 142.332 76.0069 141.913 76.2182C141.563 76.44 142.135 77.2733 142.289 78.9062C142.491 81.0365 142.336 82.5081 143.102 84.6653L145.34 80.1965C144.903 78.9533 144.722 77.5757 144.305 76.9776Z" fill="#965656"/>
<path d="M148.512 73.5167C146.852 73.5167 145.488 74.1887 144.93 75.1564C144.373 76.1241 144.762 79.1884 145.34 80.23C145.918 81.2716 149.043 82.9583 150.34 82.6156C151.637 82.2729 152.86 79.1951 152.86 79.1951L148.512 73.5167Z" fill="#965656"/>
<path d="M132.465 62.0927C129.777 60.3522 128.587 57.3416 130.328 54.1698C132.068 50.998 133.513 47.8866 131.369 45.3935C132.236 45.5213 133.047 45.8979 133.705 46.4776C134.362 47.0573 134.837 47.8152 135.072 48.6594C136.06 51.6969 134.541 54.4386 133.056 56.4412C131.571 58.4437 131.255 60.7151 132.465 62.0927Z" fill="#F0F0F0"/>
<path d="M137.377 64.2768C134.985 62.711 133.903 60.0028 135.462 57.1536C137.021 54.3043 138.324 51.5088 136.396 49.2643C137.173 49.3817 137.9 49.7214 138.489 50.2424C139.078 50.7634 139.504 51.4435 139.716 52.2009C140.603 54.9292 139.238 57.3955 137.888 59.1964C136.537 60.9974 136.295 63.0403 137.377 64.2768Z" fill="#F0F0F0"/>
<path d="M94.0868 234.286H86.4797V247.854H94.0868V234.286Z" fill="#965656"/>
<path d="M111.357 234.299L118.883 234.568L119.26 220.369L111.357 220.1V234.299Z" fill="#965656"/>
<path d="M85.5859 120.409C85.5859 127.525 86.6342 184.82 86.6342 184.82C86.4662 186.87 84.6182 190.646 85.0214 198.515C85.5657 209.207 86.2847 240.67 86.2847 240.67C87.5132 241.302 88.8698 241.645 90.251 241.673C91.6322 241.701 93.0016 241.413 94.2546 240.831C94.2546 240.831 100.061 198.099 101.344 187.501C102.46 178.261 105.773 151.724 105.773 151.724L109.207 183.785C108.379 187.676 108.081 191.661 108.32 195.632C108.656 200.531 110.961 229.421 110.961 229.421C110.961 229.421 114.321 231.806 119.219 230.093C119.219 230.093 123.292 188.288 123.379 183.799C123.473 178.671 121 120.342 121 120.342L85.5859 120.409Z" fill="#277FE5"/>
<path opacity="0.2" d="M85.5859 120.409C85.5859 127.525 86.6342 184.82 86.6342 184.82C86.4662 186.87 84.6182 190.646 85.0214 198.515C85.5657 209.207 86.2847 240.67 86.2847 240.67C87.5132 241.302 88.8698 241.645 90.251 241.673C91.6322 241.701 93.0016 241.413 94.2546 240.831C94.2546 240.831 100.061 198.099 101.344 187.501C102.46 178.261 105.773 151.724 105.773 151.724L109.207 183.785C108.379 187.676 108.081 191.661 108.32 195.632C108.656 200.531 110.961 229.421 110.961 229.421C110.961 229.421 114.321 231.806 119.219 230.093C119.219 230.093 123.292 188.288 123.379 183.799C123.473 178.671 121 120.342 121 120.342L85.5859 120.409Z" fill="black"/>
<path d="M94.0801 243.936V242.8C94.8126 243.129 97.4401 250.904 100.471 253.774C102.87 256.052 106.143 258.686 106.976 261.226C107.843 263.874 102.413 265.332 100.175 264.916C97.5678 264.439 93.052 262.523 91.9163 260.756C90.7806 258.989 90.2564 256.375 89.3358 255.071C88.4152 253.767 85.3441 251.274 84.8468 249.769C84.5713 248.949 84.8939 247.141 85.2769 245.609C85.6331 244.211 86.0161 242.672 86.4731 242.8V243.667C87.0241 244.305 88.5563 244.937 90.2766 245.011C91.3921 245.058 94.0801 244.823 94.0801 243.936Z" fill="#37474F"/>
<path d="M118.944 232.156C119.341 232.156 119.656 232.74 120.517 233.715C121.558 234.891 124.925 236.914 126.605 237.794C129.427 239.259 134.904 241.523 137.357 242.686C138.909 243.412 138.835 245.374 137.236 246.469C135.637 247.565 131.766 248.378 127.122 247.296C124.596 246.705 121.444 244.89 119.22 244.406C117.204 243.963 111.572 243.734 110.033 242.646C108.494 241.557 109.113 239.178 109.549 237.155C110.02 234.945 110.618 231.49 111.317 231.645V232.404C112.224 233.836 116.894 234.42 118.884 233.365L118.944 232.156Z" fill="#37474F"/>
<path opacity="0.2" d="M106.095 148.512C109.56 147.347 112.709 145.397 115.295 142.813C115.295 142.813 114.556 146.442 107.674 150.051L108.864 181.198L105.753 151.724L106.095 148.512Z" fill="black"/>
<path d="M89.591 80.7273C89.591 80.7273 82.7836 82.8038 83.1801 93.4953L85.7942 112.224L85.344 135.267C90.6057 141.234 113.944 140.797 121.928 134.79C121.928 134.79 121.027 104.603 120.483 92.9846C120.1 84.7257 118.205 80.566 110.087 79.6588L100.101 80.0956L89.591 80.7273Z" fill="#455A64"/>
<path d="M89.591 80.7272C83.7513 81.5605 82.871 82.4206 77.2464 91.869C75.5395 94.7182 73.7318 97.8498 72.2668 100.37C70.2508 94.0731 66.7296 82.8977 67.3276 80.1425C67.4016 79.82 67.6771 79.1211 67.8854 78.5768C68.3792 77.2281 68.6801 75.8164 68.7792 74.3835C68.8486 73.7765 68.9586 73.1748 69.1084 72.5825C69.1642 72.4277 69.1803 72.2614 69.1555 72.0987C69.1035 71.953 68.9977 71.8328 68.8598 71.7627C68.6694 71.6772 68.4594 71.6452 68.2522 71.6701C68.045 71.6949 67.8485 71.7757 67.6838 71.9038C66.864 72.4952 66.6355 73.6241 66.239 74.4843C66.1543 74.7149 66.0004 74.9137 65.7982 75.0532C65.5961 75.1928 65.3557 75.2664 65.11 75.2638C64.7886 75.2739 64.4718 75.1847 64.2028 75.0085C63.1276 74.3365 63.2889 72.8849 63.4704 72.2129C63.7555 71.3492 64.3392 70.6153 65.1168 70.1432C65.289 70.0183 65.4876 69.9345 65.6973 69.8984C65.907 69.8623 66.1222 69.8748 66.3264 69.9349C66.8976 70.1566 66.9984 70.8286 67.462 71.1512C67.6125 71.2675 67.8005 71.3243 67.9902 71.3107C68.1799 71.2971 68.3579 71.2139 68.4902 71.0773C68.5832 70.9487 68.6411 70.7982 68.6582 70.6405C68.7109 70.0409 68.5747 69.4399 68.2686 68.9217C67.9625 68.4035 67.5019 67.9941 66.9513 67.7509C66.3953 67.5221 65.7982 67.41 65.1971 67.4216C64.596 67.4331 64.0037 67.5681 63.4569 67.8181C63.1277 67.9356 62.8267 68.1206 62.5733 68.3613C62.3198 68.602 62.1195 68.8931 61.9852 69.2158C61.8844 67.3006 61.7702 66.1381 61.8038 64.0683C61.824 61.8238 61.9516 59.1358 60.2716 60.1438C58.8134 61.0241 59.136 69.8139 59.136 69.8139C58.6532 67.8587 58.4006 65.8537 58.3833 63.8398C58.3161 62.1733 58.6252 60.5336 57.2678 60.6344C55.1241 60.7957 56.4614 70.244 56.4614 70.244C55.272 67.4081 55.4332 62.852 54.1564 63.0267C52.8796 63.2014 52.8864 65.1032 53.4441 69.7467C53.8608 73.1605 54.3648 76.9573 56.1321 79.9342C56.6647 80.8065 57.1147 81.7267 57.4761 82.6827C58.8201 87.1045 59.2838 91.916 60.0499 96.4587C61.1251 102.843 62.5766 113.024 67.5696 117.815C68.377 118.731 69.4851 119.329 70.6944 119.502C71.3987 119.567 72.1053 119.404 72.7104 119.038C77.3404 115.812 80.64 109.946 82.8777 106.27C84.9811 102.776 86.5939 100.739 88.1193 97.8901C91.4659 91.6606 90.8947 84.0401 89.591 80.7272Z" fill="#965656"/>
<path d="M72.2668 100.37C73.342 103.475 74.2156 106.794 73.7251 110.316C73.7251 110.316 76.1913 104.503 73.1472 98.8916L72.2668 100.37Z" fill="#663838"/>
<path d="M90.9753 80.64C85.3977 80.7139 81.5001 82.4141 78.3753 88.3143C75.2505 94.2144 72.5155 99.2746 72.5155 99.2746C72.5155 99.2746 75.2035 107.587 81.8429 108.931L89.7926 96.4186C89.7926 96.4186 93.9187 90.5386 90.9753 80.64Z" fill="#37474F"/>
<path d="M97.1107 58.5379C97.1107 64.6733 101.882 69.6393 107.769 69.6393C113.655 69.6393 117.136 64.5321 118.427 58.5379C120.785 47.5776 113.655 47.4432 107.769 47.4432C101.882 47.4432 97.1107 52.416 97.1107 58.5379Z" fill="#263238"/>
<path d="M91.6742 63.0337C91.6742 63.0337 93.3072 71.0305 93.9657 72.3409C94.3914 73.145 95.1151 73.7504 95.9817 74.0276L95.8675 68.403L91.6742 63.0337Z" fill="#263238"/>
<path d="M93.7305 51.569C93.7305 51.569 92.5545 51.2801 91.3113 53.2221C90.2429 54.8887 90.0009 58.6385 91.6742 63.0334L94.752 63.3962L93.7305 51.569Z" fill="#263238"/>
<path d="M92.5949 53.1888L88.8183 53.2628C88.7852 53.015 88.8046 52.763 88.8754 52.5232C88.9461 52.2834 89.0665 52.0612 89.2288 51.871C89.3911 51.6809 89.5916 51.527 89.8172 51.4195C90.0429 51.3119 90.2887 51.2531 90.5386 51.2468C91.0624 51.2539 91.5644 51.4574 91.9452 51.8171C92.326 52.1768 92.5579 52.6663 92.5949 53.1888Z" fill="#263238"/>
<path d="M92.1311 52.2948L89.3356 49.6068C89.4971 49.4174 89.6962 49.2635 89.9203 49.1549C90.1444 49.0463 90.3885 48.9853 90.6373 48.9759C90.8861 48.9664 91.1342 49.0086 91.3658 49.0999C91.5975 49.1911 91.8077 49.3294 91.9833 49.506C92.3632 49.8618 92.5907 50.3509 92.6183 50.8707C92.6458 51.3905 92.4713 51.9008 92.1311 52.2948Z" fill="#263238"/>
<path d="M95.6794 63.403C95.0611 63.7861 94.1808 62.5496 93.4214 61.723C92.6621 60.8965 90.2697 60.1102 89.0265 62.8251C87.7834 65.54 89.9002 68.2347 91.6742 69.1218C94.8528 70.701 95.8608 68.4027 95.8608 68.4027L96.1161 81.0699C100.598 87.9983 110.813 88.9055 107.09 80.7407V76.8834C108.59 77.1341 110.114 77.2152 111.633 77.1253C114.112 76.7288 115.665 74.6859 116.424 71.8904C117.634 67.4015 118.091 63.7727 117.096 54.9426C115.974 45.2658 105.161 45.165 99.3216 48.9886C93.4819 52.8123 95.6794 63.403 95.6794 63.403Z" fill="#965656"/>
<path d="M109.153 53.4306C106.572 53.1752 104.019 52.6511 101.432 52.4562C100.873 52.3884 100.308 52.4156 99.7584 52.5368C97.7424 53.0744 98.0314 55.3794 97.7424 56.9922C97.1981 59.7608 96.7479 64.4648 95.7264 64.485C95.4173 64.485 94.2346 62.469 93.4685 61.7231C92.9712 61.2459 92.8839 60.2312 92.7965 59.5996C92.6016 58.4504 92.4941 57.2879 92.4067 56.1253C92.3328 55.1442 92.232 54.1093 92.232 53.1551C92.1844 52.0442 92.2724 50.9317 92.4941 49.8421C92.7412 48.9124 93.2145 48.0582 93.8717 47.3557L94.0733 47.1407C95.3709 45.781 96.9484 44.7194 98.6967 44.0293C101.187 43.0947 103.799 42.5243 106.452 42.3359C109.14 42.0604 111.828 41.9125 114.421 41.3749C114.57 41.328 114.73 41.328 114.878 41.3749C114.985 41.4346 115.075 41.5199 115.141 41.6231C115.207 41.7264 115.246 41.8443 115.255 41.9663C115.36 42.579 115.29 43.209 115.052 43.7834C114.814 44.3577 114.418 44.8531 113.911 45.212C115.698 45.3531 117.748 44.4191 119.461 43.9554C119.601 43.8972 119.751 43.8672 119.902 43.8672C120.053 43.8672 120.202 43.8972 120.342 43.9554C120.512 44.0776 120.633 44.2562 120.684 44.4594C120.808 44.9246 120.824 45.4117 120.732 45.884C120.571 47.3022 120.04 48.6533 119.193 49.8018C117.865 51.5329 115.988 52.7606 113.87 53.2828C112.315 53.5732 110.724 53.6231 109.153 53.4306Z" fill="#263238"/>
<path d="M107.083 76.8834C107.083 76.8834 101.546 75.7208 99.6106 74.6524C98.4554 74.0254 97.518 73.0622 96.9226 71.8904C97.2119 73.0633 97.7278 74.1682 98.4413 75.1429C99.8593 77.0312 107.07 78.4156 107.07 78.4156L107.083 76.8834Z" fill="#663838"/>
<path d="M105.753 61.9583C105.736 62.1747 105.656 62.3814 105.523 62.5531C105.39 62.7249 105.21 62.8542 105.005 62.9251C104.8 62.9961 104.579 63.0057 104.368 62.9528C104.158 62.8998 103.967 62.7866 103.82 62.627C103.673 62.4674 103.576 62.2684 103.54 62.0543C103.505 61.8402 103.532 61.6203 103.619 61.4217C103.707 61.223 103.85 61.0542 104.032 60.9358C104.214 60.8175 104.427 60.7548 104.644 60.7554C104.95 60.7694 105.238 60.9036 105.446 61.1288C105.653 61.3541 105.764 61.6522 105.753 61.9583Z" fill="#263238"/>
<path d="M103.972 57.1736L101.593 58.5176C101.423 58.1802 101.385 57.7911 101.489 57.4276C101.592 57.064 101.828 56.7527 102.151 56.5553C102.309 56.4672 102.484 56.4132 102.665 56.3969C102.845 56.3805 103.027 56.4022 103.198 56.4604C103.37 56.5187 103.527 56.6122 103.661 56.7351C103.794 56.8579 103.9 57.0073 103.972 57.1736Z" fill="#263238"/>
<path d="M106.579 69.9417L109.113 70.9296C109.059 71.1014 108.972 71.2609 108.856 71.3984C108.74 71.536 108.598 71.6489 108.437 71.7303C108.277 71.8118 108.102 71.8602 107.922 71.8727C107.743 71.8853 107.563 71.8616 107.392 71.8032C107.047 71.6529 106.771 71.3775 106.62 71.0322C106.469 70.6869 106.455 70.2973 106.579 69.9417Z" fill="#663838"/>
<path d="M115.927 58.195L113.763 56.4478C113.86 56.2968 113.989 56.168 114.139 56.0699C114.29 55.9719 114.46 55.9067 114.637 55.8788C114.815 55.8509 114.997 55.8608 115.17 55.9079C115.344 55.955 115.505 56.0383 115.644 56.1522C115.937 56.3965 116.128 56.7412 116.181 57.119C116.233 57.4968 116.142 57.8805 115.927 58.195Z" fill="#263238"/>
<path d="M114.979 61.629C114.962 61.8454 114.882 62.0521 114.75 62.2238C114.617 62.3955 114.437 62.5248 114.232 62.5958C114.027 62.6668 113.805 62.6764 113.595 62.6234C113.384 62.5705 113.194 62.4573 113.047 62.2977C112.9 62.1381 112.802 61.939 112.767 61.7249C112.731 61.5109 112.759 61.291 112.846 61.0923C112.933 60.8937 113.077 60.7248 113.259 60.6065C113.441 60.4881 113.653 60.4255 113.87 60.4261C114.176 60.4401 114.464 60.5743 114.672 60.7995C114.88 61.0247 114.99 61.3228 114.979 61.629Z" fill="#263238"/>
<path d="M109.039 60.7017L109.166 67.7107L113.145 66.7968L109.039 60.7017Z" fill="#663838"/>
<path d="M154.278 302.031C154.27 302.222 154.32 302.411 154.42 302.574C154.521 302.737 154.668 302.866 154.842 302.944C155.318 303.19 155.846 303.318 156.381 303.318C156.916 303.318 157.444 303.19 157.92 302.944C158.104 302.866 158.265 302.742 158.388 302.585C158.511 302.427 158.593 302.241 158.626 302.044V221.088L154.278 221.149V302.031Z" fill="#455A64"/>
<path d="M156.616 303.294C157.073 303.272 157.518 303.148 157.92 302.931C158.104 302.852 158.265 302.729 158.388 302.571C158.512 302.414 158.593 302.228 158.626 302.03V221.088H156.67L156.616 303.294Z" fill="#37474F"/>
<path d="M154.903 221.989C155.38 222.229 155.907 222.354 156.442 222.354C156.976 222.354 157.503 222.229 157.98 221.989C158.834 221.491 158.841 220.699 157.98 220.215C157.505 219.969 156.977 219.842 156.442 219.842C155.906 219.842 155.379 219.969 154.903 220.215C154.069 220.705 154.056 221.505 154.903 221.989Z" fill="#263238"/>
<path d="M242.451 254.016C242.443 254.207 242.493 254.396 242.594 254.559C242.694 254.722 242.841 254.851 243.015 254.93C243.493 255.171 244.02 255.296 244.554 255.296C245.089 255.296 245.616 255.171 246.093 254.93C246.278 254.851 246.439 254.726 246.563 254.567C246.686 254.409 246.767 254.221 246.799 254.023V173L242.451 173.06V254.016Z" fill="#455A64"/>
<path d="M244.789 255.239C245.245 255.219 245.691 255.097 246.093 254.883C246.278 254.804 246.439 254.679 246.563 254.52C246.686 254.362 246.767 254.174 246.799 253.976V173H244.85L244.789 255.239Z" fill="#37474F"/>
<path d="M243.076 173.934C243.552 174.179 244.079 174.307 244.615 174.307C245.15 174.307 245.678 174.179 246.154 173.934C247.007 173.443 247.014 172.644 246.154 172.16C245.676 171.919 245.149 171.794 244.615 171.794C244.08 171.794 243.553 171.919 243.076 172.16C242.243 172.657 242.229 173.45 243.076 173.934Z" fill="#263238"/>
<path d="M69.1085 267.718C69.1027 267.909 69.1531 268.098 69.2535 268.26C69.3538 268.423 69.4997 268.552 69.673 268.632C70.1489 268.877 70.6766 269.005 71.2119 269.005C71.7473 269.005 72.2749 268.877 72.7508 268.632C72.9283 268.549 73.0826 268.423 73.1998 268.266C73.3171 268.109 73.3937 267.926 73.4228 267.732V186.742L69.075 186.803L69.1085 267.718Z" fill="#455A64"/>
<path d="M71.447 268.982C71.9034 268.96 72.349 268.836 72.7507 268.619C72.9282 268.536 73.0825 268.41 73.1997 268.253C73.317 268.096 73.3936 267.912 73.4227 267.718V186.742H71.4739L71.447 268.982Z" fill="#37474F"/>
<path d="M69.7333 187.676C70.2107 187.917 70.7377 188.042 71.2722 188.042C71.8067 188.042 72.3338 187.917 72.8111 187.676C73.6645 187.179 73.678 186.386 72.8111 185.895C72.3361 185.651 71.8097 185.524 71.2756 185.524C70.7415 185.524 70.2151 185.651 69.7401 185.895C68.9001 186.393 68.8933 187.186 69.7333 187.676Z" fill="#263238"/>
<path d="M59.9222 187.327V186.655C59.9538 186.074 60.1218 185.51 60.4125 185.006C60.7032 184.503 61.1085 184.076 61.5955 183.758L169.821 121.262C170.341 120.995 170.917 120.856 171.501 120.856C172.085 120.856 172.661 120.995 173.181 121.262L254.829 168.383C255.316 168.7 255.721 169.128 256.012 169.631C256.303 170.134 256.471 170.699 256.502 171.279V171.951C256.471 172.532 256.303 173.096 256.012 173.6C255.721 174.103 255.316 174.531 254.829 174.848L146.637 237.377C146.116 237.641 145.541 237.779 144.957 237.779C144.373 237.779 143.798 237.641 143.277 237.377L61.5955 190.23C61.1091 189.91 60.7044 189.481 60.4138 188.977C60.1232 188.473 59.9549 187.908 59.9222 187.327Z" fill="#277FE5"/>
<g opacity="0.5">
<path opacity="0.5" d="M59.9222 187.327V186.655C59.9538 186.074 60.1218 185.51 60.4125 185.006C60.7032 184.503 61.1085 184.076 61.5955 183.758L169.821 121.262C170.341 120.995 170.917 120.856 171.501 120.856C172.085 120.856 172.661 120.995 173.181 121.262L254.829 168.383C255.316 168.7 255.721 169.128 256.012 169.631C256.303 170.134 256.471 170.699 256.502 171.279V171.951C256.471 172.532 256.303 173.096 256.012 173.6C255.721 174.103 255.316 174.531 254.829 174.848L146.637 237.377C146.116 237.641 145.541 237.779 144.957 237.779C144.373 237.779 143.798 237.641 143.277 237.377L61.5955 190.23C61.1091 189.91 60.7044 189.481 60.4138 188.977C60.1232 188.473 59.9549 187.908 59.9222 187.327Z" fill="black"/>
</g>
<path d="M144.917 233.225V237.747C144.335 237.754 143.76 237.618 143.244 237.351L61.6022 190.23C61.1149 189.913 60.7093 189.486 60.4185 188.982C60.1277 188.479 59.96 187.914 59.929 187.334V186.662C59.9522 186.144 60.0839 185.638 60.3154 185.175C60.5469 184.712 60.8732 184.303 61.273 183.974C60.6682 184.484 60.769 185.21 61.5821 185.687L143.223 232.808C143.742 233.091 144.326 233.235 144.917 233.225Z" fill="#277FE5"/>
<g opacity="0.55">
<path opacity="0.55" d="M144.917 233.225V237.747C144.335 237.754 143.76 237.618 143.244 237.351L61.6022 190.23C61.1149 189.913 60.7093 189.486 60.4185 188.982C60.1277 188.479 59.96 187.914 59.929 187.334V186.662C59.9518 186.144 60.0833 185.638 60.3148 185.175C60.5464 184.711 60.8729 184.302 61.273 183.974C60.6682 184.484 60.769 185.21 61.5821 185.687L143.223 232.808C143.742 233.091 144.326 233.235 144.917 233.225Z" fill="black"/>
</g>
<path d="M61.5955 185.701L143.244 232.821C143.764 233.085 144.34 233.223 144.924 233.223C145.507 233.223 146.083 233.085 146.604 232.821L254.829 170.325C255.75 169.794 255.75 168.927 254.829 168.397L173.181 121.276C172.661 121.009 172.085 120.87 171.501 120.87C170.917 120.87 170.341 121.009 169.821 121.276L61.6291 183.772C60.6749 184.296 60.6749 185.163 61.5955 185.701Z" fill="#277FE5"/>
<g opacity="0.4">
<path opacity="0.4" d="M61.5955 185.701L143.244 232.821C143.764 233.085 144.34 233.223 144.924 233.223C145.507 233.223 146.083 233.085 146.604 232.821L254.829 170.325C255.75 169.794 255.75 168.927 254.829 168.397L173.181 121.276C172.661 121.009 172.085 120.87 171.501 120.87C170.917 120.87 170.341 121.009 169.821 121.276L61.6291 183.772C60.6749 184.296 60.6749 185.163 61.5955 185.701Z" fill="black"/>
</g>
<path opacity="0.15" d="M187.885 160.03L200.868 152.544C201.229 152.358 201.63 152.261 202.037 152.261C202.444 152.261 202.844 152.358 203.206 152.544L235.926 171.42C236.065 171.469 236.186 171.56 236.271 171.681C236.356 171.801 236.402 171.945 236.402 172.092C236.402 172.24 236.356 172.384 236.271 172.504C236.186 172.625 236.065 172.716 235.926 172.764L222.936 180.264C222.574 180.446 222.175 180.541 221.77 180.541C221.365 180.541 220.966 180.446 220.604 180.264L187.885 161.381C187.74 161.337 187.613 161.248 187.522 161.126C187.432 161.004 187.383 160.857 187.383 160.705C187.383 160.554 187.432 160.407 187.522 160.285C187.613 160.163 187.74 160.074 187.885 160.03Z" fill="black"/>
<path d="M198.858 159.076C198.858 161.092 197.219 163.37 195.203 163.37C193.187 163.37 191.547 161.092 191.547 159.076C191.547 158.106 191.932 157.176 192.618 156.491C193.303 155.805 194.233 155.42 195.203 155.42C196.172 155.42 197.102 155.805 197.787 156.491C198.473 157.176 198.858 158.106 198.858 159.076Z" fill="#277FE5"/>
<path opacity="0.6" d="M198.858 159.076C198.858 161.092 197.219 163.37 195.203 163.37C193.187 163.37 191.547 161.092 191.547 159.076C191.547 158.106 191.932 157.176 192.618 156.491C193.303 155.805 194.233 155.42 195.203 155.42C196.172 155.42 197.102 155.805 197.787 156.491C198.473 157.176 198.858 158.106 198.858 159.076Z" fill="black"/>
<path d="M205.41 162.859C205.41 164.875 203.771 167.153 201.755 167.153C199.739 167.153 198.099 164.875 198.099 162.859C198.099 161.89 198.484 160.96 199.17 160.274C199.855 159.589 200.785 159.204 201.755 159.204C202.724 159.204 203.654 159.589 204.34 160.274C205.025 160.96 205.41 161.89 205.41 162.859Z" fill="#277FE5"/>
<path opacity="0.6" d="M205.41 162.859C205.41 164.875 203.771 167.153 201.755 167.153C199.739 167.153 198.099 164.875 198.099 162.859C198.099 161.89 198.484 160.96 199.17 160.274C199.855 159.589 200.785 159.204 201.755 159.204C202.724 159.204 203.654 159.589 204.34 160.274C205.025 160.96 205.41 161.89 205.41 162.859Z" fill="black"/>
<path d="M211.962 166.656C211.962 168.672 210.323 170.95 208.307 170.95C206.291 170.95 204.651 168.672 204.651 166.656C204.651 165.686 205.036 164.757 205.722 164.071C206.407 163.385 207.337 163 208.307 163C209.276 163 210.206 163.385 210.891 164.071C211.577 164.757 211.962 165.686 211.962 166.656Z" fill="#277FE5"/>
<path opacity="0.6" d="M211.962 166.656C211.962 168.672 210.323 170.95 208.307 170.95C206.291 170.95 204.651 168.672 204.651 166.656C204.651 165.686 205.036 164.757 205.722 164.071C206.407 163.385 207.337 163 208.307 163C209.276 163 210.206 163.385 210.891 164.071C211.577 164.757 211.962 165.686 211.962 166.656Z" fill="black"/>
<path d="M218.514 170.426C218.514 172.442 216.875 174.727 214.859 174.727C212.843 174.727 211.203 172.449 211.203 170.426C211.203 169.456 211.588 168.526 212.274 167.841C212.959 167.155 213.889 166.77 214.859 166.77C215.828 166.77 216.758 167.155 217.444 167.841C218.129 168.526 218.514 169.456 218.514 170.426Z" fill="#277FE5"/>
<path opacity="0.6" d="M218.514 170.426C218.514 172.442 216.875 174.727 214.859 174.727C212.843 174.727 211.203 172.449 211.203 170.426C211.203 169.456 211.588 168.526 212.274 167.841C212.959 167.155 213.889 166.77 214.859 166.77C215.828 166.77 216.758 167.155 217.444 167.841C218.129 168.526 218.514 169.456 218.514 170.426Z" fill="black"/>
<path d="M225.066 174.223C225.066 176.239 223.427 178.517 221.411 178.517C219.395 178.517 217.755 176.239 217.755 174.223C217.755 173.253 218.14 172.323 218.826 171.638C219.511 170.952 220.441 170.567 221.411 170.567C222.38 170.567 223.31 170.952 223.996 171.638C224.681 172.323 225.066 173.253 225.066 174.223Z" fill="#277FE5"/>
<path opacity="0.6" d="M225.066 174.223C225.066 176.239 223.427 178.517 221.411 178.517C219.395 178.517 217.755 176.239 217.755 174.223C217.755 173.253 218.14 172.323 218.826 171.638C219.511 170.952 220.441 170.567 221.411 170.567C222.38 170.567 223.31 170.952 223.996 171.638C224.681 172.323 225.066 173.253 225.066 174.223Z" fill="black"/>
<path d="M232.297 169.976C232.297 171.992 230.657 174.27 228.641 174.27C226.625 174.27 224.986 171.992 224.986 169.976C224.986 169.006 225.371 168.076 226.056 167.391C226.742 166.705 227.672 166.32 228.641 166.32C229.611 166.32 230.541 166.705 231.226 167.391C231.912 168.076 232.297 169.006 232.297 169.976Z" fill="#277FE5"/>
<path opacity="0.6" d="M232.297 169.976C232.297 171.992 230.657 174.27 228.641 174.27C226.625 174.27 224.986 171.992 224.986 169.976C224.986 169.006 225.371 168.076 226.056 167.391C226.742 166.705 227.672 166.32 228.641 166.32C229.611 166.32 230.541 166.705 231.226 167.391C231.912 168.076 232.297 169.006 232.297 169.976Z" fill="black"/>
<path d="M236.403 167.771C236.39 167.627 236.34 167.489 236.256 167.37C236.172 167.252 236.058 167.159 235.926 167.099L203.206 148.223C202.844 148.037 202.443 147.94 202.037 147.94C201.63 147.94 201.229 148.037 200.868 148.223L187.884 155.722C187.75 155.78 187.634 155.872 187.549 155.991C187.464 156.109 187.412 156.249 187.401 156.394V157.658C187.414 157.803 187.466 157.941 187.551 158.059C187.637 158.177 187.751 158.271 187.884 158.33L220.604 177.213C220.966 177.395 221.365 177.49 221.77 177.49C222.175 177.49 222.574 177.395 222.936 177.213L235.926 169.713C236.058 169.654 236.172 169.561 236.256 169.442C236.34 169.324 236.39 169.186 236.403 169.041V167.771Z" fill="#277FE5"/>
<path opacity="0.2" d="M236.403 167.771C236.39 167.627 236.34 167.489 236.256 167.37C236.172 167.252 236.058 167.159 235.926 167.099L203.206 148.223C202.844 148.037 202.443 147.94 202.037 147.94C201.63 147.94 201.229 148.037 200.868 148.223L187.884 155.722C187.75 155.78 187.634 155.872 187.549 155.991C187.464 156.109 187.412 156.249 187.401 156.394V157.658C187.414 157.803 187.466 157.941 187.551 158.059C187.637 158.177 187.751 158.271 187.884 158.33L220.604 177.213C220.966 177.395 221.365 177.49 221.77 177.49C222.175 177.49 222.574 177.395 222.936 177.213L235.926 169.713C236.058 169.654 236.172 169.561 236.256 169.442C236.34 169.324 236.39 169.186 236.403 169.041V167.771Z" fill="black"/>
<path opacity="0.1" d="M221.76 176.225V177.482C221.349 177.491 220.942 177.396 220.577 177.206L187.858 158.323C187.724 158.265 187.608 158.172 187.523 158.054C187.438 157.936 187.386 157.796 187.374 157.651V156.388C187.388 156.533 187.44 156.671 187.525 156.789C187.61 156.907 187.725 157.001 187.858 157.06L220.577 175.943C220.941 176.136 221.348 176.233 221.76 176.225Z" fill="black"/>
<path d="M187.885 155.716L200.868 148.216C201.229 148.031 201.63 147.934 202.037 147.934C202.444 147.934 202.844 148.031 203.206 148.216L235.926 167.093C236.065 167.142 236.186 167.233 236.271 167.353C236.356 167.473 236.402 167.617 236.402 167.765C236.402 167.912 236.356 168.056 236.271 168.177C236.186 168.297 236.065 168.388 235.926 168.437L222.936 175.936C222.574 176.118 222.175 176.213 221.77 176.213C221.365 176.213 220.966 176.118 220.604 175.936L187.885 157.053C187.745 157.006 187.623 156.916 187.537 156.796C187.451 156.676 187.404 156.532 187.404 156.384C187.404 156.237 187.451 156.093 187.537 155.973C187.623 155.853 187.745 155.763 187.885 155.716Z" fill="#277FE5"/>
<path opacity="0.1" d="M223.937 173.195C225.335 172.388 225.335 171.084 223.937 170.285C223.153 169.887 222.286 169.68 221.407 169.68C220.528 169.68 219.661 169.887 218.877 170.285C217.473 171.091 217.466 172.395 218.877 173.195C219.661 173.592 220.528 173.799 221.407 173.799C222.286 173.799 223.153 173.592 223.937 173.195Z" fill="black"/>
<path opacity="0.1" d="M231.168 169.015C232.566 168.208 232.566 166.905 231.168 166.105C230.383 165.709 229.517 165.503 228.638 165.503C227.759 165.503 226.893 165.709 226.108 166.105C224.704 166.905 224.697 168.208 226.108 169.015C226.893 169.411 227.759 169.617 228.638 169.617C229.517 169.617 230.383 169.411 231.168 169.015Z" fill="black"/>
<path opacity="0.1" d="M217.385 169.404C218.783 168.598 218.783 167.294 217.385 166.495C216.601 166.099 215.734 165.893 214.855 165.893C213.976 165.893 213.11 166.099 212.325 166.495C210.921 167.294 210.914 168.598 212.325 169.404C213.11 169.8 213.976 170.006 214.855 170.006C215.734 170.006 216.601 169.8 217.385 169.404Z" fill="black"/>
<path opacity="0.1" d="M224.616 165.231C226.014 164.425 226.014 163.121 224.616 162.322C223.832 161.924 222.965 161.717 222.086 161.717C221.207 161.717 220.34 161.924 219.556 162.322C218.151 163.128 218.145 164.432 219.556 165.231C220.34 165.629 221.207 165.836 222.086 165.836C222.965 165.836 223.832 165.629 224.616 165.231Z" fill="black"/>
<path opacity="0.1" d="M210.833 165.621C212.231 164.815 212.231 163.511 210.833 162.711C210.049 162.314 209.182 162.107 208.303 162.107C207.424 162.107 206.557 162.314 205.773 162.711C204.369 163.518 204.362 164.822 205.773 165.621C206.557 166.019 207.424 166.226 208.303 166.226C209.182 166.226 210.049 166.019 210.833 165.621Z" fill="black"/>
<path opacity="0.1" d="M218.064 161.441C219.462 160.635 219.462 159.331 218.064 158.531C217.28 158.136 216.413 157.93 215.534 157.93C214.655 157.93 213.789 158.136 213.004 158.531C211.6 159.331 211.593 160.635 213.004 161.441C213.789 161.837 214.655 162.043 215.534 162.043C216.413 162.043 217.28 161.837 218.064 161.441Z" fill="black"/>
<path opacity="0.1" d="M204.288 161.831C205.686 161.025 205.686 159.721 204.288 158.921C203.503 158.525 202.637 158.319 201.758 158.319C200.879 158.319 200.013 158.525 199.228 158.921C197.823 159.721 197.817 161.025 199.228 161.831C200.013 162.227 200.879 162.433 201.758 162.433C202.637 162.433 203.503 162.227 204.288 161.831Z" fill="black"/>
<path opacity="0.1" d="M211.512 157.658C212.91 156.851 212.91 155.548 211.512 154.748C210.728 154.351 209.861 154.144 208.982 154.144C208.103 154.144 207.236 154.351 206.452 154.748C205.047 155.554 205.041 156.858 206.452 157.658C207.236 158.055 208.103 158.262 208.982 158.262C209.861 158.262 210.728 158.055 211.512 157.658Z" fill="black"/>
<path opacity="0.1" d="M197.729 158.048C199.127 157.241 199.127 155.938 197.729 155.138C196.945 154.741 196.078 154.533 195.199 154.533C194.32 154.533 193.453 154.741 192.669 155.138C191.265 155.944 191.258 157.248 192.669 158.048C193.453 158.445 194.32 158.652 195.199 158.652C196.078 158.652 196.945 158.445 197.729 158.048Z" fill="black"/>
<path opacity="0.1" d="M204.96 153.888C206.358 153.082 206.358 151.778 204.96 150.978C204.175 150.583 203.309 150.376 202.43 150.376C201.551 150.376 200.685 150.583 199.9 150.978C198.495 151.778 198.489 153.082 199.9 153.888C200.685 154.284 201.551 154.49 202.43 154.49C203.309 154.49 204.175 154.284 204.96 153.888Z" fill="black"/>
<path d="M232.035 167.503C232.038 167.559 232.038 167.615 232.035 167.671C232.025 167.91 231.986 168.146 231.921 168.376C231.719 168.639 231.465 168.856 231.175 169.015C230.39 169.41 229.524 169.617 228.645 169.617C227.766 169.617 226.899 169.41 226.115 169.015C225.83 168.857 225.579 168.644 225.375 168.39C225.308 168.153 225.267 167.91 225.255 167.664C225.255 167.61 225.255 167.55 225.255 167.496C225.255 167.442 225.255 167.375 225.255 167.321C225.255 167.267 225.255 167.019 225.255 166.871C225.401 165.293 226.093 163.815 227.21 162.691C227.587 162.324 228.092 162.118 228.618 162.118C229.144 162.118 229.649 162.324 230.026 162.691C231.141 163.802 231.831 165.27 231.975 166.837C231.975 166.999 231.975 167.16 231.975 167.321C231.999 167.38 232.019 167.441 232.035 167.503Z" fill="#FFFFFA"/>
<path d="M225.483 163.706C225.486 163.764 225.486 163.823 225.483 163.881C225.47 164.108 225.431 164.334 225.369 164.553C225.171 164.827 224.916 165.057 224.623 165.225C223.838 165.621 222.971 165.827 222.093 165.827C221.214 165.827 220.347 165.621 219.563 165.225C219.278 165.067 219.027 164.854 218.823 164.6C218.756 164.363 218.715 164.12 218.702 163.874C218.702 163.82 218.702 163.76 218.702 163.699C218.702 163.639 218.702 163.585 218.702 163.531C218.702 163.377 218.702 163.229 218.702 163.081C218.849 161.503 219.541 160.025 220.658 158.901C221.034 158.534 221.54 158.328 222.066 158.328C222.592 158.328 223.097 158.534 223.474 158.901C224.589 160.012 225.279 161.48 225.422 163.048C225.422 163.209 225.422 163.37 225.422 163.531C225.446 163.588 225.467 163.647 225.483 163.706Z" fill="#FFFFFA"/>
<path d="M224.804 171.676C224.808 171.734 224.808 171.792 224.804 171.85C224.791 172.078 224.753 172.303 224.69 172.522C224.486 172.781 224.233 172.996 223.944 173.154C223.16 173.554 222.293 173.762 221.414 173.762C220.534 173.762 219.667 173.554 218.884 173.154C218.596 173 218.344 172.787 218.145 172.529C218.077 172.295 218.036 172.054 218.024 171.81C218.024 171.756 218.024 171.696 218.024 171.635C218.024 171.575 218.024 171.514 218.024 171.461C218.024 171.407 218.024 171.165 218.024 171.017C218.169 169.439 218.861 167.96 219.979 166.837C220.356 166.47 220.861 166.264 221.387 166.264C221.913 166.264 222.418 166.47 222.795 166.837C223.909 167.947 224.598 169.411 224.744 170.977C224.744 171.138 224.744 171.299 224.744 171.461C224.769 171.531 224.79 171.603 224.804 171.676Z" fill="#FFFFFA"/>
<path d="M218.252 167.886C218.256 167.944 218.256 168.002 218.252 168.06C218.239 168.288 218.201 168.513 218.138 168.732C217.934 168.991 217.681 169.206 217.392 169.364C216.609 169.764 215.742 169.972 214.862 169.972C213.983 169.972 213.116 169.764 212.332 169.364C212.044 169.21 211.792 168.997 211.593 168.739C211.525 168.505 211.484 168.264 211.472 168.02C211.472 167.966 211.472 167.906 211.472 167.845C211.472 167.785 211.472 167.724 211.472 167.671C211.472 167.617 211.472 167.368 211.472 167.227C211.619 165.647 212.31 164.167 213.427 163.041C213.804 162.673 214.309 162.468 214.835 162.468C215.361 162.468 215.866 162.673 216.243 163.041C217.358 164.152 218.048 165.619 218.192 167.187C218.192 167.348 218.192 167.509 218.192 167.671C218.217 167.741 218.238 167.813 218.252 167.886Z" fill="#FFFFFA"/>
<path d="M218.931 159.936C218.934 159.994 218.934 160.053 218.931 160.111C218.92 160.35 218.882 160.587 218.817 160.817C218.615 161.079 218.361 161.296 218.071 161.455C217.287 161.852 216.42 162.059 215.541 162.059C214.662 162.059 213.795 161.852 213.011 161.455C212.723 161.301 212.471 161.088 212.271 160.83C212.203 160.596 212.163 160.354 212.151 160.111C212.151 160.057 212.151 159.997 212.151 159.936C212.151 159.876 212.151 159.822 212.151 159.768C212.151 159.714 212.151 159.466 212.151 159.318C212.297 157.74 212.989 156.262 214.106 155.138C214.483 154.771 214.988 154.565 215.514 154.565C216.04 154.565 216.545 154.771 216.922 155.138C218.037 156.249 218.727 157.717 218.871 159.284C218.871 159.446 218.871 159.607 218.871 159.768C218.894 159.823 218.914 159.879 218.931 159.936Z" fill="#FFFFFA"/>
<path d="M212.352 156.126C212.356 156.184 212.356 156.242 212.352 156.3C212.339 156.528 212.301 156.753 212.238 156.972C212.038 157.245 211.784 157.474 211.492 157.644C210.708 158.042 209.841 158.249 208.962 158.249C208.083 158.249 207.216 158.042 206.432 157.644C206.144 157.49 205.892 157.277 205.693 157.019C205.625 156.785 205.584 156.544 205.572 156.3C205.572 156.247 205.572 156.186 205.572 156.126C205.572 156.065 205.572 156.011 205.572 155.958C205.572 155.803 205.572 155.655 205.572 155.507C205.719 153.929 206.41 152.452 207.527 151.328C207.904 150.96 208.409 150.755 208.935 150.755C209.461 150.755 209.966 150.96 210.343 151.328C211.457 152.437 212.146 153.902 212.292 155.467C212.292 155.628 212.292 155.796 212.292 155.958C212.316 156.012 212.336 156.068 212.352 156.126Z" fill="#FFFFFA"/>
<path opacity="0.15" d="M126.134 175.963L152.107 190.955C152.898 191.356 153.771 191.565 154.657 191.565C155.544 191.565 156.417 191.356 157.208 190.955L185.58 174.572C186.984 173.759 186.984 172.442 185.58 171.629L159.6 156.643C158.811 156.242 157.938 156.034 157.053 156.034C156.168 156.034 155.295 156.242 154.506 156.643L126.134 173.02C124.723 173.833 124.723 175.15 126.134 175.963Z" fill="black"/>
<path d="M186.628 168.968C186.592 168.658 186.477 168.363 186.293 168.111C186.109 167.859 185.864 167.658 185.58 167.529L159.6 152.544C158.81 152.146 157.938 151.939 157.053 151.939C156.169 151.939 155.296 152.146 154.506 152.544L126.134 168.921C125.844 169.049 125.593 169.253 125.408 169.512C125.224 169.771 125.112 170.075 125.086 170.392C125.086 170.889 125.086 172.677 125.086 173.174C125.117 173.487 125.23 173.787 125.414 174.042C125.598 174.297 125.847 174.499 126.134 174.626L152.107 189.618C152.898 190.019 153.771 190.228 154.658 190.228C155.544 190.228 156.417 190.019 157.208 189.618L185.58 173.235C185.871 173.106 186.122 172.902 186.306 172.643C186.491 172.384 186.602 172.08 186.628 171.763C186.621 171.273 186.635 169.472 186.628 168.968Z" fill="#277FE5"/>
<path opacity="0.65" d="M186.628 168.968C186.592 168.658 186.477 168.363 186.293 168.111C186.109 167.859 185.864 167.658 185.58 167.529L159.6 152.544C158.81 152.146 157.938 151.939 157.053 151.939C156.169 151.939 155.296 152.146 154.506 152.544L126.134 168.921C125.844 169.049 125.593 169.253 125.408 169.512C125.224 169.771 125.112 170.075 125.086 170.392C125.086 170.889 125.086 172.677 125.086 173.174C125.117 173.487 125.23 173.787 125.414 174.042C125.598 174.297 125.847 174.499 126.134 174.626L152.107 189.618C152.898 190.019 153.771 190.228 154.658 190.228C155.544 190.228 156.417 190.019 157.208 189.618L185.58 173.235C185.871 173.106 186.122 172.902 186.306 172.643C186.491 172.384 186.602 172.08 186.628 171.763C186.621 171.273 186.635 169.472 186.628 168.968Z" fill="white"/>
<path d="M126.134 171.864L152.107 186.856C152.898 187.257 153.771 187.466 154.657 187.466C155.544 187.466 156.417 187.257 157.208 186.856L185.58 170.473C186.984 169.66 186.984 168.343 185.58 167.529L159.6 152.544C158.81 152.146 157.938 151.939 157.053 151.939C156.169 151.939 155.296 152.146 154.506 152.544L126.134 168.921C124.723 169.734 124.723 171.051 126.134 171.864Z" fill="#277FE5"/>
<path opacity="0.8" d="M126.134 171.864L152.107 186.856C152.898 187.257 153.771 187.466 154.657 187.466C155.544 187.466 156.417 187.257 157.208 186.856L185.58 170.473C186.984 169.66 186.984 168.343 185.58 167.529L159.6 152.544C158.81 152.146 157.938 151.939 157.053 151.939C156.169 151.939 155.296 152.146 154.506 152.544L126.134 168.921C124.723 169.734 124.723 171.051 126.134 171.864Z" fill="white"/>
<path d="M154.661 187.488V190.25C153.772 190.265 152.893 190.055 152.107 189.638L126.128 174.646C125.84 174.518 125.592 174.317 125.408 174.062C125.224 173.807 125.11 173.508 125.079 173.195C125.079 172.711 125.079 171.044 125.079 170.507C125.122 170.81 125.24 171.098 125.424 171.343C125.607 171.589 125.849 171.784 126.128 171.911L152.107 186.903C152.896 187.311 153.774 187.512 154.661 187.488Z" fill="#277FE5"/>
<path opacity="0.5" d="M154.661 187.488V190.25C153.772 190.265 152.893 190.055 152.107 189.638L126.128 174.646C125.84 174.518 125.592 174.317 125.408 174.062C125.224 173.807 125.11 173.508 125.079 173.195C125.079 172.711 125.079 171.044 125.079 170.507C125.122 170.81 125.24 171.098 125.424 171.343C125.607 171.589 125.849 171.784 126.128 171.911L152.107 186.903C152.896 187.311 153.774 187.512 154.661 187.488Z" fill="white"/>
<path opacity="0.15" d="M139.232 159.264C130.529 164.291 130.529 172.435 139.232 177.462C147.934 182.488 162.08 182.488 170.755 177.462C179.431 172.435 179.491 164.291 170.755 159.264C162.019 154.237 147.941 154.217 139.232 159.264Z" fill="black"/>
<path d="M173.786 151.65C173.656 151.65 173.53 151.606 173.428 151.527C173.325 151.448 173.251 151.337 173.217 151.212C173.184 151.087 173.192 150.954 173.242 150.834C173.291 150.714 173.378 150.613 173.49 150.548L175.876 149.17C176.299 148.929 176.548 148.633 176.548 148.337C176.548 148.042 176.252 147.632 175.742 147.336L171.273 144.755C170.604 144.406 169.864 144.216 169.109 144.201C168.355 144.185 167.607 144.345 166.925 144.668L164.533 146.046C164.466 146.084 164.392 146.109 164.316 146.119C164.24 146.129 164.163 146.124 164.088 146.104C164.014 146.084 163.944 146.049 163.883 146.003C163.822 145.956 163.771 145.897 163.733 145.831C163.695 145.764 163.67 145.69 163.66 145.614C163.65 145.538 163.655 145.461 163.675 145.386C163.695 145.312 163.729 145.242 163.776 145.181C163.823 145.12 163.881 145.069 163.948 145.031L166.334 143.647C167.197 143.221 168.148 143.008 169.11 143.024C170.072 143.041 171.016 143.286 171.864 143.741L176.333 146.314C176.722 146.498 177.057 146.781 177.302 147.135C177.547 147.489 177.695 147.901 177.731 148.33C177.711 148.722 177.584 149.101 177.365 149.427C177.146 149.752 176.843 150.012 176.488 150.178L174.048 151.57C173.968 151.617 173.879 151.644 173.786 151.65Z" fill="#E0E0E0"/>
<path d="M176.172 154.069C176.172 150.945 174.109 147.813 169.969 145.427C161.703 140.65 148.29 140.65 140.018 145.427C135.885 147.813 133.822 150.945 133.822 154.069V167.819C133.822 170.95 135.885 174.075 140.018 176.46C148.29 181.238 161.697 181.238 169.969 176.46C174.109 174.068 176.172 170.943 176.172 167.812V154.069Z" fill="#263238"/>
<path d="M140.018 145.427C131.752 150.199 131.752 157.94 140.018 162.718C148.284 167.496 161.697 167.496 169.969 162.718C178.241 157.94 178.241 150.205 169.969 145.427C161.697 140.65 148.29 140.65 140.018 145.427Z" fill="#37474F"/>
<path d="M141.254 146.496C133.668 150.696 133.668 157.517 141.254 161.717C148.841 165.917 161.146 165.923 168.739 161.717C176.333 157.51 176.326 150.696 168.739 146.496C161.152 142.296 148.841 142.256 141.254 146.496Z" fill="#263238"/>
<path d="M168.739 151.731C161.146 147.524 148.841 147.524 141.254 151.731C138.681 153.155 136.98 154.883 136.154 156.704C136.98 158.531 138.681 160.259 141.254 161.683C148.841 165.89 161.146 165.89 168.739 161.683C171.313 160.259 173.013 158.531 173.84 156.704C173.013 154.883 171.313 153.155 168.739 151.731Z" fill="#277FE5"/>
<path d="M140.374 170.157C139.361 170.17 138.361 169.922 137.471 169.438L133.002 166.857C132.613 166.674 132.28 166.391 132.035 166.037C131.791 165.683 131.645 165.27 131.611 164.841C131.633 164.447 131.76 164.066 131.98 163.739C132.2 163.411 132.505 163.149 132.861 162.98L135.267 161.589C135.334 161.544 135.41 161.513 135.49 161.499C135.569 161.484 135.651 161.486 135.73 161.505C135.808 161.523 135.882 161.557 135.947 161.605C136.012 161.653 136.067 161.714 136.107 161.784C136.148 161.854 136.174 161.932 136.183 162.012C136.192 162.093 136.185 162.174 136.162 162.251C136.138 162.329 136.099 162.401 136.047 162.462C135.995 162.524 135.931 162.575 135.858 162.61L133.453 164.001C133.023 164.243 132.781 164.546 132.781 164.841C132.781 165.137 133.076 165.513 133.587 165.843L138.049 168.417C138.719 168.767 139.46 168.958 140.215 168.974C140.971 168.99 141.72 168.832 142.404 168.511L144.796 167.167C144.863 167.128 144.936 167.103 145.012 167.093C145.089 167.083 145.166 167.089 145.24 167.109C145.315 167.128 145.384 167.163 145.445 167.21C145.506 167.257 145.557 167.315 145.596 167.382C145.634 167.448 145.659 167.522 145.669 167.598C145.679 167.674 145.674 167.752 145.654 167.826C145.634 167.9 145.599 167.97 145.553 168.031C145.506 168.092 145.447 168.143 145.381 168.181L142.988 169.566C142.181 169.98 141.282 170.184 140.374 170.157Z" fill="#E0E0E0"/>
<path opacity="0.5" d="M138.647 156.999C138.035 151.723 139.479 146.414 142.679 142.175C144.494 139.843 149.399 138.009 152.242 137.256C154.513 136.651 157.483 135.912 158.706 133.567C159.025 132.922 159.181 132.209 159.163 131.49C159.119 129.824 158.599 128.206 157.665 126.826C155.877 124.024 152.161 121.733 153.572 117.922C154.244 116.142 155.924 114.415 157.967 114.562C158.426 114.592 158.878 114.684 159.311 114.838C160.008 115.104 160.609 115.572 161.038 116.182C160.064 115.812 157.631 115.161 156.543 117.916C155.454 120.671 160.575 123.87 162.591 125.308C164.835 126.954 167.106 128.889 167.967 131.625C168.726 134.024 168.02 136.51 166.831 138.64C165.641 140.77 164.815 142.921 165.379 145.569C165.863 147.927 167.261 149.553 168.84 151.26C170.419 152.967 171.851 154.748 171.851 157.221C166.851 165.198 142.464 165.735 138.647 156.999Z" fill="#E0E0E0"/>
<path opacity="0.15" d="M92.8771 178.04C90.0615 179.659 90.0615 182.293 92.8771 183.92C94.4564 184.718 96.2013 185.134 97.9709 185.134C99.7405 185.134 101.485 184.718 103.065 183.92C105.88 182.293 105.88 179.659 103.065 178.04C101.486 177.238 99.7411 176.82 97.9709 176.82C96.2007 176.82 94.4555 177.238 92.8771 178.04Z" fill="black"/>
<path d="M101.848 182.28C102.962 181.539 103.86 180.516 104.45 179.316C105.04 178.116 105.302 176.78 105.208 175.446C105.089 174.464 104.717 173.53 104.128 172.736C103.539 171.942 102.753 171.315 101.848 170.916C100.642 170.369 99.3327 170.085 98.0079 170.085C96.6831 170.085 95.3737 170.369 94.1675 170.916C93.2622 171.315 92.4763 171.942 91.8871 172.736C91.2979 173.53 90.9258 174.464 90.8075 175.446C90.7123 176.782 90.9732 178.12 91.5634 179.323C92.1536 180.526 93.0522 181.551 94.1675 182.293H94.2011C94.3019 182.367 94.4094 182.435 94.5169 182.502C95.6068 183.052 96.8106 183.338 98.0315 183.338C99.2523 183.338 100.456 183.052 101.546 182.502L101.593 182.468L101.842 182.307L101.848 182.28Z" fill="#277FE5"/>
<path opacity="0.1" d="M105.188 175.446C105.168 175.254 105.137 175.063 105.094 174.875C104.168 175.009 103.296 175.392 102.572 175.984C101.847 176.576 101.298 177.354 100.982 178.235C100.414 179.706 100.362 181.326 100.834 182.831C101.063 182.743 101.288 182.642 101.506 182.529L101.553 182.495L101.801 182.334L101.869 182.287C102.976 181.54 103.866 180.515 104.449 179.313C105.032 178.112 105.287 176.778 105.188 175.446Z" fill="black"/>
<path opacity="0.1" d="M102.816 175.674C102.849 175.654 102.875 175.623 102.89 175.587C103.501 174.458 102.729 172.805 101.741 172.146C102.321 171.996 102.935 172.041 103.488 172.274C103.613 172.346 103.743 172.409 103.878 172.462C103.29 171.82 102.585 171.296 101.801 170.917C101.371 170.704 100.921 170.535 100.457 170.413C100.357 170.419 100.256 170.419 100.155 170.413C100.013 170.387 99.8778 170.332 99.7584 170.251C98.9438 170.096 98.1124 170.049 97.2854 170.11C97.2089 170.168 97.1253 170.215 97.0368 170.251H97.0032C96.8521 170.278 96.6974 170.278 96.5462 170.251L96.2035 170.218C95.4826 170.341 94.7833 170.567 94.127 170.89C93.7259 171.081 93.3416 171.306 92.9779 171.562H93.0921C93.8867 171.442 94.6988 171.527 95.4509 171.81C94.7851 172.207 94.2177 172.749 93.791 173.396C93.5883 173.812 93.4587 174.26 93.408 174.72C93.3744 174.935 93.4416 175.325 93.7507 175.258C93.8678 175.216 93.972 175.144 94.0531 175.049C94.7587 174.381 95.5809 173.848 96.479 173.477C96.6167 173.403 96.7759 173.379 96.9293 173.41C97.1913 173.497 97.1174 174.028 97.151 174.243C97.2048 174.633 97.272 175.022 97.3459 175.406C97.4198 175.789 97.5139 177.112 98.2262 176.716C98.3765 176.616 98.4991 176.48 98.5824 176.319C99.0945 175.422 99.3719 174.409 99.3888 173.376C99.5369 173.381 99.6819 173.42 99.8121 173.49C100.229 173.684 100.631 173.909 101.015 174.162C101.624 174.493 102.153 174.951 102.567 175.506C102.628 175.614 102.729 175.728 102.816 175.674Z" fill="black"/>
<path d="M97.0367 169.962H97.0031C96.8527 169.996 96.6966 169.996 96.5462 169.962C95.9067 169.868 95.257 169.868 94.6175 169.962C94.2139 170.053 93.8294 170.215 93.4819 170.439C93.3273 170.534 92.494 171.111 92.8502 171.273C92.9291 171.296 93.0132 171.296 93.0921 171.273C93.8868 171.157 94.6977 171.243 95.4508 171.521C94.7832 171.919 94.2154 172.463 93.791 173.114C93.5899 173.504 93.4537 173.924 93.3878 174.357C93.3542 174.572 93.4214 174.962 93.7305 174.888C93.8472 174.848 93.9514 174.779 94.0329 174.686C94.7382 174.016 95.5604 173.481 96.4588 173.107C96.596 173.031 96.7567 173.01 96.9091 173.047C97.1711 173.134 97.0972 173.658 97.1308 173.88C97.1846 174.27 97.2518 174.653 97.3257 175.043C97.3996 175.432 97.4937 176.75 98.206 176.353C98.3566 176.251 98.4791 176.112 98.5622 175.95C99.0819 175.057 99.3663 174.046 99.3887 173.013C99.5363 173.015 99.6814 173.052 99.8121 173.121C100.228 173.317 100.63 173.542 101.015 173.793C101.625 174.121 102.155 174.58 102.567 175.137C102.628 175.224 102.729 175.338 102.823 175.285C102.857 175.265 102.883 175.234 102.897 175.197C103.508 174.068 102.735 172.422 101.747 171.757C102.329 171.608 102.943 171.655 103.495 171.891C103.653 171.987 103.825 172.057 104.005 172.099C104.043 172.112 104.084 172.111 104.122 172.098C104.16 172.084 104.192 172.059 104.214 172.025C104.22 171.997 104.22 171.967 104.214 171.938C104.187 171.689 104.083 171.454 103.918 171.266C103.489 170.791 102.945 170.435 102.339 170.231C101.727 170.039 101.082 169.973 100.444 170.036C100.343 170.05 100.242 170.05 100.141 170.036C99.8691 169.966 99.6193 169.827 99.4156 169.633C99.1795 169.462 98.9003 169.359 98.6092 169.337C98.1687 169.305 97.7304 169.424 97.366 169.673C97.2671 169.781 97.1567 169.878 97.0367 169.962Z" fill="#277FE5"/>
<path opacity="0.5" d="M97.0367 169.962H97.0031C96.8527 169.996 96.6966 169.996 96.5462 169.962C95.9067 169.868 95.257 169.868 94.6175 169.962C94.2139 170.053 93.8294 170.215 93.4819 170.439C93.3273 170.534 92.494 171.111 92.8502 171.273C92.9291 171.296 93.0132 171.296 93.0921 171.273C93.8868 171.157 94.6977 171.243 95.4508 171.521C94.7832 171.919 94.2154 172.463 93.791 173.114C93.5899 173.504 93.4537 173.924 93.3878 174.357C93.3542 174.572 93.4214 174.962 93.7305 174.888C93.8472 174.848 93.9514 174.779 94.0329 174.686C94.7382 174.016 95.5604 173.481 96.4588 173.107C96.596 173.031 96.7567 173.01 96.9091 173.047C97.1711 173.134 97.0972 173.658 97.1308 173.88C97.1846 174.27 97.2518 174.653 97.3257 175.043C97.3996 175.432 97.4937 176.75 98.206 176.353C98.3566 176.251 98.4791 176.112 98.5622 175.95C99.0819 175.057 99.3663 174.046 99.3887 173.013C99.5363 173.015 99.6814 173.052 99.8121 173.121C100.228 173.317 100.63 173.542 101.015 173.793C101.625 174.121 102.155 174.58 102.567 175.137C102.628 175.224 102.729 175.338 102.823 175.285C102.857 175.265 102.883 175.234 102.897 175.197C103.508 174.068 102.735 172.422 101.747 171.757C102.329 171.608 102.943 171.655 103.495 171.891C103.653 171.987 103.825 172.057 104.005 172.099C104.043 172.112 104.084 172.111 104.122 172.098C104.16 172.084 104.192 172.059 104.214 172.025C104.22 171.997 104.22 171.967 104.214 171.938C104.187 171.689 104.083 171.454 103.918 171.266C103.489 170.791 102.945 170.435 102.339 170.231C101.727 170.039 101.082 169.973 100.444 170.036C100.343 170.05 100.242 170.05 100.141 170.036C99.8691 169.966 99.6193 169.827 99.4156 169.633C99.1795 169.462 98.9003 169.359 98.6092 169.337C98.1687 169.305 97.7304 169.424 97.366 169.673C97.2671 169.781 97.1567 169.878 97.0367 169.962Z" fill="black"/>
<path opacity="0.15" d="M99.3889 172.079C99.4131 172.408 99.4131 172.738 99.3889 173.067C99.5365 173.069 99.6815 173.106 99.8123 173.174C100.228 173.371 100.63 173.595 101.015 173.846C101.625 174.175 102.155 174.634 102.567 175.19C102.729 173.914 99.3486 171.857 99.3889 172.079Z" fill="black"/>
<path opacity="0.15" d="M97.0301 172.032C96.6134 172.032 94.3421 173.739 94.033 174.72C94.7382 174.05 95.5605 173.514 96.4589 173.141C96.5961 173.065 96.7568 173.043 96.9091 173.08C97.0032 173.08 97.0502 173.194 97.0838 173.309C97.0704 172.449 97.2451 172.032 97.0301 172.032Z" fill="black"/>
<path opacity="0.15" d="M102.762 183.127C99.9467 184.753 99.9467 187.387 102.762 189.007C104.341 189.808 106.086 190.226 107.856 190.226C109.626 190.226 111.372 189.808 112.95 189.007C115.759 187.387 115.759 184.753 112.95 183.127C111.371 182.328 109.626 181.912 107.856 181.912C106.087 181.912 104.342 182.328 102.762 183.127Z" fill="black"/>
<path d="M109.576 188.483C110.902 188.315 112.16 187.8 113.222 186.989C114.284 186.178 115.113 185.101 115.624 183.866C115.956 182.933 116.039 181.93 115.865 180.955C115.69 179.981 115.265 179.068 114.63 178.308C113.799 177.275 112.756 176.433 111.571 175.839C110.386 175.246 109.087 174.914 107.762 174.868C106.773 174.817 105.787 175.024 104.902 175.469C104.017 175.915 103.263 176.583 102.715 177.408C102.031 178.559 101.664 179.87 101.652 181.209C101.64 182.548 101.984 183.866 102.648 185.028V185.062C102.706 185.176 102.771 185.285 102.843 185.391C103.568 186.372 104.514 187.168 105.605 187.715C106.695 188.261 107.899 188.543 109.119 188.536H109.18L109.475 188.503L109.576 188.483Z" fill="#277FE5"/>
<path opacity="0.1" d="M113.407 183.013C113.447 183.01 113.485 182.993 113.514 182.965C114.563 182.233 114.61 180.412 114.025 179.377C114.611 179.506 115.139 179.822 115.53 180.277C115.608 180.397 115.696 180.509 115.792 180.613C115.552 179.779 115.158 178.998 114.63 178.309C114.35 177.93 114.033 177.581 113.682 177.267C113.587 177.231 113.497 177.183 113.413 177.126C113.297 177.04 113.201 176.93 113.131 176.803C112.47 176.306 111.75 175.893 110.988 175.573C110.892 175.587 110.794 175.587 110.699 175.573H110.658C110.497 175.544 110.344 175.483 110.208 175.392L109.912 175.211C109.213 174.998 108.486 174.887 107.755 174.881C107.305 174.88 106.855 174.918 106.411 174.996L106.519 175.049C107.288 175.296 107.982 175.736 108.535 176.326C107.761 176.379 107.009 176.609 106.337 176.998C105.982 177.253 105.673 177.567 105.423 177.925C105.296 178.107 105.181 178.483 105.491 178.557C105.614 178.572 105.738 178.555 105.853 178.51C106.782 178.229 107.755 178.119 108.723 178.188C108.881 178.182 109.035 178.232 109.16 178.329C109.355 178.524 109.052 178.967 108.985 179.175C108.857 179.552 108.743 179.921 108.636 180.298C108.528 180.674 108.024 181.904 108.837 181.87C109.018 181.849 109.19 181.78 109.334 181.669C110.2 181.103 110.908 180.326 111.391 179.411C111.521 179.481 111.634 179.579 111.72 179.7C112.004 180.064 112.262 180.448 112.493 180.849C112.888 181.425 113.152 182.081 113.266 182.771C113.259 182.871 113.299 183.019 113.407 183.013Z" fill="black"/>
<path d="M110.786 175.318H110.746C110.599 175.281 110.46 175.217 110.336 175.13C109.811 174.755 109.23 174.465 108.615 174.27C108.212 174.168 107.793 174.136 107.379 174.176C107.197 174.176 106.196 174.344 106.445 174.646C106.503 174.707 106.574 174.753 106.653 174.78C107.422 175.029 108.116 175.468 108.669 176.057C107.895 176.11 107.143 176.34 106.472 176.729C106.117 176.984 105.808 177.298 105.558 177.657C105.43 177.838 105.309 178.214 105.618 178.288C105.741 178.303 105.866 178.287 105.981 178.241C106.912 177.96 107.887 177.851 108.857 177.919C109.016 177.915 109.171 177.967 109.294 178.067C109.482 178.255 109.187 178.698 109.113 178.907C108.992 179.283 108.877 179.652 108.77 180.029C108.662 180.405 108.152 181.635 108.972 181.601C109.153 181.581 109.324 181.511 109.469 181.4C110.333 180.832 111.041 180.055 111.525 179.142C111.656 179.212 111.768 179.31 111.854 179.431C112.136 179.796 112.392 180.18 112.621 180.58C113.015 181.157 113.281 181.813 113.4 182.502C113.4 182.609 113.447 182.757 113.555 182.75C113.593 182.747 113.631 182.733 113.662 182.71C114.717 181.971 114.764 180.15 114.173 179.115C114.76 179.242 115.288 179.558 115.678 180.015C115.777 180.17 115.896 180.311 116.034 180.432C116.101 180.479 116.202 180.513 116.263 180.432C116.282 180.41 116.298 180.385 116.31 180.358C116.387 180.12 116.387 179.864 116.31 179.626C116.138 179.011 115.814 178.45 115.369 177.993C114.905 177.548 114.356 177.201 113.756 176.971C113.661 176.935 113.571 176.888 113.487 176.83C113.281 176.646 113.122 176.416 113.024 176.158C112.89 175.9 112.688 175.684 112.439 175.533C112.057 175.306 111.609 175.216 111.169 175.278C111.043 175.304 110.915 175.317 110.786 175.318Z" fill="#277FE5"/>
<path opacity="0.5" d="M110.786 175.318H110.746C110.599 175.281 110.46 175.217 110.336 175.13C109.811 174.755 109.23 174.465 108.615 174.27C108.212 174.168 107.793 174.136 107.379 174.176C107.197 174.176 106.196 174.344 106.445 174.646C106.503 174.707 106.574 174.753 106.653 174.78C107.422 175.029 108.116 175.468 108.669 176.057C107.895 176.11 107.143 176.34 106.472 176.729C106.117 176.984 105.808 177.298 105.558 177.657C105.43 177.838 105.309 178.214 105.618 178.288C105.741 178.303 105.866 178.287 105.981 178.241C106.912 177.96 107.887 177.851 108.857 177.919C109.016 177.915 109.171 177.967 109.294 178.067C109.482 178.255 109.187 178.698 109.113 178.907C108.992 179.283 108.877 179.652 108.77 180.029C108.662 180.405 108.152 181.635 108.972 181.601C109.153 181.581 109.324 181.511 109.469 181.4C110.333 180.832 111.041 180.055 111.525 179.142C111.656 179.212 111.768 179.31 111.854 179.431C112.136 179.796 112.392 180.18 112.621 180.58C113.015 181.157 113.281 181.813 113.4 182.502C113.4 182.609 113.447 182.757 113.555 182.75C113.593 182.747 113.631 182.733 113.662 182.71C114.717 181.971 114.764 180.15 114.173 179.115C114.76 179.242 115.288 179.558 115.678 180.015C115.777 180.17 115.896 180.311 116.034 180.432C116.101 180.479 116.202 180.513 116.263 180.432C116.282 180.41 116.298 180.385 116.31 180.358C116.387 180.12 116.387 179.864 116.31 179.626C116.138 179.011 115.814 178.45 115.369 177.993C114.905 177.548 114.356 177.201 113.756 176.971C113.661 176.935 113.571 176.888 113.487 176.83C113.281 176.646 113.122 176.416 113.024 176.158C112.89 175.9 112.688 175.684 112.439 175.533C112.057 175.306 111.609 175.216 111.169 175.278C111.043 175.304 110.915 175.317 110.786 175.318Z" fill="black"/>
<path opacity="0.15" d="M111.942 178.261C111.817 178.565 111.671 178.859 111.505 179.142C111.635 179.212 111.748 179.31 111.834 179.431C112.116 179.796 112.372 180.18 112.6 180.58C112.995 181.157 113.261 181.813 113.38 182.502C114.112 181.4 112.009 178.08 111.942 178.261Z" fill="black"/>
<path opacity="0.15" d="M109.845 177.18C109.476 176.991 106.7 177.509 105.961 178.241C106.892 177.96 107.867 177.851 108.837 177.919C108.996 177.915 109.15 177.967 109.274 178.067C109.305 178.105 109.326 178.15 109.334 178.198C109.342 178.246 109.338 178.296 109.321 178.342C109.704 177.549 110.04 177.274 109.845 177.18Z" fill="black"/>
<path opacity="0.15" d="M175.99 198.63C176.03 198.099 176.528 197.696 176.595 197.165C176.689 196.439 175.876 195.854 175.143 195.901C174.433 196.025 173.766 196.331 173.208 196.788C172.502 195.444 171.427 194.302 169.982 195.821C169.478 196.438 169.106 197.151 168.887 197.917C168.85 197.816 168.793 197.723 168.719 197.644C168.646 197.565 168.558 197.502 168.46 197.457C168.362 197.412 168.256 197.386 168.148 197.382C168.041 197.379 167.933 197.396 167.832 197.433C167.631 197.521 167.451 197.651 167.305 197.815C167.159 197.978 167.05 198.171 166.985 198.381C166.778 198.963 166.778 199.6 166.985 200.182C166.888 200.055 166.763 199.95 166.622 199.876C166.48 199.801 166.324 199.758 166.164 199.749C166.003 199.74 165.843 199.765 165.694 199.824C165.545 199.882 165.41 199.973 165.299 200.088C165.087 200.334 164.93 200.623 164.84 200.935C164.749 201.247 164.727 201.574 164.774 201.896C164.418 201.338 163.498 201.526 163.108 202.057C162.784 202.633 162.615 203.284 162.617 203.945C162.613 204.274 162.537 204.598 162.395 204.894C162.252 205.19 162.046 205.451 161.791 205.659L161.75 205.713C158.736 206.626 155.631 207.205 152.49 207.44C151.657 207.52 150.817 207.581 149.97 207.614C150.074 207.464 150.124 207.284 150.111 207.102C150.099 206.92 150.026 206.748 149.903 206.613C150.591 207.042 151.4 207.235 152.208 207.164C152.405 207.137 152.595 207.07 152.765 206.966C152.935 206.863 153.081 206.725 153.196 206.563C153.311 206.4 153.391 206.216 153.431 206.021C153.472 205.826 153.472 205.625 153.431 205.43C154.085 205.622 154.77 205.684 155.447 205.612C155.786 205.567 156.105 205.424 156.363 205.199C156.621 204.974 156.808 204.678 156.899 204.348C156.917 204.121 156.955 203.897 157.013 203.676C157.174 203.266 157.685 203.078 157.866 202.675C157.909 202.53 157.922 202.377 157.903 202.227C157.884 202.076 157.834 201.932 157.757 201.802C157.679 201.671 157.575 201.559 157.452 201.471C157.328 201.383 157.188 201.322 157.04 201.291C156.445 201.211 155.839 201.283 155.279 201.499C155.064 200.256 154.506 199.066 152.967 199.893C152.405 200.253 151.922 200.724 151.549 201.277C151.55 201.186 151.531 201.095 151.495 201.01C151.459 200.926 151.405 200.85 151.339 200.787C151.272 200.724 151.193 200.676 151.107 200.644C151.02 200.613 150.929 200.6 150.837 200.605C150.655 200.623 150.479 200.681 150.321 200.774C150.163 200.866 150.028 200.992 149.923 201.143C149.607 201.549 149.44 202.053 149.453 202.568C149.409 202.442 149.337 202.327 149.245 202.231C149.152 202.135 149.039 202.06 148.915 202.011C148.79 201.963 148.657 201.942 148.524 201.95C148.39 201.958 148.26 201.994 148.142 202.057C147.91 202.197 147.711 202.385 147.558 202.609C147.405 202.832 147.301 203.087 147.255 203.354C147.114 202.823 146.335 202.729 145.911 203.051C145.508 203.417 145.205 203.88 145.031 204.395C144.892 204.727 144.686 205.027 144.426 205.276C141.671 205.326 138.92 205.037 136.235 204.416C134.376 204.012 132.55 203.47 130.771 202.796C129.046 201.278 127.616 199.456 126.551 197.42C126.363 197.05 125.664 197.346 125.738 197.736C126.012 199.026 126.58 200.235 127.398 201.271C125.269 200.142 123.374 198.618 121.813 196.782C121.551 196.466 120.933 196.909 121.094 197.265C122.438 200.242 125.335 201.775 128.117 203.112C128.722 203.408 129.353 203.676 129.998 203.925C130.429 204.288 130.865 204.644 131.295 204.987C133.409 206.602 135.689 207.987 138.096 209.12C140.643 210.4 143.358 211.316 146.16 211.841L146.57 211.908C147.181 212.876 148.042 214.092 148.66 213.837L148.72 213.36C149.074 213.841 149.567 214.202 150.132 214.395C150.34 214.48 150.563 214.52 150.788 214.514C151.012 214.507 151.233 214.452 151.435 214.354C151.632 214.246 151.778 214.065 151.842 213.85C151.907 213.635 151.883 213.403 151.778 213.205C152.355 213.777 153.103 214.146 153.908 214.254C154.715 214.287 155.581 213.635 155.481 212.836C156.081 213.169 156.741 213.379 157.423 213.454C157.763 213.487 158.105 213.418 158.407 213.256C158.708 213.095 158.955 212.848 159.116 212.547C159.181 212.326 159.269 212.112 159.378 211.908C159.627 211.539 160.158 211.465 160.433 211.115C160.508 210.983 160.554 210.838 160.569 210.687C160.584 210.536 160.567 210.384 160.52 210.24C160.474 210.096 160.398 209.964 160.297 209.851C160.196 209.737 160.074 209.646 159.936 209.583C159.372 209.374 158.764 209.309 158.169 209.395C158.213 208.911 158.155 208.424 158.001 207.964C159.488 207.636 160.95 207.203 162.375 206.667L162.832 206.485C164.055 207.097 165.688 207.829 166.192 207.157L165.964 206.633C166.626 206.905 167.353 206.972 168.054 206.828C168.325 206.79 168.585 206.695 168.817 206.549C169.048 206.403 169.246 206.209 169.398 205.981C169.533 205.749 169.572 205.473 169.505 205.213C169.439 204.952 169.272 204.729 169.042 204.59C169.986 204.826 170.981 204.748 171.877 204.369C172.724 203.905 173.221 202.695 172.623 201.936C173.445 201.914 174.255 201.727 175.002 201.385C175.372 201.208 175.681 200.927 175.891 200.575C176.102 200.224 176.204 199.818 176.185 199.409C176.096 199.156 176.03 198.895 175.99 198.63ZM152.336 208.824C152.289 208.936 152.255 209.053 152.235 209.173C152.236 209.056 152.206 208.94 152.148 208.837L152.336 208.824ZM150.273 208.918C150.138 209.086 150.019 209.266 149.917 209.456C149.91 209.342 149.873 209.231 149.809 209.137C149.745 209.042 149.657 208.966 149.554 208.918H150.273ZM146.96 207.648C146.96 207.587 146.96 207.527 146.96 207.46C147.045 207.532 147.135 207.6 147.229 207.661L146.96 207.648ZM144.11 206.546H144.527C144.907 206.933 145.313 207.292 145.743 207.621C143.184 207.476 140.654 206.999 138.217 206.203C140.165 206.516 142.14 206.624 144.11 206.526V206.546ZM135.684 206.405C138.013 207.414 140.471 208.093 142.988 208.421C144.842 208.684 146.708 208.852 148.579 208.925C148.139 209.203 147.766 209.578 147.491 210.02C147.282 210.312 147.017 210.558 146.711 210.746C144.012 210.186 141.392 209.296 138.909 208.098C137.827 207.567 136.739 206.976 135.684 206.385V206.405Z" fill="black"/>
<path d="M161.784 204.073C162.039 203.865 162.245 203.604 162.388 203.308C162.531 203.012 162.607 202.688 162.611 202.359C162.609 201.7 162.778 201.052 163.101 200.478C163.491 199.947 164.412 199.759 164.768 200.31C164.721 199.988 164.743 199.661 164.834 199.349C164.924 199.037 165.08 198.748 165.292 198.502C165.404 198.388 165.54 198.299 165.689 198.242C165.838 198.185 165.998 198.16 166.158 198.17C166.318 198.179 166.474 198.223 166.615 198.297C166.757 198.372 166.881 198.476 166.979 198.603C166.772 198.02 166.772 197.384 166.979 196.802C167.042 196.592 167.151 196.398 167.297 196.234C167.443 196.071 167.624 195.941 167.825 195.854C167.926 195.817 168.034 195.799 168.142 195.803C168.249 195.807 168.355 195.833 168.453 195.877C168.551 195.922 168.639 195.986 168.713 196.065C168.786 196.144 168.843 196.237 168.88 196.338C169.106 195.557 169.493 194.831 170.016 194.208C171.461 192.696 172.536 193.845 173.242 195.182C173.801 194.726 174.467 194.418 175.177 194.289C175.91 194.248 176.723 194.833 176.629 195.559C176.561 196.083 176.064 196.486 176.024 197.017C176.04 197.294 176.083 197.568 176.151 197.837C176.169 198.246 176.067 198.651 175.857 199.002C175.646 199.353 175.338 199.635 174.969 199.812C174.22 200.151 173.411 200.339 172.59 200.364C173.188 201.123 172.691 202.332 171.844 202.789C170.949 203.173 169.952 203.251 169.008 203.011C169.238 203.152 169.403 203.377 169.47 203.638C169.536 203.899 169.498 204.175 169.364 204.409C169.212 204.636 169.014 204.829 168.783 204.973C168.551 205.118 168.291 205.212 168.02 205.249C167.32 205.397 166.591 205.329 165.93 205.054L166.159 205.578C165.487 206.479 162.517 204.678 161.636 204.281" fill="#277FE5"/>
<path opacity="0.25" d="M161.784 204.073C162.039 203.865 162.245 203.604 162.388 203.308C162.531 203.012 162.607 202.688 162.611 202.359C162.609 201.7 162.778 201.052 163.101 200.478C163.491 199.947 164.412 199.759 164.768 200.31C164.721 199.988 164.743 199.661 164.834 199.349C164.924 199.037 165.08 198.748 165.292 198.502C165.404 198.388 165.54 198.299 165.689 198.242C165.838 198.185 165.998 198.16 166.158 198.17C166.318 198.179 166.474 198.223 166.615 198.297C166.757 198.372 166.881 198.476 166.979 198.603C166.772 198.02 166.772 197.384 166.979 196.802C167.042 196.592 167.151 196.398 167.297 196.234C167.443 196.071 167.624 195.941 167.825 195.854C167.926 195.817 168.034 195.799 168.142 195.803C168.249 195.807 168.355 195.833 168.453 195.877C168.551 195.922 168.639 195.986 168.713 196.065C168.786 196.144 168.843 196.237 168.88 196.338C169.106 195.557 169.493 194.831 170.016 194.208C171.461 192.696 172.536 193.845 173.242 195.182C173.801 194.726 174.467 194.418 175.177 194.289C175.91 194.248 176.723 194.833 176.629 195.559C176.561 196.083 176.064 196.486 176.024 197.017C176.04 197.294 176.083 197.568 176.151 197.837C176.169 198.246 176.067 198.651 175.857 199.002C175.646 199.353 175.338 199.635 174.969 199.812C174.22 200.151 173.411 200.339 172.59 200.364C173.188 201.123 172.691 202.332 171.844 202.789C170.949 203.173 169.952 203.251 169.008 203.011C169.238 203.152 169.403 203.377 169.47 203.638C169.536 203.899 169.498 204.175 169.364 204.409C169.212 204.636 169.014 204.829 168.783 204.973C168.551 205.118 168.291 205.212 168.02 205.249C167.32 205.397 166.591 205.329 165.93 205.054L166.159 205.578C165.487 206.479 162.517 204.678 161.636 204.281" fill="black"/>
<path d="M172.032 197.917C169.282 200.539 166.025 202.571 162.463 203.892C159.233 204.958 155.883 205.617 152.49 205.854C145.965 206.492 138.976 205.854 133.352 202.285C132.928 202.023 132.33 202.823 132.68 203.105C135.287 205.054 139.306 206.331 142.968 206.821C146.08 207.302 149.234 207.442 152.376 207.238C155.782 206.989 159.136 206.266 162.342 205.088C165.836 203.744 170.345 201.392 172.341 198.018C172.476 197.83 172.119 197.817 172.032 197.917Z" fill="#277FE5"/>
<path opacity="0.1" d="M172.032 197.917C169.282 200.539 166.025 202.571 162.463 203.892C159.233 204.958 155.883 205.617 152.49 205.854C145.965 206.492 138.976 205.854 133.352 202.285C132.928 202.023 132.33 202.823 132.68 203.105C135.287 205.054 139.306 206.331 142.968 206.821C146.08 207.302 149.234 207.442 152.376 207.238C155.782 206.989 159.136 206.266 162.342 205.088C165.836 203.744 170.345 201.392 172.341 198.018C172.476 197.83 172.119 197.817 172.032 197.917Z" fill="black"/>
<path d="M143.916 203.986C144.173 203.889 144.405 203.737 144.596 203.539C144.787 203.342 144.931 203.104 145.018 202.843C145.19 202.327 145.494 201.864 145.898 201.499C146.341 201.177 147.121 201.271 147.242 201.802C147.289 201.534 147.392 201.279 147.545 201.054C147.698 200.829 147.897 200.64 148.129 200.498C148.247 200.436 148.377 200.401 148.51 200.393C148.643 200.386 148.776 200.407 148.9 200.456C149.024 200.504 149.137 200.579 149.23 200.674C149.323 200.769 149.394 200.883 149.439 201.009C149.427 200.494 149.593 199.99 149.91 199.584C150.015 199.435 150.152 199.311 150.309 199.22C150.467 199.128 150.642 199.071 150.824 199.053C150.915 199.048 151.007 199.061 151.093 199.092C151.18 199.124 151.258 199.172 151.325 199.235C151.392 199.298 151.445 199.374 151.481 199.458C151.518 199.543 151.536 199.633 151.536 199.725C151.909 199.172 152.392 198.7 152.954 198.341C154.493 197.514 155.051 198.697 155.266 199.947C155.825 199.728 156.431 199.656 157.026 199.739C157.175 199.77 157.315 199.831 157.438 199.919C157.562 200.007 157.666 200.119 157.743 200.249C157.821 200.379 157.871 200.524 157.89 200.675C157.909 200.825 157.896 200.978 157.853 201.123C157.665 201.519 157.181 201.714 156.999 202.124C156.942 202.344 156.903 202.569 156.885 202.796C156.795 203.127 156.609 203.423 156.351 203.648C156.092 203.873 155.773 204.016 155.434 204.06C154.757 204.134 154.072 204.074 153.418 203.885C153.693 204.637 152.988 205.471 152.195 205.619C151.386 205.69 150.576 205.494 149.89 205.061C150.036 205.231 150.11 205.452 150.095 205.675C150.08 205.899 149.977 206.108 149.809 206.257C149.634 206.398 149.431 206.501 149.213 206.558C148.995 206.614 148.768 206.624 148.546 206.586C147.955 206.528 147.396 206.294 146.94 205.914L146.98 206.391C146.221 206.929 144.325 204.725 143.727 204.187" fill="#277FE5"/>
<path opacity="0.25" d="M143.916 203.986C144.173 203.889 144.405 203.737 144.596 203.539C144.787 203.342 144.931 203.104 145.018 202.843C145.19 202.327 145.494 201.864 145.898 201.499C146.341 201.177 147.121 201.271 147.242 201.802C147.289 201.534 147.392 201.279 147.545 201.054C147.698 200.829 147.897 200.64 148.129 200.498C148.247 200.436 148.377 200.401 148.51 200.393C148.643 200.386 148.776 200.407 148.9 200.456C149.024 200.504 149.137 200.579 149.23 200.674C149.323 200.769 149.394 200.883 149.439 201.009C149.427 200.494 149.593 199.99 149.91 199.584C150.015 199.435 150.152 199.311 150.309 199.22C150.467 199.128 150.642 199.071 150.824 199.053C150.915 199.048 151.007 199.061 151.093 199.092C151.18 199.124 151.258 199.172 151.325 199.235C151.392 199.298 151.445 199.374 151.481 199.458C151.518 199.543 151.536 199.633 151.536 199.725C151.909 199.172 152.392 198.7 152.954 198.341C154.493 197.514 155.051 198.697 155.266 199.947C155.825 199.728 156.431 199.656 157.026 199.739C157.175 199.77 157.315 199.831 157.438 199.919C157.562 200.007 157.666 200.119 157.743 200.249C157.821 200.379 157.871 200.524 157.89 200.675C157.909 200.825 157.896 200.978 157.853 201.123C157.665 201.519 157.181 201.714 156.999 202.124C156.942 202.344 156.903 202.569 156.885 202.796C156.795 203.127 156.609 203.423 156.351 203.648C156.092 203.873 155.773 204.016 155.434 204.06C154.757 204.134 154.072 204.074 153.418 203.885C153.693 204.637 152.988 205.471 152.195 205.619C151.386 205.69 150.576 205.494 149.89 205.061C150.036 205.231 150.11 205.452 150.095 205.675C150.08 205.899 149.977 206.108 149.809 206.257C149.634 206.398 149.431 206.501 149.213 206.558C148.995 206.614 148.768 206.624 148.546 206.586C147.955 206.528 147.396 206.294 146.94 205.914L146.98 206.391C146.221 206.929 144.325 204.725 143.727 204.187" fill="black"/>
<path d="M153.639 201.748C151.093 203.092 147.39 203.616 144.554 203.717C141.754 203.783 138.956 203.496 136.228 202.863C130.852 201.681 125.348 199.503 121.8 195.209C121.538 194.893 120.92 195.337 121.081 195.693C122.425 198.663 125.321 200.202 128.103 201.54C130.521 202.65 133.051 203.497 135.65 204.066C138.415 204.752 141.263 205.046 144.11 204.94C147.235 204.792 151.429 204.08 153.881 201.916C154.022 201.795 153.747 201.694 153.639 201.748Z" fill="#277FE5"/>
<path d="M146.167 209.294C146.442 209.258 146.705 209.16 146.937 209.009C147.17 208.858 147.366 208.657 147.511 208.421C147.795 207.948 148.195 207.555 148.673 207.278C149.177 207.063 149.917 207.325 149.937 207.87C150.04 207.619 150.196 207.394 150.394 207.21C150.592 207.025 150.828 206.886 151.086 206.801C151.215 206.767 151.35 206.76 151.481 206.782C151.613 206.804 151.739 206.854 151.849 206.928C151.96 207.003 152.054 207.1 152.124 207.214C152.194 207.328 152.239 207.455 152.255 207.588C152.358 207.084 152.631 206.631 153.028 206.304C153.163 206.182 153.323 206.09 153.497 206.034C153.671 205.978 153.855 205.96 154.036 205.981C154.126 205.996 154.211 206.028 154.288 206.077C154.365 206.125 154.431 206.189 154.482 206.264C154.534 206.338 154.57 206.423 154.588 206.512C154.606 206.601 154.605 206.692 154.587 206.781C155.073 206.325 155.647 205.973 156.274 205.746C157.96 205.276 158.243 206.559 158.175 207.823C158.771 207.737 159.379 207.801 159.943 208.011C160.08 208.074 160.203 208.165 160.304 208.278C160.404 208.391 160.48 208.524 160.527 208.668C160.574 208.812 160.59 208.964 160.575 209.115C160.56 209.265 160.514 209.411 160.44 209.543C160.165 209.892 159.634 209.966 159.385 210.329C159.277 210.533 159.189 210.747 159.123 210.968C158.962 211.27 158.715 211.517 158.414 211.68C158.113 211.843 157.77 211.913 157.43 211.882C156.746 211.807 156.086 211.594 155.487 211.257C155.588 212.056 154.721 212.715 153.915 212.681C153.109 212.571 152.361 212.2 151.785 211.626C151.838 211.724 151.871 211.832 151.883 211.942C151.894 212.053 151.884 212.165 151.852 212.272C151.82 212.379 151.767 212.478 151.697 212.564C151.627 212.651 151.54 212.723 151.442 212.775C151.24 212.874 151.02 212.93 150.795 212.938C150.571 212.946 150.347 212.907 150.138 212.822C149.575 212.627 149.083 212.266 148.727 211.788L148.667 212.265C147.8 212.621 146.442 210.054 145.979 209.395" fill="#277FE5"/>
<path opacity="0.25" d="M146.167 209.294C146.442 209.258 146.705 209.16 146.937 209.009C147.17 208.858 147.366 208.657 147.511 208.421C147.795 207.948 148.195 207.555 148.673 207.278C149.177 207.063 149.917 207.325 149.937 207.87C150.04 207.619 150.196 207.394 150.394 207.21C150.592 207.025 150.828 206.886 151.086 206.801C151.215 206.767 151.35 206.76 151.481 206.782C151.613 206.804 151.739 206.854 151.849 206.928C151.96 207.003 152.054 207.1 152.124 207.214C152.194 207.328 152.239 207.455 152.255 207.588C152.358 207.084 152.631 206.631 153.028 206.304C153.163 206.182 153.323 206.09 153.497 206.034C153.671 205.978 153.855 205.96 154.036 205.981C154.126 205.996 154.211 206.028 154.288 206.077C154.365 206.125 154.431 206.189 154.482 206.264C154.534 206.338 154.57 206.423 154.588 206.512C154.606 206.601 154.605 206.692 154.587 206.781C155.073 206.325 155.647 205.973 156.274 205.746C157.96 205.276 158.243 206.559 158.175 207.823C158.771 207.737 159.379 207.801 159.943 208.011C160.08 208.074 160.203 208.165 160.304 208.278C160.404 208.391 160.48 208.524 160.527 208.668C160.574 208.812 160.59 208.964 160.575 209.115C160.56 209.265 160.514 209.411 160.44 209.543C160.165 209.892 159.634 209.966 159.385 210.329C159.277 210.533 159.189 210.747 159.123 210.968C158.962 211.27 158.715 211.517 158.414 211.68C158.113 211.843 157.77 211.913 157.43 211.882C156.746 211.807 156.086 211.594 155.487 211.257C155.588 212.056 154.721 212.715 153.915 212.681C153.109 212.571 152.361 212.2 151.785 211.626C151.838 211.724 151.871 211.832 151.883 211.942C151.894 212.053 151.884 212.165 151.852 212.272C151.82 212.379 151.767 212.478 151.697 212.564C151.627 212.651 151.54 212.723 151.442 212.775C151.24 212.874 151.02 212.93 150.795 212.938C150.571 212.946 150.347 212.907 150.138 212.822C149.575 212.627 149.083 212.266 148.727 211.788L148.667 212.265C147.8 212.621 146.442 210.054 145.979 209.395" fill="black"/>
<path d="M156.146 209.261C153.364 210.013 149.634 209.698 146.846 209.173C144.097 208.616 141.43 207.713 138.909 206.485C133.963 204.16 129.051 200.794 126.538 195.841C126.35 195.471 125.651 195.767 125.725 196.15C126.363 199.342 128.863 201.486 131.282 203.408C133.396 205.023 135.676 206.408 138.083 207.54C140.633 208.806 143.347 209.711 146.147 210.228C149.224 210.766 153.471 211.001 156.341 209.435C156.509 209.388 156.254 209.227 156.146 209.261Z" fill="#277FE5"/>
</svg>
