<svg width="332" height="332" viewBox="0 0 332 332" fill="none" xmlns="http://www.w3.org/2000/svg">
<path d="M166.677 326.568C254.191 326.568 325.134 283.653 325.134 230.713C325.134 177.774 254.191 134.858 166.677 134.858C79.1639 134.858 8.22034 177.774 8.22034 230.713C8.22034 283.653 79.1639 326.568 166.677 326.568Z" fill="#F5F5F5"/>
<path d="M195.216 148.451C187.195 153.099 187.195 160.595 195.216 165.23C203.237 169.865 216.252 169.878 224.279 165.23C232.307 160.582 232.307 153.085 224.279 148.451C216.252 143.816 203.257 143.816 195.216 148.451Z" fill="#E0E0E0"/>
<path d="M68.0601 236.842L20.0263 209.366C19.9122 209.312 19.8158 209.227 19.7482 209.121C19.6807 209.014 19.6448 208.891 19.6448 208.765C19.6448 208.639 19.6807 208.515 19.7482 208.409C19.8158 208.303 19.9122 208.218 20.0263 208.164L151.173 132.468C151.496 132.304 151.853 132.219 152.215 132.219C152.578 132.219 152.935 132.304 153.258 132.468L201.292 159.944C201.406 159.998 201.502 160.083 201.57 160.189C201.637 160.296 201.673 160.419 201.673 160.545C201.673 160.671 201.637 160.795 201.57 160.901C201.502 161.008 201.406 161.093 201.292 161.146L70.145 236.842C69.822 237.006 69.4648 237.092 69.1025 237.092C68.7403 237.092 68.3831 237.006 68.0601 236.842Z" fill="#E0E0E0"/>
<path d="M105.815 278.814C112.306 278.814 117.568 275.775 117.568 272.028C117.568 268.28 112.306 265.241 105.815 265.241C99.3242 265.241 94.0623 268.28 94.0623 272.028C94.0623 275.775 99.3242 278.814 105.815 278.814Z" fill="#E0E0E0"/>
<path d="M314.251 240.401L189.041 312.618L125.469 276.118L250.68 203.901L314.251 240.401Z" fill="#E0E0E0"/>
<path d="M32.1244 193.749C32.1244 193.749 32.4232 183.901 30.0262 177.095C27.6291 170.289 22.9479 165.376 18.1738 163.815C13.3996 162.255 8.42625 165.807 12.9016 170.13C17.377 174.453 25.8961 179.765 27.4299 192.255L32.1244 193.749Z" fill="#277FE5"/>
<g opacity="0.15">
<path opacity="0.15" d="M32.1244 193.749C32.1244 193.749 32.4232 183.901 30.0262 177.095C27.6291 170.289 22.9479 165.376 18.1738 163.815C13.3996 162.255 8.42625 165.807 12.9016 170.13C17.377 174.453 25.8961 179.765 27.4299 192.255L32.1244 193.749Z" fill="black"/>
</g>
<path d="M30.1921 189.419H30.2452C30.3152 189.408 30.378 189.369 30.4202 189.312C30.4623 189.255 30.4806 189.184 30.471 189.114C28.3196 175.296 19.7939 167.7 15.5908 165.628C15.5274 165.596 15.454 165.591 15.3867 165.614C15.3195 165.636 15.2639 165.684 15.2322 165.748C15.2005 165.811 15.1953 165.884 15.2177 165.952C15.2401 166.019 15.2883 166.075 15.3517 166.106C19.4752 168.131 27.8216 175.575 29.9597 189.193C29.967 189.252 29.994 189.306 30.0362 189.347C30.0785 189.388 30.1335 189.414 30.1921 189.419Z" fill="white"/>
<path d="M10.5709 180.754C10.624 181.803 11.4275 182.646 12.2044 183.364C12.9812 184.081 13.8179 184.851 13.9839 185.887C14.3292 187.978 11.7728 189.771 12.2044 191.863C12.636 193.954 15.2256 194.585 16.9121 195.289C18.0418 195.668 18.9768 196.477 19.515 197.54C19.7779 198.491 19.8389 199.486 19.6943 200.462C19.6279 202.254 19.94 204.917 21.414 206.145C23.1205 207.573 26.0156 208.357 28.054 207.38C31.8787 205.548 35.7631 202.633 36.1283 198.051C36.2277 196.705 36.0233 195.354 35.5303 194.098C35.0372 192.842 34.2681 191.713 33.2797 190.794C32.5228 190.097 31.6529 189.539 30.9358 188.802C29.4684 187.308 29.714 185.263 29.2625 183.344C28.8575 181.631 27.1975 180.801 25.5773 180.475C23.9572 180.15 22.337 180.475 20.8762 179.811C19.4154 179.147 18.2202 178.271 16.6864 177.819C15.8978 177.544 15.057 177.452 14.2277 177.55C13.3983 177.648 12.602 177.933 11.8989 178.384C11.5013 178.641 11.1725 178.991 10.9411 179.404C10.7096 179.817 10.5826 180.281 10.5709 180.754Z" fill="#277FE5"/>
<path d="M28.9903 202.44C29.0214 202.444 29.0529 202.441 29.0829 202.433C29.1129 202.424 29.1409 202.409 29.165 202.389C29.1892 202.369 29.2091 202.345 29.2236 202.317C29.2381 202.289 29.2468 202.259 29.2493 202.228C30.7898 187.421 17.3637 180.083 13.9773 179.061C13.9477 179.052 13.9165 179.049 13.8856 179.052C13.8548 179.055 13.8249 179.064 13.7976 179.079C13.7704 179.094 13.7464 179.114 13.7271 179.138C13.7078 179.162 13.6935 179.19 13.6851 179.22C13.6663 179.28 13.6717 179.345 13.7003 179.401C13.7288 179.457 13.7783 179.499 13.8379 179.519C17.1579 180.515 30.3051 187.693 28.8044 202.181C28.7966 202.24 28.8114 202.3 28.846 202.348C28.8805 202.396 28.9322 202.429 28.9903 202.44Z" fill="white"/>
<path d="M15.8498 189.632C15.8948 189.648 15.9441 189.648 15.9892 189.632C17.727 188.992 19.5846 188.744 21.4292 188.906C23.2738 189.068 25.0599 189.636 26.6597 190.568C26.7144 190.599 26.7792 190.608 26.8401 190.592C26.9011 190.576 26.9532 190.536 26.9851 190.482C27.0003 190.454 27.0101 190.424 27.0137 190.393C27.0173 190.362 27.0147 190.33 27.0061 190.3C26.9974 190.269 26.9829 190.241 26.9634 190.217C26.9438 190.192 26.9196 190.172 26.8921 190.156C25.2283 189.187 23.3709 188.598 21.4528 188.43C19.5347 188.263 17.6033 188.521 15.7967 189.187C15.7496 189.206 15.7101 189.24 15.6843 189.284C15.6585 189.328 15.6478 189.379 15.6539 189.43C15.6599 189.48 15.6823 189.527 15.7177 189.564C15.7531 189.6 15.7995 189.624 15.8498 189.632Z" fill="white"/>
<path d="M193.968 132.461C193.977 132.362 194.013 132.266 194.071 132.185C194.13 132.103 194.208 132.038 194.3 131.997C194.548 131.872 194.822 131.807 195.1 131.807C195.378 131.807 195.652 131.872 195.9 131.997C195.991 132.038 196.07 132.103 196.128 132.185C196.187 132.266 196.222 132.362 196.232 132.461L192.202 156.246C192.193 156.314 192.167 156.38 192.127 156.435C192.086 156.491 192.032 156.536 191.969 156.565C191.794 156.653 191.601 156.699 191.405 156.699C191.209 156.699 191.015 156.653 190.84 156.565C190.778 156.536 190.723 156.491 190.683 156.435C190.642 156.38 190.616 156.314 190.608 156.246L193.968 132.461Z" fill="#455A64"/>
<path d="M225.036 132.461C225.028 132.361 224.993 132.265 224.934 132.183C224.876 132.101 224.796 132.037 224.704 131.997C224.456 131.872 224.182 131.807 223.904 131.807C223.626 131.807 223.352 131.872 223.104 131.997C223.013 132.038 222.934 132.103 222.876 132.185C222.817 132.266 222.782 132.362 222.772 132.461L226.802 156.246C226.812 156.314 226.838 156.379 226.879 156.434C226.919 156.49 226.973 156.535 227.035 156.565C227.211 156.653 227.405 156.699 227.603 156.699C227.8 156.699 227.994 156.653 228.17 156.565C228.232 156.535 228.286 156.49 228.326 156.434C228.367 156.379 228.393 156.314 228.403 156.246L225.036 132.461Z" fill="#455A64"/>
<path d="M210.774 134.261C210.763 134.162 210.727 134.068 210.669 133.987C210.611 133.907 210.532 133.843 210.442 133.803C210.194 133.675 209.92 133.609 209.641 133.609C209.363 133.609 209.089 133.675 208.841 133.803C208.751 133.843 208.672 133.907 208.614 133.987C208.555 134.068 208.519 134.162 208.509 134.261L208.841 162.554C208.849 162.623 208.875 162.688 208.915 162.744C208.956 162.8 209.011 162.844 209.074 162.873C209.249 162.964 209.444 163.012 209.641 163.012C209.839 163.012 210.034 162.964 210.209 162.873C210.272 162.844 210.327 162.8 210.368 162.744C210.408 162.688 210.434 162.623 210.442 162.554L210.774 134.261Z" fill="#455A64"/>
<path d="M229.916 124.626C229.916 121.631 227.924 118.65 223.994 116.346C216.072 111.778 203.237 111.778 195.315 116.346C191.331 118.637 189.393 121.658 189.393 124.626V126.233C189.439 129.194 191.424 132.143 195.329 134.394C203.25 138.969 216.085 138.969 224.007 134.394C227.918 132.143 229.897 129.194 229.943 126.233L229.916 124.626Z" fill="#277FE5"/>
<path d="M195.302 116.346C187.381 120.921 187.381 128.331 195.302 132.906C203.224 137.481 216.059 137.475 223.981 132.906C231.902 128.338 231.902 120.954 223.981 116.346C216.059 111.738 203.224 111.778 195.302 116.346Z" fill="#277FE5"/>
<path opacity="0.45" d="M195.302 116.346C187.381 120.921 187.381 128.331 195.302 132.906C203.224 137.481 216.059 137.475 223.981 132.906C231.902 128.338 231.902 120.954 223.981 116.346C216.059 111.738 203.224 111.778 195.302 116.346Z" fill="white"/>
<g opacity="0.05">
<path opacity="0.05" d="M214.08 120.755C216.61 122.216 216.61 124.58 214.08 126.067C212.663 126.784 211.097 127.158 209.509 127.158C207.92 127.158 206.354 126.784 204.937 126.067C202.407 124.606 202.407 122.242 204.937 120.755C206.354 120.038 207.92 119.664 209.509 119.664C211.097 119.664 212.663 120.038 214.08 120.755Z" fill="black"/>
</g>
<path d="M205.488 123.723C203.284 121.479 201.995 115.875 204.16 114.095H215.076C217.221 115.875 215.933 121.479 213.748 123.723L213.689 123.783L213.609 123.856L213.41 124.035L213.357 124.075L213.191 124.201C213.101 124.266 213.008 124.325 212.912 124.38C211.897 124.898 210.774 125.167 209.635 125.167C208.496 125.167 207.373 124.898 206.358 124.38C206.258 124.327 206.165 124.268 206.066 124.201L205.913 124.082L205.847 124.035L205.661 123.863L205.568 123.776L205.488 123.723Z" fill="#EBEBEB"/>
<path d="M214.107 113.378C216.603 114.812 216.603 117.15 214.107 118.584C212.71 119.293 211.165 119.663 209.598 119.663C208.031 119.663 206.487 119.293 205.09 118.584C202.6 117.15 202.6 114.812 205.09 113.378C206.487 112.669 208.031 112.299 209.598 112.299C211.165 112.299 212.71 112.669 214.107 113.378Z" fill="#FAFAFA"/>
<path d="M212.341 114.394C213.861 115.27 213.861 116.691 212.341 117.568C211.49 117.997 210.551 118.22 209.598 118.22C208.646 118.22 207.706 117.997 206.856 117.568C205.342 116.691 205.342 115.27 206.856 114.394C207.706 113.965 208.646 113.741 209.598 113.741C210.551 113.741 211.49 113.965 212.341 114.394Z" fill="#EBEBEB"/>
<path d="M206.856 115.901C207.705 115.469 208.645 115.244 209.598 115.244C210.551 115.244 211.491 115.469 212.34 115.901C212.707 116.099 213.02 116.384 213.25 116.731C213.022 117.082 212.709 117.37 212.34 117.568C211.49 117.997 210.551 118.22 209.598 118.22C208.646 118.22 207.706 117.997 206.856 117.568C206.487 117.37 206.174 117.082 205.946 116.731C206.177 116.384 206.489 116.099 206.856 115.901Z" fill="#E0E0E0"/>
<path d="M212.009 116.731C212.789 115.939 213.459 115.046 214.001 114.075C214.917 112.455 215.089 110.284 214.611 110.012C214.133 109.739 212.208 111.911 212.208 111.911C212.386 110.999 212.455 110.07 212.414 109.142C212.334 107.701 211.982 106.386 211.564 106.127C211.145 105.868 210.236 107.681 209.831 109.002C209.426 110.324 209.2 111.406 209.2 111.406C209.04 110.378 208.803 109.363 208.489 108.371C208.005 106.997 207.566 106.692 207.228 106.824C206.889 106.957 206.67 107.601 206.564 109.421C206.526 110.293 206.552 111.168 206.643 112.037C206.643 112.037 205.979 111.286 205.209 110.563C204.439 109.839 204.027 109.653 203.788 109.806C203.549 109.958 203.483 111.2 204.771 113.524C205.408 114.706 206.226 115.782 207.195 116.711C207.195 116.711 208.974 117.88 212.009 116.731Z" fill="#277FE5"/>
<path opacity="0.3" d="M212.009 116.731C212.789 115.939 213.459 115.046 214.001 114.075C214.917 112.455 215.089 110.284 214.611 110.012C214.133 109.739 212.208 111.911 212.208 111.911C212.386 110.999 212.455 110.07 212.414 109.142C212.334 107.701 211.982 106.386 211.564 106.127C211.145 105.868 210.236 107.681 209.831 109.002C209.426 110.324 209.2 111.406 209.2 111.406C209.04 110.378 208.803 109.363 208.489 108.371C208.005 106.997 207.566 106.692 207.228 106.824C206.889 106.957 206.67 107.601 206.564 109.421C206.526 110.293 206.552 111.168 206.643 112.037C206.643 112.037 205.979 111.286 205.209 110.563C204.439 109.839 204.027 109.653 203.788 109.806C203.549 109.958 203.483 111.2 204.771 113.524C205.408 114.706 206.226 115.782 207.195 116.711C207.195 116.711 208.974 117.88 212.009 116.731Z" fill="black"/>
<path d="M210.787 84.2682C210.561 84.1141 210.297 84.0251 210.025 84.0111C209.752 83.997 209.48 84.0584 209.24 84.1885C207.726 84.8525 206.285 87.1367 206.026 89.3279C205.873 90.6559 206.172 91.5921 206.756 92.0237L208.277 93.1525C208.503 93.3037 208.766 93.3903 209.037 93.4032C209.309 93.4161 209.578 93.3547 209.817 93.2256C211.331 92.5616 212.772 90.2774 213.031 88.0862C213.184 86.7981 212.892 85.8353 212.314 85.4302C212.055 85.2045 211.046 84.4608 210.787 84.2682Z" fill="#277FE5"/>
<path opacity="0.3" d="M210.787 84.2682C210.561 84.1141 210.297 84.0251 210.025 84.0111C209.752 83.997 209.48 84.0584 209.24 84.1885C207.726 84.8525 206.285 87.1367 206.026 89.3279C205.873 90.6559 206.172 91.5921 206.756 92.0237L208.277 93.1525C208.503 93.3037 208.766 93.3903 209.037 93.4032C209.309 93.4161 209.578 93.3547 209.817 93.2256C211.331 92.5616 212.772 90.2774 213.031 88.0862C213.184 86.7981 212.892 85.8353 212.314 85.4302C212.055 85.2045 211.046 84.4608 210.787 84.2682Z" fill="black"/>
<path d="M213.449 76.7517C212.194 75.8288 210.528 75.676 208.596 76.506C205.276 77.9204 202.673 81.2271 200.754 85.7688C200.362 86.6918 200.395 87.6148 200.827 87.96C201.331 88.3651 202.201 88.9494 202.626 89.288C203.164 89.7196 204.114 89.0689 204.618 87.9069C205.946 84.6865 207.653 82.5285 209.977 81.5325C210.727 81.1755 211.573 81.0729 212.387 81.2404C212.648 81.6518 212.847 82.0992 212.978 82.5684C213.019 82.7433 213.117 82.8997 213.257 83.0132L215.07 84.3412C215.455 84.6201 216.092 84.3412 216.623 83.6308C216.893 83.2821 217.087 82.8815 217.195 82.4542C217.302 82.0269 217.32 81.582 217.248 81.1474C216.94 79.9466 216.256 78.8759 215.295 78.093L213.449 76.7517Z" fill="#277FE5"/>
<path opacity="0.3" d="M213.449 76.7517C212.194 75.8288 210.528 75.676 208.596 76.506C205.276 77.9204 202.673 81.2271 200.754 85.7688C200.362 86.6918 200.395 87.6148 200.827 87.96C201.331 88.3651 202.201 88.9494 202.626 89.288C203.164 89.7196 204.114 89.0689 204.618 87.9069C205.946 84.6865 207.653 82.5285 209.977 81.5325C210.727 81.1755 211.573 81.0729 212.387 81.2404C212.648 81.6518 212.847 82.0992 212.978 82.5684C213.019 82.7433 213.117 82.8997 213.257 83.0132L215.07 84.3412C215.455 84.6201 216.092 84.3412 216.623 83.6308C216.893 83.2821 217.087 82.8815 217.195 82.4542C217.302 82.0269 217.32 81.582 217.248 81.1474C216.94 79.9466 216.256 78.8759 215.295 78.093L213.449 76.7517Z" fill="black"/>
<path d="M219.93 74.4875C219.378 72.9849 218.42 71.6653 217.161 70.6762C216.849 70.4438 215.627 69.5341 215.322 69.3482C213.33 67.8475 210.621 67.6018 207.52 68.9298C202.62 71.0347 198.656 75.1714 195.521 81.7915C195.063 82.7676 195.037 83.7835 195.521 84.1753C196.046 84.6002 196.85 85.1315 197.321 85.5033C197.839 85.9283 198.735 85.324 199.253 84.2218C201.796 78.8035 204.891 75.6827 208.901 73.9563C210.973 73.0732 212.812 73.0467 214.319 73.7372C214.933 74.4357 215.417 75.2385 215.747 76.1077C215.8 76.2516 215.892 76.378 216.013 76.4729L217.819 77.8009C218.21 78.093 218.835 77.8474 219.372 77.1369C219.661 76.7667 219.86 76.3357 219.957 75.8766C220.054 75.4175 220.045 74.9425 219.93 74.4875Z" fill="#277FE5"/>
<path opacity="0.3" d="M219.93 74.4875C219.378 72.9849 218.42 71.6653 217.161 70.6762C216.849 70.4438 215.627 69.5341 215.322 69.3482C213.33 67.8475 210.621 67.6018 207.52 68.9298C202.62 71.0347 198.656 75.1714 195.521 81.7915C195.063 82.7676 195.037 83.7835 195.521 84.1753C196.046 84.6002 196.85 85.1315 197.321 85.5033C197.839 85.9283 198.735 85.324 199.253 84.2218C201.796 78.8035 204.891 75.6827 208.901 73.9563C210.973 73.0732 212.812 73.0467 214.319 73.7372C214.933 74.4357 215.417 75.2385 215.747 76.1077C215.8 76.2516 215.892 76.378 216.013 76.4729L217.819 77.8009C218.21 78.093 218.835 77.8474 219.372 77.1369C219.661 76.7667 219.86 76.3357 219.957 75.8766C220.054 75.4175 220.045 74.9425 219.93 74.4875Z" fill="black"/>
<path d="M213.031 88.0863C212.772 90.2775 211.331 92.5749 209.817 93.2256C208.303 93.8763 207.281 92.6347 207.54 90.4501C207.799 88.2655 209.24 85.9615 210.754 85.3107C212.268 84.66 213.29 85.9017 213.031 88.0863Z" fill="#277FE5"/>
<path d="M210.402 77.8407C207.082 79.2617 204.472 82.5684 202.56 87.1367C202.168 88.0597 202.201 88.9826 202.626 89.3279C203.164 89.7595 204.114 89.1088 204.618 87.9468C205.946 84.7264 207.653 82.5684 209.977 81.5724C212.301 80.5764 214.1 81.5724 214.784 83.9296C215.03 84.7861 215.92 84.6467 216.623 83.6773C216.893 83.3286 217.087 82.928 217.195 82.5007C217.302 82.0734 217.32 81.6285 217.248 81.1939C216.252 77.8606 213.702 76.4264 210.402 77.8407Z" fill="#277FE5"/>
<path d="M209.326 70.2313C204.419 72.3428 200.455 76.4729 197.328 83.0996C196.863 84.069 196.843 85.0916 197.328 85.4767C197.845 85.9017 198.742 85.2974 199.26 84.1952C201.803 78.777 204.897 75.6562 208.908 73.9298C212.918 72.2034 216.092 73.7173 217.54 77.4158C217.839 78.1727 218.675 78.0333 219.359 77.0904C219.644 76.7259 219.843 76.3022 219.941 75.8506C220.04 75.3989 220.036 74.9308 219.93 74.4809C218.131 69.979 214.246 68.1264 209.326 70.2313Z" fill="#277FE5"/>
<path d="M152.753 136.631L155.496 135.051L170.429 56.9247C170.927 54.3152 169.473 53.2727 167.169 54.6007L47.2635 123.743C44.7356 125.393 42.9256 127.938 42.1972 130.868L27.5494 207.507C27.4638 207.939 27.5143 208.388 27.6938 208.791C27.8733 209.194 28.1731 209.532 28.552 209.758L62.157 229.206L187.573 156.83L152.753 136.631Z" fill="#455A64"/>
<path d="M43.6978 131.831L29.0898 208.323L157.242 134.825L171.936 57.8809C172.434 55.278 170.973 54.2355 168.676 55.5635L48.7708 124.706C46.2404 126.355 44.4279 128.9 43.6978 131.831Z" fill="#263238"/>
<path d="M154.486 135.914L29.0632 208.323L63.1397 228.004L188.556 155.595L154.486 135.914Z" fill="#37474F"/>
<path d="M170.708 57.0575L49.8598 126.698C47.2038 128.225 46.3804 130.682 46.8519 133.962L59.9725 225.494C60.4439 228.755 63.0402 230.667 65.6895 229.133L185.455 160.024C188.111 158.497 189.871 154.612 189.406 151.346L176.352 60.1982C175.887 56.938 173.357 55.5303 170.708 57.0575Z" fill="#455A64"/>
<path d="M178.855 59.189C178.317 59.0038 177.743 58.944 177.178 59.0142C176.613 59.0844 176.071 59.2827 175.595 59.594L55.829 128.716C54.4871 129.558 53.4243 130.778 52.7746 132.222L48.9102 130.582C49.7601 128.73 51.2408 128.052 52.509 127.315L172.268 58.193C172.763 57.8658 173.329 57.6635 173.919 57.6034C174.509 57.5432 175.104 57.6271 175.654 57.8477L178.855 59.189Z" fill="#277FE5"/>
<path opacity="0.1" d="M178.855 59.189C178.317 59.0038 177.743 58.944 177.178 59.0142C176.613 59.0844 176.071 59.2827 175.595 59.594L55.829 128.716C54.4871 129.558 53.4243 130.778 52.7746 132.222L48.9102 130.582C49.7601 128.73 51.2408 128.052 52.509 127.315L172.268 58.193C172.763 57.8658 173.329 57.6635 173.919 57.6034C174.509 57.5432 175.104 57.6271 175.654 57.8477L178.855 59.189Z" fill="black"/>
<path d="M63.8568 230.142C62.6682 229.658 61.7918 228.423 61.5328 226.63L48.5582 135.987C48.2661 133.949 48.1665 132.123 48.9102 130.582L52.7746 132.222C52.675 132.435 52.5821 132.654 52.4891 132.886C52.3962 133.119 52.3563 133.245 52.2966 133.424C52.2927 133.451 52.2927 133.477 52.2966 133.504C52.2235 133.71 52.1638 133.922 52.1106 134.128C52.0575 134.334 52.0044 134.566 51.9712 134.792C51.9393 134.957 51.9171 135.123 51.9048 135.29C51.8052 135.993 51.8052 136.706 51.9048 137.408L64.9325 228.529C65.1914 230.342 66.0878 231.59 67.2897 232.068L63.8568 230.142Z" fill="#277FE5"/>
<path opacity="0.3" d="M67.2897 232.068L67.0971 231.988L63.8568 230.149C62.6683 229.664 61.7918 228.436 61.5328 226.637L48.5583 135.994C48.2595 133.949 48.1665 132.123 48.9035 130.582L52.2235 131.977C51.6485 133.413 51.4942 134.984 51.7787 136.505L51.9115 137.395L64.9325 228.542C64.946 228.656 64.9659 228.769 64.9923 228.881C65.0017 228.941 65.015 229.001 65.0321 229.06C65.0449 229.144 65.0649 229.226 65.0919 229.306C65.0919 229.392 65.1317 229.472 65.1583 229.551L65.2379 229.784C65.2688 229.877 65.3065 229.968 65.3508 230.056C65.3907 230.149 65.4305 230.235 65.477 230.322C65.5235 230.408 65.5633 230.488 65.6098 230.567C65.7459 230.805 65.9061 231.027 66.0879 231.231L66.2605 231.411L66.4531 231.583C66.7055 231.787 66.9877 231.95 67.2897 232.068Z" fill="black"/>
<path d="M175.595 59.6007L54.7467 129.234C52.0907 130.768 51.274 133.218 51.7388 136.538L64.9192 228.569C65.384 231.836 67.9138 233.217 70.5632 231.709L190.335 162.561C192.991 161.033 194.758 157.142 194.319 153.882L181.272 62.7414C180.774 59.4745 178.244 58.0735 175.595 59.6007Z" fill="#277FE5"/>
<path opacity="0.2" d="M175.595 59.6007L54.7467 129.234C52.0907 130.768 51.274 133.218 51.7388 136.538L64.9192 228.569C65.384 231.836 67.9138 233.217 70.5632 231.709L190.335 162.561C192.991 161.033 194.758 157.142 194.319 153.882L181.272 62.7414C180.774 59.4745 178.244 58.0735 175.595 59.6007Z" fill="black"/>
<path d="M183.297 162.016L76.3932 223.702C75.0187 224.498 73.7372 223.768 73.4649 222.075L60.8224 133.743C60.7213 132.877 60.8583 132.001 61.2187 131.207C61.5791 130.414 62.1492 129.734 62.8675 129.241L169.771 67.5554C171.146 66.7586 172.427 67.489 172.693 69.1822L185.342 157.527C185.444 158.391 185.307 159.266 184.946 160.057C184.586 160.849 184.015 161.526 183.297 162.016Z" fill="#263238"/>
<path d="M60.8224 133.743L73.4716 222.088L73.5114 222.287L180.415 160.595C181.136 160.105 181.708 159.427 182.068 158.634C182.429 157.841 182.565 156.965 182.461 156.1L169.778 67.5554L62.8741 129.241C62.1546 129.733 61.5832 130.413 61.2216 131.206C60.86 132 60.722 132.877 60.8224 133.743Z" fill="#277FE5"/>
<path opacity="0.85" d="M60.8224 133.743L73.4716 222.088L73.5114 222.287L180.415 160.595C181.136 160.105 181.708 159.427 182.068 158.634C182.429 157.841 182.565 156.965 182.461 156.1L169.778 67.5554L62.8741 129.241C62.1546 129.733 61.5832 130.413 61.2216 131.206C60.86 132 60.722 132.877 60.8224 133.743Z" fill="white"/>
<path d="M64.5208 183.158C64.5723 183.592 64.5035 184.032 64.3221 184.431C64.1406 184.829 63.8533 185.169 63.4916 185.415C62.8276 185.814 62.1636 185.449 62.0175 184.599C61.9698 184.16 62.0437 183.717 62.231 183.317C62.4184 182.918 62.7121 182.578 63.0799 182.334C63.7439 181.936 64.4079 182.301 64.5208 183.158Z" fill="#263238"/>
<path d="M61.0879 168.41C60.8065 168.603 60.583 168.868 60.4414 169.178C60.2998 169.488 60.2455 169.831 60.2845 170.17L61.4133 178.038C61.5062 178.702 62.0175 178.981 62.5553 178.702C62.8367 178.51 63.0603 178.244 63.2019 177.934C63.3435 177.624 63.3977 177.281 63.3588 176.943L62.23 169.074C62.1038 168.39 61.5925 168.105 61.0879 168.41Z" fill="#263238"/>
<path d="M149.945 178.158L135.184 186.677L131.738 188.669L108.537 202.049C110.184 187.441 112.907 166.956 115.841 160.402L148.377 161.066L149.945 178.158Z" fill="#455A64"/>
<path d="M144.4 169.054C142.229 176.365 135.589 179.944 135.589 179.944L135.184 186.71L131.738 188.702L132.707 178.53C132.707 178.53 141.173 175.084 144.4 169.054Z" fill="#37474F"/>
<path d="M137.136 116.393C139.699 114.779 144.586 113.498 148.749 114.925C154.832 111.439 160.177 112.123 165.303 112.9C166.571 113.093 170.774 112.482 171.571 113.205C172.175 113.757 172.348 114.401 172.64 115.682L170.084 122.488C165.642 123.371 163.078 124.48 156.717 125.463C151.704 126.253 148.497 126.744 147.946 129.115C143.473 125.697 139.787 121.359 137.136 116.393Z" fill="#FFA8A7"/>
<path d="M174.805 119.998C175.648 118.942 175.674 117.648 175.575 115.954C175.422 113.239 174.957 107.9 174.552 105.556C173.888 101.818 173.656 99.4739 172.879 97.0835C171.876 93.9892 172.215 92.0636 170.821 89.9654C169.426 87.8671 162.68 86.32 161.199 89.4076C160.369 91.1805 163.41 92.0636 163.497 93.3916C163.497 93.3916 161.12 95.2508 162.833 95.8883C164.161 96.3929 165.449 96.6054 165.847 100.808C166.199 104.52 164.958 108.657 164.958 114.268C164.958 116.578 166.12 123.378 166.12 123.378C168.975 122.608 172.919 122.362 174.805 119.998Z" fill="#FFA8A7"/>
<path d="M163.039 95.3438C163.238 96.0742 166.591 96.6718 167.341 96.5257C167.545 96.4971 167.738 96.4151 167.9 96.288C168.062 96.1609 168.188 95.9932 168.264 95.8019L170.568 96.5058L170.655 94.5868L163.191 94.2283C163.076 94.5885 163.025 94.9659 163.039 95.3438Z" fill="#F28F8F"/>
<path d="M170.084 115.536C170.084 115.536 169.625 113.106 165.031 111.459C165.031 111.904 164.958 112.422 164.958 112.834C166.889 113.228 168.667 114.166 170.084 115.536Z" fill="#F28F8F"/>
<path d="M157.521 86.6985C156.68 87.6329 156.071 88.7522 155.743 89.9658C155.416 91.1794 155.379 92.4532 155.635 93.6838C156.226 95.9082 158.032 96.3995 159.665 94.7727C160.506 93.8384 161.115 92.7191 161.443 91.5054C161.771 90.2918 161.808 89.0181 161.551 87.7875C160.96 85.5631 159.154 85.0717 157.521 86.6985Z" fill="#37474F"/>
<path d="M173.019 92.6877H172.985L159.36 88.8897C159.186 88.8492 159.003 88.8589 158.834 88.9177C158.665 88.9764 158.516 89.0818 158.404 89.2217C158.084 89.5768 157.851 90.0019 157.724 90.4631C157.597 90.9242 157.58 91.4087 157.674 91.8777C157.704 92.0535 157.782 92.2176 157.899 92.3522C158.016 92.4869 158.168 92.5868 158.338 92.6413L171.976 96.4659C172.149 96.5014 172.329 96.4886 172.495 96.4289C172.661 96.3692 172.808 96.2648 172.919 96.1273C173.238 95.7715 173.47 95.3461 173.595 94.885C173.721 94.4239 173.737 93.9398 173.643 93.4713C173.618 93.2969 173.547 93.1324 173.437 92.9947C173.327 92.8569 173.183 92.751 173.019 92.6877Z" fill="#263238"/>
<path d="M171.352 95.7089C171.578 96.5655 172.268 96.7514 172.899 96.1273C173.218 95.7715 173.45 95.3461 173.575 94.885C173.701 94.4239 173.717 93.9398 173.623 93.4713C173.613 93.2938 173.548 93.1238 173.436 92.9856C173.325 92.8474 173.172 92.748 173.001 92.7016C172.829 92.6552 172.647 92.6642 172.481 92.7273C172.315 92.7904 172.173 92.9044 172.076 93.0529C171.756 93.4087 171.525 93.8341 171.399 94.2952C171.273 94.7563 171.257 95.2405 171.352 95.7089Z" fill="#455A64"/>
<path d="M171.073 90.4169C170.442 88.5843 170.655 88.2058 169.134 87.8738C167.614 87.5418 167.6 86.2802 166.086 86.4595C164.572 86.6388 163.43 87.1235 162.766 86.9442C162.102 86.7649 160.741 87.4688 160.11 88.4847C159.48 89.5006 159.493 91.0012 159.579 92.0304C159.665 93.0596 160.721 94.3345 162.899 94.8923C165.077 95.45 167.288 95.9281 167.746 94.8923C168.105 94.0689 167.78 93.3651 167.886 92.9003C167.952 92.6203 168.081 92.359 168.263 92.1359C168.444 91.9128 168.674 91.7337 168.935 91.6121L170.004 91.9043L171.073 90.4169Z" fill="#FFA8A7"/>
<path d="M173.729 91.1672C172.888 92.1016 172.279 93.2209 171.951 94.4345C171.624 95.6481 171.587 96.9219 171.843 98.1525C172.441 100.377 174.24 100.868 175.874 99.2415C176.715 98.3071 177.325 97.188 177.653 95.9746C177.982 94.7611 178.021 93.4873 177.766 92.2562C177.169 90.0251 175.369 89.5404 173.729 91.1672Z" fill="#37474F"/>
<path d="M165.734 100.098C165.396 98.9957 163.271 97.6013 161.956 96.8909C161.437 96.6567 160.976 96.3119 160.604 95.8807C160.233 95.4494 159.96 94.9421 159.805 94.3942C159.752 94.1968 159.746 93.9898 159.786 93.7894C159.826 93.589 159.912 93.4006 160.037 93.2389C160.346 92.9778 160.685 92.7548 161.047 92.5749L162.481 91.8179C163.025 91.5257 163.543 91.1539 164.068 90.8219C164.194 90.7363 164.33 90.6672 164.473 90.6161C164.547 90.5933 164.624 90.5862 164.701 90.5954C164.778 90.6045 164.851 90.6297 164.918 90.6692C165.436 91.0344 165.369 92.037 165.157 92.5417C164.907 93.0213 164.572 93.4511 164.167 93.8099C163.801 94.1147 163.517 94.5077 163.344 94.952C163.264 95.3703 163.789 95.689 164.101 95.8285C164.675 96.097 165.276 96.304 165.894 96.446C166.697 96.6053 165.495 99.3211 165.734 100.098Z" fill="#FFA8A7"/>
<path d="M146.744 126.612C145.834 121.392 141.259 116.804 134.619 116.1L125.689 115.948C125.689 115.948 123.385 116.333 119.401 117.169C115.417 118.006 113.358 119.885 113.006 123.059C112.774 125.191 112.86 126.379 113.577 129.932L114.454 136.02C114.454 136.02 117.535 144.493 117.774 147.74C118.134 152.055 117.467 156.394 115.828 160.403C127.581 165.568 138.537 167.202 147.64 160.642C149.008 152.72 149.261 140.861 146.744 126.612Z" fill="#FFA8A7"/>
<path d="M149.148 134.672C148.072 122.176 137.136 116.393 137.136 116.393L129.726 114.872L119.274 117.196C119.274 117.196 121.884 130.171 114.48 136.014C114.48 136.014 115.031 138.324 116.3 143.092C117.568 147.86 118.511 154.241 114.646 161.817C114.646 161.817 117.9 165.031 130.244 165.9C142.587 166.77 148.404 161.066 148.404 161.066C148.404 161.066 150.197 147.202 149.148 134.672Z" fill="#277FE5"/>
<path opacity="0.1" d="M127.933 165.701C128.597 164.639 129.261 163.211 129.261 162.282C129.195 160.648 123.146 159.944 122.03 159.3C120.914 158.656 121.313 153.384 120.901 149.134C120.49 144.885 117.834 137.846 116.519 134.46L116.811 133.564C116.165 134.491 115.387 135.319 114.5 136.02C114.5 136.02 115.051 138.331 116.32 143.099C117.588 147.866 118.531 154.247 114.666 161.823C114.646 161.823 117.528 164.626 127.933 165.701Z" fill="black"/>
<path d="M119.274 117.203C119.274 117.203 114.181 115.875 110.822 117.867C108.059 119.5 106.559 121.472 105.264 125.416C103.084 127.13 101.127 129.111 99.4407 131.313C96.3863 135.489 94.1287 140.363 92.4222 143.039C91.4926 144.486 90.2576 145.874 90.5763 147.959C90.7024 148.769 91.2403 149.234 92.1765 150.13L101.539 147.521C104.288 144.52 110.39 140.217 114.155 135.35L114.48 136.014C116.085 135.013 117.427 133.643 118.394 132.018C119.361 130.392 119.925 128.559 120.038 126.671C120.483 118.962 119.274 117.203 119.274 117.203Z" fill="#FFA8A7"/>
<path d="M91.1406 149.055C92.1765 150.11 93.8564 152.534 97.1166 155.323C99.5933 157.448 105.032 160.635 107.077 161.81C109.892 163.43 110.961 164.227 113.132 165.522C114.772 166.491 118.391 168.364 121.837 168.384C123.829 168.384 126.333 167.116 127.873 164.114C128.663 162.58 126.18 161.598 122.84 161.06C118.67 160.396 117.86 159.493 116.831 158.948C116.167 158.576 116.167 158.118 116.426 157.375C116.614 156.846 116.754 156.302 116.844 155.748C116.685 155.635 115.881 155.748 114.958 156.478C113.843 157.375 112.907 157.594 110.257 154.878C107.515 152.063 106.399 149.294 102.814 146.246C99.2281 143.198 91.1406 149.055 91.1406 149.055Z" fill="#FFA8A7"/>
<path d="M116.432 133.331C116.499 132.322 116.486 131.837 116.486 131.837C115.772 133.042 114.994 134.208 114.155 135.33L114.48 135.994C115.207 135.559 115.876 135.035 116.472 134.433C116.419 134.069 116.406 133.699 116.432 133.331Z" fill="#F28F8F"/>
<path d="M102.8 146.233C101.971 145.787 101.06 145.514 100.122 145.429C99.1837 145.345 98.2383 145.451 97.3424 145.741C97.3424 145.741 99.6199 143.464 104.022 145.124L102.8 146.233Z" fill="#F28F8F"/>
<path d="M122.528 89.1818C121.849 89.3728 121.23 89.7351 120.731 90.2339C120.233 90.7327 119.87 91.3513 119.679 92.0304C119.181 93.6705 119.467 96.7713 120.496 100.835C121.142 103.517 122.117 106.108 123.398 108.551C123.796 109.242 124.445 109.753 125.21 109.978L125.064 105.158L124.865 101.791C124.865 101.791 127.01 98.8297 127.229 96.4128C127.515 93.3053 126.851 92.037 126.851 92.037L122.528 89.1818Z" fill="#37474F"/>
<path d="M122.747 90.2575L119.161 89.5205C119.263 89.0247 119.549 88.5861 119.963 88.2939C120.376 88.0016 120.885 87.8775 121.386 87.9468C121.628 88.0079 121.855 88.1164 122.055 88.2659C122.254 88.4154 122.422 88.6031 122.549 88.818C122.675 89.0329 122.758 89.2708 122.792 89.5179C122.826 89.765 122.811 90.0164 122.747 90.2575Z" fill="#37474F"/>
<path d="M122.84 89.3346L120.184 86.8578C120.52 86.4764 120.991 86.2418 121.498 86.2045C122.005 86.1673 122.506 86.3303 122.893 86.6586C123.068 86.8365 123.205 87.0475 123.297 87.2791C123.389 87.5108 123.434 87.7585 123.429 88.0078C123.424 88.257 123.37 88.5027 123.269 88.7306C123.167 88.9584 123.022 89.1638 122.84 89.3346Z" fill="#37474F"/>
<path d="M130.051 94.9055C130.066 96.4577 130.54 97.9707 131.414 99.2533C132.289 100.536 133.524 101.53 134.964 102.111C136.403 102.691 137.983 102.832 139.502 102.515C141.022 102.198 142.413 101.438 143.5 100.33C144.588 99.2222 145.322 97.8168 145.611 96.2917C145.9 94.7665 145.729 93.19 145.122 91.7614C144.515 90.3329 143.498 89.1166 142.199 88.2662C140.9 87.4158 139.379 86.9696 137.827 86.984C136.796 86.9935 135.777 87.206 134.829 87.6093C133.88 88.0125 133.02 88.5987 132.298 89.3343C131.576 90.0699 131.006 90.9405 130.621 91.8964C130.235 92.8523 130.041 93.8748 130.051 94.9055Z" fill="#37474F"/>
<path d="M124.991 101.253C124.181 101.964 123.511 100.145 122.827 99.4407C122.143 98.7368 119.905 97.7873 118.843 100.105C117.78 102.422 119.852 105.815 121.565 106.479C121.963 106.657 122.402 106.725 122.835 106.676C123.268 106.627 123.68 106.463 124.029 106.2L124.095 116.432C125.27 118.723 129.905 121.685 135.19 120.775C137.455 120.39 136.399 117.628 135.19 116.081L135.144 112.309C136.489 112.509 137.851 112.567 139.208 112.482C141.425 112.116 142.567 110.437 143.192 108.033C144.234 104.168 144.626 97.6877 143.099 90.2111C140.609 88.3054 132.003 88.6772 126.817 92.0105C127.276 98.6704 125.795 100.55 124.991 101.253Z" fill="#FFA8A7"/>
<path d="M144.334 84.9256C144.307 84.86 144.264 84.8027 144.208 84.7596C144.152 84.7164 144.085 84.6889 144.015 84.6799C143.902 84.6916 143.795 84.738 143.71 84.8127C143.084 85.3109 142.418 85.7552 141.718 86.1407C141.886 85.2634 141.886 84.362 141.718 83.4847C141.618 82.9402 141.452 81.672 140.775 81.5458C140.376 81.4662 140.024 81.8048 139.726 82.0837C137.036 84.6334 133.491 83.4847 130.23 83.6109C127.501 83.7105 124.215 84.8459 122.999 87.5019C122.442 88.7237 122.335 89.9986 123.471 90.8219C124.469 91.4793 125.605 91.8974 126.791 92.0437C132.236 92.9533 140.071 95.1445 144.055 90.0517C144.636 89.2923 144.928 88.3507 144.878 87.3957C144.879 86.5559 144.688 85.727 144.32 84.9721L144.334 84.9256Z" fill="#37474F"/>
<path d="M135.151 112.336C135.151 112.336 130.197 111.386 128.458 110.483C127.296 109.879 125.735 108.889 125.45 108.212C125.513 108.823 125.704 109.413 126.012 109.944C126.32 110.475 126.737 110.935 127.236 111.293C129.892 113.285 135.171 113.949 135.171 113.949L135.151 112.336Z" fill="#F28F8F"/>
<path d="M133.796 99.3743C133.803 99.6408 133.705 99.8994 133.522 100.094C133.339 100.288 133.086 100.401 132.82 100.41C132.551 100.405 132.295 100.294 132.107 100.101C131.92 99.9086 131.815 99.6498 131.817 99.3809C131.817 99.1167 131.922 98.8634 132.109 98.6766C132.296 98.4898 132.549 98.3849 132.813 98.3849C133.077 98.3849 133.331 98.4898 133.518 98.6766C133.704 98.8634 133.809 99.1167 133.809 99.3809L133.796 99.3743Z" fill="#263238"/>
<path d="M133.245 96.353L131.04 97.3557C130.913 97.0536 130.906 96.7139 131.022 96.4072C131.139 96.1006 131.369 95.8505 131.665 95.709C131.81 95.644 131.967 95.6092 132.127 95.6066C132.286 95.604 132.444 95.6337 132.592 95.6939C132.74 95.754 132.874 95.8434 132.986 95.9567C133.098 96.07 133.186 96.2048 133.245 96.353Z" fill="#263238"/>
<path d="M133.929 105.729L137.913 107.176C137.828 107.439 137.692 107.683 137.512 107.893C137.331 108.103 137.111 108.275 136.864 108.398C136.617 108.522 136.347 108.595 136.071 108.613C135.795 108.631 135.518 108.594 135.257 108.504C134.718 108.305 134.279 107.903 134.031 107.385C133.783 106.867 133.746 106.273 133.929 105.729Z" fill="#B16668"/>
<path d="M135.224 108.511C135.575 108.637 135.954 108.663 136.319 108.584C136.297 108.09 136.084 107.623 135.725 107.283C135.366 106.942 134.888 106.754 134.394 106.758C134.213 106.763 134.035 106.792 133.862 106.844C133.922 107.217 134.08 107.568 134.319 107.861C134.558 108.153 134.87 108.378 135.224 108.511Z" fill="#F28F8F"/>
<path d="M142.813 97.0104L140.516 96.1804C140.564 96.0286 140.642 95.888 140.745 95.767C140.849 95.6461 140.976 95.5473 141.118 95.4766C141.261 95.406 141.416 95.3648 141.575 95.3557C141.734 95.3465 141.893 95.3696 142.043 95.4234C142.349 95.5403 142.599 95.7695 142.742 96.0644C142.885 96.3592 142.911 96.6975 142.813 97.0104Z" fill="#263238"/>
<path d="M142.302 99.0821C142.295 99.2756 142.232 99.463 142.12 99.621C142.008 99.779 141.852 99.9006 141.672 99.9708C141.491 100.041 141.294 100.057 141.105 100.016C140.915 99.9752 140.742 99.8797 140.607 99.7414C140.471 99.6032 140.379 99.4281 140.342 99.238C140.305 99.0479 140.325 98.8512 140.398 98.6721C140.472 98.493 140.597 98.3395 140.757 98.2306C140.917 98.1217 141.106 98.0622 141.299 98.0595C141.568 98.063 141.824 98.1725 142.011 98.3641C142.199 98.5557 142.304 98.8138 142.302 99.0821Z" fill="#263238"/>
<path d="M136.87 97.9799L137.481 104.255L140.801 103.126L136.87 97.9799Z" fill="#F28F8F"/>
<path d="M314.251 235.089L189.041 307.306L125.469 270.806L250.68 198.589L314.251 235.089Z" fill="#277FE5"/>
<path opacity="0.7" d="M314.251 235.089L189.041 307.306L125.469 270.806L250.68 198.589L314.251 235.089Z" fill="white"/>
<path d="M314.251 235.089V236.862L189.041 309.079V307.306L314.251 235.089Z" fill="#277FE5"/>
<path opacity="0.5" d="M314.251 235.089V236.862L189.041 309.079V307.306L314.251 235.089Z" fill="white"/>
<path d="M189.041 307.306L125.469 270.806V272.579L189.041 309.079V307.306Z" fill="#277FE5"/>
<path opacity="0.4" d="M189.041 307.306L125.469 270.806V272.579L189.041 309.079V307.306Z" fill="white"/>
<path opacity="0.1" d="M197.407 291.821L195.993 291.005C195.03 290.447 195.03 289.55 195.993 289.013L199.154 287.187L189.286 281.483L186.126 283.309C185.585 283.58 184.988 283.722 184.383 283.722C183.778 283.722 183.181 283.58 182.64 283.309L181.226 282.485C180.263 281.934 180.263 281.031 181.226 280.493L190.814 274.896C191.352 274.621 191.949 274.477 192.553 274.477C193.158 274.477 193.754 274.621 194.293 274.896L195.714 275.713C196.677 276.27 196.677 277.167 195.714 277.705L192.221 279.697L202.088 285.4L205.581 283.408C206.121 283.136 206.716 282.995 207.321 282.995C207.925 282.995 208.521 283.136 209.06 283.408L210.481 284.232C211.444 284.783 211.444 285.686 210.481 286.224L200.893 291.755C200.359 292.04 199.764 292.195 199.158 292.207C198.552 292.218 197.952 292.086 197.407 291.821Z" fill="black"/>
<path d="M192.561 272.479C192.561 272.479 192.561 272.479 192.561 272.446C192.56 271.57 192.329 270.71 191.889 269.953C191.449 269.196 190.817 268.569 190.056 268.134C189.296 267.7 188.434 267.475 187.559 267.481C186.683 267.487 185.825 267.725 185.071 268.17H185.038L184.918 268.249C184.871 268.274 184.827 268.303 184.785 268.336C183.541 269.206 182.511 270.347 181.772 271.673C181.034 272.999 180.607 274.476 180.522 275.992V276.045C180.522 276.197 180.522 276.35 180.522 276.496C180.585 277.2 180.798 277.883 181.146 278.497C181.495 279.112 181.971 279.645 182.543 280.061C183.115 280.476 183.769 280.764 184.462 280.905C185.155 281.046 185.869 281.037 186.558 280.879C187.074 280.778 187.568 280.59 188.019 280.321C189.334 279.466 190.428 278.312 191.213 276.954C191.997 275.596 192.45 274.072 192.534 272.506C192.534 272.506 192.561 272.492 192.561 272.479Z" fill="#455A64"/>
<path d="M188.025 269.923C186.71 270.778 185.616 271.931 184.831 273.289C184.047 274.648 183.594 276.172 183.51 277.738C183.51 280.62 185.535 281.788 188.025 280.347C189.34 279.492 190.434 278.339 191.219 276.981C192.003 275.623 192.456 274.098 192.54 272.532C192.56 269.65 190.515 268.482 188.025 269.923Z" fill="#37474F"/>
<path d="M201.756 279.67H201.723L190.116 272.904C189.88 272.778 189.613 272.722 189.346 272.742C189.08 272.762 188.824 272.857 188.609 273.017C188.003 273.412 187.498 273.944 187.136 274.571C186.774 275.197 186.564 275.9 186.524 276.622C186.505 276.883 186.556 277.144 186.673 277.378C186.79 277.612 186.968 277.81 187.188 277.95L198.795 284.677C199.032 284.795 199.296 284.846 199.56 284.823C199.823 284.801 200.075 284.707 200.289 284.551C200.894 284.155 201.398 283.623 201.759 282.996C202.12 282.37 202.328 281.667 202.367 280.945C202.379 280.699 202.33 280.453 202.223 280.23C202.116 280.008 201.956 279.815 201.756 279.67Z" fill="#263238"/>
<path d="M198.177 283.402C198.177 284.73 199.107 285.268 200.256 284.604C200.861 284.208 201.365 283.676 201.726 283.049C202.087 282.423 202.295 281.72 202.334 280.998C202.334 279.67 201.405 279.132 200.256 279.796C199.65 280.192 199.147 280.724 198.786 281.351C198.425 281.977 198.216 282.68 198.177 283.402Z" fill="#455A64"/>
<path d="M207.58 281.164C207.581 280.511 207.453 279.865 207.203 279.261C206.954 278.658 206.589 278.11 206.127 277.648C205.666 277.186 205.118 276.82 204.515 276.569C203.912 276.319 203.266 276.191 202.613 276.191C201.73 276.182 200.86 276.411 200.096 276.855H200.063L199.944 276.928L199.804 277.014C198.562 277.885 197.533 279.027 196.796 280.353C196.059 281.679 195.632 283.155 195.548 284.67V284.73C195.548 284.876 195.548 285.029 195.548 285.181C195.612 285.886 195.825 286.568 196.174 287.183C196.524 287.798 197.001 288.331 197.573 288.746C198.146 289.161 198.8 289.449 199.493 289.59C200.186 289.731 200.901 289.722 201.59 289.564C202.107 289.466 202.601 289.277 203.051 289.006C204.366 288.151 205.46 286.997 206.245 285.639C207.029 284.281 207.482 282.757 207.566 281.191C207.566 281.191 207.58 281.184 207.58 281.164Z" fill="#455A64"/>
<path d="M203.071 278.608C201.755 279.464 200.661 280.618 199.876 281.978C199.091 283.337 198.639 284.862 198.556 286.43C198.556 289.305 200.548 290.473 203.071 289.033C204.386 288.177 205.48 287.024 206.265 285.666C207.049 284.308 207.502 282.783 207.586 281.217C207.586 278.336 205.561 277.174 203.071 278.608Z" fill="#37474F"/>
<path d="M114.088 257.526C113.749 256.301 113.288 255.114 112.714 253.98C112.654 253.847 112.588 253.721 112.528 253.588C111.978 252.527 111.699 251.346 111.716 250.15C111.732 248.955 112.043 247.782 112.621 246.736C112.667 246.663 112.707 246.59 112.747 246.517C113.459 245.292 113.826 243.896 113.81 242.48C113.765 241.704 113.531 240.951 113.13 240.285C112.728 239.62 112.171 239.063 111.505 238.662C111.162 238.464 110.805 238.291 110.436 238.144C110.095 238.01 109.802 237.778 109.595 237.476C109.388 237.174 109.276 236.817 109.274 236.45V234.392H102.588V236.484C102.582 236.85 102.467 237.206 102.258 237.506C102.049 237.807 101.754 238.038 101.413 238.17C101.041 238.311 100.681 238.482 100.337 238.681C99.6685 239.077 99.1068 239.63 98.7006 240.291C98.2944 240.953 98.0561 241.705 98.0063 242.48C97.9756 243.896 98.3314 245.294 99.0355 246.523L99.1484 246.729C99.7215 247.782 100.027 248.959 100.037 250.158C100.048 251.356 99.7629 252.539 99.2082 253.602C99.1418 253.728 99.0754 253.854 99.0156 253.987C98.4288 255.115 97.9593 256.301 97.6146 257.526C97.3741 258.71 97.265 259.917 97.2892 261.125L97.2494 270.859C97.2494 272.121 98.0727 273.389 99.7327 274.352C101.222 275.169 102.872 275.652 104.567 275.766C105.371 275.832 106.179 275.832 106.984 275.766C108.669 275.663 110.312 275.193 111.798 274.391C113.471 273.442 114.308 272.18 114.314 270.919V263.88C114.314 263.004 114.354 262.087 114.354 261.171C114.401 259.95 114.312 258.727 114.088 257.526Z" fill="#455A64"/>
<path d="M112.621 246.736C112.667 246.663 112.707 246.59 112.747 246.517C113.354 245.473 113.709 244.302 113.783 243.097C113.62 243.585 113.397 244.051 113.119 244.485C112.294 245.69 111.275 246.752 110.104 247.626C108.956 248.562 107.681 249.618 107.541 251.098C107.402 252.579 108.411 253.821 109.533 254.684C110.656 255.547 112.017 256.151 113.039 257.147C113.481 257.588 113.873 258.075 114.208 258.601C114.161 258.236 114.108 257.878 114.035 257.526C113.696 256.301 113.235 255.114 112.661 253.98C112.601 253.847 112.535 253.721 112.475 253.588C111.933 252.522 111.663 251.339 111.689 250.144C111.714 248.948 112.035 247.778 112.621 246.736Z" fill="#37474F"/>
<path d="M101.466 236.67V237.792C101.501 238.193 101.643 238.577 101.876 238.905C102.11 239.233 102.427 239.493 102.794 239.658C103.79 240.162 104.891 240.424 106.008 240.424C107.124 240.424 108.225 240.162 109.221 239.658C109.615 239.447 109.957 239.152 110.224 238.794C110.434 238.509 110.549 238.166 110.556 237.812V236.67C110.558 236.567 110.547 236.464 110.523 236.364C110.433 236.027 110.271 235.713 110.049 235.443C109.826 235.174 109.549 234.956 109.235 234.804L109.168 234.77C108.181 234.276 107.092 234.019 105.988 234.019C104.883 234.019 103.794 234.276 102.807 234.77C102.488 234.916 102.203 235.129 101.974 235.395C101.745 235.661 101.576 235.974 101.479 236.311C101.458 236.429 101.454 236.55 101.466 236.67Z" fill="#277FE5"/>
<path opacity="0.1" d="M101.466 236.67V237.792C101.501 238.193 101.643 238.577 101.876 238.905C102.11 239.233 102.427 239.493 102.794 239.658C103.79 240.162 104.891 240.424 106.008 240.424C107.124 240.424 108.225 240.162 109.221 239.658C109.615 239.447 109.957 239.152 110.224 238.794C110.434 238.509 110.549 238.166 110.556 237.812V236.67C110.558 236.567 110.547 236.464 110.523 236.364C110.433 236.027 110.271 235.713 110.049 235.443C109.826 235.174 109.549 234.956 109.235 234.804L109.168 234.77C108.181 234.276 107.092 234.019 105.988 234.019C104.883 234.019 103.794 234.276 102.807 234.77C102.488 234.916 102.203 235.129 101.974 235.395C101.745 235.661 101.576 235.974 101.479 236.311C101.458 236.429 101.454 236.55 101.466 236.67Z" fill="black"/>
<path opacity="0.2" d="M109.215 238.542C110.988 237.526 110.994 235.886 109.215 234.83C108.219 234.325 107.118 234.061 106.001 234.061C104.884 234.061 103.783 234.325 102.787 234.83C101.008 235.846 101.001 237.486 102.787 238.535C103.783 239.042 104.883 239.307 106 239.308C107.117 239.309 108.218 239.047 109.215 238.542Z" fill="black"/>
<path d="M101.466 235.355V236.019C101.464 236.126 101.475 236.233 101.499 236.338C101.591 236.673 101.754 236.985 101.976 237.253C102.198 237.521 102.475 237.738 102.787 237.891C103.662 238.364 104.635 238.626 105.629 238.655C106.87 238.744 108.112 238.487 109.215 237.911C109.611 237.701 109.955 237.407 110.224 237.048C110.368 236.85 110.47 236.624 110.523 236.384C110.547 236.282 110.558 236.177 110.556 236.072V235.375C110.521 234.975 110.379 234.591 110.145 234.264C109.912 233.937 109.595 233.679 109.228 233.516C109.148 233.469 109.069 233.423 108.982 233.383C108.01 232.935 106.949 232.713 105.879 232.731C104.809 232.749 103.757 233.009 102.8 233.489C102.432 233.653 102.114 233.912 101.879 234.24C101.645 234.568 101.502 234.953 101.466 235.355Z" fill="#277FE5"/>
<path opacity="0.1" d="M101.466 235.355V236.019C101.464 236.126 101.475 236.233 101.499 236.338C101.591 236.673 101.754 236.985 101.976 237.253C102.198 237.521 102.475 237.738 102.787 237.891C103.662 238.364 104.635 238.626 105.629 238.655C106.87 238.744 108.112 238.487 109.215 237.911C109.611 237.701 109.955 237.407 110.224 237.048C110.368 236.85 110.47 236.624 110.523 236.384C110.547 236.282 110.558 236.177 110.556 236.072V235.375C110.521 234.975 110.379 234.591 110.145 234.264C109.912 233.937 109.595 233.679 109.228 233.516C109.148 233.469 109.069 233.423 108.982 233.383C108.01 232.935 106.949 232.713 105.879 232.731C104.809 232.749 103.757 233.009 102.8 233.489C102.432 233.653 102.114 233.912 101.879 234.24C101.645 234.568 101.502 234.953 101.466 235.355Z" fill="black"/>
<path d="M101.466 235.335C101.466 236.776 103.491 237.951 106.001 237.991C108.511 238.031 110.549 236.836 110.556 235.395C110.563 233.954 108.531 232.778 106.021 232.739C103.511 232.699 101.472 233.894 101.466 235.335Z" fill="#277FE5"/>
<path d="M104.447 232.652V235.01C104.444 235.045 104.444 235.08 104.447 235.116C104.48 235.232 104.537 235.34 104.615 235.433C104.693 235.526 104.79 235.601 104.899 235.654C105.2 235.82 105.537 235.911 105.881 235.919C106.312 235.954 106.743 235.864 107.123 235.66C107.26 235.59 107.379 235.487 107.468 235.361C107.521 235.293 107.557 235.214 107.575 235.129C107.578 235.094 107.578 235.058 107.575 235.023V232.666C107.565 232.524 107.517 232.388 107.437 232.271C107.356 232.154 107.245 232.061 107.116 232.002L107.037 231.962C106.7 231.806 106.332 231.728 105.961 231.734C105.589 231.74 105.224 231.829 104.892 231.995C104.766 232.055 104.658 232.148 104.58 232.263C104.502 232.379 104.456 232.513 104.447 232.652Z" fill="#277FE5"/>
<path opacity="0.1" d="M104.447 232.652V235.01C104.444 235.045 104.444 235.08 104.447 235.116C104.48 235.232 104.537 235.34 104.615 235.433C104.693 235.526 104.79 235.601 104.899 235.654C105.2 235.82 105.537 235.911 105.881 235.919C106.312 235.954 106.743 235.864 107.123 235.66C107.26 235.59 107.379 235.487 107.468 235.361C107.521 235.293 107.557 235.214 107.575 235.129C107.578 235.094 107.578 235.058 107.575 235.023V232.666C107.565 232.524 107.517 232.388 107.437 232.271C107.356 232.154 107.245 232.061 107.116 232.002L107.037 231.962C106.7 231.806 106.332 231.728 105.961 231.734C105.589 231.74 105.224 231.829 104.892 231.995C104.766 232.055 104.658 232.148 104.58 232.263C104.502 232.379 104.456 232.513 104.447 232.652Z" fill="black"/>
<path d="M104.447 232.646C104.447 233.144 105.151 233.555 106.021 233.555C106.891 233.555 107.594 233.157 107.594 232.659C107.594 232.161 106.93 231.749 106.027 231.749C105.124 231.749 104.447 232.148 104.447 232.646Z" fill="#277FE5"/>
<path d="M105.463 232.652C105.463 232.825 105.709 232.971 106.021 232.971C106.333 232.971 106.579 232.832 106.579 232.652C106.579 232.473 106.333 232.334 106.021 232.334C105.709 232.334 105.463 232.473 105.463 232.652Z" fill="#277FE5"/>
<path opacity="0.3" d="M105.463 232.652C105.463 232.825 105.709 232.971 106.021 232.971C106.333 232.971 106.579 232.832 106.579 232.652C106.579 232.473 106.333 232.334 106.021 232.334C105.709 232.334 105.463 232.473 105.463 232.652Z" fill="black"/>
<path opacity="0.1" d="M268.674 225.322C268.223 227.095 268.435 228.987 267.924 230.74C267.187 233.25 265.062 235.116 262.785 236.397C253.734 241.483 242.274 239.053 232.387 242.234C229.326 243.223 226.112 245.169 225.514 248.329C225.083 250.6 226.178 252.977 227.878 254.538C229.644 256.039 231.715 257.14 233.947 257.765C242.758 260.673 252.267 260.374 261.443 258.96C271.184 257.453 280.367 251.888 283.78 249.292C289.092 245.275 292.97 238.768 292.034 232.194C291.177 226.218 285.586 221.796 280.128 219.777C275.806 218.177 269.85 220.734 268.674 225.322Z" fill="black"/>
<path d="M276.596 101.306C278.96 99.8125 283.482 98.6505 287.326 99.9785C293.966 97.6877 297.286 98.106 302.598 98.0993C303.787 98.0993 307.658 97.7208 308.388 98.3915C308.946 98.8961 309.112 99.4937 309.378 100.676L307.014 106.97C302.91 107.78 300.546 108.783 294.663 109.713C290.015 110.45 287.067 110.895 286.556 113.092C282.432 109.92 279.036 105.901 276.596 101.306Z" fill="#B16668"/>
<path d="M311.416 104.64C312.199 103.664 312.219 102.468 312.133 100.901C311.987 98.3915 311.071 93.5974 310.692 91.4593C310.095 87.9999 309.417 85.9149 308.926 83.1527C308.401 80.1913 308.713 78.6375 307.651 76.2936C306.682 74.1555 300.188 73.5181 298.846 76.3666C298.076 78.0067 300.892 78.8301 300.971 80.0784C300.971 80.0784 298.402 79.2749 298.939 80.8553C299.603 82.7543 302.027 82.6414 302.319 85.0717C302.737 88.4913 302.319 94.1884 302.319 99.3742C302.319 101.512 303.395 107.794 303.395 107.794C306.018 107.05 309.663 106.824 311.416 104.64Z" fill="#B16668"/>
<path d="M307.279 83.1527L308.269 80.0186L299.524 78.352C300.188 78.9429 300.918 79.4742 300.958 80.1116C300.958 80.1116 298.388 79.3081 298.926 80.8885C299.076 81.3044 299.327 81.6764 299.657 81.9708C300.509 82.4677 301.396 82.9005 302.313 83.2656C303.9 83.7503 305.108 83.5976 305.706 82.668C305.732 82.6082 307.279 83.1527 307.279 83.1527Z" fill="#9A4A4D"/>
<path d="M302.306 98.0263C304.128 98.0608 305.872 98.7707 307.2 100.018C307.2 100.018 306.868 97.5548 302.313 96.7514V97.9732L302.306 98.0263Z" fill="#9A4A4D"/>
<path d="M299.145 74.8394C298.978 74.2136 298.649 73.643 298.191 73.1852C297.733 72.7274 297.162 72.3987 296.536 72.2323C295.91 72.0659 295.252 72.0676 294.627 72.2375C294.001 72.4073 293.432 72.7391 292.977 73.1993C292.951 73.222 292.926 73.2464 292.904 73.2724L292.824 73.3587C292.102 74.2189 291.583 75.2313 291.307 76.3202C291.031 77.4091 291.005 78.5463 291.23 79.6468V79.68C291.23 79.7929 291.297 79.8991 291.33 79.9987C291.647 80.8585 292.273 81.5691 293.086 81.9916C293.899 82.4141 294.84 82.5179 295.726 82.2829C295.987 82.2081 296.241 82.1081 296.483 81.9841C296.831 81.8181 297.147 81.5935 297.419 81.3201C298.197 80.4572 298.76 79.4232 299.064 78.3018C299.367 77.1804 299.402 76.0033 299.165 74.866L299.145 74.8394Z" fill="#455A64"/>
<path d="M295.434 73.87C294.652 74.7344 294.086 75.7718 293.782 76.8971C293.479 78.0224 293.446 79.2037 293.687 80.344C294.238 82.4024 295.905 82.8539 297.412 81.3533C298.19 80.4905 298.754 79.4564 299.057 78.335C299.36 77.2137 299.395 76.0365 299.159 74.8992C298.607 72.8142 296.941 72.376 295.434 73.87Z" fill="#37474F"/>
<path d="M309.756 79.4011H309.723L297.107 75.8952C296.946 75.8576 296.777 75.8663 296.621 75.9204C296.465 75.9744 296.327 76.0716 296.224 76.2006C295.925 76.5314 295.709 76.9284 295.593 77.359C295.478 77.7896 295.466 78.2414 295.56 78.6773C295.584 78.8385 295.651 78.99 295.756 79.1153C295.86 79.2406 295.997 79.3349 296.151 79.3878L308.767 82.8937C308.926 82.9256 309.092 82.9134 309.245 82.8584C309.398 82.8035 309.534 82.7078 309.636 82.5817C309.935 82.2496 310.151 81.8514 310.267 81.4198C310.382 80.9881 310.394 80.5353 310.3 80.0983C310.277 79.9451 310.215 79.8006 310.119 79.6785C310.024 79.5564 309.899 79.4608 309.756 79.4011Z" fill="#263238"/>
<path d="M308.216 82.1899C308.222 82.3545 308.281 82.5128 308.384 82.6418C308.486 82.7708 308.627 82.8638 308.786 82.9074C308.945 82.951 309.114 82.943 309.268 82.8844C309.422 82.8258 309.553 82.7198 309.643 82.5816C309.942 82.2496 310.158 81.8514 310.274 81.4197C310.389 80.9881 310.4 80.5352 310.307 80.0983C310.095 79.3081 309.457 79.1355 308.88 79.7131C308.581 80.0439 308.365 80.4409 308.249 80.8715C308.134 81.3021 308.122 81.7539 308.216 82.1899Z" fill="#455A64"/>
<path d="M307.957 77.3028C307.379 75.6096 307.571 75.2577 306.164 74.9523C304.756 74.6468 304.749 73.4782 303.348 73.6243C301.947 73.7703 300.892 74.2883 300.267 74.0692C299.643 73.85 298.395 74.5605 297.817 75.4967C297.337 76.5163 297.168 77.6552 297.333 78.7703C297.412 79.7198 298.415 80.8486 300.347 81.6387C302.279 82.4289 305.088 83.6307 305.699 82.0172L304.902 81.7981C304.633 81.1875 304.595 80.4999 304.795 79.8633C304.996 79.2268 305.421 78.6849 305.991 78.3387L306.974 78.6109L307.957 77.3028Z" fill="#B16668"/>
<path d="M314.125 78.9629C313.873 78.0209 313.257 77.2176 312.413 76.7296C311.569 76.2415 310.565 76.1086 309.623 76.36C308.99 76.5268 308.414 76.8618 307.957 77.3294L307.89 77.4091L307.804 77.4954C307.08 78.3549 306.562 79.3675 306.287 80.4568C306.012 81.5461 305.988 82.6836 306.217 83.7835V83.8233C306.25 83.9296 306.283 84.0358 306.323 84.1421C306.64 85.0018 307.266 85.7125 308.079 86.135C308.892 86.5574 309.833 86.6613 310.719 86.4262C310.981 86.3561 311.235 86.2581 311.476 86.1341C311.824 85.9661 312.143 85.7417 312.419 85.4701C313.193 84.6057 313.753 83.5706 314.052 82.449C314.35 81.3275 314.38 80.1512 314.138 79.016C314.139 78.9974 314.135 78.9788 314.125 78.9629Z" fill="#455A64"/>
<path d="M310.413 77.9934C309.637 78.8568 309.074 79.8912 308.772 81.0125C308.47 82.1339 308.436 83.3107 308.674 84.4475C309.218 86.5059 310.885 86.9574 312.399 85.4501C313.174 84.5897 313.735 83.5588 314.037 82.4409C314.34 81.3231 314.374 80.1497 314.138 79.016C313.594 76.9443 311.927 76.4928 310.413 77.9934Z" fill="#37474F"/>
<path d="M232.154 248.535C231.935 248.608 231.902 249.863 232.101 250.295C232.3 250.726 233.701 252.287 236.523 252.838C239.345 253.389 243.23 252.838 244.897 252.738C246.563 252.639 251.809 253.276 253.475 253.502C256.092 253.854 258.123 253.283 259.086 252.333C259.245 252.143 259.362 251.922 259.429 251.684C259.497 251.446 259.513 251.197 259.478 250.952C259.431 249.843 259.332 249.624 259.199 249.624L232.154 248.535Z" fill="#37474F"/>
<path d="M258.767 246.344C258.821 246.565 258.867 246.787 258.907 247.008C259.16 248.122 259.243 249.269 259.153 250.408C258.945 250.786 258.66 251.117 258.317 251.379C257.974 251.641 257.58 251.828 257.161 251.928C255.169 252.552 253.681 252.453 251.497 252.041C249.299 251.717 247.078 251.58 244.857 251.629C242.931 251.862 240.992 251.96 239.053 251.922C237.591 251.856 236.148 251.56 234.777 251.045C233.628 250.554 232.46 249.93 232.181 248.748C232.1 247.957 232.264 247.161 232.65 246.466C233.035 245.772 233.625 245.212 234.339 244.863C236.444 243.628 239.133 243.608 241.503 243.535C243.409 243.476 245.388 243.429 247.081 242.553C247.92 242.004 248.791 241.508 249.691 241.065C250.346 240.934 251.018 240.903 251.683 240.972C253.163 240.939 254.644 240.906 256.118 240.893C256.523 240.893 256.928 240.893 257.327 240.893C258.123 240.959 258.269 243.715 258.362 244.246C258.442 244.671 258.455 245.116 258.568 245.527C258.628 245.8 258.701 246.072 258.767 246.344Z" fill="#455A64"/>
<path d="M245.68 243.09C244.729 243.852 244.097 244.941 243.907 246.145C243.947 246.981 242.48 247.054 242.44 246.218C242.44 246.218 242.572 244.325 243.721 243.422C244.322 243.106 245.008 242.99 245.68 243.09Z" fill="#FAFAFA"/>
<path d="M242.28 243.509C242.28 243.509 241.145 244.106 240.853 246.165C240.853 246.782 239.525 246.729 239.571 246.112C239.571 246.112 239.77 244.332 240.74 243.529C241.145 243.27 242.148 243.263 242.28 243.509Z" fill="#FAFAFA"/>
<path d="M272.3 223.316C271.802 225.269 271.862 226.112 272.439 227.639C273.263 229.837 274.723 230.846 275.706 231.703C276.819 232.689 277.793 233.821 278.601 235.069C279.402 236.435 280.423 237.66 281.622 238.695C282.559 239.472 285.148 239.492 286.39 238.94C287.632 238.389 288.037 237.911 287.924 235.919C287.811 233.927 281.742 233.363 281.742 233.363L272.3 223.316Z" fill="#37474F"/>
<path d="M286.981 230.029C287.492 230.215 287.645 231.191 287.758 233.13C287.851 234.598 288.508 236.742 286.503 237.705C284.883 238.489 282.266 238.044 281.131 236.676C279.723 234.976 278.761 233.476 276.749 231.404C275.009 229.604 273.223 229.027 272.386 225.381C271.855 223.038 272.864 222.061 274.431 221.397C276.589 220.428 279.584 222.725 281.144 223.801C282.406 224.638 286.463 229.85 286.981 230.029Z" fill="#455A64"/>
<path d="M281.144 223.695L280.852 223.602C279.864 223.679 278.914 224.016 278.098 224.578C277.282 225.14 276.629 225.907 276.204 226.802C275.919 227.466 276.835 227.938 277.359 227.427C277.815 226.557 278.477 225.811 279.288 225.256C280.098 224.7 281.031 224.351 282.007 224.239C281.76 224.001 281.466 223.816 281.144 223.695Z" fill="#FAFAFA"/>
<path d="M282.585 224.784C281.649 224.901 280.758 225.253 279.994 225.806C279.23 226.36 278.618 227.098 278.216 227.951C277.937 228.615 278.847 229.087 279.371 228.575C279.756 227.815 280.304 227.148 280.977 226.625C281.65 226.101 282.43 225.733 283.262 225.548C283.05 225.275 282.811 225.01 282.585 224.784Z" fill="#FAFAFA"/>
<path d="M286.496 187.069C286.158 179.924 286.934 167.408 286.855 158.616C289.119 150.881 287.519 147.62 285.527 143.802C284.061 140.887 282.392 138.078 280.533 135.396L275.885 154.978L268.429 162.906C268.429 162.906 272.871 185.94 273.966 190.907C274.896 195.13 279.942 230.355 279.942 230.355C280.414 232.652 285.759 232.944 287.027 231.318C287.386 223.502 288.813 201.272 288.833 198.782C288.906 191.484 286.496 187.069 286.496 187.069Z" fill="#B16668"/>
<path d="M254.06 151.963C254.06 151.963 251.105 194.286 251.105 202.686C251.105 205.9 249.352 242.28 249.352 242.28C249.352 243.23 250.235 243.934 252.42 243.841C255.534 243.701 257.3 243.124 257.426 242.513C257.519 242.081 262.293 222.121 263.528 215.601C264.438 210.739 264.612 205.767 264.046 200.853C265.806 191.491 269.358 171.086 270.188 164.386C270.912 158.656 254.06 151.963 254.06 151.963Z" fill="#B16668"/>
<path d="M255.102 136.704C253.595 145.821 253.323 148.656 252.214 160.343C251.351 169.439 250.819 195.734 250.78 199.406C250.74 203.078 250.042 225.76 250.042 225.76C250.042 225.76 256.902 228.343 261.264 226.424C261.264 226.424 263.196 218.522 264.033 214.937C265.208 209.904 265.182 206.358 264.611 200.694L269.591 169.752C269.591 169.752 273.575 191.982 274.757 198.304C275.938 204.625 277.087 210.767 277.087 210.767C278.951 211.445 280.928 211.758 282.91 211.69C284.923 211.609 286.858 210.891 288.435 209.638C288.435 209.638 289.019 201.258 289.039 198.423C289.072 193.901 288.674 191.65 286.755 186.943L287.386 158.596C287.386 158.596 289.451 153.557 288.05 148.636C286.27 142.481 280.845 133.225 280.845 133.225L255.102 136.704Z" fill="#37474F"/>
<path d="M269.584 169.798L271.576 162.441C271.576 162.441 277.745 161.95 281.025 157.693C279.976 159.685 278.966 162.056 273.402 164.174L271.456 171.684L274.338 196.212L269.584 169.798Z" fill="#263238"/>
<path d="M286.562 109.786C286.144 106.818 285.088 103.219 282.233 101.984C279.378 100.749 274.232 101.233 274.232 101.233C273.827 102.561 268.92 104.321 266.463 101.984C264.099 102.482 261.198 103.02 258.017 103.796C255.494 104.407 254.033 113.962 252.353 117.076C250.401 120.695 252.884 124.38 255.368 126.306C255.368 126.306 255.301 132.083 255.109 136.737C259.465 140.389 267.599 141.385 273.887 139.745C278.621 138.51 280.48 137.036 280.872 135.197C281.184 133.763 282.021 129.115 282.711 126.611C284.305 120.808 287.12 113.737 286.562 109.786Z" fill="#B16668"/>
<path d="M282.233 101.984C279.371 100.755 274.225 101.233 274.225 101.233C273.82 102.561 268.913 104.321 266.457 101.984C264.093 102.482 261.191 103.02 258.01 103.796C255.487 104.407 252.738 110.503 251.331 116.731C250.428 120.715 252.718 124.248 255.195 126.147C255.195 126.147 255.268 127.833 255.295 129.985C260.215 132.355 266.802 133.504 274.604 132.016C277.224 131.523 279.745 130.596 282.061 129.274C282.22 128.796 282.386 128.039 283.455 124.958C284.524 121.877 287.12 113.737 286.562 109.786C286.144 106.818 285.088 103.219 282.233 101.984Z" fill="#277FE5"/>
<path d="M258.011 103.796C254.179 103.538 249.956 104.7 248.256 112.229C246.928 114.135 244.843 116.399 242.944 119.301C240.82 122.621 239.624 125.463 237.632 129.095C235.7 132.959 236.563 134.121 238.469 135.894C240.215 137.521 250.879 144.526 251.517 145.336C252.154 146.146 251.517 154.068 252.665 155.197C252.665 155.243 252.665 155.256 252.665 155.197C252.665 154.951 252.884 153.928 253.177 152.654C253.804 150.632 254.697 148.703 255.833 146.917C256.789 145.31 257.665 143.484 257.386 141.605C257.234 140.562 255.746 139.832 254.73 138.849C252.041 136.279 246.942 131.266 246.942 131.266L259.232 117.455C261.357 114.706 262.572 106.306 258.011 103.796Z" fill="#B16668"/>
<path opacity="0.1" d="M246.961 131.273C245.899 132.276 244.701 133.126 243.402 133.796C244.934 133.598 246.381 132.982 247.586 132.016L246.961 131.273Z" fill="black"/>
<path d="M256.357 73.8965V73.8501C256.295 73.3944 256.327 72.9309 256.45 72.488C256.573 72.045 256.786 71.6318 257.074 71.2737C257.574 70.848 258.168 70.5475 258.807 70.3973C260.514 69.8594 262.22 69.3216 263.947 68.8501C267.2 67.9604 270.587 67.303 273.947 67.728C277.306 68.1529 280.626 69.7864 282.419 72.6482C282.775 73.1347 283.015 73.6954 283.123 74.2883C283.156 74.6867 282.997 75.0453 283.017 75.4503C283.077 76.692 283.681 77.9005 283.84 79.1289C283.997 80.4508 284.061 81.782 284.033 83.1129C284.033 88.6241 271.078 91.6453 271.164 95.4234C269.013 92.5682 266.864 89.7086 264.717 86.8445C264.717 86.4993 263.807 85.5962 263.608 85.2974C263.223 84.733 262.884 84.1288 262.532 83.5445C261.443 81.7185 259.604 80.7557 258.336 79.1089C257.17 77.6084 256.481 75.7928 256.357 73.8965Z" fill="#263238"/>
<path d="M258.821 83.5179C258.821 83.5179 256.47 86.6984 256.742 87.057C257.244 87.417 257.806 87.6846 258.402 87.8472L258.821 83.5179Z" fill="#9A4A4D"/>
<path d="M266.018 73.4251C263.827 74.4211 260.042 76.2737 258.714 83.996C257.386 91.9241 259.066 94.7727 260.129 95.8683C260.846 96.6053 264.684 97.0303 266.722 96.5323C269.265 95.8683 274.83 93.4646 277.559 89.4673C280.779 84.7529 281.682 78.3321 278.322 75.6495C273.628 71.8514 267.878 72.5818 266.018 73.4251Z" fill="#B16668"/>
<path d="M265.68 96.0742L265.58 102.468C267.745 105.324 275.739 104.839 275.341 101.333L275.494 94.6532L265.68 96.0742Z" fill="#B16668"/>
<path d="M260.354 96.0144C261.237 96.5522 263.747 96.8776 265.666 96.6784L265.713 95.2375C264.878 95.5561 264.016 95.7961 263.137 95.9546C262.218 96.1191 261.279 96.1393 260.354 96.0144Z" fill="#9A4A4D"/>
<path d="M265.089 73.1462C264.168 73.441 263.303 73.8901 262.532 74.4742C262.146 74.7691 261.827 75.1425 261.596 75.5698C261.41 75.9701 261.33 76.4113 261.364 76.8513C261.398 77.4504 261.59 78.0298 261.92 78.5311C262.25 79.0324 262.706 79.4378 263.243 79.7065C262.939 80.0889 262.722 80.533 262.607 81.0077C262.493 81.4825 262.483 81.9766 262.579 82.4555C262.928 83.5739 263.565 84.5812 264.425 85.3771C264.469 85.4297 264.523 85.4726 264.584 85.5033C264.646 85.5139 264.709 85.5111 264.77 85.495C264.831 85.479 264.887 85.4501 264.936 85.4103C266.324 84.567 267.227 83.0531 269.106 83.7569C271.563 84.6865 271.596 87.1168 270.022 89.2017C269.759 89.6174 269.407 89.9695 268.991 90.2324C268.576 90.4954 268.107 90.6627 267.619 90.7223C267.34 90.7577 267.058 90.7295 266.792 90.6397C266.526 90.55 266.285 90.4012 266.085 90.2044C266.085 90.2044 266.291 94.8524 269.723 96.5854C269.723 96.5854 273.243 97.8404 275.494 96.5124C276.895 94.1353 279.225 92.6147 280.806 90.5364C284.989 85.0185 288.634 75.7159 279.916 72.4357C279.617 72.3228 279.312 72.2166 279.006 72.1237C274.763 70.8264 270.199 71.0614 266.111 72.7877C265.773 72.8939 265.427 73.04 265.089 73.1462Z" fill="#263238"/>
<path d="M292.824 100.045C291.562 100.046 290.312 99.7979 289.145 99.3154C287.979 98.8329 286.919 98.1254 286.026 97.2331C285.133 96.3408 284.425 95.2813 283.941 94.1152C283.458 92.949 283.209 91.6991 283.209 90.4368V74.7531C285.758 74.7531 288.203 75.7652 290.006 77.5669C291.809 79.3685 292.822 81.8124 292.824 84.3612V100.045Z" fill="#263238"/>
<path d="M264.146 88.1792C263.918 88.0894 263.71 87.955 263.534 87.784C263.359 87.613 263.219 87.4087 263.123 87.1831C263.027 86.9575 262.977 86.7151 262.976 86.47C262.975 86.2249 263.023 85.982 263.117 85.7556C263.313 85.298 263.681 84.9358 264.142 84.747C264.603 84.5582 265.119 84.558 265.58 84.7463L264.146 88.1792Z" fill="#263238"/>
<path d="M282.459 74.441C282.625 74.5798 282.816 74.6842 283.023 74.7481C283.229 74.8119 283.447 74.834 283.662 74.813C283.877 74.7919 284.086 74.7283 284.276 74.6256C284.466 74.523 284.634 74.3835 284.77 74.2153C285.043 73.8708 285.17 73.4323 285.123 72.9949C285.076 72.5574 284.858 72.1562 284.517 71.878L282.459 74.441Z" fill="#263238"/>
<path d="M86.1473 73.8302L83.3319 68.5182L85.5962 61.9711V57.9871L78.6573 61.9711V65.9551L81.6387 71.121C81.6845 71.2028 81.7573 71.2662 81.8446 71.3003L86.1473 73.8302Z" fill="#277FE5"/>
<path opacity="0.2" d="M86.1473 73.8302L83.3319 68.5182L85.5962 61.9711V57.9871L78.6573 61.9711V65.9551L81.6387 71.121C81.6845 71.2028 81.7573 71.2662 81.8446 71.3003L86.1473 73.8302Z" fill="black"/>
<path d="M99.4605 42.2503C99.4217 41.5292 99.2133 40.8274 98.8522 40.2021C98.491 39.5767 97.9874 39.0454 97.3822 38.6514L95.689 37.6687C95.0428 37.345 94.3301 37.1765 93.6074 37.1765C92.8846 37.1765 92.1719 37.345 91.5257 37.6687L42.2901 66.2207C41.6848 66.6162 41.1811 67.1487 40.8201 67.7751C40.459 68.4015 40.2506 69.1042 40.2118 69.8262V84.1022C40.2511 84.8232 40.4597 85.5248 40.8208 86.1501C41.1819 86.7753 41.6853 87.3067 42.2901 87.7011L43.9833 88.6772C44.6284 89.0044 45.3416 89.175 46.065 89.175C46.7883 89.175 47.5015 89.0044 48.1466 88.6772L83 68.5182L85.9813 73.6774C86.0244 73.7506 86.0875 73.8098 86.1632 73.8483C86.2389 73.8867 86.324 73.9026 86.4085 73.8943C86.493 73.8859 86.5733 73.8535 86.6399 73.801C86.7066 73.7484 86.7569 73.6779 86.7847 73.5978L89.9321 64.5209L97.3689 60.1318C97.9742 59.7364 98.4779 59.2039 98.839 58.5775C99.2001 57.951 99.4084 57.2483 99.4472 56.5263L99.4605 42.2503Z" fill="#277FE5"/>
<path opacity="0.2" d="M40.2118 84.0823C40.2511 84.8033 40.4597 85.5049 40.8208 86.1302C41.1819 86.7555 41.6853 87.2868 42.2901 87.6812L43.9833 88.6573C44.5693 88.9531 45.2114 89.1215 45.8672 89.1512C46.523 89.181 47.1776 89.0715 47.788 88.8299C46.812 89.1951 46.0683 88.644 46.0683 87.4555V73.1861C46.0935 72.4622 46.3013 71.7564 46.6725 71.1343L40.8227 67.728C40.4465 68.3482 40.2361 69.0548 40.2118 69.7798V84.0823Z" fill="black"/>
<path opacity="0.4" d="M99.3941 41.6594C99.1484 40.7763 98.345 40.4974 97.4021 41.0485L48.1665 69.6005C47.5501 69.9814 47.0442 70.5171 46.6991 71.1543L40.8492 67.7811C41.192 67.1445 41.6957 66.6087 42.31 66.2274L91.5456 37.6754C92.1908 37.3482 92.9039 37.1776 93.6273 37.1776C94.3506 37.1776 95.0638 37.3482 95.7089 37.6754L97.4021 38.6515C97.9199 38.9925 98.3633 39.4348 98.7057 39.9517C99.048 40.4687 99.2822 41.0496 99.3941 41.6594Z" fill="white"/>
<path d="M48.472 76.6256C48.4207 76.5423 48.4017 76.4431 48.4189 76.3467C48.4332 76.2274 48.4716 76.1122 48.5318 76.0081L50.6698 72.2499C50.723 72.1569 50.7827 72.044 50.8624 71.9245C50.9259 71.8106 51.0173 71.7146 51.128 71.6456L52.3365 70.9484C52.3624 70.9237 52.3969 70.9099 52.4328 70.9099C52.4686 70.9099 52.5031 70.9237 52.529 70.9484C52.5587 70.9815 52.5812 71.0205 52.5949 71.0628C52.6086 71.1051 52.6133 71.1499 52.6087 71.1941V81.0811C52.6077 81.1985 52.5804 81.3141 52.529 81.4197C52.4904 81.5135 52.423 81.5925 52.3365 81.6455L51.0085 82.4024C50.9823 82.424 50.9494 82.4358 50.9155 82.4358C50.8816 82.4358 50.8487 82.424 50.8226 82.4024C50.7935 82.3689 50.7715 82.3298 50.7579 82.2877C50.7442 82.2455 50.7391 82.2009 50.7429 82.1567V75.4636L49.5543 77.5287C49.516 77.616 49.4477 77.6866 49.3618 77.7279C49.3298 77.7422 49.2937 77.7441 49.2605 77.733C49.2272 77.7219 49.1994 77.6988 49.1825 77.6681L48.472 76.6256Z" fill="#FAFAFA"/>
<path d="M53.8305 78.5512C53.8491 78.3865 53.8916 78.2255 53.9566 78.0731C54.0129 77.9196 54.1209 77.7904 54.2621 77.7079L55.4838 77.024C55.5053 77.0062 55.5323 76.9964 55.5602 76.9964C55.5881 76.9964 55.6151 77.0062 55.6366 77.024C55.6613 77.0505 55.68 77.082 55.6915 77.1163C55.7029 77.1507 55.7068 77.1872 55.703 77.2232C55.7066 77.2607 55.7066 77.2985 55.703 77.3361L54.9327 80.8287C54.9 80.9659 54.8533 81.0994 54.7933 81.2271C54.738 81.3704 54.6347 81.49 54.5011 81.5657L53.7574 81.9973C53.7366 82.0165 53.7094 82.0271 53.6811 82.0271C53.6528 82.0271 53.6256 82.0165 53.6047 81.9973C53.58 81.9708 53.5613 81.9393 53.5498 81.905C53.5384 81.8706 53.5344 81.8342 53.5383 81.7981L53.8305 78.5512Z" fill="#FAFAFA"/>
<path d="M62.1172 68.7306C62.1171 69.0282 62.0972 69.3255 62.0574 69.6204C62.0128 69.9329 61.944 70.2415 61.8516 70.5433C61.7501 70.8821 61.6236 71.2128 61.4731 71.5327C61.3035 71.9083 61.1128 72.2741 60.9021 72.6283L59.5077 75.032L62.0043 73.5911C62.0302 73.5663 62.0647 73.5525 62.1006 73.5525C62.1364 73.5525 62.1709 73.5663 62.1969 73.5911C62.2265 73.6242 62.249 73.6632 62.2627 73.7055C62.2764 73.7478 62.2811 73.7925 62.2765 73.8368V75.4569C62.2755 75.5743 62.2482 75.69 62.1969 75.7956C62.1565 75.89 62.0896 75.9708 62.0043 76.028L56.7587 79.0558C56.7321 79.0792 56.6978 79.092 56.6624 79.092C56.627 79.092 56.5928 79.0792 56.5661 79.0558C56.5371 79.0223 56.5151 78.9832 56.5014 78.941C56.4877 78.8989 56.4826 78.8543 56.4865 78.8101V77.4821C56.4869 77.3052 56.5092 77.129 56.5529 76.9576C56.5957 76.7643 56.6721 76.58 56.7786 76.4131L59.76 71.4597C59.9523 71.1547 60.0999 70.8238 60.1982 70.4769C60.2539 70.2598 60.2851 70.0371 60.2912 69.8129C60.2912 69.7399 60.2912 69.6469 60.2912 69.5274C60.2748 69.4148 60.2364 69.3065 60.1783 69.2087C60.1207 69.1184 60.0302 69.0541 59.926 69.0294C59.7682 69.0149 59.6104 69.0573 59.4811 69.1489C59.3014 69.2473 59.1468 69.3859 59.0296 69.554C58.9203 69.7045 58.829 69.8671 58.7573 70.0387C58.7016 70.1862 58.655 70.337 58.6179 70.4902L58.5581 70.8156C58.5362 70.9507 58.4815 71.0784 58.3988 71.1874C58.3337 71.2714 58.2524 71.3414 58.1597 71.3933L56.9313 72.1037C56.9099 72.1216 56.8829 72.1313 56.855 72.1313C56.8271 72.1313 56.8001 72.1216 56.7786 72.1037C56.7331 72.0479 56.7116 71.9762 56.7189 71.9045C56.73 71.4392 56.7901 70.9762 56.8981 70.5234C56.999 70.0179 57.1572 69.5256 57.3696 69.056C57.5971 68.58 57.8825 68.1339 58.2195 67.728C58.5583 67.3198 58.9676 66.9757 59.428 66.7121C59.775 66.4863 60.1763 66.3578 60.59 66.3402C60.8981 66.3356 61.1968 66.447 61.4266 66.6523C61.672 66.8843 61.8508 67.1778 61.9445 67.5022C62.0619 67.901 62.12 68.3149 62.1172 68.7306Z" fill="#FAFAFA"/>
<path d="M63.3057 73.0799C63.3243 72.9152 63.3668 72.7542 63.4319 72.6018C63.4905 72.4496 63.5979 72.3212 63.7373 72.2366L64.9591 71.5261C64.9805 71.5083 65.0075 71.4985 65.0354 71.4985C65.0633 71.4985 65.0903 71.5083 65.1118 71.5261C65.1365 71.5526 65.1552 71.5841 65.1667 71.6185C65.1781 71.6528 65.1821 71.6893 65.1782 71.7253C65.1818 71.7628 65.1818 71.8007 65.1782 71.8382L64.4079 75.3441C64.3752 75.4813 64.3285 75.6148 64.2685 75.7425C64.2132 75.8858 64.11 76.0055 63.9763 76.0811L63.2327 76.5128C63.2118 76.5319 63.1846 76.5425 63.1563 76.5425C63.128 76.5425 63.1008 76.5319 63.0799 76.5128C63.0552 76.4863 63.0365 76.4548 63.025 76.4204C63.0136 76.386 63.0097 76.3496 63.0135 76.3135L63.3057 73.0799Z" fill="#FAFAFA"/>
<path d="M71.2339 60.0256C71.2587 60.0013 71.2921 59.9877 71.3269 59.9877C71.3616 59.9877 71.395 60.0013 71.4198 60.0256C71.449 60.0578 71.4711 60.0956 71.4849 60.1368C71.4986 60.1779 71.5036 60.2215 71.4995 60.2647V61.8915C71.4994 62.0097 71.4768 62.1269 71.4331 62.2368C71.3866 62.3563 71.3401 62.4559 71.3003 62.5422L70.0985 65.1052C70.3172 65.0492 70.5463 65.047 70.7661 65.0991C70.9859 65.1511 71.1897 65.2558 71.3601 65.404C71.5479 65.6304 71.6881 65.8923 71.7726 66.1741C71.857 66.4559 71.8838 66.7518 71.8514 67.0441C71.8823 68.0948 71.6236 69.1336 71.1036 70.0471C70.5836 70.9606 69.8224 71.7134 68.9033 72.2233C68.5185 72.4632 68.0895 72.6235 67.6417 72.6948C67.3213 72.7422 66.9941 72.6889 66.7054 72.542C66.4459 72.3892 66.2432 72.1562 66.1277 71.878C65.9847 71.568 65.9121 71.2301 65.9153 70.8887C65.9157 70.7947 65.9361 70.7019 65.975 70.6164C66.0081 70.5397 66.0636 70.4749 66.1344 70.4305L67.3827 69.7068C67.5199 69.6271 67.6262 69.6138 67.7014 69.6669L67.9471 69.8396C68.0509 69.9057 68.1696 69.9445 68.2924 69.9524C68.5115 69.9439 68.7236 69.8724 68.9033 69.7466C69.2195 69.5742 69.4974 69.3392 69.72 69.056C69.9259 68.7775 70.0354 68.4396 70.0321 68.0932C70.0321 67.7413 69.9258 67.5355 69.72 67.4956C69.4376 67.4703 69.1554 67.5455 68.9232 67.7081L68.0998 68.1862C68.0737 68.2078 68.0408 68.2196 68.0069 68.2196C67.9729 68.2196 67.9401 68.2078 67.9139 68.1862C67.8849 68.1526 67.8629 68.1136 67.8492 68.0714C67.8355 68.0292 67.8304 67.9847 67.8342 67.9405V66.6125C67.835 66.4943 67.8575 66.3773 67.9006 66.2672C67.9471 66.1477 67.9936 66.0415 68.0401 65.9419L69.056 63.744L66.4597 65.2447C66.4336 65.2663 66.4007 65.2781 66.3668 65.2781C66.3329 65.2781 66.3 65.2663 66.2738 65.2447C66.2448 65.2111 66.2228 65.1721 66.2091 65.1299C66.1954 65.0877 66.1903 65.0432 66.1941 64.999V63.3324C66.1953 63.2171 66.2225 63.1036 66.2738 63.0004C66.3103 62.9055 66.3752 62.8243 66.4597 62.768L71.2339 60.0256Z" fill="#FAFAFA"/>
<path d="M74.6335 68.392C74.6325 68.5094 74.6052 68.6251 74.5539 68.7307C74.5153 68.8262 74.448 68.9074 74.3613 68.9631L73.0333 69.7134C73.0085 69.7377 72.9751 69.7513 72.9403 69.7513C72.9056 69.7513 72.8722 69.7377 72.8474 69.7134C72.8177 69.6802 72.7953 69.6413 72.7815 69.599C72.7678 69.5567 72.7631 69.5119 72.7677 69.4677V67.4757C72.7689 67.3604 72.7961 67.2469 72.8474 67.1437C72.8838 67.0489 72.9488 66.9677 73.0333 66.9113L74.3613 66.161C74.3879 66.1376 74.4222 66.1248 74.4576 66.1248C74.493 66.1248 74.5272 66.1376 74.5539 66.161C74.5829 66.1945 74.6049 66.2335 74.6186 66.2757C74.6323 66.3179 74.6373 66.3625 74.6335 66.4067V68.392Z" fill="#FAFAFA"/>
<path d="M77.4888 66.7121C77.4877 66.8295 77.4605 66.9452 77.4091 67.0507C77.3705 67.1462 77.3032 67.2274 77.2165 67.2831L75.8885 68.0334C75.863 68.0563 75.8299 68.0689 75.7956 68.0689C75.7613 68.0689 75.7282 68.0563 75.7026 68.0334C75.6736 67.9999 75.6516 67.9609 75.6379 67.9187C75.6242 67.8765 75.6191 67.8319 75.6229 67.7877V65.7957C75.624 65.6783 75.6512 65.5627 75.7026 65.4571C75.7406 65.3649 75.8054 65.2863 75.8885 65.2313L77.2165 64.4744C77.2442 64.4534 77.278 64.442 77.3128 64.442C77.3476 64.442 77.3814 64.4534 77.4091 64.4744C77.4381 64.5079 77.4601 64.547 77.4738 64.5892C77.4875 64.6314 77.4926 64.6759 77.4888 64.7201V66.7121Z" fill="#FAFAFA"/>
<path d="M80.344 65.072C80.3429 65.1894 80.3157 65.3051 80.2643 65.4106C80.2261 65.5044 80.1615 65.5851 80.0784 65.643L78.7504 66.3933C78.7237 66.4167 78.6895 66.4296 78.6541 66.4296C78.6187 66.4296 78.5845 66.4167 78.5578 66.3933C78.5288 66.3598 78.5068 66.3208 78.4931 66.2786C78.4794 66.2364 78.4743 66.1919 78.4782 66.1477V64.1557C78.4792 64.0383 78.5064 63.9226 78.5578 63.817C78.5983 63.7244 78.6653 63.6458 78.7504 63.5913L80.0784 62.8343C80.1046 62.8127 80.1374 62.8009 80.1713 62.8009C80.2053 62.8009 80.2381 62.8127 80.2643 62.8343C80.2933 62.8678 80.3153 62.9069 80.329 62.9491C80.3427 62.9913 80.3478 63.0358 80.344 63.08V65.072Z" fill="#FAFAFA"/>
<path d="M84.2881 54.78C84.0729 54.9042 83.8799 55.0636 83.7171 55.2514C83.567 55.4379 83.4419 55.6433 83.3453 55.8623C83.2513 56.0756 83.1801 56.2981 83.1328 56.5263C83.0861 56.7678 83.0528 57.0116 83.0332 57.2567C83.0332 57.3962 83.0332 57.5821 83.0332 57.8211V58.5515C83.0332 58.7972 83.0332 59.0429 83.0332 59.2819C83.0332 59.521 83.0332 59.7002 83.0332 59.8264C83.0449 60.0347 83.076 60.2414 83.1261 60.4439C83.1662 60.6043 83.241 60.7539 83.3453 60.8822C83.3927 60.9359 83.4509 60.979 83.5161 61.0087C83.5813 61.0385 83.6521 61.0542 83.7237 61.0548C83.9254 61.052 84.1218 60.9896 84.2881 60.8755C84.4655 60.7736 84.6285 60.6486 84.7729 60.5037C84.9303 60.3515 85.0645 60.177 85.1713 59.9858C85.2876 59.7766 85.3768 59.5535 85.4369 59.3218C85.5055 59.0482 85.5389 58.7671 85.5365 58.4851L84.7065 58.9698C84.6788 58.9908 84.6449 59.0022 84.6102 59.0022C84.5754 59.0022 84.5416 58.9908 84.5139 58.9698C84.4849 58.9363 84.4629 58.8973 84.4492 58.8551C84.4355 58.8129 84.4304 58.7684 84.4342 58.7242V57.104C84.4344 56.9886 84.4617 56.8749 84.5139 56.772C84.5525 56.6765 84.6198 56.5953 84.7065 56.5396L87.1101 55.1452C87.1357 55.1223 87.1688 55.1097 87.2031 55.1097C87.2374 55.1097 87.2705 55.1223 87.2961 55.1452C87.3256 55.1771 87.348 55.2149 87.3617 55.2561C87.3754 55.2973 87.3802 55.341 87.3757 55.3842V57.343C87.3777 57.9837 87.2974 58.6219 87.1367 59.2421C86.987 59.8362 86.7639 60.4095 86.4727 60.9486C86.2064 61.4557 85.8762 61.9266 85.49 62.3496C85.138 62.7396 84.7281 63.0733 84.2749 63.339C83.8927 63.5833 83.4531 63.723 83 63.744C82.6503 63.7465 82.3112 63.6241 82.0438 63.3987C81.7523 63.1401 81.5404 62.8039 81.4329 62.4293C81.2796 61.9571 81.1968 61.4648 81.1873 60.9685C81.1873 60.5657 81.1873 60.123 81.1873 59.6405C81.1873 59.1624 81.1873 58.6976 81.1873 58.2527C81.2026 57.6658 81.2828 57.0824 81.4263 56.513C81.5699 55.9352 81.7747 55.3742 82.0372 54.8398C82.2948 54.3201 82.6184 53.8358 83 53.3989C83.3663 52.9753 83.7991 52.6143 84.2815 52.3298C84.6572 52.0925 85.0864 51.9533 85.5298 51.9248C85.8638 51.91 86.1945 51.9956 86.4793 52.1705C86.741 52.3486 86.9497 52.5941 87.0836 52.881C87.2296 53.1793 87.311 53.5051 87.3226 53.8371C87.3276 53.9316 87.307 54.0257 87.2629 54.1094C87.2278 54.1865 87.1727 54.253 87.1035 54.3019L85.7755 55.0655C85.6759 55.1186 85.5962 55.1186 85.5431 55.0655L85.3771 54.8862C85.2835 54.7543 85.1512 54.6545 84.9986 54.6007C84.8742 54.5817 84.7473 54.5877 84.6253 54.6185C84.5032 54.6493 84.3886 54.7042 84.2881 54.78Z" fill="#FAFAFA"/>
<path d="M93.5709 53.2793C93.5709 53.4254 93.5709 53.6246 93.5709 53.8637C93.5709 54.1027 93.5709 54.3019 93.5709 54.4546C93.5559 54.9638 93.4823 55.4696 93.3517 55.9619C93.222 56.4602 93.0395 56.9432 92.8073 57.4028C92.5798 57.8491 92.2989 58.2661 91.9706 58.6445C91.6546 59.0051 91.2824 59.3123 90.8684 59.5542C90.5386 59.7628 90.1621 59.886 89.7728 59.9127C89.468 59.9269 89.1684 59.8302 88.9295 59.6405C88.6784 59.4244 88.4902 59.1445 88.385 58.8304C88.2435 58.4292 88.1695 58.0074 88.1659 57.5821C88.1659 57.4294 88.1659 57.2368 88.1659 56.9977C88.1659 56.7587 88.1659 56.5595 88.1659 56.4002C88.1732 55.8934 88.2423 55.3895 88.3717 54.8995C88.5037 54.401 88.6885 53.918 88.9229 53.4586C89.1547 53.0077 89.4401 52.5864 89.7728 52.2037C90.0829 51.8379 90.4535 51.5279 90.8684 51.2873C91.199 51.0763 91.5789 50.955 91.9706 50.9354C92.2754 50.9288 92.5731 51.0273 92.8139 51.2143C93.0671 51.4285 93.2556 51.709 93.3584 52.0244C93.4981 52.4281 93.5699 52.8522 93.5709 53.2793ZM89.9521 56.44C89.9431 56.5781 89.9627 56.7165 90.0095 56.8468C90.0563 56.977 90.1294 57.0962 90.2243 57.1969C90.3242 57.2635 90.4431 57.2957 90.563 57.2885C90.6828 57.2813 90.7971 57.2352 90.8883 57.1571C91.1744 56.9933 91.4054 56.7484 91.5523 56.4533C91.7188 56.1206 91.8116 55.756 91.8245 55.3842C91.8245 55.2249 91.8245 55.0456 91.8245 54.853C91.8245 54.6605 91.8245 54.4878 91.8245 54.3484C91.8335 54.2103 91.8139 54.0718 91.7671 53.9416C91.7203 53.8114 91.6471 53.6922 91.5523 53.5914C91.4524 53.5248 91.3335 53.4927 91.2136 53.4999C91.0938 53.5071 90.9795 53.5532 90.8883 53.6313C90.6037 53.7969 90.3731 54.0413 90.2243 54.3351C90.0597 54.6685 89.967 55.0327 89.9521 55.4042C89.9521 55.5635 89.9521 55.7428 89.9521 55.9353C89.9521 56.1279 89.9388 56.3271 89.9521 56.44Z" fill="#FAFAFA"/>
<path d="M96.3264 52.5423C96.3254 52.6597 96.2981 52.7754 96.2468 52.881C96.2103 52.9758 96.1454 53.057 96.0608 53.1134L94.8059 53.8371C94.7803 53.86 94.7472 53.8727 94.7129 53.8727C94.6786 53.8727 94.6455 53.86 94.62 53.8371C94.5909 53.8036 94.5689 53.7646 94.5553 53.7224C94.5416 53.6802 94.5365 53.6357 94.5403 53.5915V46.978C94.5414 46.8628 94.5687 46.7493 94.62 46.646C94.6564 46.5512 94.7214 46.47 94.8059 46.4136L96.0608 45.6899C96.0864 45.667 96.1195 45.6544 96.1538 45.6544C96.1881 45.6544 96.2212 45.667 96.2468 45.6899C96.2758 45.7234 96.2978 45.7624 96.3115 45.8046C96.3252 45.8468 96.3303 45.8913 96.3264 45.9355V52.5423ZM96.3264 55.8623C96.3254 55.9797 96.2981 56.0954 96.2468 56.201C96.2085 56.2948 96.144 56.3755 96.0608 56.4334L94.8059 57.104C94.7797 57.1256 94.7468 57.1374 94.7129 57.1374C94.679 57.1374 94.6461 57.1256 94.62 57.104C94.5909 57.0705 94.5689 57.0315 94.5553 56.9893C94.5416 56.9471 94.5365 56.9025 94.5403 56.8583V55.3245C94.5414 55.2071 94.5686 55.0914 94.62 54.9859C94.6582 54.8921 94.7228 54.8114 94.8059 54.7535L96.0608 54.0297C96.087 54.0081 96.1199 53.9963 96.1538 53.9963C96.1877 53.9963 96.2206 54.0081 96.2468 54.0297C96.2758 54.0633 96.2978 54.1023 96.3115 54.1445C96.3252 54.1867 96.3303 54.2312 96.3264 54.2754V55.8623Z" fill="#FAFAFA"/>
<path d="M271.197 58.0734L268.375 52.7614L270.646 46.2144V42.2304L263.708 46.2144V50.1984L266.689 55.3643C266.737 55.4442 266.809 55.5069 266.895 55.5436L271.197 58.0734Z" fill="#277FE5"/>
<path opacity="0.2" d="M271.197 58.0734L268.375 52.7614L270.646 46.2144V42.2304L263.708 46.2144V50.1984L266.689 55.3643C266.737 55.4442 266.809 55.5069 266.895 55.5436L271.197 58.0734Z" fill="black"/>
<path d="M289.165 23.8642C289.127 23.1422 288.918 22.4395 288.557 21.813C288.196 21.1866 287.692 20.6541 287.087 20.2587L285.394 19.256C284.749 18.9288 284.036 18.7582 283.312 18.7582C282.589 18.7582 281.876 18.9288 281.231 19.256L246.112 39.4947C245.506 39.8892 245.002 40.4204 244.64 41.0456C244.278 41.6707 244.068 42.3723 244.027 43.0936V57.3696C244.067 58.0921 244.276 58.795 244.639 59.4214C245.001 60.0478 245.505 60.58 246.112 60.9751L247.805 61.9512C248.449 62.2784 249.161 62.4489 249.883 62.4489C250.605 62.4489 251.317 62.2784 251.961 61.9512L268.063 52.7615L271.038 57.9207C271.081 57.9939 271.144 58.0531 271.22 58.0915C271.296 58.13 271.381 58.1459 271.465 58.1376C271.55 58.1292 271.63 58.0968 271.697 58.0443C271.763 57.9917 271.814 57.9212 271.842 57.841L274.989 48.7642L287.087 41.7457C287.692 41.3503 288.196 40.8177 288.557 40.1913C288.918 39.5649 289.127 38.8622 289.165 38.1402V23.8642Z" fill="#277FE5"/>
<path opacity="0.2" d="M244.027 57.3696C244.067 58.0921 244.276 58.795 244.639 59.4213C245.001 60.0477 245.505 60.58 246.112 60.9751L247.805 61.9512C248.391 62.246 249.034 62.4131 249.689 62.4418C250.345 62.4704 251 62.3598 251.609 62.1172C250.627 62.489 249.883 61.9379 249.883 60.7494V46.48C249.908 45.7571 250.118 45.0528 250.494 44.4349L244.637 41.0551C244.265 41.6743 244.054 42.3779 244.027 43.1002V57.3696Z" fill="black"/>
<path opacity="0.4" d="M289.099 23.2732C288.853 22.3901 288.05 22.1112 287.107 22.6623L251.981 42.8745C251.366 43.2571 250.861 43.7924 250.514 44.4282L244.664 41.0485C245.013 40.414 245.518 39.8792 246.131 39.4947L281.231 19.256C281.877 18.9323 282.589 18.7638 283.312 18.7638C284.035 18.7638 284.748 18.9323 285.394 19.256L287.087 20.2387C287.611 20.5808 288.06 21.0264 288.406 21.5482C288.752 22.07 288.988 22.657 289.099 23.2732Z" fill="white"/>
<path d="M252.599 49.8C252.547 49.7195 252.528 49.622 252.546 49.5278C252.56 49.4084 252.598 49.2932 252.659 49.1891L254.797 45.4243C254.85 45.3379 254.91 45.2251 254.989 45.0989C255.053 44.9868 255.144 44.8931 255.255 44.8267L256.463 44.1627C256.489 44.1379 256.524 44.1241 256.56 44.1241C256.595 44.1241 256.63 44.1379 256.656 44.1627C256.685 44.1948 256.707 44.2326 256.721 44.2738C256.735 44.3149 256.74 44.3585 256.736 44.4017V54.2953C256.735 54.4107 256.708 54.5244 256.656 54.6273C256.617 54.7228 256.55 54.804 256.463 54.8597L255.135 55.6167C255.109 55.6382 255.076 55.6501 255.042 55.6501C255.008 55.6501 254.976 55.6382 254.949 55.6167C254.92 55.5831 254.898 55.5441 254.885 55.5019C254.871 55.4597 254.866 55.4152 254.87 55.371V48.638L253.681 50.7031C253.639 50.7875 253.572 50.857 253.489 50.9023C253.457 50.9166 253.421 50.9185 253.387 50.9074C253.354 50.8963 253.326 50.8731 253.309 50.8425L252.599 49.8Z" fill="#FAFAFA"/>
<path d="M257.984 51.719C258.003 51.5566 258.046 51.3979 258.11 51.2475C258.168 51.0934 258.276 50.9627 258.415 50.8757L259.624 50.1718C259.645 50.1527 259.672 50.1421 259.7 50.1421C259.729 50.1421 259.756 50.1527 259.777 50.1718C259.801 50.1983 259.82 50.2298 259.832 50.2642C259.843 50.2986 259.847 50.335 259.843 50.371C259.847 50.4086 259.847 50.4464 259.843 50.4839L259.073 53.9766C259.04 54.1138 258.993 54.2473 258.933 54.375C258.878 54.5182 258.775 54.6379 258.641 54.7136L257.898 55.1452C257.876 55.163 257.849 55.1728 257.821 55.1728C257.793 55.1728 257.766 55.163 257.745 55.1452C257.72 55.1187 257.701 55.0872 257.69 55.0528C257.678 55.0185 257.675 54.982 257.678 54.946L257.984 51.719Z" fill="#FAFAFA"/>
<path d="M266.264 41.905C266.264 42.2026 266.244 42.4999 266.204 42.7948C266.159 43.1072 266.09 43.4157 265.998 43.7178C265.896 44.0561 265.769 44.3867 265.62 44.7071C265.45 45.0828 265.26 45.4486 265.049 45.8027L263.655 48.233L266.151 46.7921C266.177 46.7673 266.212 46.7535 266.247 46.7535C266.283 46.7535 266.318 46.7673 266.344 46.7921C266.373 46.8242 266.395 46.8621 266.409 46.9032C266.422 46.9444 266.427 46.9879 266.423 47.0311V48.6712C266.422 48.7886 266.395 48.9043 266.344 49.0098C266.303 49.1025 266.236 49.181 266.151 49.2356L260.906 52.2701C260.879 52.2934 260.845 52.3063 260.809 52.3063C260.774 52.3063 260.74 52.2934 260.713 52.2701C260.684 52.2365 260.662 52.1975 260.648 52.1553C260.635 52.1131 260.629 52.0686 260.633 52.0244V50.6964C260.634 50.5173 260.656 50.339 260.7 50.1652C260.744 49.9744 260.82 49.7925 260.925 49.6274L263.894 44.6341C264.086 44.3291 264.233 43.9982 264.332 43.6514C264.387 43.4341 264.418 43.2114 264.425 42.9874C264.425 42.9143 264.425 42.8214 264.425 42.7018C264.409 42.589 264.371 42.4805 264.312 42.3831C264.254 42.2928 264.164 42.2285 264.06 42.2038C263.902 42.1815 263.742 42.2221 263.615 42.3167C263.436 42.4196 263.282 42.5601 263.163 42.7284C263.053 42.878 262.961 43.0408 262.891 43.2131C262.834 43.3603 262.788 43.5111 262.751 43.6646L262.692 43.9834C262.671 44.1208 262.616 44.2509 262.532 44.3618C262.466 44.4441 262.385 44.5139 262.293 44.5677L261.065 45.2715C261.044 45.2907 261.017 45.3013 260.989 45.3013C260.96 45.3013 260.933 45.2907 260.912 45.2715C260.867 45.2157 260.845 45.144 260.852 45.0723C260.863 44.6069 260.923 44.1439 261.032 43.6912C261.146 43.1886 261.318 42.7008 261.543 42.237C261.77 41.761 262.056 41.315 262.393 40.909C262.731 40.4834 263.143 40.1214 263.608 39.84C263.955 39.6156 264.357 39.4894 264.77 39.4748C265.078 39.4702 265.377 39.5816 265.607 39.7869C265.852 40.0189 266.031 40.3124 266.125 40.6368C266.235 41.0501 266.282 41.4777 266.264 41.905Z" fill="#FAFAFA"/>
<path d="M267.459 46.2543C267.478 46.0896 267.52 45.9286 267.585 45.7762C267.644 45.6221 267.751 45.4914 267.891 45.4044L269.113 44.7005C269.133 44.6814 269.161 44.6708 269.189 44.6708C269.217 44.6708 269.244 44.6814 269.265 44.7005C269.29 44.727 269.309 44.7585 269.32 44.7929C269.332 44.8273 269.336 44.8637 269.332 44.8997C269.335 44.9373 269.335 44.9751 269.332 45.0126L268.561 48.5052C268.529 48.6425 268.482 48.776 268.422 48.9036C268.367 49.0469 268.263 49.1666 268.13 49.2423L267.386 49.6739C267.365 49.6917 267.338 49.7015 267.31 49.7015C267.282 49.7015 267.255 49.6917 267.233 49.6739C267.209 49.6474 267.19 49.6159 267.178 49.5815C267.167 49.5471 267.163 49.5107 267.167 49.4747L267.459 46.2543Z" fill="#FAFAFA"/>
<path d="M275.387 33.2C275.414 33.1784 275.446 33.1666 275.48 33.1666C275.514 33.1666 275.547 33.1784 275.573 33.2C275.602 33.2336 275.624 33.2726 275.638 33.3148C275.652 33.357 275.657 33.4015 275.653 33.4457V35.0725C275.653 35.1908 275.63 35.3079 275.587 35.4178C275.54 35.5373 275.494 35.6369 275.454 35.7232L274.232 38.2863C274.451 38.2328 274.68 38.2326 274.9 38.2857C275.119 38.3388 275.323 38.4438 275.494 38.5917C275.682 38.8177 275.823 39.0795 275.907 39.3614C275.992 39.6433 276.018 39.9394 275.985 40.2318C276.007 41.3014 275.738 42.357 275.208 43.2862C274.684 44.1713 273.935 44.902 273.037 45.4043C272.653 45.6484 272.224 45.8111 271.775 45.8824C271.455 45.9269 271.129 45.8737 270.839 45.7297C270.579 45.5769 270.377 45.3439 270.261 45.0657C270.118 44.7557 270.046 44.4178 270.049 44.0763C270.049 43.9824 270.07 43.8896 270.109 43.8041C270.144 43.7269 270.199 43.6605 270.268 43.6115L271.516 42.8944C271.656 42.8081 271.762 42.8015 271.835 42.8546L272.081 43.0272C272.184 43.0933 272.303 43.1322 272.426 43.1401C272.645 43.1316 272.857 43.0601 273.037 42.9343C273.347 42.7581 273.616 42.5182 273.827 42.2304C274.037 41.9537 274.149 41.615 274.146 41.2676C274.146 40.9091 274.039 40.7099 273.827 40.67C273.546 40.6421 273.265 40.7177 273.037 40.8825L272.213 41.3539C272.189 41.3783 272.155 41.3919 272.12 41.3919C272.086 41.3919 272.052 41.3783 272.028 41.3539C271.998 41.3218 271.976 41.284 271.962 41.2428C271.949 41.2017 271.944 41.1581 271.948 41.1149V39.84C271.948 39.7218 271.97 39.6046 272.014 39.4947C272.061 39.3752 272.107 39.269 272.154 39.1694L273.209 36.9251L270.613 38.4191C270.588 38.4434 270.555 38.457 270.52 38.457C270.485 38.457 270.452 38.4434 270.427 38.4191C270.398 38.3869 270.376 38.3491 270.362 38.3079C270.349 38.2668 270.344 38.2232 270.348 38.18V36.52C270.349 36.4026 270.376 36.2869 270.427 36.1814C270.465 36.0892 270.53 36.0106 270.613 35.9556L275.387 33.2Z" fill="#FAFAFA"/>
<path d="M278.787 41.5332C278.786 41.6506 278.759 41.7663 278.707 41.8719C278.667 41.9663 278.6 42.0471 278.515 42.1043L277.187 42.8546C277.161 42.8775 277.128 42.8901 277.094 42.8901C277.059 42.8901 277.026 42.8775 277.001 42.8546C276.972 42.821 276.95 42.782 276.936 42.7398C276.922 42.6976 276.917 42.6531 276.921 42.6089V40.6169C276.922 40.4995 276.949 40.3838 277.001 40.2783C277.039 40.1861 277.104 40.1075 277.187 40.0525L278.515 39.2956C278.542 39.2746 278.576 39.2632 278.611 39.2632C278.646 39.2632 278.68 39.2746 278.707 39.2956C278.736 39.3291 278.758 39.3681 278.772 39.4103C278.786 39.4525 278.791 39.497 278.787 39.5412V41.5332Z" fill="#FAFAFA"/>
<path d="M281.642 39.8865C281.641 40.0039 281.614 40.1196 281.563 40.2251C281.522 40.3196 281.455 40.4003 281.37 40.4575L280.042 41.2079C280.016 41.2307 279.983 41.2434 279.949 41.2434C279.915 41.2434 279.882 41.2307 279.856 41.2079C279.827 41.1743 279.805 41.1353 279.791 41.0931C279.778 41.0509 279.773 41.0064 279.776 40.9622V38.9702C279.777 38.8528 279.805 38.7371 279.856 38.6315C279.894 38.5378 279.959 38.457 280.042 38.3991L281.37 37.6488C281.398 37.6278 281.431 37.6165 281.466 37.6165C281.501 37.6165 281.535 37.6278 281.563 37.6488C281.592 37.6824 281.614 37.7214 281.627 37.7636C281.641 37.8058 281.646 37.8503 281.642 37.8945V39.8865Z" fill="#FAFAFA"/>
<path d="M284.491 38.2398C284.49 38.3572 284.463 38.4728 284.411 38.5784C284.373 38.6722 284.308 38.7529 284.225 38.8108L282.897 39.5611C282.871 39.5845 282.836 39.5973 282.801 39.5973C282.766 39.5973 282.731 39.5845 282.705 39.5611C282.676 39.5276 282.654 39.4885 282.64 39.4464C282.626 39.4042 282.621 39.3596 282.625 39.3154V37.3234C282.626 37.206 282.653 37.0904 282.705 36.9848C282.745 36.8904 282.812 36.8096 282.897 36.7524L284.225 36.0021C284.251 35.9805 284.284 35.9687 284.318 35.9687C284.352 35.9687 284.385 35.9805 284.411 36.0021C284.44 36.0356 284.462 36.0747 284.476 36.1169C284.49 36.1591 284.495 36.2036 284.491 36.2478V38.2398Z" fill="#FAFAFA"/>
</svg>
