<svg width="332" height="332" viewBox="0 0 332 332" fill="none" xmlns="http://www.w3.org/2000/svg">
<path opacity="0.5" d="M82.6016 273.13C135.761 298.461 221.949 298.461 275.108 273.13C328.268 247.798 328.262 206.73 275.108 181.378C221.955 156.027 135.761 156.04 82.6016 181.378C29.4418 206.717 29.4484 247.792 82.6016 273.13Z" fill="#F5F5F5"/>
<path d="M254.87 225.727C275.156 225.727 291.602 217.887 291.602 208.217C291.602 198.547 275.156 190.707 254.87 190.707C234.583 190.707 218.137 198.547 218.137 208.217C218.137 217.887 234.583 225.727 254.87 225.727Z" fill="#E0E0E0"/>
<path d="M199.32 277.917C189.506 282.598 173.596 282.598 163.782 277.917C153.968 273.236 153.968 265.66 163.782 260.979C173.596 256.297 189.506 256.331 199.32 260.979C209.133 265.627 209.16 273.243 199.32 277.917Z" fill="#E0E0E0"/>
<path d="M61.5263 223.107C61.143 222.85 60.8449 222.485 60.6699 222.058C60.4949 221.631 60.4509 221.162 60.5435 220.71L84.089 116.501C84.3723 115.494 85.0117 114.623 85.8884 114.051L225.992 33.1761C226.421 32.9495 226.897 32.8273 227.381 32.8192C227.866 32.8111 228.345 32.9175 228.781 33.1296C229.158 33.3881 229.451 33.7522 229.622 34.1762C229.793 34.6003 229.836 35.0654 229.744 35.5134L206.192 139.722C205.908 140.731 205.266 141.602 204.386 142.172L64.3151 223.047C63.8877 223.276 63.4124 223.4 62.9278 223.41C62.4432 223.421 61.963 223.317 61.5263 223.107Z" fill="#F0F0F0"/>
<path d="M86.7848 118.039L63.2394 222.287C63.0402 223.177 63.5182 223.536 64.315 223.077L204.419 142.202C205.299 141.632 205.941 140.761 206.225 139.752L229.744 35.5107C229.943 34.6143 229.465 34.2624 228.668 34.7206L88.5643 115.596C87.6968 116.17 87.0651 117.037 86.7848 118.039Z" fill="#E6E6E6"/>
<path d="M231.451 34.6674C231.014 34.4563 230.534 34.351 230.05 34.3603C229.565 34.3695 229.09 34.4929 228.662 34.7205L88.5577 115.596C88.1513 115.859 87.8245 116.228 87.6127 116.663C87.4009 117.099 87.312 117.584 87.3559 118.066L105.795 247.141C105.885 247.63 106.072 248.096 106.344 248.513C106.617 248.929 106.97 249.286 107.382 249.564C107.817 249.777 108.296 249.883 108.78 249.874C109.263 249.865 109.738 249.74 110.164 249.511L250.242 168.656C250.649 168.392 250.977 168.022 251.189 167.585C251.4 167.149 251.489 166.662 251.444 166.179L233.064 37.091C232.971 36.5995 232.781 36.1317 232.503 35.7153C232.226 35.299 231.868 34.9426 231.451 34.6674Z" fill="#F0F0F0"/>
<path d="M90.0782 119.626L108.491 248.701C108.495 248.894 108.551 249.081 108.655 249.243C108.759 249.406 108.906 249.536 109.079 249.62C109.252 249.704 109.445 249.738 109.637 249.719C109.828 249.7 110.011 249.628 110.164 249.511L250.242 168.656C250.649 168.392 250.977 168.022 251.189 167.585C251.4 167.149 251.489 166.662 251.444 166.179L233.064 37.091C233.062 36.8979 233.006 36.7094 232.902 36.5463C232.799 36.3832 232.652 36.252 232.479 36.1673C232.305 36.0826 232.112 36.0478 231.92 36.0667C231.728 36.0856 231.544 36.1574 231.391 36.2742L91.2867 117.149C90.878 117.412 90.5492 117.782 90.3361 118.219C90.1231 118.656 90.0339 119.142 90.0782 119.626Z" fill="#FAFAFA"/>
<path d="M63.3655 221.703L99.2215 200.993L100.264 208.496L83.8233 217.991C83.8233 217.991 79.4409 219.545 77.7012 219.983C75.9616 220.422 63.3655 221.703 63.3655 221.703Z" fill="#E0E0E0"/>
<path d="M100.284 208.503L105.662 246.218L83.8433 217.998L100.284 208.503Z" fill="#E6E6E6"/>
<path d="M105.018 247.473L85.4634 222.075C85.1388 221.696 84.7284 221.4 84.2665 221.212C83.8045 221.024 83.3043 220.948 82.8074 220.992L64.5208 223.648C63.491 223.759 62.4513 223.57 61.5262 223.104C60.7825 222.679 60.9087 222.188 61.8051 222.015L82.8207 217.971C83.3134 217.897 83.817 217.952 84.2824 218.13C84.7478 218.308 85.1592 218.603 85.4767 218.987L107.741 249C108.285 249.737 108.126 249.983 107.382 249.551C106.486 248.992 105.687 248.29 105.018 247.473Z" fill="#E0E0E0"/>
<path d="M229.777 34.9994C229.775 34.6252 229.68 34.2575 229.502 33.9286C229.324 33.5997 229.067 33.3198 228.755 33.1136C228.318 32.9045 227.838 32.8005 227.354 32.8097C226.87 32.8189 226.394 32.9412 225.966 33.1667L85.8619 114.042C85.4347 114.31 85.0628 114.657 84.7663 115.064C84.4372 115.489 84.1957 115.974 84.0558 116.492L80.7358 131.213L83.4317 132.76L226.424 50.2249L229.744 35.5107C229.776 35.3422 229.789 35.1707 229.784 34.9994H229.777Z" fill="#277FE5"/>
<path opacity="0.2" d="M229.744 35.5107C229.943 34.6143 229.465 34.2624 228.668 34.7206L88.5644 115.596C87.6894 116.166 87.0503 117.034 86.7649 118.039L83.4449 132.76L226.424 50.225L229.744 35.5107Z" fill="black"/>
<path opacity="0.1" d="M87.4886 116.618C87.1589 117.039 86.9194 117.522 86.7848 118.039L83.4648 132.76L80.7689 131.206L84.0889 116.485C84.2288 115.967 84.4703 115.482 84.7994 115.058L87.4886 116.618Z" fill="black"/>
<path opacity="0.4" d="M229.777 34.9927C229.711 34.4947 229.279 34.3287 228.662 34.7205L88.5577 115.589C88.1274 115.856 87.7549 116.206 87.4621 116.618L84.7662 115.058C85.0627 114.65 85.4346 114.303 85.8618 114.035L225.966 33.1601C226.394 32.9346 226.87 32.8123 227.354 32.8031C227.838 32.7938 228.318 32.8979 228.755 33.107C229.067 33.3131 229.324 33.593 229.502 33.9219C229.68 34.2508 229.775 34.6186 229.777 34.9927Z" fill="white"/>
<path d="M233.203 38.326L233.064 37.091C233.054 37.0306 233.041 36.9707 233.024 36.9117C233.027 36.8941 233.027 36.8762 233.024 36.8586C232.798 35.9651 232.253 35.1854 231.49 34.6674C231.054 34.4563 230.574 34.351 230.09 34.3603C229.605 34.3695 229.129 34.4929 228.702 34.7205L88.5976 115.596C88.1735 115.858 87.8381 116.242 87.6348 116.698C87.4274 117.122 87.3445 117.596 87.3957 118.066L90.0517 136.558L92.7476 138.119L235.674 55.59L233.203 38.326Z" fill="#277FE5"/>
<path opacity="0.1" d="M92.721 138.112L90.0251 136.552L87.3691 118.059C87.3179 117.59 87.4008 117.115 87.6082 116.691L90.3107 118.245C90.0985 118.668 90.0131 119.143 90.065 119.613L92.721 138.112Z" fill="black"/>
<path opacity="0.4" d="M232.984 36.8586C232.946 36.6913 232.867 36.5363 232.753 36.4078C232.64 36.2793 232.496 36.1814 232.334 36.1232C232.173 36.065 231.999 36.0483 231.83 36.0747C231.66 36.1011 231.5 36.1698 231.364 36.2743L91.2602 117.149C90.8345 117.41 90.4986 117.795 90.2974 118.252L87.6481 116.698C87.853 116.242 88.1879 115.856 88.6109 115.589L228.715 34.7205C229.143 34.4929 229.618 34.3695 230.103 34.3603C230.587 34.351 231.067 34.4563 231.504 34.6674C232.248 35.193 232.774 35.9722 232.984 36.8586Z" fill="white"/>
<path d="M129.912 227.314L128.238 215.554C128.236 215.401 128.192 215.252 128.11 215.122C128.029 214.992 127.913 214.887 127.776 214.819C127.639 214.75 127.486 214.721 127.333 214.733C127.181 214.746 127.034 214.8 126.91 214.89L114.699 221.942C114.37 222.152 114.106 222.45 113.936 222.802C113.766 223.153 113.697 223.545 113.737 223.934L115.403 235.72C115.403 235.874 115.446 236.025 115.527 236.156C115.608 236.287 115.724 236.393 115.862 236.462C116 236.531 116.154 236.56 116.308 236.546C116.461 236.533 116.608 236.476 116.731 236.384L128.942 229.332C129.277 229.121 129.546 228.82 129.718 228.463C129.889 228.105 129.956 227.707 129.912 227.314Z" fill="#277FE5"/>
<path d="M148.796 216.424L147.116 204.671C147.116 204.517 147.073 204.366 146.992 204.235C146.911 204.104 146.795 203.998 146.657 203.929C146.519 203.86 146.365 203.831 146.211 203.845C146.058 203.858 145.911 203.915 145.788 204.007L133.577 211.052C133.248 211.263 132.985 211.561 132.815 211.913C132.645 212.264 132.575 212.656 132.614 213.044L134.294 224.804C134.294 224.958 134.337 225.109 134.418 225.24C134.499 225.371 134.615 225.477 134.753 225.546C134.891 225.615 135.045 225.644 135.199 225.63C135.352 225.617 135.499 225.56 135.622 225.468L147.833 218.416C148.163 218.206 148.427 217.909 148.597 217.557C148.767 217.205 148.836 216.813 148.796 216.424Z" fill="#EBEBEB"/>
<path d="M167.68 205.534L166 193.782C166 193.628 165.957 193.476 165.876 193.345C165.795 193.214 165.679 193.108 165.541 193.039C165.403 192.97 165.249 192.941 165.096 192.955C164.942 192.969 164.795 193.025 164.672 193.118L152.454 200.176C152.126 200.387 151.862 200.685 151.692 201.036C151.522 201.388 151.453 201.779 151.492 202.168L153.172 213.927C153.172 214.082 153.214 214.233 153.296 214.364C153.377 214.495 153.493 214.601 153.63 214.67C153.768 214.739 153.923 214.768 154.076 214.754C154.23 214.74 154.376 214.684 154.5 214.591L166.711 207.54C167.044 207.33 167.311 207.03 167.482 206.676C167.654 206.321 167.722 205.926 167.68 205.534Z" fill="#EBEBEB"/>
<path d="M186.584 194.652L184.904 182.892C184.904 182.738 184.861 182.587 184.78 182.456C184.699 182.325 184.583 182.219 184.445 182.15C184.307 182.081 184.153 182.052 184 182.065C183.846 182.079 183.699 182.136 183.576 182.228L171.312 189.293C170.982 189.503 170.718 189.801 170.548 190.152C170.378 190.504 170.309 190.896 170.349 191.285L172.029 203.038C172.029 203.192 172.072 203.343 172.153 203.474C172.234 203.605 172.35 203.711 172.488 203.78C172.626 203.849 172.78 203.878 172.934 203.864C173.087 203.851 173.234 203.794 173.357 203.702L185.568 196.657C185.909 196.452 186.184 196.155 186.364 195.8C186.544 195.445 186.62 195.047 186.584 194.652Z" fill="#EBEBEB"/>
<path d="M205.448 183.762L203.768 171.976C203.768 171.822 203.725 171.671 203.644 171.54C203.563 171.409 203.447 171.303 203.31 171.234C203.172 171.165 203.017 171.136 202.864 171.149C202.71 171.163 202.564 171.22 202.44 171.312L190.229 178.364C189.9 178.574 189.635 178.871 189.465 179.223C189.295 179.575 189.226 179.967 189.267 180.356L190.946 192.109C190.946 192.263 190.989 192.414 191.07 192.545C191.151 192.676 191.267 192.782 191.405 192.851C191.543 192.92 191.697 192.949 191.851 192.935C192.005 192.921 192.151 192.865 192.274 192.773L204.512 185.741C204.833 185.527 205.091 185.23 205.256 184.882C205.421 184.533 205.487 184.146 205.448 183.762Z" fill="#EBEBEB"/>
<path d="M224.332 172.872L222.652 161.113C222.652 160.959 222.61 160.808 222.529 160.677C222.447 160.545 222.332 160.44 222.194 160.371C222.056 160.302 221.901 160.272 221.748 160.286C221.594 160.3 221.448 160.356 221.324 160.449L209.114 167.501C208.784 167.711 208.519 168.008 208.349 168.36C208.179 168.712 208.11 169.104 208.151 169.493L209.824 181.272C209.824 181.426 209.867 181.577 209.948 181.708C210.029 181.839 210.145 181.945 210.283 182.014C210.421 182.083 210.575 182.112 210.729 182.099C210.882 182.085 211.029 182.028 211.152 181.936L223.363 174.884C223.696 174.673 223.964 174.373 224.135 174.017C224.307 173.661 224.375 173.265 224.332 172.872Z" fill="#EBEBEB"/>
<path d="M243.217 162.016L241.537 150.257C241.537 150.102 241.494 149.951 241.413 149.82C241.332 149.689 241.216 149.583 241.078 149.514C240.94 149.445 240.786 149.416 240.632 149.43C240.479 149.444 240.332 149.5 240.209 149.593L227.998 156.644C227.669 156.855 227.405 157.152 227.235 157.504C227.065 157.856 226.996 158.248 227.035 158.636L228.708 170.396C228.711 170.549 228.755 170.698 228.837 170.828C228.918 170.958 229.034 171.062 229.171 171.131C229.308 171.199 229.461 171.229 229.613 171.216C229.766 171.204 229.912 171.15 230.036 171.06L242.247 164.008C242.577 163.798 242.843 163.501 243.014 163.149C243.185 162.798 243.255 162.405 243.217 162.016Z" fill="#EBEBEB"/>
<path d="M126.631 204.306L124.952 192.56C124.949 192.407 124.905 192.257 124.823 192.128C124.742 191.998 124.626 191.893 124.489 191.825C124.352 191.756 124.199 191.727 124.046 191.739C123.894 191.752 123.747 191.806 123.624 191.896L111.413 198.948C111.084 199.158 110.819 199.456 110.649 199.808C110.479 200.159 110.41 200.551 110.45 200.94L112.123 212.699C112.125 212.852 112.17 213.002 112.251 213.131C112.333 213.261 112.448 213.366 112.585 213.434C112.722 213.503 112.876 213.532 113.028 213.52C113.181 213.507 113.327 213.453 113.451 213.363L125.662 206.311C125.992 206.099 126.257 205.799 126.428 205.445C126.599 205.091 126.67 204.697 126.631 204.306Z" fill="#277FE5"/>
<path d="M145.516 193.417L143.836 181.657C143.833 181.504 143.789 181.354 143.707 181.225C143.626 181.095 143.51 180.99 143.373 180.922C143.236 180.853 143.083 180.824 142.931 180.836C142.778 180.849 142.632 180.903 142.508 180.993L130.297 188.045C129.968 188.255 129.704 188.553 129.534 188.905C129.364 189.256 129.294 189.648 129.334 190.037L131.007 201.796C131.01 201.949 131.054 202.099 131.136 202.229C131.217 202.358 131.333 202.463 131.47 202.531C131.607 202.6 131.76 202.629 131.912 202.617C132.065 202.604 132.211 202.55 132.335 202.46L144.546 195.409C144.874 195.197 145.138 194.899 145.309 194.548C145.48 194.197 145.551 193.805 145.516 193.417Z" fill="#EBEBEB"/>
<path d="M164.4 182.527L162.72 170.767C162.717 170.614 162.673 170.465 162.592 170.335C162.51 170.205 162.394 170.101 162.257 170.032C162.12 169.964 161.967 169.934 161.815 169.947C161.662 169.959 161.516 170.013 161.392 170.103L149.181 177.155C148.852 177.366 148.588 177.663 148.418 178.015C148.248 178.367 148.179 178.759 148.218 179.147L149.891 190.907C149.894 191.06 149.938 191.209 150.02 191.339C150.101 191.469 150.217 191.573 150.354 191.642C150.491 191.71 150.644 191.74 150.797 191.727C150.949 191.715 151.095 191.661 151.219 191.571L163.43 184.519C163.758 184.307 164.022 184.009 164.193 183.658C164.364 183.307 164.436 182.916 164.4 182.527Z" fill="#EBEBEB"/>
<path d="M183.264 171.637L181.584 159.878C181.582 159.725 181.537 159.575 181.456 159.446C181.374 159.316 181.259 159.211 181.122 159.143C180.985 159.074 180.832 159.045 180.679 159.057C180.526 159.07 180.38 159.124 180.256 159.214L168.058 166.279C167.73 166.49 167.466 166.788 167.296 167.139C167.126 167.491 167.057 167.882 167.096 168.271L168.769 180.03C168.771 180.183 168.816 180.333 168.897 180.463C168.979 180.592 169.094 180.697 169.231 180.765C169.368 180.834 169.521 180.864 169.674 180.851C169.827 180.838 169.973 180.784 170.097 180.694L182.308 173.643C182.636 173.429 182.899 173.128 183.068 172.774C183.237 172.421 183.304 172.027 183.264 171.637Z" fill="#EBEBEB"/>
<path d="M202.168 160.748L200.488 148.995C200.488 148.841 200.445 148.69 200.364 148.559C200.283 148.427 200.167 148.321 200.029 148.253C199.892 148.184 199.737 148.154 199.584 148.168C199.43 148.182 199.284 148.238 199.16 148.331L186.943 155.376C186.614 155.587 186.35 155.885 186.18 156.236C186.011 156.588 185.941 156.979 185.98 157.368L187.653 169.127C187.655 169.281 187.7 169.43 187.781 169.56C187.863 169.689 187.978 169.794 188.115 169.863C188.252 169.931 188.406 169.961 188.558 169.948C188.711 169.936 188.857 169.881 188.981 169.791L201.192 162.726C201.52 162.517 201.784 162.222 201.956 161.873C202.128 161.524 202.201 161.135 202.168 160.748Z" fill="#EBEBEB"/>
<path d="M221.052 149.858L219.372 138.112C219.372 137.958 219.329 137.807 219.248 137.676C219.167 137.545 219.051 137.439 218.914 137.37C218.776 137.301 218.621 137.272 218.468 137.285C218.314 137.299 218.168 137.356 218.044 137.448L205.84 144.506C205.511 144.716 205.246 145.014 205.076 145.366C204.906 145.717 204.837 146.11 204.877 146.498L206.551 158.251C206.553 158.404 206.597 158.554 206.679 158.683C206.76 158.813 206.876 158.918 207.013 158.986C207.15 159.055 207.303 159.084 207.456 159.072C207.608 159.059 207.755 159.005 207.879 158.915L220.09 151.863C220.419 151.65 220.683 151.35 220.853 150.996C221.023 150.643 221.092 150.249 221.052 149.858Z" fill="#EBEBEB"/>
<path d="M239.936 138.975L238.256 127.216C238.256 127.062 238.214 126.91 238.132 126.779C238.051 126.648 237.936 126.542 237.798 126.473C237.66 126.404 237.505 126.375 237.352 126.389C237.198 126.403 237.052 126.459 236.928 126.552L224.711 133.603C224.383 133.815 224.12 134.113 223.951 134.464C223.783 134.816 223.715 135.207 223.755 135.595L225.428 147.348C225.43 147.501 225.475 147.651 225.556 147.78C225.638 147.91 225.753 148.015 225.89 148.083C226.027 148.152 226.181 148.181 226.333 148.169C226.486 148.156 226.632 148.102 226.756 148.012L238.967 140.967C239.295 140.755 239.558 140.457 239.729 140.106C239.9 139.755 239.971 139.364 239.936 138.975Z" fill="#EBEBEB"/>
<path d="M123.345 181.272L121.671 169.512C121.669 169.359 121.625 169.21 121.543 169.08C121.462 168.951 121.346 168.846 121.209 168.777C121.072 168.709 120.919 168.679 120.766 168.692C120.614 168.704 120.467 168.759 120.343 168.848L108.119 175.96C107.792 176.172 107.529 176.47 107.359 176.821C107.189 177.172 107.119 177.564 107.156 177.952L108.836 189.705C108.836 189.859 108.879 190.01 108.96 190.141C109.041 190.272 109.157 190.378 109.295 190.447C109.433 190.516 109.587 190.545 109.741 190.531C109.894 190.518 110.041 190.461 110.164 190.369L122.382 183.264C122.71 183.053 122.974 182.755 123.144 182.404C123.314 182.052 123.383 181.66 123.345 181.272Z" fill="#277FE5"/>
<path d="M142.229 170.409L140.556 158.65C140.553 158.496 140.509 158.347 140.427 158.217C140.346 158.088 140.23 157.983 140.093 157.914C139.956 157.846 139.803 157.816 139.65 157.829C139.498 157.841 139.351 157.896 139.228 157.986L127.017 165.037C126.689 165.249 126.426 165.547 126.256 165.898C126.087 166.25 126.017 166.641 126.054 167.029L127.734 178.789C127.736 178.942 127.78 179.091 127.862 179.221C127.944 179.351 128.059 179.455 128.196 179.524C128.333 179.592 128.486 179.622 128.639 179.609C128.791 179.597 128.938 179.543 129.062 179.453L141.273 172.401C141.6 172.19 141.863 171.892 142.032 171.54C142.201 171.188 142.269 170.797 142.229 170.409Z" fill="#EBEBEB"/>
<path d="M161.113 159.519L159.44 147.76C159.437 147.607 159.393 147.457 159.311 147.328C159.23 147.198 159.114 147.093 158.977 147.025C158.84 146.956 158.687 146.927 158.535 146.939C158.382 146.952 158.236 147.006 158.112 147.096L145.901 154.148C145.574 154.36 145.311 154.658 145.142 155.009C144.972 155.36 144.902 155.751 144.938 156.14L146.618 167.899C146.62 168.052 146.665 168.202 146.746 168.331C146.828 168.461 146.943 168.566 147.08 168.634C147.217 168.703 147.37 168.732 147.523 168.72C147.676 168.707 147.822 168.653 147.946 168.563L160.157 161.511C160.485 161.3 160.747 161.002 160.916 160.65C161.085 160.299 161.153 159.907 161.113 159.519Z" fill="#EBEBEB"/>
<path d="M179.997 148.63L178.324 136.87C178.321 136.717 178.277 136.568 178.196 136.438C178.114 136.308 177.998 136.204 177.861 136.135C177.724 136.067 177.571 136.037 177.419 136.05C177.266 136.062 177.12 136.116 176.996 136.206L164.785 143.258C164.458 143.471 164.196 143.769 164.026 144.12C163.856 144.471 163.786 144.862 163.822 145.25L165.502 157.009C165.504 157.163 165.549 157.312 165.63 157.442C165.712 157.571 165.827 157.676 165.964 157.745C166.101 157.813 166.255 157.843 166.407 157.83C166.56 157.818 166.706 157.763 166.83 157.673L179.041 150.622C179.369 150.41 179.632 150.112 179.8 149.761C179.969 149.409 180.037 149.018 179.997 148.63Z" fill="#EBEBEB"/>
<path d="M198.881 137.74L197.208 125.981C197.206 125.828 197.161 125.678 197.08 125.548C196.998 125.419 196.883 125.314 196.746 125.245C196.609 125.177 196.455 125.147 196.303 125.16C196.15 125.173 196.004 125.227 195.88 125.317L183.669 132.368C183.342 132.581 183.08 132.879 182.91 133.23C182.74 133.581 182.67 133.972 182.706 134.36L184.386 146.12C184.389 146.273 184.433 146.422 184.514 146.552C184.596 146.682 184.712 146.787 184.849 146.855C184.986 146.924 185.139 146.953 185.291 146.941C185.444 146.928 185.59 146.874 185.714 146.784L197.925 139.732C198.253 139.521 198.516 139.223 198.685 138.871C198.853 138.52 198.921 138.128 198.881 137.74Z" fill="#EBEBEB"/>
<path d="M217.792 126.824L216.119 115.064C216.116 114.911 216.072 114.762 215.99 114.632C215.909 114.502 215.793 114.398 215.656 114.329C215.519 114.261 215.366 114.231 215.214 114.244C215.061 114.256 214.915 114.31 214.791 114.4L202.52 121.512C202.193 121.725 201.931 122.023 201.761 122.374C201.591 122.725 201.521 123.116 201.557 123.504L203.237 135.263C203.24 135.416 203.284 135.566 203.365 135.696C203.447 135.825 203.563 135.93 203.7 135.999C203.837 136.067 203.99 136.097 204.142 136.084C204.295 136.072 204.441 136.017 204.565 135.927L216.803 128.816C217.137 128.609 217.407 128.313 217.582 127.961C217.757 127.609 217.83 127.215 217.792 126.824Z" fill="#EBEBEB"/>
<path d="M236.65 115.961L234.976 104.208C234.974 104.055 234.93 103.905 234.848 103.776C234.766 103.646 234.651 103.541 234.514 103.473C234.377 103.404 234.224 103.375 234.071 103.387C233.919 103.4 233.772 103.454 233.648 103.544L221.437 110.589C221.11 110.801 220.847 111.099 220.677 111.45C220.507 111.802 220.437 112.193 220.475 112.581L222.154 124.341C222.157 124.494 222.201 124.643 222.283 124.773C222.364 124.903 222.48 125.007 222.617 125.076C222.754 125.144 222.907 125.174 223.06 125.161C223.212 125.149 223.359 125.095 223.482 125.005L235.72 117.94C236.041 117.727 236.298 117.429 236.462 117.08C236.626 116.732 236.691 116.344 236.65 115.961Z" fill="#EBEBEB"/>
<path d="M120.065 158.284L118.385 146.531C118.385 146.377 118.342 146.226 118.261 146.095C118.18 145.964 118.064 145.858 117.926 145.789C117.788 145.72 117.634 145.691 117.48 145.705C117.327 145.719 117.18 145.775 117.057 145.867L104.846 152.913C104.517 153.124 104.253 153.421 104.084 153.773C103.914 154.124 103.844 154.516 103.883 154.905L105.576 166.664C105.576 166.818 105.619 166.969 105.7 167.1C105.781 167.231 105.897 167.337 106.035 167.406C106.173 167.475 106.327 167.504 106.481 167.491C106.634 167.477 106.781 167.42 106.904 167.328L119.115 160.276C119.442 160.065 119.704 159.766 119.872 159.415C120.039 159.063 120.106 158.672 120.065 158.284Z" fill="#277FE5"/>
<path d="M138.949 147.408L137.269 135.655C137.269 135.501 137.226 135.35 137.145 135.219C137.064 135.088 136.948 134.982 136.81 134.913C136.672 134.844 136.518 134.815 136.364 134.828C136.211 134.842 136.064 134.899 135.941 134.991L123.73 142.043C123.4 142.253 123.136 142.55 122.965 142.902C122.795 143.254 122.727 143.646 122.767 144.035L124.447 155.788C124.447 155.942 124.49 156.093 124.571 156.224C124.652 156.355 124.768 156.461 124.906 156.53C125.044 156.599 125.198 156.628 125.351 156.614C125.505 156.6 125.652 156.544 125.775 156.452L137.986 149.4C138.315 149.19 138.58 148.892 138.75 148.541C138.92 148.189 138.989 147.797 138.949 147.408Z" fill="#EBEBEB"/>
<path d="M157.833 136.512L156.153 124.752C156.153 124.598 156.11 124.447 156.029 124.316C155.948 124.185 155.832 124.079 155.694 124.01C155.556 123.941 155.402 123.912 155.248 123.926C155.095 123.939 154.948 123.996 154.825 124.088L142.614 131.14C142.284 131.35 142.02 131.647 141.85 131.999C141.68 132.351 141.611 132.743 141.651 133.132L143.331 144.885C143.331 145.039 143.374 145.19 143.455 145.321C143.536 145.452 143.652 145.558 143.79 145.627C143.928 145.696 144.082 145.725 144.236 145.711C144.389 145.698 144.536 145.641 144.659 145.549L156.87 138.504C157.198 138.293 157.462 137.995 157.632 137.643C157.802 137.292 157.871 136.9 157.833 136.512Z" fill="#EBEBEB"/>
<path d="M176.717 125.622L175.037 113.863C175.037 113.709 174.994 113.557 174.913 113.426C174.832 113.295 174.716 113.189 174.578 113.12C174.44 113.051 174.286 113.022 174.133 113.036C173.979 113.05 173.832 113.106 173.709 113.199L161.498 120.25C161.169 120.46 160.904 120.758 160.734 121.11C160.564 121.461 160.495 121.854 160.535 122.242L162.209 134.002C162.211 134.155 162.255 134.304 162.337 134.434C162.418 134.564 162.534 134.669 162.671 134.737C162.808 134.806 162.961 134.835 163.114 134.823C163.266 134.81 163.413 134.756 163.537 134.666L175.748 127.614C176.077 127.404 176.342 127.107 176.513 126.755C176.685 126.403 176.755 126.011 176.717 125.622Z" fill="#EBEBEB"/>
<path d="M195.601 114.733L193.921 102.973C193.921 102.819 193.878 102.668 193.797 102.537C193.716 102.406 193.6 102.3 193.462 102.231C193.324 102.162 193.17 102.133 193.017 102.146C192.863 102.16 192.716 102.217 192.593 102.309L180.382 109.361C180.053 109.571 179.788 109.868 179.618 110.22C179.448 110.572 179.379 110.964 179.419 111.353L181.093 123.112C181.095 123.265 181.139 123.415 181.221 123.545C181.303 123.674 181.418 123.779 181.555 123.847C181.692 123.916 181.845 123.946 181.998 123.933C182.15 123.92 182.297 123.866 182.421 123.776L194.632 116.725C194.962 116.515 195.227 116.218 195.399 115.866C195.57 115.514 195.64 115.122 195.601 114.733Z" fill="#EBEBEB"/>
<path d="M214.472 103.843L212.792 92.0835C212.792 91.9293 212.749 91.7783 212.668 91.6471C212.587 91.516 212.471 91.41 212.333 91.3411C212.195 91.2722 212.041 91.243 211.888 91.2568C211.734 91.2707 211.587 91.327 211.464 91.4195L199.253 98.4712C198.924 98.6817 198.66 98.9793 198.49 99.331C198.32 99.6826 198.251 100.075 198.29 100.463L199.97 112.216C199.973 112.369 200.017 112.519 200.099 112.648C200.18 112.778 200.296 112.883 200.433 112.951C200.57 113.02 200.723 113.049 200.875 113.037C201.028 113.024 201.174 112.97 201.298 112.88L213.509 105.828C213.837 105.618 214.101 105.322 214.271 104.971C214.441 104.621 214.51 104.23 214.472 103.843Z" fill="#EBEBEB"/>
<path d="M233.369 92.96L231.69 81.2006C231.69 81.0464 231.647 80.8953 231.566 80.7642C231.485 80.6331 231.369 80.5271 231.231 80.4582C231.093 80.3893 230.939 80.3601 230.785 80.3739C230.632 80.3878 230.485 80.4441 230.362 80.5366L218.151 87.5882C217.822 87.7987 217.557 88.0964 217.387 88.448C217.217 88.7997 217.148 89.1916 217.188 89.5802L218.861 101.34C218.863 101.493 218.908 101.642 218.989 101.772C219.071 101.902 219.186 102.006 219.323 102.075C219.46 102.143 219.614 102.173 219.766 102.16C219.919 102.148 220.065 102.094 220.189 102.004L232.4 94.952C232.73 94.7423 232.996 94.4451 233.167 94.0933C233.338 93.7416 233.408 93.3492 233.369 92.96Z" fill="#EBEBEB"/>
<path d="M117.163 137.501L116.738 134.5C116.738 134.346 116.695 134.195 116.614 134.063C116.533 133.932 116.417 133.826 116.279 133.757C116.141 133.688 115.987 133.659 115.833 133.673C115.68 133.687 115.533 133.743 115.41 133.836L103.192 140.901C102.863 141.111 102.599 141.409 102.429 141.761C102.259 142.112 102.19 142.504 102.229 142.893L102.648 145.894C102.65 146.047 102.695 146.197 102.776 146.326C102.858 146.456 102.973 146.561 103.11 146.629C103.247 146.698 103.4 146.727 103.553 146.715C103.706 146.702 103.852 146.648 103.976 146.558L116.2 139.48C116.525 139.269 116.787 138.973 116.956 138.624C117.126 138.276 117.197 137.887 117.163 137.501Z" fill="#E6E6E6"/>
<path d="M136.047 126.611L135.622 123.61C135.622 123.456 135.579 123.305 135.498 123.174C135.417 123.043 135.301 122.937 135.163 122.868C135.025 122.799 134.871 122.77 134.717 122.784C134.564 122.797 134.417 122.854 134.294 122.946L122.076 130.011C121.747 130.222 121.483 130.519 121.313 130.871C121.143 131.223 121.074 131.615 121.114 132.003L121.532 135.004C121.534 135.158 121.579 135.307 121.66 135.437C121.742 135.566 121.857 135.671 121.994 135.74C122.131 135.808 122.284 135.838 122.437 135.825C122.59 135.813 122.736 135.758 122.86 135.668L135.078 128.617C135.408 128.404 135.674 128.105 135.845 127.751C136.016 127.397 136.086 127.003 136.047 126.611Z" fill="#E6E6E6"/>
<path d="M154.931 115.722L154.506 112.721C154.504 112.567 154.459 112.418 154.378 112.288C154.296 112.159 154.181 112.054 154.044 111.985C153.907 111.917 153.754 111.887 153.601 111.9C153.448 111.912 153.302 111.967 153.178 112.057L140.961 119.122C140.632 119.332 140.367 119.63 140.197 119.981C140.027 120.333 139.958 120.725 139.998 121.114L140.416 124.115C140.416 124.269 140.459 124.42 140.54 124.551C140.621 124.682 140.737 124.788 140.875 124.857C141.013 124.926 141.167 124.955 141.321 124.941C141.474 124.928 141.621 124.871 141.744 124.779L153.962 117.727C154.292 117.515 154.558 117.215 154.729 116.861C154.9 116.507 154.97 116.113 154.931 115.722Z" fill="#E6E6E6"/>
<path d="M173.815 104.839L173.39 101.831C173.388 101.678 173.344 101.528 173.262 101.399C173.18 101.269 173.065 101.164 172.928 101.096C172.791 101.027 172.638 100.998 172.485 101.01C172.333 101.023 172.186 101.077 172.062 101.167L159.845 108.232C159.516 108.442 159.251 108.74 159.082 109.092C158.912 109.443 158.842 109.835 158.882 110.224L159.3 113.225C159.3 113.379 159.343 113.53 159.424 113.662C159.505 113.793 159.621 113.899 159.759 113.968C159.897 114.036 160.051 114.066 160.205 114.052C160.358 114.038 160.505 113.982 160.628 113.889L172.846 106.844C173.176 106.631 173.44 106.331 173.611 105.977C173.782 105.624 173.853 105.23 173.815 104.839Z" fill="#E6E6E6"/>
<path d="M192.699 93.9493L192.274 90.9414C192.272 90.7883 192.228 90.6387 192.146 90.5091C192.065 90.3794 191.949 90.2746 191.812 90.2062C191.675 90.1377 191.522 90.1081 191.369 90.1206C191.217 90.1332 191.07 90.1874 190.946 90.2774L178.729 97.3424C178.4 97.5534 178.137 97.8511 177.967 98.2026C177.797 98.5542 177.727 98.9458 177.766 99.3343L178.184 102.336C178.184 102.49 178.227 102.641 178.308 102.772C178.389 102.903 178.505 103.009 178.643 103.078C178.781 103.147 178.935 103.176 179.089 103.162C179.242 103.148 179.389 103.092 179.512 103L191.73 95.9546C192.06 95.7411 192.324 95.4413 192.495 95.0877C192.666 94.7341 192.737 94.3403 192.699 93.9493Z" fill="#E6E6E6"/>
<path d="M211.584 83.0597L211.159 80.0584C211.159 79.9043 211.116 79.7532 211.035 79.6221C210.954 79.4909 210.838 79.385 210.7 79.316C210.562 79.2471 210.408 79.2179 210.254 79.2318C210.101 79.2456 209.954 79.3019 209.831 79.3944L197.613 86.4527C197.285 86.6638 197.021 86.9615 196.851 87.313C196.681 87.6646 196.612 88.0562 196.65 88.4447L197.069 91.4526C197.071 91.6058 197.115 91.7553 197.197 91.885C197.278 92.0146 197.394 92.1194 197.531 92.1879C197.668 92.2564 197.821 92.2859 197.974 92.2734C198.126 92.2608 198.273 92.2066 198.397 92.1166L210.614 85.065C210.944 84.8521 211.21 84.5523 211.381 84.1985C211.552 83.8448 211.622 83.4507 211.584 83.0597Z" fill="#E6E6E6"/>
<path d="M230.461 72.1701L230.043 69.1688C230.043 69.0147 230 68.8636 229.919 68.7324C229.838 68.6013 229.722 68.4954 229.584 68.4264C229.446 68.3575 229.292 68.3283 229.138 68.3422C228.985 68.356 228.838 68.4123 228.715 68.5048L216.504 75.5565C216.174 75.7664 215.91 76.064 215.74 76.4158C215.57 76.7676 215.501 77.1598 215.541 77.5485L215.959 80.5498C215.962 80.7029 216.006 80.8524 216.088 80.9821C216.169 81.1117 216.285 81.2165 216.422 81.285C216.559 81.3535 216.712 81.3831 216.865 81.3705C217.017 81.3579 217.163 81.3037 217.287 81.2138L229.505 74.1621C229.832 73.9502 230.095 73.6521 230.263 73.3006C230.432 72.9492 230.501 72.558 230.461 72.1701Z" fill="#E6E6E6"/>
<path opacity="0.2" d="M102.92 119.772C102.86 118.895 103.041 118.018 103.444 117.236C103.846 116.454 104.455 115.797 105.204 115.337C106.692 114.48 108.079 115.071 108.312 116.665C108.373 117.543 108.192 118.421 107.788 119.204C107.384 119.986 106.773 120.642 106.021 121.1C104.54 121.957 103.152 121.366 102.92 119.772Z" fill="black"/>
<path opacity="0.2" d="M121.824 108.896C121.762 108.018 121.943 107.141 122.346 106.359C122.748 105.577 123.358 104.92 124.108 104.46C125.596 103.597 126.983 104.188 127.216 105.788C127.277 106.666 127.095 107.543 126.691 108.324C126.287 109.105 125.676 109.76 124.925 110.217C123.438 111.047 122.05 110.456 121.824 108.896Z" fill="black"/>
<path opacity="0.2" d="M140.688 97.9732C140.627 97.0956 140.807 96.218 141.21 95.4359C141.613 94.6538 142.222 93.9972 142.973 93.5376C144.46 92.6744 145.854 93.2654 146.08 94.8656C146.141 95.7422 145.96 96.6187 145.558 97.3997C145.155 98.1806 144.546 98.836 143.796 99.2945C142.309 100.151 140.914 99.5601 140.688 97.9732Z" fill="black"/>
<path opacity="0.2" d="M178.443 76.1741C178.382 75.2965 178.562 74.4189 178.965 73.6368C179.368 72.8547 179.977 72.1981 180.727 71.7386C182.215 70.882 183.603 71.473 183.828 73.0666C183.893 73.9445 183.714 74.8233 183.311 75.6059C182.908 76.3886 182.296 77.0447 181.544 77.5021C180.057 78.352 178.669 77.7677 178.443 76.1741Z" fill="black"/>
<path opacity="0.2" d="M197.341 65.2711C197.278 64.3934 197.458 63.5152 197.86 62.7328C198.263 61.9505 198.874 61.2941 199.625 60.8356C201.112 59.9724 202.5 60.5634 202.732 62.1636C202.794 63.0419 202.613 63.9203 202.209 64.7026C201.805 65.4849 201.194 66.141 200.442 66.5991C198.954 67.4491 197.567 66.8581 197.341 65.2711Z" fill="black"/>
<path opacity="0.2" d="M216.205 54.375C216.143 53.4974 216.324 52.6198 216.727 51.8377C217.129 51.0556 217.739 50.399 218.489 49.9394C219.977 49.0762 221.371 49.6672 221.597 51.2674C221.658 52.144 221.477 53.0205 221.074 53.8015C220.672 54.5824 220.062 55.2378 219.313 55.6963C217.792 56.5529 216.464 55.9619 216.205 54.375Z" fill="black"/>
<path d="M100.968 101.831C98.9758 100.669 97.0237 100.503 95.5363 101.36C94.049 102.216 93.2256 103.969 93.2256 106.3C93.2385 107.39 93.3994 108.473 93.7037 109.52L94.8856 108.856C94.6734 108.025 94.5619 107.171 94.5536 106.313C94.5536 104.48 95.1379 103.132 96.2003 102.522C96.6362 102.278 97.1287 102.154 97.6279 102.163C98.5697 102.208 99.4841 102.494 100.284 102.993C103.816 105.038 106.692 110.018 106.692 114.095C106.693 114.386 106.678 114.676 106.645 114.965C106.629 115.543 106.476 116.109 106.199 116.617C105.922 117.125 105.529 117.56 105.051 117.887C104.443 118.215 103.74 118.328 103.059 118.205C102.925 118.635 102.869 119.084 102.893 119.533C103.142 119.573 103.392 119.593 103.644 119.593C104.375 119.602 105.095 119.414 105.729 119.049C106.322 118.677 106.824 118.178 107.2 117.587C107.575 116.997 107.814 116.33 107.9 115.636C107.989 115.131 108.034 114.62 108.033 114.108C108.039 109.56 104.866 104.082 100.968 101.831Z" fill="#F5F5F5"/>
<path d="M119.865 90.9281C117.873 89.7661 115.921 89.6001 114.434 90.4567C112.946 91.3132 112.123 93.0662 112.123 95.3968C112.136 96.487 112.297 97.5703 112.601 98.6172L113.783 97.9532C113.571 97.1219 113.459 96.2681 113.451 95.4101C113.451 93.5775 114.035 92.2296 115.098 91.6187C115.534 91.3753 116.026 91.2516 116.525 91.2601C117.467 91.305 118.382 91.5908 119.181 92.0901C122.714 94.1352 125.589 99.1152 125.589 103.192C125.591 103.483 125.575 103.773 125.542 104.062C125.526 104.64 125.373 105.206 125.096 105.714C124.819 106.222 124.426 106.657 123.949 106.984C123.34 107.312 122.638 107.425 121.957 107.302C121.823 107.732 121.767 108.181 121.791 108.63C122.039 108.67 122.29 108.69 122.541 108.69C123.272 108.699 123.993 108.511 124.626 108.146C125.219 107.774 125.721 107.275 126.097 106.684C126.473 106.094 126.712 105.427 126.797 104.733C126.887 104.229 126.931 103.717 126.93 103.205C126.937 98.677 123.763 93.1791 119.865 90.9281Z" fill="#F5F5F5"/>
<path d="M138.73 80.0319C136.738 78.8699 134.785 78.7039 133.298 79.5604C131.811 80.417 130.987 82.17 130.987 84.5006C131 85.5908 131.161 86.6741 131.465 87.721L132.647 87.057C132.435 86.2257 132.324 85.3718 132.315 84.5139C132.315 82.6812 132.9 81.3333 133.962 80.7224C134.398 80.479 134.89 80.3553 135.39 80.3639C136.331 80.4088 137.246 80.6946 138.046 81.1939C141.578 83.239 144.453 88.219 144.453 92.296C144.455 92.5866 144.44 92.8771 144.407 93.1658C144.39 93.744 144.238 94.3101 143.961 94.8179C143.684 95.3257 143.29 95.7607 142.813 96.0874C142.204 96.4162 141.502 96.5286 140.821 96.4061C140.687 96.8354 140.631 97.2851 140.655 97.7341C140.903 97.7736 141.154 97.7935 141.405 97.7939C142.137 97.803 142.857 97.6149 143.49 97.2494C144.083 96.8777 144.586 96.3784 144.961 95.788C145.337 95.1976 145.576 94.5309 145.662 93.8365C145.751 93.3323 145.796 92.8212 145.794 92.3093C145.801 87.7808 142.627 82.2828 138.73 80.0319Z" fill="#F5F5F5"/>
<path d="M176.491 58.266C174.499 57.104 172.547 56.938 171.06 57.7945C169.572 58.6511 168.749 60.4041 168.749 62.7347C168.762 63.8249 168.923 64.9082 169.227 65.9551L170.409 65.2911C170.197 64.4598 170.085 63.6059 170.077 62.748C170.077 60.9153 170.661 59.5674 171.724 58.9565C172.16 58.7131 172.652 58.5894 173.151 58.598C174.093 58.6429 175.008 58.9287 175.807 59.428C179.34 61.4731 182.215 66.4531 182.215 70.5301C182.217 70.8207 182.201 71.1111 182.168 71.3999C182.152 71.9781 181.999 72.5442 181.722 73.052C181.445 73.5598 181.052 73.9948 180.575 74.3215C179.966 74.6503 179.264 74.7627 178.583 74.6402C178.449 75.0695 178.393 75.5192 178.417 75.9682C178.665 76.0076 178.916 76.0276 179.167 76.028C179.898 76.0371 180.619 75.849 181.252 75.4835C181.845 75.1117 182.347 74.6125 182.723 74.0221C183.099 73.4317 183.338 72.765 183.423 72.0705C183.513 71.5664 183.557 71.0553 183.556 70.5433C183.563 66.0149 180.389 60.5169 176.491 58.266Z" fill="#F5F5F5"/>
<path d="M195.389 47.3564C193.397 46.1944 191.444 46.0284 189.957 46.885C188.47 47.7415 187.646 49.4945 187.646 51.8251C187.659 52.9153 187.82 53.9986 188.124 55.0455L189.306 54.3815C189.094 53.5502 188.983 52.6964 188.974 51.8384C188.974 50.0058 189.559 48.6579 190.621 48.047C191.057 47.8036 191.55 47.6799 192.049 47.6884C192.99 47.7334 193.905 48.0191 194.705 48.5184C198.237 50.5635 201.112 55.5435 201.112 59.6205C201.114 59.9111 201.099 60.2016 201.066 60.4903C201.05 61.0685 200.897 61.6347 200.62 62.1424C200.343 62.6502 199.95 63.0852 199.472 63.4119C198.863 63.7407 198.161 63.8531 197.48 63.7307C197.346 64.1599 197.29 64.6096 197.314 65.0587C197.562 65.0981 197.813 65.1181 198.065 65.1184C198.796 65.1275 199.516 64.9395 200.149 64.5739C200.742 64.2022 201.245 63.7029 201.62 63.1126C201.996 62.5222 202.235 61.8555 202.321 61.161C202.41 60.6569 202.455 60.1458 202.454 59.6338C202.46 55.1119 199.286 49.6074 195.389 47.3564Z" fill="#F5F5F5"/>
<path d="M214.253 36.4602C212.261 35.2982 210.309 35.1322 208.821 35.9887C207.334 36.8453 206.504 38.5983 206.504 40.9289C206.517 42.0191 206.678 43.1024 206.982 44.1493L208.164 43.4853C207.952 42.654 207.84 41.8001 207.832 40.9422C207.832 39.1096 208.416 37.7616 209.479 37.1508C209.915 36.9073 210.407 36.7836 210.906 36.7922C211.848 36.8371 212.763 37.1229 213.562 37.6222C217.095 39.6673 219.97 44.6473 219.97 48.7243C219.972 49.0149 219.956 49.3054 219.923 49.5941C219.907 50.1723 219.754 50.7384 219.477 51.2462C219.2 51.754 218.807 52.189 218.33 52.5157C217.721 52.8445 217.019 52.9569 216.338 52.8344C216.204 53.2637 216.148 53.7134 216.172 54.1624C216.42 54.2019 216.671 54.2218 216.922 54.2222C217.653 54.2313 218.374 54.0432 219.007 53.6777C219.6 53.306 220.102 52.8067 220.478 52.2163C220.854 51.6259 221.093 50.9592 221.178 50.2648C221.268 49.7606 221.312 49.2496 221.311 48.7376C221.325 44.2091 218.151 38.7112 214.253 36.4602Z" fill="#F5F5F5"/>
<path d="M233.874 209.16L229.412 216.909C229.119 217.393 229.03 217.974 229.165 218.524C229.3 219.073 229.648 219.547 230.132 219.84C230.617 220.133 231.198 220.222 231.747 220.087C232.297 219.952 232.771 219.604 233.064 219.12L237.553 211.325C237.984 210.581 237.519 209.499 236.51 208.914C235.501 208.33 234.306 208.436 233.874 209.16Z" fill="#455A64"/>
<path d="M269.385 195.515L277.134 199.977C277.372 200.124 277.637 200.223 277.914 200.267C278.19 200.311 278.473 200.299 278.745 200.233C279.017 200.166 279.274 200.047 279.499 199.88C279.724 199.714 279.914 199.504 280.058 199.264C280.202 199.023 280.296 198.757 280.335 198.479C280.375 198.202 280.359 197.919 280.288 197.648C280.217 197.377 280.094 197.123 279.924 196.9C279.754 196.678 279.541 196.491 279.298 196.351L271.503 191.896C270.759 191.464 269.677 191.929 269.093 192.938C268.508 193.948 268.641 195.083 269.385 195.515Z" fill="#455A64"/>
<path d="M277.97 160.582H277.93L259.053 149.685H259C254.856 147.328 249.146 147.693 242.845 151.319C230.182 158.623 219.917 176.411 219.917 191.033C219.917 198.337 222.473 203.443 226.597 205.847H226.63L245.507 216.749H245.554C249.697 219.12 255.414 218.741 261.722 215.123C274.378 207.819 284.643 190.03 284.643 175.415C284.643 168.111 282.094 162.985 277.97 160.582Z" fill="#277FE5"/>
<path opacity="0.1" d="M245.202 216.53L226.61 205.813H226.57C222.447 203.403 219.897 198.277 219.897 190.999C219.897 184.479 221.942 177.334 225.322 170.774L244.199 181.67C240.813 188.231 238.774 195.375 238.774 201.896C238.788 209 241.231 214.06 245.202 216.53Z" fill="black"/>
<path opacity="0.4" d="M277.932 197.99C286.885 182.482 286.886 165.72 277.933 160.551C268.98 155.382 254.465 163.764 245.511 179.271C236.558 194.779 236.557 211.541 245.51 216.71C254.463 221.879 268.979 213.497 277.932 197.99Z" fill="white"/>
<path d="M251.477 213.589C244.226 213.589 243.442 205.395 243.442 201.869C243.442 188.974 252.878 172.653 264.026 166.186C266.868 164.546 269.604 163.683 271.941 163.683C279.192 163.683 279.976 171.876 279.976 175.402C279.976 188.297 270.54 204.618 259.392 211.086C256.543 212.726 253.807 213.589 251.477 213.589Z" fill="#FAFAFA"/>
<path d="M256.636 203.576C256.601 203.582 256.565 203.582 256.53 203.576C256.447 203.546 256.379 203.484 256.341 203.405C256.302 203.326 256.296 203.234 256.324 203.151L261.404 188.642C261.433 188.559 261.494 188.49 261.573 188.451C261.653 188.413 261.745 188.407 261.829 188.437C261.912 188.466 261.981 188.527 262.019 188.606C262.058 188.686 262.063 188.778 262.034 188.861L256.968 203.35C256.946 203.419 256.901 203.479 256.841 203.52C256.781 203.561 256.709 203.581 256.636 203.576Z" fill="#277FE5"/>
<path d="M269.332 193.018C269.197 193.021 269.063 192.993 268.94 192.939L260.726 189.386V174.486C260.726 174.222 260.831 173.968 261.018 173.782C261.205 173.595 261.458 173.49 261.722 173.49C261.986 173.49 262.24 173.595 262.426 173.782C262.613 173.968 262.718 174.222 262.718 174.486V188.078L269.73 191.113C269.938 191.205 270.108 191.366 270.211 191.569C270.315 191.771 270.346 192.003 270.299 192.226C270.253 192.449 270.131 192.649 269.955 192.793C269.779 192.937 269.559 193.017 269.332 193.018Z" fill="#37474F"/>
<path d="M261.722 185.522C263.21 184.658 264.418 185.356 264.418 187.075C264.363 188.007 264.09 188.912 263.622 189.719C263.154 190.526 262.503 191.213 261.722 191.723C260.228 192.586 259.02 191.889 259.02 190.163C259.077 189.232 259.351 188.327 259.82 187.521C260.29 186.716 260.941 186.031 261.722 185.522Z" fill="#277FE5"/>
<path d="M239.784 174.831C236.53 180.455 230.401 183.005 225.793 180.342C223.09 178.779 221.118 176.207 220.312 173.19C219.506 170.173 219.931 166.96 221.494 164.257C223.057 161.554 225.63 159.582 228.646 158.776C231.663 157.97 234.876 158.395 237.579 159.958C242.174 162.68 243.024 169.2 239.784 174.831Z" fill="#455A64"/>
<path d="M225.793 180.342C230.401 182.998 236.53 180.455 239.784 174.831C240.511 173.57 241.05 172.21 241.384 170.794C241.198 171.04 235.78 177.945 229.047 176C222.194 174.008 220.906 168.742 221.497 164.254C220.723 165.592 220.219 167.07 220.016 168.603C219.813 170.136 219.913 171.694 220.312 173.188C220.711 174.682 221.401 176.083 222.341 177.31C223.281 178.538 224.455 179.568 225.793 180.342Z" fill="#37474F"/>
<path d="M223.901 163.112L220.408 161.12C220.17 160.972 219.905 160.874 219.628 160.83C219.352 160.786 219.069 160.797 218.797 160.863C218.525 160.93 218.268 161.05 218.043 161.216C217.818 161.382 217.627 161.592 217.484 161.832C217.34 162.073 217.246 162.34 217.206 162.617C217.167 162.894 217.183 163.177 217.254 163.448C217.324 163.719 217.448 163.973 217.618 164.196C217.788 164.419 218.001 164.605 218.244 164.745L221.776 166.79C222.526 167.222 223.609 166.757 224.193 165.748C224.777 164.738 224.645 163.543 223.901 163.112Z" fill="#277FE5"/>
<path d="M275.998 146.266L277.99 142.78C278.138 142.542 278.236 142.277 278.28 142C278.324 141.723 278.313 141.441 278.246 141.168C278.18 140.896 278.06 140.64 277.894 140.415C277.727 140.189 277.518 139.999 277.277 139.856C277.037 139.712 276.77 139.618 276.493 139.578C276.215 139.539 275.933 139.555 275.662 139.625C275.391 139.696 275.137 139.82 274.914 139.99C274.691 140.16 274.505 140.372 274.365 140.615L272.32 144.148C271.888 144.891 272.32 145.974 273.362 146.558C274.405 147.142 275.56 147.016 275.998 146.266Z" fill="#277FE5"/>
<path d="M259.126 147.707C259.9 146.366 260.93 145.191 262.158 144.248C263.386 143.306 264.788 142.615 266.283 142.214C267.778 141.813 269.338 141.711 270.873 141.913C272.407 142.115 273.887 142.617 275.228 143.391C276.569 144.165 277.744 145.195 278.686 146.423C279.629 147.651 280.32 149.053 280.721 150.548C281.122 152.043 281.224 153.603 281.022 155.137C280.82 156.672 280.318 158.152 279.544 159.493L259.126 147.707Z" fill="#455A64"/>
<path d="M276.954 144.646C277.618 146.033 279.424 151.91 276.954 153.371C274.484 154.831 263.077 149.984 263.077 149.984L279.544 159.493C280.916 157.105 281.407 154.313 280.934 151.601C280.461 148.889 279.053 146.428 276.954 144.646Z" fill="#37474F"/>
</svg>
