<svg width="335" height="335" viewBox="0 0 335 335" fill="none" xmlns="http://www.w3.org/2000/svg">
<path d="M198.32 220.946C168.264 205.315 156.344 208.826 124.285 207.546C98.0679 206.481 68.474 194.246 51.6637 169.456C7.36996 104.125 92.9222 52.6151 138.69 44.89C170.937 39.4697 189.161 53.667 207.318 82.9594C214.38 94.3494 219.726 107.749 228.457 117.652C237.837 128.272 250.426 129.632 259.39 138.61C302.88 182.146 238.413 241.783 198.32 220.946Z" fill="#277FE5"/>
<path opacity="0.9" d="M198.32 220.946C168.264 205.315 156.344 208.826 124.285 207.546C98.0679 206.481 68.474 194.246 51.6637 169.456C7.36996 104.125 92.9222 52.6151 138.69 44.89C170.937 39.4697 189.161 53.667 207.318 82.9594C214.38 94.3494 219.726 107.749 228.457 117.652C237.837 128.272 250.426 129.632 259.39 138.61C302.88 182.146 238.413 241.783 198.32 220.946Z" fill="white"/>
<path d="M167.5 286.465C239.245 286.465 297.406 283.07 297.406 278.881C297.406 274.692 239.245 271.296 167.5 271.296C95.7548 271.296 37.5938 274.692 37.5938 278.881C37.5938 283.07 95.7548 286.465 167.5 286.465Z" fill="#F5F5F5"/>
<path d="M228.028 276.328C252.531 276.328 272.395 256.464 272.395 231.961C272.395 207.457 252.531 187.593 228.028 187.593C203.524 187.593 183.66 207.457 183.66 231.961C183.66 256.464 203.524 276.328 228.028 276.328Z" fill="#277FE5"/>
<g opacity="0.2">
<path opacity="0.2" d="M271.625 240.215C262.211 254.162 250.195 266.163 236.235 275.558C236.845 275.444 237.455 275.316 238.058 275.176C251.012 266.213 262.248 254.993 271.229 242.051C271.35 241.441 271.504 240.825 271.625 240.215Z" fill="white"/>
<path opacity="0.2" d="M272.161 227.425C272.12 227.036 272.074 226.648 272.02 226.259C259.789 246.666 242.704 263.734 222.286 275.946L223.445 276.08C243.355 264.009 260.065 247.32 272.161 227.425Z" fill="white"/>
<path opacity="0.2" d="M269.95 217.395C269.849 217.107 269.735 216.825 269.628 216.537C255.879 240.17 236.215 259.818 212.571 273.548L213.435 273.863C236.796 260.188 256.256 240.745 269.95 217.395Z" fill="white"/>
<path opacity="0.2" d="M266.385 209.65C266.251 209.415 266.104 209.187 265.97 208.98C251.201 234.177 230.207 255.157 205 269.91L205.67 270.325C230.733 255.584 251.628 234.703 266.385 209.65Z" fill="white"/>
<path opacity="0.2" d="M261.97 203.385C261.809 203.191 261.642 203.003 261.481 202.816C246.038 228.471 224.543 249.95 198.876 265.374L199.446 265.863C225.056 250.429 246.517 228.984 261.97 203.385Z" fill="white"/>
<path opacity="0.2" d="M256.804 198.206C256.623 198.045 256.442 197.885 256.255 197.737C240.453 223.03 219.087 244.382 193.784 260.168L194.26 260.71C219.584 244.896 240.974 223.521 256.804 198.206Z" fill="white"/>
<path opacity="0.2" d="M248.791 192.739L248.181 192.431C233.836 217.181 213.256 237.74 188.491 252.061C188.592 252.262 188.685 252.469 188.793 252.67C213.689 238.284 234.377 217.62 248.791 192.739Z" fill="white"/>
<path opacity="0.2" d="M239.605 189.134L238.935 188.96C226.542 211.761 207.809 230.483 185 242.862C185.054 243.076 185.114 243.284 185.168 243.498C208.206 231.045 227.121 212.156 239.605 189.134Z" fill="white"/>
<path opacity="0.2" d="M229.321 187.6H228.651C218.535 206.765 202.861 222.424 183.687 232.524C183.687 232.751 183.687 232.979 183.687 233.194C203.183 222.993 219.103 207.087 229.321 187.6Z" fill="white"/>
<path opacity="0.2" d="M184.92 221.609C198.737 213.977 210.118 202.596 217.75 188.779L216.98 188.973C209.486 202.312 198.46 213.326 185.114 220.805C185.021 221.1 184.92 221.355 184.92 221.609Z" fill="white"/>
</g>
<path d="M147.691 83.4996C148.536 79.9163 146.317 76.3258 142.734 75.48C139.15 74.6343 135.56 76.8535 134.714 80.4369C133.868 84.0202 136.088 87.6107 139.671 88.4565C143.254 89.3022 146.845 87.083 147.691 83.4996Z" fill="#263238"/>
<path d="M143.266 89.6527C143.178 89.6534 143.093 89.6223 143.027 89.5651C142.961 89.5078 142.917 89.4284 142.905 89.3416C142.893 89.2548 142.912 89.1665 142.96 89.093C143.008 89.0196 143.081 88.9661 143.166 88.9425C144.365 88.6023 145.436 87.9138 146.244 86.9643C147.052 86.0147 147.559 84.8468 147.703 83.6085C147.846 82.3702 147.619 81.1172 147.05 80.0081C146.481 78.899 145.595 77.9838 144.506 77.3783C143.783 76.971 142.987 76.7115 142.164 76.6148C141.34 76.5182 140.505 76.5864 139.708 76.8155C139.629 76.8166 139.552 76.7916 139.488 76.7445C139.425 76.6973 139.378 76.6306 139.356 76.5545C139.334 76.4784 139.338 76.3972 139.366 76.3233C139.395 76.2495 139.447 76.187 139.514 76.1455C141.307 75.6391 143.228 75.8656 144.854 76.7753C146.48 77.685 147.678 79.2034 148.184 80.9963C148.69 82.7892 148.464 84.7099 147.554 86.3358C146.644 87.9617 145.126 89.1597 143.333 89.6661L143.266 89.6527Z" fill="#263238"/>
<path d="M145.645 89.78C145.563 89.7858 145.482 89.7633 145.415 89.7162C145.348 89.6691 145.3 89.6003 145.277 89.5216C145.255 89.4428 145.261 89.3588 145.294 89.2838C145.327 89.2088 145.384 89.1474 145.457 89.11C146.232 88.7151 146.916 88.1643 147.467 87.4922C148.019 86.8201 148.425 86.0412 148.661 85.2044C148.897 84.3677 148.957 83.4912 148.838 82.6301C148.719 81.7689 148.424 80.9416 147.969 80.2003C147.515 79.4589 146.913 78.8195 146.2 78.3222C145.487 77.8248 144.679 77.4803 143.826 77.3103C142.973 77.1403 142.095 77.1485 141.246 77.3343C140.396 77.5201 139.595 77.8795 138.891 78.39C138.81 78.4316 138.716 78.4409 138.628 78.416C138.54 78.3912 138.465 78.334 138.417 78.256C138.37 78.178 138.354 78.0849 138.372 77.9955C138.39 77.906 138.442 77.8267 138.516 77.7736C140.108 76.8034 142.02 76.5054 143.832 76.9452C145.644 77.3849 147.207 78.5265 148.177 80.1186C149.147 81.7108 149.445 83.6231 149.006 85.435C148.566 87.2468 147.424 88.8098 145.832 89.78C145.771 89.7962 145.706 89.7962 145.645 89.78Z" fill="#263238"/>
<path d="M122.704 105.23C119.033 103.253 115.5 101.028 112.131 98.5704C110.387 97.3215 108.725 95.9631 107.153 94.5035C106.312 93.7242 105.524 92.8893 104.795 92.0044C103.894 90.9505 103.191 89.7431 102.718 88.44L102.624 88.1318L102.51 87.77L102.477 87.5958V87.4752V87.234L102.369 86.2759C102.369 85.7332 102.309 85.1704 102.302 84.6344C102.302 83.5691 102.302 82.5239 102.302 81.4921C102.343 79.4285 102.463 77.3917 102.584 75.3549C102.858 71.288 103.254 67.2546 103.796 63.2078C103.855 62.8058 104.06 62.4397 104.372 62.1803C104.685 61.9208 105.083 61.7864 105.488 61.8031C105.894 61.8197 106.279 61.9863 106.57 62.2705C106.86 62.5547 107.034 62.9364 107.059 63.3418C107.267 67.3618 107.421 71.3818 107.575 75.4018C107.649 77.4118 107.756 79.4218 107.857 81.3782C107.91 82.3631 107.984 83.3413 108.071 84.286L108.218 85.6662C108.251 85.9364 108.307 86.2032 108.386 86.4635C108.684 87.0278 109.06 87.5467 109.505 88.0045C110.101 88.6438 110.734 89.2479 111.401 89.8135C112.795 90.9994 114.336 92.1384 115.923 93.2439C117.511 94.3494 119.173 95.3946 120.841 96.4264C122.51 97.4582 124.231 98.4766 125.873 99.4347L125.94 99.4682C126.318 99.6798 126.65 99.9638 126.919 100.304C127.187 100.644 127.385 101.034 127.503 101.45C127.62 101.867 127.655 102.303 127.604 102.733C127.553 103.163 127.418 103.579 127.206 103.957C126.995 104.335 126.711 104.668 126.371 104.936C126.03 105.204 125.641 105.402 125.224 105.52C124.807 105.638 124.371 105.672 123.941 105.621C123.511 105.57 123.095 105.435 122.717 105.224L122.704 105.23Z" fill="#FFC3BD"/>
<path d="M106.698 65.7002L112.017 60.8092L105.773 58.7992C105.773 58.7992 101.72 61.8209 103.683 64.8292L106.698 65.7002Z" fill="#FFC3BD"/>
<path d="M111.026 56.3872L108.708 55.7775C108.293 55.6675 107.853 55.7107 107.468 55.899C107.083 56.0872 106.778 56.4081 106.61 56.8026L105.773 58.8126L112.017 60.8226L112.339 58.3503C112.396 57.9194 112.294 57.4825 112.052 57.1212C111.811 56.76 111.446 56.499 111.026 56.3872Z" fill="#FFC3BD"/>
<path d="M99.7832 54.27H97.3176C95.9411 54.27 94.8252 55.3859 94.8252 56.7624V62.5981C94.8252 63.9746 95.9411 65.0905 97.3176 65.0905H99.7832C101.16 65.0905 102.276 63.9746 102.276 62.5981V56.7624C102.276 55.3859 101.16 54.27 99.7832 54.27Z" fill="#277FE5"/>
<path d="M118.63 54.27H116.165C114.788 54.27 113.672 55.3859 113.672 56.7624V62.5981C113.672 63.9746 114.788 65.0905 116.165 65.0905H118.63C120.007 65.0905 121.123 63.9746 121.123 62.5981V56.7624C121.123 55.3859 120.007 54.27 118.63 54.27Z" fill="#277FE5"/>
<path d="M116.098 60.97H99.8301C99.4817 60.9595 99.1511 60.8138 98.9084 60.5636C98.6658 60.3134 98.5301 59.9785 98.5303 59.63C98.5424 59.2935 98.6847 58.9748 98.9272 58.7411C99.1696 58.5074 99.4933 58.3769 99.8301 58.3771H116.078C116.419 58.3872 116.744 58.5274 116.985 58.769C117.227 59.0106 117.367 59.3354 117.377 59.6769C117.366 60.0139 117.228 60.3342 116.991 60.5739C116.753 60.8136 116.435 60.955 116.098 60.97Z" fill="#277FE5"/>
<path d="M118.684 103.14C118.577 107.83 119.233 117.558 122.523 137.779H148.74C148.331 127.903 147.856 121.438 151.842 103.14C151.974 102.531 151.979 101.902 151.856 101.292C151.733 100.681 151.485 100.103 151.128 99.5929C150.77 99.083 150.311 98.6528 149.779 98.3292C149.247 98.0056 148.654 97.7957 148.037 97.7128C146.348 97.485 144.345 97.2706 142.254 97.1701C138.291 96.885 134.312 96.885 130.349 97.1701C127.789 97.4046 125.049 97.8401 122.979 98.1751C121.797 98.373 120.721 98.9773 119.937 99.8836C119.153 100.79 118.709 101.942 118.684 103.14Z" fill="#277FE5"/>
<path d="M130.348 97.15C125.658 95.0462 119.092 94.5906 119.092 94.5906C117.688 98.0562 116.96 101.759 116.948 105.498C124.044 107.126 127.072 106.074 127.601 104.239C128.131 102.403 130.348 97.15 130.348 97.15Z" fill="#277FE5"/>
<path d="M141.075 83.75C140.325 87.5824 139.574 94.5973 142.254 97.15C142.254 97.15 139.99 103.421 131.601 104.587C126.851 100.668 130.348 97.15 130.348 97.15C134.623 96.1249 134.509 92.9558 133.765 89.981L141.075 83.75Z" fill="#FFC3BD"/>
<path opacity="0.2" d="M138.094 86.3094L133.772 90.0011C133.952 90.6934 134.075 91.3992 134.141 92.1116C135.769 91.8771 138.013 90.1016 138.161 88.3797C138.263 87.6911 138.24 86.9899 138.094 86.3094Z" fill="black"/>
<path d="M145.625 78.8657C143.105 84.755 142.167 87.301 138.02 89.3043C131.789 92.326 125.102 87.9643 125.813 81.4184C126.449 75.5425 130.462 66.8995 137.203 66.6047C138.694 66.5233 140.182 66.827 141.522 67.4864C142.863 68.1459 144.011 69.139 144.857 70.3703C145.702 71.6016 146.217 73.0298 146.352 74.5175C146.486 76.0053 146.236 77.5026 145.625 78.8657Z" fill="#FFC3BD"/>
<path d="M135.95 65.7002C136.345 64.2932 134.489 57.1041 129.833 57.9818C125.176 58.8595 123.95 67.67 131.99 68.5075C131.99 68.5075 134.871 69.5661 135.95 65.7002Z" fill="#263238"/>
<path d="M135.199 69.7135C133.022 71.1942 130.248 70.9061 129.009 69.0435C127.769 67.1809 128.526 64.5277 130.704 63.0537C132.881 61.5797 135.655 61.8611 136.894 63.7237C138.134 65.5863 137.35 68.2395 135.199 69.7135Z" fill="#277FE5"/>
<path d="M141.203 62.9063C135.561 61.171 128.948 64.3535 129.143 70.4706C137.967 70.8927 138.844 73.9479 142.261 73.9479C140.74 75.9579 139.896 81.9075 143.32 81.07C149.578 83.75 151.936 76.8624 150.609 74.772C151.769 69.4321 147.434 64.8292 141.203 62.9063Z" fill="#263238"/>
<path d="M149.222 77.7468C151.435 77.7468 153.229 75.398 153.229 72.5007C153.229 69.6033 151.435 67.2546 149.222 67.2546C147.01 67.2546 145.216 69.6033 145.216 72.5007C145.216 75.398 147.01 77.7468 149.222 77.7468Z" fill="#277FE5"/>
<path d="M148.506 69.7269C149.464 68.4606 157.423 64.9029 159.896 69.6465C162.368 74.3901 155.621 81.472 148.894 75.3951C148.901 75.3951 145.872 73.1774 148.506 69.7269Z" fill="#263238"/>
<path d="M123.079 138.094C123.079 138.094 113.786 178.146 109.88 197.442C105.806 217.542 97.1166 271.725 97.1166 271.725L102.477 271.377C102.477 271.377 119.608 225.147 123.079 200.055C130.811 179.218 142.911 137.35 142.911 137.35L123.079 138.094Z" fill="#FFC3BD"/>
<path d="M96.7615 271.29L98.7715 259.987C98.7715 259.987 103.823 259.096 107.314 258.707C105.974 262.024 102.731 271.29 102.731 271.29H96.7615Z" fill="#277FE5"/>
<path d="M97.1031 270.68L102.564 270.533C102.696 270.523 102.827 270.561 102.934 270.639C103.041 270.718 103.117 270.832 103.147 270.961L104.205 276.067C104.221 276.221 104.203 276.377 104.153 276.523C104.103 276.67 104.023 276.804 103.917 276.917C103.811 277.03 103.682 277.119 103.539 277.178C103.395 277.237 103.241 277.265 103.086 277.259C100.266 277.259 100.098 277.146 96.5471 277.259C94.3562 277.313 90.3898 278.244 87.4284 277.708C84.467 277.172 85.606 274.74 86.8924 274.76C91.5489 274.841 92.0312 273.42 95.9105 271.129C96.2616 270.877 96.673 270.722 97.1031 270.68Z" fill="#263238"/>
<path d="M148.74 137.779C148.74 137.779 164.82 175.815 166.113 197.295C174.207 216.055 181.463 271.725 181.463 271.725L176.103 271.377C176.103 271.377 163.373 227.264 153.765 200.498C146.02 179.661 127.635 138.147 127.635 138.147L148.74 137.779Z" fill="#FFC3BD"/>
<path d="M175.708 271.29L172.036 258.68C174.692 258.69 177.345 258.855 179.982 259.176C180.532 262.58 181.443 271.042 181.443 271.042L175.708 271.29Z" fill="#277FE5"/>
<path d="M176.311 270.68L181.255 270.546C181.382 270.541 181.507 270.582 181.605 270.663C181.704 270.743 181.77 270.856 181.791 270.982L182.763 276.087C182.783 276.233 182.771 276.382 182.729 276.524C182.688 276.665 182.616 276.797 182.52 276.909C182.424 277.021 182.305 277.111 182.171 277.174C182.037 277.237 181.892 277.27 181.744 277.273C179.192 277.273 179.064 277.152 175.828 277.239C173.818 277.293 173.014 277.668 170.964 277.668C168.284 277.668 169.349 275.035 170.468 274.72C173.081 273.97 174.147 272.147 175.232 271.109C175.527 270.839 175.911 270.686 176.311 270.68Z" fill="#263238"/>
<path d="M135.889 77.2845C135.715 77.7803 135.313 78.0818 134.992 77.9545C134.67 77.8272 134.556 77.3515 134.73 76.8624C134.905 76.3733 135.306 76.0651 135.628 76.1924C135.95 76.3197 136.064 76.7954 135.889 77.2845Z" fill="#263238"/>
<path d="M130.349 75.308C130.174 75.7971 129.772 76.1053 129.451 75.978C129.129 75.8507 129.009 75.375 129.183 74.8792C129.357 74.3834 129.766 74.0886 130.081 74.2092C130.395 74.3298 130.523 74.8189 130.349 75.308Z" fill="#263238"/>
<path d="M130.215 74.2896L129.156 73.5325C129.156 73.5325 129.437 74.6648 130.215 74.2896Z" fill="#263238"/>
<path d="M131.514 76.6748C130.678 77.6377 129.713 78.4809 128.647 79.1806C128.832 79.4488 129.074 79.673 129.355 79.8374C129.636 80.0018 129.95 80.1023 130.275 80.132L131.514 76.6748Z" fill="#ED847E"/>
<path d="M132.164 82.8991C131.874 82.8546 131.589 82.7805 131.313 82.678C131.275 82.6643 131.244 82.6363 131.227 82.6C131.209 82.5637 131.207 82.5219 131.22 82.4837C131.235 82.4453 131.264 82.4141 131.301 82.3966C131.339 82.3791 131.381 82.3767 131.421 82.3899C132.025 82.6223 132.676 82.7082 133.32 82.6407C133.964 82.5731 134.583 82.354 135.126 82.0013C135.155 81.9749 135.193 81.9604 135.233 81.9604C135.272 81.9604 135.311 81.9749 135.34 82.0013C135.368 82.03 135.383 82.0685 135.383 82.1085C135.383 82.1485 135.368 82.187 135.34 82.2157C134.412 82.8505 133.271 83.0959 132.164 82.8991Z" fill="#263238"/>
<path d="M145.893 82.5105C145.23 83.5572 144.179 84.2991 142.971 84.5741C141.37 84.9225 140.66 83.4686 141.182 82.0013C141.658 80.6613 143.058 78.9126 144.633 79.2208C144.975 79.2947 145.293 79.4527 145.558 79.6803C145.823 79.908 146.028 80.1983 146.153 80.5248C146.278 80.8514 146.32 81.2039 146.274 81.5506C146.229 81.8973 146.098 82.2272 145.893 82.5105Z" fill="#FFC3BD"/>
<path d="M137.652 75.2142C137.612 75.2044 137.574 75.1862 137.542 75.1608C137.509 75.1354 137.483 75.1033 137.464 75.0668C137.287 74.7268 137.033 74.4327 136.723 74.2082C136.412 73.9837 136.053 73.8349 135.675 73.7737C135.631 73.7766 135.587 73.7701 135.546 73.7547C135.505 73.7392 135.468 73.7152 135.437 73.6841C135.406 73.6531 135.382 73.6158 135.366 73.5747C135.351 73.5336 135.344 73.4897 135.347 73.4459C135.35 73.4021 135.362 73.3594 135.383 73.3207C135.404 73.282 135.432 73.2481 135.467 73.2215C135.502 73.1948 135.542 73.1758 135.585 73.1659C135.628 73.156 135.672 73.1553 135.715 73.164C136.197 73.2305 136.655 73.4111 137.053 73.6908C137.45 73.9706 137.775 74.3413 138 74.772C138.038 74.8432 138.047 74.9267 138.025 75.0044C138.002 75.0821 137.95 75.1479 137.879 75.1874C137.81 75.226 137.728 75.2356 137.652 75.2142Z" fill="#263238"/>
<path d="M128.674 71.7771C128.639 71.7579 128.609 71.7319 128.585 71.7009C128.561 71.6698 128.543 71.6342 128.533 71.5962C128.51 71.5198 128.518 71.4374 128.556 71.3671C128.594 71.2967 128.658 71.2442 128.734 71.221C129.196 71.0705 129.687 71.0333 130.166 71.1126C130.646 71.1919 131.099 71.3854 131.488 71.6766C131.519 71.7019 131.545 71.7331 131.563 71.7685C131.582 71.8038 131.594 71.8426 131.598 71.8825C131.601 71.9225 131.597 71.9628 131.585 72.001C131.573 72.0393 131.554 72.0748 131.528 72.1054C131.475 72.1672 131.399 72.2059 131.318 72.2134C131.237 72.2209 131.156 72.1966 131.092 72.1456C130.783 71.9182 130.424 71.7684 130.045 71.709C129.666 71.6495 129.279 71.6821 128.915 71.8039C128.875 71.8168 128.833 71.8211 128.791 71.8165C128.75 71.8118 128.71 71.7984 128.674 71.7771Z" fill="#263238"/>
<path d="M135.755 76.2728L134.703 75.509C134.703 75.509 134.978 76.648 135.755 76.2728Z" fill="#263238"/>
<path d="M122.61 139.206L149.216 138.348C149.273 138.346 149.33 138.331 149.381 138.304C149.432 138.277 149.476 138.239 149.51 138.193C149.544 138.147 149.567 138.093 149.578 138.036C149.588 137.98 149.586 137.921 149.571 137.866L149.169 136.452C149.146 136.371 149.097 136.3 149.029 136.25C148.961 136.2 148.878 136.174 148.794 136.177L122.536 137.035C122.436 137.04 122.341 137.084 122.272 137.158C122.203 137.232 122.166 137.33 122.168 137.43L122.215 138.837C122.216 138.888 122.227 138.938 122.247 138.984C122.268 139.03 122.297 139.071 122.334 139.106C122.371 139.14 122.414 139.167 122.462 139.184C122.509 139.201 122.56 139.209 122.61 139.206Z" fill="#263238"/>
<path d="M144.653 137.35C144.653 137.35 139.005 159.46 133.598 170.281C128.546 171.547 117.732 165.235 116.466 162.589C119.233 148.104 120.995 140.533 123.079 138.067C135.139 138.275 144.653 137.35 144.653 137.35Z" fill="#263238"/>
<path opacity="0.2" d="M135.34 147.836C133.022 152.988 133.471 162.18 134.442 168.606C135.856 165.51 137.263 161.751 138.563 157.939L135.34 147.836Z" fill="black"/>
<path d="M126.443 137.853C126.443 137.853 133.813 159.494 139.246 170.307C144.747 170.066 157.778 164.197 159.038 161.557C156.278 147.072 150.81 139.836 148.74 137.35C136.68 137.551 126.443 137.853 126.443 137.853Z" fill="#263238"/>
<path d="M149.812 98.8719C152.968 99.7965 156.291 100.681 159.5 101.344C161.048 101.663 162.615 101.887 164.19 102.014C164.846 102.072 165.505 102.072 166.16 102.014C166.334 102 166.507 101.97 166.676 101.927C166.716 101.927 166.676 101.927 166.642 101.987L166.535 102.101C166.535 102.101 166.495 102.148 166.475 102.182C166.455 102.215 166.421 102.269 166.475 102.182C166.886 101.588 167.258 100.968 167.587 100.326C167.969 99.6156 168.331 98.8719 168.693 98.1148C169.403 96.5939 170.113 95.0395 170.79 93.465L174.91 83.951C175.07 83.576 175.364 83.274 175.735 83.1038C176.105 82.9336 176.526 82.9074 176.915 83.0303C177.304 83.1532 177.633 83.4164 177.838 83.7687C178.043 84.1209 178.11 84.537 178.026 84.9359C177.316 88.3931 176.465 91.79 175.453 95.1802C174.937 96.8686 174.408 98.5302 173.791 100.252C173.476 101.096 173.155 101.947 172.786 102.811C172.397 103.738 171.938 104.634 171.413 105.491L171.205 105.786C171.121 105.901 171.029 106.011 170.93 106.115C170.753 106.317 170.558 106.503 170.348 106.671C169.993 106.955 169.606 107.195 169.195 107.388C168.555 107.684 167.879 107.898 167.185 108.024C166.12 108.22 165.038 108.303 163.956 108.272C162.062 108.229 160.174 108.043 158.308 107.716C154.747 107.131 151.233 106.287 147.795 105.19C146.959 104.933 146.259 104.355 145.85 103.582C145.44 102.809 145.354 101.906 145.611 101.069C145.868 100.233 146.446 99.5336 147.219 99.124C147.992 98.7144 148.896 98.6285 149.732 98.8853L149.812 98.8719Z" fill="#FFC3BD"/>
<path d="M147.152 97.5989C152.231 98.3359 154.844 99.6089 154.844 99.6089C154.844 99.6089 154.536 105.538 151.943 110.088C145.658 106.738 143.661 102.188 144.204 100.359C144.747 98.5302 147.152 97.5989 147.152 97.5989Z" fill="#277FE5"/>
<path d="M174.87 85.5925L171.426 79.5625L178.126 81.7869C178.126 81.7869 179.178 84.7014 177.329 86.6444L174.87 85.5925Z" fill="#FFC3BD"/>
<path d="M173.945 76.4135L176.579 77.0835C176.916 77.1651 177.219 77.3507 177.445 77.614C177.671 77.8773 177.809 78.205 177.838 78.5508L178.12 81.7802L171.42 79.5558L171.962 77.6061C172.073 77.1885 172.342 76.8304 172.712 76.6078C173.082 76.3852 173.525 76.3155 173.945 76.4135Z" fill="#FFC3BD"/>
<path d="M168.135 73.1876L165.708 72.7518C164.353 72.5085 163.057 73.4096 162.814 74.7645L161.783 80.5083C161.539 81.8631 162.441 83.1587 163.795 83.402L166.222 83.8377C167.577 84.081 168.873 83.1799 169.116 81.8251L170.147 76.0813C170.391 74.7264 169.489 73.4309 168.135 73.1876Z" fill="#277FE5"/>
<path d="M186.691 76.5146L184.264 76.0788C182.909 75.8356 181.614 76.7367 181.37 78.0915L180.339 83.8353C180.096 85.1902 180.997 86.4857 182.352 86.729L184.778 87.1648C186.133 87.4081 187.429 86.507 187.672 85.1521L188.703 79.4083C188.947 78.0534 188.046 76.7579 186.691 76.5146Z" fill="#277FE5"/>
<path d="M183.017 82.6646L167.031 79.797C166.695 79.7272 166.399 79.5313 166.203 79.2496C166.008 78.9679 165.927 78.6219 165.979 78.2828C166.049 77.9483 166.244 77.6531 166.524 77.4576C166.804 77.2621 167.149 77.181 167.487 77.2309L183.473 80.0985C183.809 80.1683 184.105 80.3642 184.301 80.6459C184.496 80.9276 184.576 81.2736 184.525 81.6127C184.455 81.9472 184.26 82.2424 183.98 82.4379C183.7 82.6334 183.355 82.7145 183.017 82.6646Z" fill="#277FE5"/>
</svg>
