<svg width="500" height="500" viewBox="0 0 500 500" fill="none" xmlns="http://www.w3.org/2000/svg">
    <path d="M249.05 486.05C379.174 486.05 484.66 425.148 484.66 350.02C484.66 274.893 379.174 213.99 249.05 213.99C118.926 213.99 13.4399 274.893 13.4399 350.02C13.4399 425.148 118.926 486.05 249.05 486.05Z" fill="#F0F0F0"/>
    <path d="M384.36 397.22C368.91 388.3 368.91 373.84 384.36 364.92C399.81 356 424.86 356 440.31 364.92C455.76 373.84 455.76 388.3 440.31 397.22C424.86 406.14 399.81 406.14 384.36 397.22Z" fill="#E0E0E0"/>
    <path d="M70.12 398.46L29.48 375C27.19 373.68 27.19 371.53 29.48 370.21L265.87 233.73C267.155 233.079 268.575 232.74 270.015 232.74C271.455 232.74 272.875 233.079 274.16 233.73L314.81 257.19C317.1 258.51 317.1 260.66 314.81 261.98L78.4199 398.46C77.1335 399.111 75.7118 399.45 74.2699 399.45C72.8281 399.45 71.4064 399.111 70.12 398.46Z" fill="#E0E0E0"/>
    <path d="M216.2 356.64L251.14 336.44C254.74 334.36 256.54 331.64 256.54 328.91C256.54 326.18 256.54 324.05 256.54 324.05L220.3 303.61C219.288 302.955 218.445 302.071 217.84 301.028C217.235 299.985 216.886 298.814 216.82 297.61V254.52L155.82 289.78V332.85C155.89 334.053 156.242 335.222 156.846 336.264C157.451 337.306 158.291 338.192 159.3 338.85L190.14 356.61C197.32 360.8 209 360.8 216.2 356.64Z" fill="#277FE5"/>
    <g opacity="0.6">
        <path opacity="0.6" d="M216.2 356.64L251.14 336.44C254.74 334.36 256.54 331.64 256.54 328.91C256.54 326.18 256.54 324.05 256.54 324.05L220.3 303.61C219.288 302.955 218.445 302.071 217.84 301.028C217.235 299.985 216.886 298.814 216.82 297.61V254.52L155.82 289.78V332.85C155.89 334.053 156.242 335.222 156.846 336.264C157.451 337.306 158.291 338.192 159.3 338.85L190.14 356.61C197.32 360.8 209 360.8 216.2 356.64Z" fill="black"/>
    </g>
    <path opacity="0.3" d="M170.45 340.48V345.32L159.27 338.87C158.261 338.213 157.421 337.327 156.819 336.285C156.216 335.242 155.867 334.073 155.8 332.87V289.78L167.42 283.07C167.66 286.02 167.92 289.07 168.17 292.07L160 296.77V330.42C160.065 331.624 160.414 332.796 161.019 333.839C161.624 334.882 162.467 335.766 163.48 336.42L170.45 340.48Z" fill="black"/>
    <path d="M160 330.43C160.069 331.633 160.42 332.803 161.024 333.845C161.629 334.888 162.47 335.773 163.48 336.43L190.1 351.77C197.3 355.92 208.98 355.93 216.19 351.77L251.19 331.57C258.4 327.41 258.4 320.67 251.19 316.51L224.55 301.17C223.542 300.512 222.703 299.625 222.101 298.583C221.498 297.541 221.148 296.372 221.08 295.17V261.51L160.08 296.77L160 330.43Z" fill="#277FE5"/>
    <path opacity="0.3" d="M160 330.43C160.069 331.633 160.42 332.803 161.024 333.845C161.629 334.888 162.47 335.773 163.48 336.43L190.1 351.77C197.3 355.92 208.98 355.93 216.19 351.77L251.19 331.57C258.4 327.41 258.4 320.67 251.19 316.51L224.55 301.17C223.542 300.512 222.703 299.625 222.101 298.583C221.498 297.541 221.148 296.372 221.08 295.17V261.51L160.08 296.77L160 330.43Z" fill="black"/>
    <path opacity="0.5" d="M231.6 305.28L224.51 301.19C223.502 300.532 222.663 299.645 222.061 298.603C221.458 297.561 221.108 296.392 221.04 295.19V261.51L160.04 296.77V330.43C160.109 331.633 160.46 332.803 161.064 333.845C161.669 334.888 162.51 335.773 163.52 336.43L170.52 340.43L231.6 305.28Z" fill="black"/>
    <path d="M256.55 324.06V328.92C256.55 331.65 254.74 334.36 251.15 336.45L216.15 356.64C212.32 358.685 208.042 359.746 203.7 359.73V354.89C208.042 354.906 212.32 353.845 216.15 351.8L251.15 331.59C254.74 329.52 256.55 326.79 256.55 324.06Z" fill="#277FE5"/>
    <path opacity="0.5" d="M256.55 324.06V328.92C256.55 331.65 254.74 334.36 251.15 336.45L216.15 356.64C212.32 358.685 208.042 359.746 203.7 359.73V354.89C208.042 354.906 212.32 353.845 216.15 351.8L251.15 331.59C254.74 329.52 256.55 326.79 256.55 324.06Z" fill="black"/>
    <path d="M62 372.26C63.3187 372.897 64.7686 373.215 66.2329 373.189C67.6971 373.163 69.1348 372.794 70.43 372.11L306.43 235.86C307.695 235.035 308.749 233.923 309.504 232.615C310.26 231.307 310.697 229.839 310.78 228.33V37.4102C310.735 35.9425 310.344 34.5063 309.638 33.2186C308.932 31.9309 307.933 30.8282 306.72 30.0002C305.403 29.3625 303.954 29.0447 302.491 29.0725C301.028 29.1003 299.592 29.4729 298.3 30.1602L62.3 166.45C61.039 167.281 59.9921 168.398 59.2449 169.71C58.4976 171.022 58.071 172.492 58 174V364.89C58.0446 366.346 58.4297 367.771 59.1243 369.05C59.819 370.33 60.8038 371.43 62 372.26Z" fill="#277FE5"/>
    <path d="M70.46 372.1L306.46 235.85C307.727 235.027 308.782 233.915 309.538 232.607C310.294 231.298 310.73 229.829 310.81 228.32V37.4101C310.81 34.6401 308.86 33.5101 306.46 34.9001L70.46 171.15C69.194 171.975 68.1403 173.087 67.3845 174.395C66.6287 175.703 66.192 177.171 66.11 178.68V369.59C66.11 372.36 68.06 373.49 70.46 372.1Z" fill="#277FE5"/>
    <path opacity="0.5" d="M70.46 372.1L306.46 235.85C307.727 235.027 308.782 233.915 309.538 232.607C310.294 231.298 310.73 229.829 310.81 228.32V37.4101C310.81 34.6401 308.86 33.5101 306.46 34.9001L70.46 171.15C69.194 171.975 68.1403 173.087 67.3845 174.395C66.6287 175.703 66.192 177.171 66.11 178.68V369.59C66.11 372.36 68.06 373.49 70.46 372.1Z" fill="black"/>
    <path d="M69.82 377.06C68.5824 377.601 67.2425 377.866 65.8924 377.838C64.5424 377.811 63.2144 377.491 62 376.9C60.8012 376.068 59.8146 374.965 59.1199 373.682C58.4251 372.398 58.0415 370.969 58 369.51V352.13L66.15 356.85V374.23C66.1 376.76 67.71 377.91 69.82 377.06Z" fill="#277FE5"/>
    <path opacity="0.5" d="M69.82 377.06C68.5824 377.601 67.2425 377.866 65.8924 377.838C64.5424 377.811 63.2144 377.491 62 376.9C60.8012 376.068 59.8146 374.965 59.1199 373.682C58.4251 372.398 58.0415 370.969 58 369.51V352.13L66.15 356.85V374.23C66.1 376.76 67.71 377.91 69.82 377.06Z" fill="black"/>
    <path d="M66.1 356.85V374.23C66.1 377 68.1 378.12 70.45 376.74L306.45 240.49C307.71 239.669 308.76 238.563 309.516 237.262C310.271 235.962 310.711 234.502 310.8 233V215.54L66.1 356.85Z" fill="#277FE5"/>
    <path opacity="0.3" d="M66.11 356.81V374.23C66.11 377 68.11 378.12 70.46 376.74L306.46 240.49C307.718 239.668 308.766 238.562 309.52 237.261C310.274 235.96 310.712 234.501 310.8 233V215.54L66.11 356.81Z" fill="black"/>
    <path d="M74.26 335V181.39C74.3066 180.485 74.5663 179.604 75.0182 178.818C75.47 178.033 76.1011 177.365 76.86 176.87L300 48.0001C301.44 47.1701 302.61 47.8401 302.61 49.5001V203.19C302.562 204.096 302.3 204.977 301.846 205.763C301.393 206.548 300.76 207.215 300 207.71L76.87 336.55C75.43 337.38 74.26 336.7 74.26 335Z" fill="#277FE5"/>
    <path d="M74.26 335V181.39C74.3066 180.485 74.5663 179.604 75.0182 178.818C75.47 178.033 76.1011 177.365 76.86 176.87L300 48.0001C301.44 47.1701 302.61 47.8401 302.61 49.5001V203.19C302.562 204.096 302.3 204.977 301.846 205.763C301.393 206.548 300.76 207.215 300 207.71L76.87 336.55C75.43 337.38 74.26 336.7 74.26 335Z" fill="#263238"/>
    <path d="M188.45 291.73C187.262 292.503 186.274 293.545 185.565 294.771C184.856 295.998 184.446 297.375 184.37 298.79C184.37 301.39 186.2 302.45 188.45 301.15C189.639 300.376 190.629 299.333 191.338 298.104C192.047 296.875 192.455 295.497 192.53 294.08C192.53 291.48 190.7 290.43 188.45 291.73Z" fill="#277FE5"/>
    <path opacity="0.7" d="M67.39 174.38C66.615 175.683 66.172 177.156 66.1 178.67V356.85L58 352.13V174C58.0525 172.481 58.4931 171.001 59.28 169.7L67.39 174.38Z" fill="black"/>
    <path opacity="0.3" d="M310.76 36.6903C310.45 34.4503 308.64 33.6903 306.45 34.9003L70.45 171.15C69.1704 171.951 68.1143 173.062 67.38 174.38L59.22 169.67C59.9592 168.352 61.0184 167.241 62.3 166.44L298.3 30.2003C299.594 29.513 301.031 29.1403 302.496 29.1125C303.961 29.0847 305.411 29.4026 306.73 30.0403C307.839 30.7957 308.772 31.7803 309.467 32.9275C310.163 34.0748 310.603 35.358 310.76 36.6903Z" fill="black"/>
    <path d="M323.49 60.1898C323.139 60.0139 322.747 59.9368 322.356 59.9668C321.965 59.9967 321.59 60.1326 321.27 60.3598L98.59 189C97.7113 189.581 96.9819 190.361 96.4607 191.277C95.9395 192.192 95.6412 193.218 95.59 194.27V346.94C95.5588 347.455 95.6611 347.97 95.8871 348.434C96.1131 348.898 96.4551 349.296 96.88 349.59C97.37 349.86 99.99 351.38 100.77 351.8C101.046 351.94 101.354 352.005 101.663 351.988C101.973 351.97 102.272 351.871 102.53 351.7L325.16 223.06C326.039 222.479 326.768 221.699 327.289 220.783C327.81 219.868 328.109 218.842 328.16 217.79V64.3298C328.205 63.942 328.14 63.5495 327.974 63.1962C327.808 62.8429 327.547 62.5429 327.22 62.3298C326.72 61.9998 324.05 60.5198 323.49 60.1898Z" fill="#277FE5"/>
    <path d="M102.48 191.16L325.17 62.57C326.85 61.57 328.17 62.39 328.17 64.33V217.79C328.119 218.842 327.82 219.868 327.299 220.783C326.778 221.699 326.049 222.479 325.17 223.06L102.48 351.7C100.8 352.7 99.48 351.09 99.48 349.15V196.43C99.5328 195.378 99.8317 194.353 100.353 193.438C100.874 192.523 101.602 191.742 102.48 191.16Z" fill="#FAFAFA"/>
    <path d="M326.53 63.1499C327.12 63.1499 327.21 63.8899 327.21 64.3299V217.79C327.156 218.671 326.898 219.527 326.455 220.291C326.012 221.055 325.398 221.705 324.66 222.19L102 350.83C101.851 350.927 101.678 350.982 101.5 350.99C100.94 350.99 100.5 350.13 100.5 349.15V196.43C100.548 195.549 100.799 194.691 101.232 193.923C101.666 193.155 102.271 192.497 103 192L325.67 63.4299C325.928 63.2637 326.224 63.1672 326.53 63.1499ZM326.53 62.1499C326.048 62.1704 325.58 62.3151 325.17 62.5699L102.48 191.16C101.602 191.742 100.874 192.523 100.353 193.438C99.8317 194.353 99.5328 195.378 99.48 196.43V349.15C99.48 350.69 100.34 351.99 101.48 351.99C101.833 351.983 102.178 351.883 102.48 351.7L325.16 223.06C326.039 222.479 326.768 221.699 327.289 220.783C327.81 219.868 328.109 218.842 328.16 217.79V64.3299C328.16 62.9499 327.48 62.1499 326.48 62.1499H326.53Z" fill="#E0E0E0"/>
    <path d="M96.8199 349.59C97.1499 349.76 99.5199 351.11 100.56 351.71C100.187 351.4 99.8907 351.007 99.6962 350.562C99.5018 350.118 99.414 349.634 99.44 349.15V206.4L95.54 204.12V346.94C95.5077 347.454 95.6085 347.968 95.8327 348.432C96.0569 348.897 96.3969 349.295 96.8199 349.59Z" fill="#F0F0F0"/>
    <path d="M328.21 64.2996C328.21 62.3796 326.84 61.5996 325.21 62.5696L102.48 191.16C101.602 191.742 100.874 192.522 100.353 193.438C99.8317 194.353 99.5328 195.378 99.48 196.43V206.43L328.21 74.2996V64.2996Z" fill="#277FE5"/>
    <g opacity="0.4">
        <path opacity="0.4" d="M325.17 62.5699L102.48 191.15C101.586 191.713 100.85 192.494 100.34 193.42L96.47 191.17C96.9791 190.277 97.7091 189.53 98.59 189L321.27 60.3599C321.589 60.131 321.964 59.9934 322.355 59.9617C322.746 59.9299 323.138 60.0054 323.49 60.1799C324.03 60.5199 326.56 61.9499 327.21 62.2999C326.874 62.1752 326.512 62.1346 326.156 62.1816C325.801 62.2287 325.462 62.362 325.17 62.5699Z" fill="white"/>
    </g>
    <path opacity="0.15" d="M95.5399 204.13V194.22C95.581 193.14 95.9014 192.089 96.4699 191.17L100.35 193.41C99.7896 194.313 99.4758 195.348 99.4399 196.41V206.41L95.5399 204.13Z" fill="black"/>
    <path d="M281.25 179.42L147.88 256.42C147.231 256.841 146.691 257.409 146.304 258.078C145.916 258.747 145.692 259.498 145.65 260.27V298.51C145.692 299.282 145.916 300.033 146.304 300.702C146.691 301.371 147.231 301.939 147.88 302.36L151.77 304.6C152.461 304.95 153.225 305.132 154 305.132C154.775 305.132 155.539 304.95 156.23 304.6L289.58 227.6C290.229 227.177 290.769 226.607 291.156 225.936C291.544 225.266 291.768 224.513 291.81 223.74V185.49C291.768 184.718 291.544 183.967 291.156 183.298C290.768 182.629 290.228 182.061 289.58 181.64L285.68 179.4C284.992 179.056 284.232 178.878 283.463 178.882C282.693 178.885 281.935 179.07 281.25 179.42Z" fill="#277FE5"/>
    <path opacity="0.5" d="M291.81 185.15C291.65 184 290.72 183.58 289.6 184.23L156.23 261.23C155.572 261.639 155.031 262.211 154.66 262.89L146.31 258.07C146.684 257.401 147.221 256.837 147.87 256.43L281.25 179.43C281.939 179.08 282.702 178.897 283.475 178.897C284.248 178.897 285.011 179.08 285.7 179.43L289.6 181.67C290.195 182.06 290.699 182.572 291.08 183.172C291.461 183.772 291.71 184.446 291.81 185.15Z" fill="white"/>
    <path d="M155.85 304.79C155.197 305.047 154.497 305.164 153.796 305.133C153.095 305.102 152.408 304.924 151.78 304.61L147.88 302.37C147.232 301.948 146.693 301.379 146.306 300.711C145.919 300.042 145.694 299.291 145.65 298.52V260.28C145.68 259.499 145.907 258.739 146.31 258.07L154.66 262.89C154.254 263.55 154.027 264.305 154 265.08V303.33C154 304.6 154.8 305.19 155.85 304.79Z" fill="#263238"/>
    <path d="M156.23 261.23L289.6 184.23C290.83 183.52 291.83 184.09 291.83 185.51V223.76C291.788 224.533 291.564 225.286 291.176 225.957C290.789 226.627 290.249 227.197 289.6 227.62L156.25 304.62C155.02 305.33 154.02 304.75 154.02 303.33V265.09C154.06 264.318 154.281 263.567 154.665 262.897C155.049 262.226 155.585 261.655 156.23 261.23Z" fill="#277FE5"/>
    <path d="M245.89 199.84L147.89 256.43C147.241 256.837 146.704 257.401 146.33 258.07L154.68 262.89C155.051 262.21 155.592 261.639 156.25 261.23L254.25 204.65L245.89 199.84Z" fill="#455A64"/>
    <path d="M254.23 204.65L156.23 261.23C155.581 261.653 155.041 262.223 154.654 262.893C154.266 263.564 154.042 264.317 154 265.09V303.32C154 304.74 155 305.32 156.23 304.61L254.23 248.03V204.65Z" fill="#37474F"/>
    <path d="M178.83 256.57L229.4 227.38C231.49 226.17 233.19 227.03 233.19 229.3C233.096 230.575 232.704 231.81 232.043 232.904C231.383 233.999 230.474 234.922 229.39 235.6L178.83 264.8C176.74 266.01 175.03 265.15 175.03 262.88C175.124 261.604 175.517 260.368 176.177 259.272C176.838 258.175 177.746 257.25 178.83 256.57Z" fill="#277FE5"/>
    <path d="M189.19 266.24C189.199 266.229 189.211 266.221 189.224 266.215C189.237 266.209 189.251 266.206 189.265 266.206C189.279 266.206 189.293 266.209 189.306 266.215C189.319 266.221 189.331 266.229 189.34 266.24C189.385 266.308 189.406 266.389 189.4 266.47V272.16C189.401 272.71 189.354 273.258 189.26 273.8C189.177 274.295 189.036 274.778 188.84 275.24C188.661 275.663 188.425 276.06 188.14 276.42C187.859 276.754 187.52 277.035 187.14 277.25C186.842 277.444 186.495 277.548 186.14 277.55C186.004 277.539 185.872 277.501 185.752 277.437C185.631 277.374 185.525 277.286 185.44 277.18C185.22 276.886 185.076 276.542 185.02 276.18C184.924 275.696 184.881 275.203 184.89 274.71V269.01C184.89 268.91 184.91 268.811 184.95 268.72C184.974 268.637 185.028 268.567 185.1 268.52L185.73 268.15C185.75 268.131 185.777 268.12 185.805 268.12C185.833 268.12 185.86 268.131 185.88 268.15C185.926 268.217 185.947 268.299 185.94 268.38V274C185.932 274.309 185.962 274.618 186.03 274.92C186.057 275.113 186.141 275.294 186.27 275.44C186.315 275.494 186.372 275.536 186.436 275.564C186.5 275.591 186.57 275.604 186.64 275.6C186.811 275.589 186.976 275.534 187.12 275.44C187.298 275.334 187.459 275.202 187.6 275.05C187.756 274.87 187.884 274.668 187.98 274.45C188.093 274.193 188.177 273.925 188.23 273.65C188.288 273.32 188.315 272.985 188.31 272.65V267.02C188.313 266.919 188.337 266.821 188.38 266.73C188.404 266.647 188.458 266.577 188.53 266.53L189.19 266.24Z" fill="#FAFAFA"/>
    <path d="M193.11 271.62C193.115 271.546 193.098 271.473 193.06 271.41C193.036 271.384 193.007 271.364 192.973 271.352C192.94 271.339 192.905 271.335 192.87 271.34C192.747 271.323 192.623 271.323 192.5 271.34L191.92 271.45C191.733 271.496 191.537 271.496 191.35 271.45C191.203 271.403 191.076 271.308 190.99 271.18C190.892 271.018 190.828 270.837 190.8 270.65C190.702 270.114 190.702 269.565 190.8 269.03C190.875 268.723 190.982 268.424 191.12 268.14C191.257 267.856 191.425 267.587 191.62 267.34C191.809 267.104 192.04 266.904 192.3 266.75C192.51 266.622 192.745 266.54 192.99 266.51C193.167 266.491 193.346 266.53 193.5 266.62C193.647 266.709 193.762 266.842 193.83 267C193.911 267.186 193.955 267.387 193.96 267.59C193.97 267.69 193.949 267.792 193.9 267.88C193.875 267.962 193.822 268.033 193.75 268.08L193.15 268.43C193.123 268.446 193.092 268.454 193.06 268.454C193.028 268.454 192.997 268.446 192.97 268.43L192.84 268.33C192.788 268.289 192.726 268.265 192.66 268.26C192.531 268.274 192.408 268.319 192.3 268.39C192.143 268.484 192.004 268.606 191.89 268.75C191.769 268.907 191.705 269.101 191.71 269.3C191.696 269.376 191.696 269.454 191.71 269.53C191.729 269.558 191.754 269.582 191.784 269.599C191.813 269.616 191.846 269.627 191.88 269.63C191.989 269.648 192.101 269.648 192.21 269.63L192.77 269.53C193.24 269.44 193.56 269.53 193.77 269.79C193.991 270.16 194.092 270.59 194.06 271.02C194.057 271.317 194.017 271.613 193.94 271.9C193.861 272.212 193.747 272.514 193.6 272.8C193.453 273.096 193.268 273.372 193.05 273.62C192.843 273.863 192.596 274.069 192.32 274.23C192.1 274.37 191.85 274.456 191.59 274.48C191.402 274.486 191.217 274.434 191.06 274.33C190.906 274.224 190.787 274.074 190.72 273.9C190.639 273.71 190.598 273.506 190.6 273.3C190.591 273.196 190.611 273.092 190.66 273C190.684 272.917 190.738 272.846 190.81 272.8L191.41 272.45C191.49 272.45 191.55 272.4 191.59 272.45L191.72 272.59C191.747 272.62 191.779 272.644 191.815 272.661C191.851 272.678 191.89 272.688 191.93 272.69C192.071 272.691 192.208 272.645 192.32 272.56C192.5 272.457 192.663 272.326 192.8 272.17C192.868 272.088 192.925 271.997 192.97 271.9C193.041 271.821 193.089 271.724 193.11 271.62Z" fill="#FAFAFA"/>
    <path d="M195.15 268.91C195.148 268.391 195.192 267.872 195.28 267.36C195.363 266.878 195.494 266.406 195.67 265.95C195.817 265.541 196.019 265.154 196.27 264.8C196.48 264.495 196.752 264.24 197.07 264.05C197.302 263.894 197.585 263.833 197.86 263.88C198.104 263.937 198.318 264.083 198.46 264.29C198.648 264.561 198.781 264.867 198.85 265.19C198.946 265.61 198.993 266.039 198.99 266.47V267.09C198.993 267.194 198.969 267.298 198.92 267.39C198.895 267.473 198.842 267.543 198.77 267.59L196.17 269.1C196.164 269.276 196.187 269.452 196.24 269.62C196.279 269.733 196.348 269.834 196.44 269.91C196.522 269.975 196.625 270.007 196.73 270C196.851 269.986 196.967 269.945 197.07 269.88C197.221 269.798 197.357 269.69 197.47 269.56C197.572 269.445 197.66 269.317 197.73 269.18C197.773 269.101 197.819 269.024 197.87 268.95C197.913 268.899 197.964 268.855 198.02 268.82L198.64 268.46C198.661 268.443 198.688 268.434 198.715 268.434C198.742 268.434 198.769 268.443 198.79 268.46C198.816 268.492 198.835 268.529 198.846 268.568C198.856 268.608 198.857 268.65 198.85 268.69C198.839 268.885 198.799 269.077 198.73 269.26C198.644 269.537 198.53 269.805 198.39 270.06C198.234 270.353 198.046 270.628 197.83 270.88C197.615 271.138 197.358 271.357 197.07 271.53C196.834 271.685 196.551 271.752 196.27 271.72C196.024 271.661 195.81 271.511 195.67 271.3C195.473 270.997 195.34 270.656 195.28 270.3C195.189 269.842 195.146 269.377 195.15 268.91ZM197.07 265.72C196.916 265.803 196.783 265.919 196.68 266.06C196.569 266.2 196.478 266.355 196.41 266.52C196.34 266.685 196.283 266.856 196.24 267.03C196.205 267.188 196.181 267.349 196.17 267.51L197.93 266.51C197.92 266.372 197.9 266.235 197.87 266.1C197.855 265.979 197.806 265.865 197.73 265.77C197.7 265.727 197.662 265.69 197.617 265.663C197.572 265.635 197.522 265.617 197.47 265.61C197.328 265.598 197.186 265.637 197.07 265.72Z" fill="#FAFAFA"/>
    <path d="M202.13 262.93C201.827 263.103 201.588 263.369 201.45 263.69C201.294 264.112 201.223 264.56 201.24 265.01V268.62C201.241 268.723 201.221 268.825 201.18 268.92C201.155 269.002 201.102 269.073 201.03 269.12L200.44 269.46C200.431 269.47 200.419 269.479 200.406 269.485C200.393 269.491 200.379 269.494 200.365 269.494C200.351 269.494 200.337 269.491 200.324 269.485C200.311 269.479 200.299 269.47 200.29 269.46C200.245 269.392 200.224 269.311 200.23 269.23V262.76C200.23 262.657 200.251 262.555 200.29 262.46C200.318 262.379 200.37 262.309 200.44 262.26L201.03 261.92C201.05 261.901 201.077 261.89 201.105 261.89C201.133 261.89 201.16 261.901 201.18 261.92C201.226 261.983 201.248 262.062 201.24 262.14V262.46C201.359 262.191 201.507 261.937 201.68 261.7C201.838 261.481 202.043 261.3 202.28 261.17L202.64 260.96C202.659 260.941 202.684 260.931 202.71 260.931C202.736 260.931 202.761 260.941 202.78 260.96C202.828 261.026 202.853 261.107 202.85 261.19V262.1C202.848 262.204 202.824 262.306 202.78 262.4C202.755 262.479 202.706 262.549 202.64 262.6L202.13 262.93Z" fill="#FAFAFA"/>
    <path d="M209.59 262.45C209.599 262.439 209.611 262.431 209.624 262.425C209.637 262.419 209.651 262.416 209.665 262.416C209.679 262.416 209.693 262.419 209.706 262.425C209.719 262.431 209.731 262.439 209.74 262.45C209.785 262.518 209.806 262.599 209.8 262.68V263.68C209.799 263.783 209.779 263.885 209.74 263.98C209.706 264.054 209.654 264.119 209.59 264.17L206.17 266.17C206.15 266.189 206.123 266.2 206.095 266.2C206.067 266.2 206.04 266.189 206.02 266.17C205.975 266.106 205.954 266.028 205.96 265.95V256.95C205.96 256.847 205.981 256.745 206.02 256.65C206.048 256.572 206.101 256.505 206.17 256.46L206.8 256.09C206.82 256.071 206.847 256.061 206.875 256.061C206.903 256.061 206.93 256.071 206.95 256.09C206.995 256.154 207.016 256.232 207.01 256.31V263.92L209.59 262.45Z" fill="#FAFAFA"/>
    <path d="M212.66 255.05C212.885 254.894 213.157 254.82 213.43 254.84C213.664 254.859 213.882 254.966 214.04 255.14C214.226 255.354 214.363 255.607 214.44 255.88C214.547 256.234 214.607 256.601 214.62 256.97C214.62 257.05 214.62 257.16 214.62 257.29V258.06C214.62 258.18 214.62 258.29 214.62 258.38C214.6 258.815 214.54 259.247 214.44 259.67C214.347 260.083 214.213 260.485 214.04 260.87C213.881 261.229 213.676 261.565 213.43 261.87C213.219 262.147 212.958 262.381 212.66 262.56C212.429 262.711 212.156 262.784 211.88 262.77C211.649 262.75 211.434 262.643 211.28 262.47C211.088 262.264 210.951 262.013 210.88 261.74C210.773 261.386 210.713 261.02 210.7 260.65C210.7 260.57 210.7 260.47 210.7 260.34V259.57C210.7 259.44 210.7 259.33 210.7 259.25C210.712 258.812 210.769 258.376 210.87 257.95C210.967 257.534 211.105 257.129 211.28 256.74C211.439 256.384 211.64 256.048 211.88 255.74C212.092 255.461 212.357 255.226 212.66 255.05ZM213.6 257.63C213.6 257.409 213.562 257.189 213.49 256.98C213.453 256.853 213.376 256.74 213.27 256.66C213.185 256.603 213.082 256.578 212.98 256.59C212.866 256.612 212.757 256.656 212.66 256.72C212.542 256.784 212.435 256.865 212.34 256.96C212.225 257.079 212.128 257.214 212.05 257.36C211.949 257.542 211.875 257.737 211.83 257.94C211.764 258.196 211.724 258.457 211.71 258.72C211.71 258.8 211.71 258.89 211.71 259V259.71C211.71 259.82 211.71 259.91 211.71 259.97C211.719 260.191 211.76 260.41 211.83 260.62C211.866 260.748 211.944 260.86 212.05 260.94C212.092 260.97 212.139 260.99 212.189 261C212.239 261.011 212.29 261.011 212.34 261C212.453 260.981 212.562 260.94 212.66 260.88C212.776 260.813 212.883 260.733 212.98 260.64C213.092 260.518 213.189 260.384 213.27 260.24C213.366 260.056 213.44 259.862 213.49 259.66C213.555 259.405 213.592 259.143 213.6 258.88C213.606 258.787 213.606 258.693 213.6 258.6V257.9C213.606 257.81 213.606 257.72 213.6 257.63Z" fill="#FAFAFA"/>
    <path d="M217.68 260.9C217.808 260.822 217.923 260.724 218.02 260.61C218.14 260.469 218.244 260.314 218.33 260.15C218.429 259.949 218.506 259.738 218.56 259.52C218.621 259.275 218.652 259.023 218.65 258.77V258.26C218.65 258.36 218.55 258.48 218.48 258.62C218.411 258.766 218.331 258.906 218.24 259.04C218.136 259.18 218.022 259.314 217.9 259.44C217.775 259.571 217.629 259.683 217.47 259.77C217.367 259.84 217.251 259.888 217.129 259.913C217.007 259.937 216.882 259.936 216.76 259.91C216.538 259.84 216.347 259.695 216.22 259.5C216.057 259.241 215.939 258.957 215.87 258.66C215.785 258.282 215.738 257.897 215.73 257.51C215.73 257.38 215.73 257.22 215.73 257.03C215.73 256.84 215.73 256.68 215.73 256.54C215.742 256.1 215.789 255.662 215.87 255.23C215.952 254.804 216.069 254.386 216.22 253.98C216.361 253.627 216.543 253.291 216.76 252.98C216.944 252.704 217.187 252.472 217.47 252.3C217.603 252.22 217.748 252.162 217.9 252.13C218.012 252.109 218.128 252.109 218.24 252.13C218.329 252.155 218.411 252.199 218.48 252.26C218.544 252.309 218.601 252.366 218.65 252.43V252.11C218.65 252.007 218.671 251.905 218.71 251.81C218.738 251.732 218.791 251.665 218.86 251.62L219.45 251.27C219.47 251.251 219.497 251.24 219.525 251.24C219.553 251.24 219.58 251.251 219.6 251.27C219.648 251.337 219.673 251.417 219.67 251.5V258C219.697 258.973 219.516 259.941 219.14 260.84C218.845 261.546 218.334 262.141 217.68 262.54C217.457 262.678 217.202 262.757 216.94 262.77C216.733 262.782 216.526 262.73 216.35 262.62C216.181 262.493 216.044 262.329 215.95 262.14C215.852 261.912 215.798 261.668 215.79 261.42C215.781 261.316 215.801 261.212 215.85 261.12C215.874 261.037 215.928 260.966 216 260.92L216.53 260.62C216.542 260.607 216.557 260.596 216.573 260.589C216.59 260.582 216.607 260.579 216.625 260.579C216.643 260.579 216.66 260.582 216.677 260.589C216.693 260.596 216.708 260.607 216.72 260.62C216.769 260.672 216.813 260.729 216.85 260.79C216.911 260.897 217.011 260.976 217.13 261.01C217.25 261.1 217.43 261 217.68 260.9ZM216.74 256.05C216.74 256.316 216.74 256.576 216.74 256.83C216.711 257.229 216.825 257.626 217.06 257.95C217.149 258.027 217.263 258.069 217.38 258.069C217.497 258.069 217.611 258.027 217.7 257.95C217.99 257.761 218.217 257.489 218.35 257.17C218.532 256.753 218.634 256.305 218.65 255.85C218.65 255.7 218.65 255.52 218.65 255.31C218.65 255.1 218.65 254.92 218.65 254.79C218.67 254.432 218.564 254.078 218.35 253.79C218.261 253.708 218.145 253.663 218.025 253.663C217.905 253.663 217.789 253.708 217.7 253.79C217.415 253.978 217.193 254.246 217.06 254.56C216.855 255.03 216.746 255.537 216.74 256.05Z" fill="#FAFAFA"/>
    <path d="M222 247.17C222.02 247.153 222.044 247.145 222.07 247.145C222.095 247.145 222.12 247.153 222.14 247.17C222.192 247.234 222.217 247.317 222.21 247.4V248.49C222.211 248.594 222.187 248.697 222.14 248.79C222.112 248.865 222.063 248.931 222 248.98L221.33 249.37C221.321 249.38 221.309 249.389 221.296 249.395C221.283 249.401 221.269 249.404 221.255 249.404C221.241 249.404 221.227 249.401 221.214 249.395C221.201 249.389 221.189 249.38 221.18 249.37C221.154 249.34 221.134 249.305 221.122 249.267C221.11 249.229 221.106 249.189 221.11 249.15V248.06C221.109 247.956 221.133 247.853 221.18 247.76C221.208 247.682 221.261 247.615 221.33 247.57L222 247.17ZM222.17 256.56C222.17 256.659 222.15 256.758 222.11 256.85C222.078 256.928 222.026 256.997 221.96 257.05L221.36 257.39C221.351 257.4 221.341 257.409 221.329 257.414C221.317 257.42 221.303 257.423 221.29 257.423C221.276 257.423 221.263 257.42 221.251 257.414C221.239 257.409 221.228 257.4 221.22 257.39C221.168 257.325 221.142 257.243 221.15 257.16V250.69C221.149 250.586 221.173 250.483 221.22 250.39C221.248 250.312 221.296 250.243 221.36 250.19L221.96 249.85C221.98 249.831 222.007 249.82 222.035 249.82C222.063 249.82 222.09 249.831 222.11 249.85C222.155 249.914 222.176 249.992 222.17 250.07V256.56Z" fill="#FAFAFA"/>
    <path d="M227.43 253.51C227.429 253.613 227.409 253.715 227.37 253.81C227.342 253.888 227.289 253.955 227.22 254L226.62 254.35C226.601 254.368 226.576 254.379 226.55 254.379C226.524 254.379 226.499 254.368 226.48 254.35C226.428 254.285 226.403 254.203 226.41 254.12V250.6C226.441 250.185 226.365 249.768 226.19 249.39C226.05 249.14 225.83 249.1 225.52 249.28C225.211 249.488 224.982 249.795 224.87 250.15C224.703 250.622 224.622 251.12 224.63 251.62V255.15C224.629 255.253 224.609 255.355 224.57 255.45C224.545 255.532 224.492 255.603 224.42 255.65L223.83 255.99C223.821 256.001 223.809 256.009 223.796 256.015C223.783 256.021 223.769 256.024 223.755 256.024C223.741 256.024 223.727 256.021 223.714 256.015C223.701 256.009 223.689 256.001 223.68 255.99C223.634 255.927 223.612 255.848 223.62 255.77V249.3C223.619 249.197 223.639 249.095 223.68 249C223.704 248.918 223.758 248.847 223.83 248.8L224.42 248.46C224.429 248.449 224.441 248.441 224.454 248.435C224.467 248.429 224.481 248.426 224.495 248.426C224.509 248.426 224.523 248.429 224.536 248.435C224.549 248.441 224.561 248.449 224.57 248.46C224.615 248.528 224.636 248.609 224.63 248.69V249C224.762 248.695 224.922 248.404 225.11 248.13C225.275 247.878 225.498 247.668 225.76 247.52C225.988 247.354 226.271 247.282 226.55 247.32C226.661 247.348 226.764 247.399 226.854 247.469C226.943 247.54 227.017 247.629 227.07 247.73C227.215 248.001 227.31 248.295 227.35 248.6C227.403 248.998 227.43 249.399 227.43 249.8V253.51Z" fill="#FAFAFA"/>
    <path d="M277.87 224.4L268.16 230L269.67 216.38C268.5 215.76 267.76 214.25 267.76 212.08C267.76 208.21 270.12 203.72 273.02 202.08C275.92 200.44 278.27 202.18 278.27 206.08C278.21 208.374 277.555 210.614 276.37 212.58L277.87 224.4Z" fill="#455A64"/>
    <path d="M277.88 224.4L269.33 219.47L268.16 230.01L277.88 224.4Z" fill="#37474F"/>
    <path d="M273 202.05C270.885 203.479 269.308 205.573 268.52 208L276.35 212.52C277.535 210.554 278.19 208.315 278.25 206.02C278.27 202.15 275.92 200.38 273 202.05Z" fill="#37474F"/>
    <path d="M225.8 156.7C222.47 154.78 217.88 155.05 212.8 157.98C202.66 163.84 194.44 178.07 194.44 189.78C194.44 195.66 196.52 199.78 199.86 201.68L206.33 205.44C209.65 207.36 214.24 207.08 219.33 204.15C229.47 198.3 237.69 184.06 237.69 172.35C237.69 166.5 235.63 162.35 232.31 160.48" fill="#277FE5"/>
    <path d="M219.32 161.75C209.18 167.61 200.96 181.85 200.96 193.55C200.96 205.25 209.18 210.01 219.32 204.15C229.46 198.29 237.69 184.06 237.68 172.35C237.67 160.64 229.45 155.9 219.32 161.75Z" fill="#277FE5"/>
    <path d="M229.45 187.73V189.07C227.021 193.406 223.537 197.059 219.32 199.69C215.37 201.96 211.8 202.21 209.18 200.76V198C209.314 195.129 210.134 192.331 211.571 189.841C213.008 187.352 215.021 185.242 217.44 183.69L220.11 182.15C222.47 180.79 224.77 180.61 226.57 181.66C228.37 182.71 229.45 184.92 229.45 187.73Z" fill="#277FE5"/>
    <path opacity="0.4" d="M225.8 156.7L232.3 160.48C228.98 158.55 224.39 158.82 219.3 161.75C212.66 165.59 206.84 173.02 203.62 180.98L197.11 177.21C200.34 169.21 206.11 161.82 212.79 157.98C217.89 155.06 222.48 154.78 225.8 156.7Z" fill="white"/>
    <path opacity="0.2" d="M206.1 205.29L199.87 201.68C196.53 199.78 194.45 195.68 194.45 189.78L200.96 193.56C201 199.26 202.92 203.32 206.1 205.29Z" fill="black"/>
    <path opacity="0.1" d="M197.13 177.21L203.64 180.98C201.972 184.965 201.076 189.231 201 193.55L194.49 189.77C194.57 185.454 195.466 181.193 197.13 177.21Z" fill="black"/>
    <path d="M217 181.52C216.38 181.527 215.769 181.368 215.23 181.06C214.581 180.627 214.061 180.027 213.724 179.323C213.388 178.619 213.248 177.837 213.32 177.06C213.405 175.238 213.925 173.463 214.837 171.883C215.748 170.303 217.025 168.965 218.56 167.98C219.177 167.488 219.927 167.193 220.714 167.134C221.501 167.076 222.287 167.256 222.97 167.651C223.653 168.047 224.2 168.639 224.541 169.351C224.882 170.062 225 170.86 224.88 171.64C224.794 173.462 224.273 175.236 223.361 176.816C222.45 178.395 221.174 179.734 219.64 180.72C218.846 181.215 217.935 181.492 217 181.52Z" fill="white"/>
    <path d="M226.57 181.65C224.77 180.6 222.47 180.78 220.11 182.14L217.44 183.68C215.019 185.233 213.006 187.344 211.569 189.835C210.132 192.327 209.312 195.127 209.18 198V200.77C211.8 202.22 215.37 201.97 219.32 199.7C223.537 197.069 227.021 193.416 229.45 189.08V187.74C229.45 184.92 228.41 182.71 226.57 181.65Z" fill="white"/>
    <path d="M425 355.096C425 355.096 426.33 343.416 432.14 334.346C437.95 325.276 445.93 319.626 453.38 319.036C460.83 318.446 466.85 325.306 458.88 330.036C450.91 334.766 436.75 339.546 430.23 357.146L425 355.096Z" fill="#277FE5"/>
    <path opacity="0.1" d="M425 355.096C425 355.096 426.33 343.416 432.14 334.346C437.95 325.276 445.93 319.626 453.38 319.036C460.83 318.446 466.85 325.306 458.88 330.036C450.91 334.766 436.75 339.546 430.23 357.146L425 355.096Z" fill="black"/>
    <path d="M427.19 352.056H427.11C427.012 352.016 426.934 351.939 426.893 351.841C426.851 351.744 426.85 351.634 426.89 351.536C434.75 332.186 449.71 324.096 456.53 322.536C456.581 322.524 456.634 322.522 456.686 322.531C456.738 322.54 456.788 322.558 456.832 322.586C456.877 322.614 456.915 322.65 456.946 322.693C456.976 322.736 456.998 322.784 457.01 322.836C457.022 322.887 457.023 322.94 457.015 322.992C457.006 323.044 456.987 323.093 456.959 323.138C456.932 323.182 456.895 323.221 456.852 323.252C456.81 323.282 456.761 323.304 456.71 323.316C450.03 324.856 435.36 332.796 427.63 351.846C427.591 351.925 427.527 351.99 427.447 352.028C427.367 352.066 427.276 352.076 427.19 352.056Z" fill="white"/>
    <path d="M466.97 352.286C466.3 353.806 464.64 354.606 463.1 355.226C461.56 355.846 459.88 356.516 459.04 357.956C457.36 360.856 460.12 364.956 458.32 367.766C457.896 368.332 457.362 368.806 456.751 369.16C456.139 369.514 455.462 369.74 454.76 369.826C453.61 370.036 452.44 370.036 451.28 370.136C450.724 370.129 450.17 370.085 449.62 370.006C448.004 369.645 446.314 369.824 444.81 370.516C442.5 371.816 441.81 374.726 440.39 376.976C439.522 378.301 438.379 379.423 437.038 380.265C435.697 381.107 434.19 381.65 432.62 381.856C431.62 381.986 429.62 382.176 428.62 381.586C428.542 381.548 428.468 381.501 428.4 381.446C428.25 381.286 428.07 381.076 427.99 380.966C427.985 380.943 427.985 380.919 427.99 380.896C427.58 379.386 428.25 377.826 428.28 376.266V375.986C428.21 374.176 428.16 372.376 428.12 370.576C428.033 367.243 428 363.909 428.02 360.576C428.02 358.416 427.78 356.056 428.7 354.026C429.7 351.786 432.22 351.736 433.17 349.546C433.55 348.666 433.75 347.736 434.12 346.846C434.692 345.552 435.608 344.44 436.768 343.63C437.928 342.821 439.288 342.346 440.7 342.256C445.09 342.036 449.02 345.586 453.41 345.256C454.54 345.166 455.65 344.816 456.77 344.616C460.32 343.946 464.43 344.956 466.43 347.966C466.869 348.586 467.148 349.305 467.242 350.058C467.336 350.812 467.243 351.577 466.97 352.286Z" fill="#277FE5"/>
    <path d="M427.55 373.966C427.456 373.938 427.376 373.874 427.327 373.788C427.278 373.702 427.265 373.601 427.29 373.506C433.35 350.766 457.29 347.506 462.92 347.886C462.97 347.888 463.018 347.901 463.063 347.922C463.107 347.944 463.147 347.974 463.18 348.012C463.212 348.049 463.237 348.092 463.253 348.14C463.268 348.187 463.274 348.236 463.27 348.286C463.26 348.383 463.213 348.473 463.138 348.536C463.064 348.599 462.968 348.631 462.87 348.626C457.38 348.236 433.94 351.446 428.01 373.706C427.982 373.8 427.918 373.88 427.833 373.929C427.747 373.977 427.645 373.991 427.55 373.966Z" fill="white"/>
    <path d="M454.18 362.446C454.104 362.435 454.034 362.4 453.98 362.346C451.767 360.427 449.157 359.022 446.338 358.228C443.519 357.435 440.559 357.273 437.67 357.756C437.573 357.765 437.475 357.737 437.398 357.678C437.32 357.618 437.267 357.532 437.25 357.436C437.235 357.338 437.26 357.238 437.318 357.158C437.376 357.077 437.462 357.023 437.56 357.006C440.573 356.504 443.66 356.675 446.599 357.507C449.538 358.338 452.256 359.81 454.56 361.816C454.595 361.85 454.623 361.891 454.643 361.937C454.662 361.982 454.672 362.031 454.672 362.081C454.672 362.13 454.662 362.179 454.643 362.224C454.623 362.27 454.595 362.311 454.56 362.346C454.515 362.4 454.454 362.438 454.386 362.456C454.318 362.474 454.246 362.47 454.18 362.446Z" fill="white"/>
    <path d="M423.119 198.44C423.119 198.44 424.354 197.112 425.775 197.391C424.374 194.868 419.886 195.226 418.392 196.063C418.332 195.64 418.422 195.209 418.646 194.845C418.871 194.482 419.215 194.208 419.62 194.071C419.156 193.975 418.676 193.976 418.212 194.076C417.748 194.176 417.311 194.372 416.927 194.65C416.543 194.929 416.222 195.285 415.983 195.695C415.745 196.105 415.595 196.561 415.543 197.032C415.258 199.197 414.441 201.893 410.231 204.117L415.111 208.679C420.423 207.783 418.896 212.915 417.548 215.784C418.371 215.695 419.162 215.418 419.862 214.976C420.562 214.535 421.151 213.939 421.585 213.234C421.958 214.307 421.976 215.47 421.639 216.554C422.771 215.973 423.711 215.078 424.346 213.975C424.981 212.873 425.284 211.61 425.218 210.339C426.068 211.071 426.66 212.059 426.904 213.154C430.576 209.217 426.028 203.606 426.028 203.606C427.005 203.942 427.926 204.425 428.757 205.04C428.876 199.828 423.119 198.44 423.119 198.44Z" fill="#263238"/>
    <path d="M413.365 211.475C411.439 212.059 408.989 204.941 410.324 202.843C411.659 200.744 415.357 200.618 416.878 203.56C418.843 207.331 416.931 210.366 413.365 211.475Z" fill="#277FE5"/>
    <path d="M400.689 388.04L396.851 388.047L396.207 373.631L402.661 373.791L400.689 388.04Z" fill="#FFB573"/>
    <path d="M394.036 263.646C394.036 263.646 393.691 304.881 392.814 321.846C394.062 339.064 396.22 373.639 396.22 373.639L402.721 373.805C402.721 373.805 408.385 347.012 404.879 322.743C410.51 295.293 413.551 270.797 408.445 263.646H394.036Z" fill="#277FE5"/>
    <path opacity="0.2" d="M404.905 279.535C402.913 286.215 404.852 307.689 405.881 317.596C407.283 310.438 408.478 303.552 409.361 297.204L404.905 279.535Z" fill="black"/>
    <path d="M396.42 386.182H401.406C401.511 386.178 401.614 386.214 401.693 386.284C401.772 386.353 401.821 386.449 401.831 386.554L402.336 390.637C402.339 390.764 402.316 390.889 402.269 391.007C402.223 391.124 402.153 391.231 402.065 391.322C401.977 391.412 401.871 391.484 401.754 391.533C401.638 391.582 401.513 391.607 401.386 391.607C399.189 391.607 398.139 391.448 395.37 391.454C393.664 391.454 392.635 391.627 390.278 391.627C387.92 391.627 387.92 389.369 388.91 389.163C393.352 388.24 393.923 387.729 395.47 386.507C395.742 386.296 396.076 386.182 396.42 386.182Z" fill="#263238"/>
    <path d="M396.625 235.811C395.515 238.973 394.24 242.076 392.807 245.107C391.397 248.179 389.812 251.167 388.06 254.058L387.728 254.595C387.694 254.662 387.575 254.841 387.475 254.994C387.376 255.147 387.249 255.293 387.137 255.439C386.674 255.976 386.118 256.426 385.496 256.767C384.481 257.296 383.366 257.608 382.223 257.683C380.369 257.8 378.508 257.648 376.698 257.232C373.362 256.465 370.125 255.318 367.05 253.812C366.746 253.66 366.508 253.401 366.383 253.085C366.257 252.769 366.253 252.417 366.371 252.098C366.488 251.779 366.72 251.514 367.02 251.355C367.321 251.196 367.67 251.153 368 251.236H368.053C369.567 251.634 371.154 252.012 372.701 252.324C374.235 252.655 375.787 252.894 377.349 253.042C378.771 253.229 380.21 253.229 381.632 253.042C382.128 252.975 382.606 252.805 383.033 252.544C383.133 252.48 383.219 252.396 383.285 252.298L383.65 251.587C384.394 250.186 385.091 248.739 385.782 247.298C386.473 245.857 387.11 244.39 387.774 242.915C389.036 239.974 390.257 236.939 391.36 234.004V233.951C391.635 233.292 392.154 232.764 392.808 232.477C393.462 232.19 394.202 232.165 394.874 232.408C395.546 232.652 396.098 233.144 396.417 233.784C396.735 234.423 396.796 235.161 396.585 235.844L396.625 235.811Z" fill="#FFB573"/>
    <path d="M367.07 250.525C365.996 250.595 364.935 250.796 363.909 251.123L364.819 253.931C364.819 253.931 369.129 254.934 370.005 252.849L369.686 252.417C369.069 251.554 368.352 250.525 367.07 250.525Z" fill="#FFB573"/>
    <path d="M358 250.525L359.202 252.032L364.819 253.931L363.91 251.123L358 250.525Z" fill="#FFB573"/>
    <path d="M390.802 236.933C390.955 241.521 392.907 249.489 394.022 263.646H416.293C415.948 255.16 415.742 249.741 419.341 233.626C419.428 233.238 419.434 232.837 419.359 232.447C419.285 232.056 419.131 231.686 418.908 231.357C418.684 231.029 418.396 230.749 418.061 230.537C417.725 230.324 417.35 230.182 416.957 230.12C414.863 229.789 412.753 229.567 410.636 229.456C407.298 229.217 403.947 229.217 400.609 229.456C399.281 229.575 397.953 229.748 396.698 229.934C395.028 230.174 393.505 231.02 392.418 232.311C391.33 233.601 390.755 235.246 390.802 236.933Z" fill="#FFB573"/>
    <path opacity="0.2" d="M416.891 234.602C416.751 236.851 417.048 239.106 417.767 241.242C418.053 239.708 418.385 238.061 418.763 236.262L416.891 234.602Z" fill="black"/>
    <path opacity="0.2" d="M402.283 240.472C402.09 238.367 404.594 235.491 406.473 234.887C404.658 236.395 403.223 238.308 402.283 240.472Z" fill="black"/>
    <path d="M409.646 218.154C408.982 221.375 408.378 227.291 410.636 229.442C410.636 229.442 409.753 232.716 403.763 232.716C397.17 232.716 400.609 229.442 400.609 229.442C404.208 228.579 404.115 225.91 403.491 223.407L409.646 218.154Z" fill="#FFB573"/>
    <path opacity="0.2" d="M407.137 220.299L403.491 223.426C403.646 224.009 403.75 224.605 403.803 225.206C405.178 225.007 407.064 223.499 407.21 222.058C407.291 221.472 407.267 220.876 407.137 220.299Z" fill="black"/>
    <path d="M399.952 215.844C397.96 216.136 396.592 208.726 398.226 206.84C399.859 204.954 403.631 207.272 404.6 208.52C406.426 210.87 403.644 215.299 399.952 215.844Z" fill="#263238"/>
    <path d="M413.126 212.564C411.891 217.816 411.486 220.067 408.339 222.332C403.611 225.745 397.422 223.089 397.051 217.571C396.719 212.611 398.784 204.848 404.355 203.627C405.578 203.351 406.852 203.392 408.055 203.746C409.259 204.101 410.351 204.757 411.23 205.652C412.109 206.547 412.744 207.652 413.076 208.862C413.408 210.072 413.425 211.346 413.126 212.564Z" fill="#FFB573"/>
    <path d="M415.118 209.37C415.709 207.012 415.696 202.982 409.547 201.255C403.172 199.469 398.611 206.926 397.389 204.223C397.306 203.971 397.301 203.699 397.374 203.443C397.448 203.187 397.596 202.96 397.801 202.789C397.801 202.789 394.979 204.17 396.194 205.903C398.04 208.526 410.178 208.34 410.178 208.34L415.118 209.37Z" fill="#263238"/>
    <path d="M411.3 216.083C409.308 216.382 407.94 208.972 409.573 207.086C411.207 205.2 414.978 207.518 415.948 208.766C417.794 211.117 415.012 215.546 411.3 216.083Z" fill="#263238"/>
    <path d="M429.115 386.672L425.098 386.812L422.422 373.631L428.551 373.797L429.115 386.672Z" fill="#FFB573"/>
    <path d="M424.354 386.109H429.666C429.758 386.109 429.848 386.142 429.918 386.201C429.989 386.261 430.036 386.343 430.051 386.434L430.769 390.717C430.784 390.823 430.776 390.93 430.746 391.033C430.716 391.135 430.664 391.23 430.594 391.311C430.524 391.391 430.438 391.456 430.341 391.5C430.244 391.544 430.138 391.567 430.031 391.567C428.186 391.567 427.276 391.567 424.945 391.567H420.848C418.909 391.567 418.737 389.708 419.52 389.389C422.714 388.094 422.608 387.463 423.577 386.394C423.68 386.296 423.802 386.219 423.936 386.17C424.07 386.121 424.212 386.1 424.354 386.109Z" fill="#263238"/>
    <path d="M400.125 263.646C400.125 263.646 407.462 305.525 410.55 322.078C413.764 339.343 422.422 373.606 422.422 373.606L428.571 373.772C428.571 373.772 425.855 335.73 422.07 320.571C421.333 293.121 423.06 270.771 416.293 263.619L400.125 263.646Z" fill="#277FE5"/>
    <path d="M404.414 212.531C404.341 212.962 404.056 213.274 403.75 213.195C403.445 213.115 403.299 212.756 403.372 212.325C403.445 211.893 403.737 211.581 404.036 211.628C404.335 211.674 404.487 212.099 404.414 212.531Z" fill="#263238"/>
    <path d="M399.527 211.7C399.454 212.132 399.169 212.444 398.863 212.364C398.558 212.285 398.412 211.933 398.485 211.495C398.558 211.056 398.85 210.751 399.149 210.831C399.447 210.91 399.607 211.269 399.527 211.7Z" fill="#263238"/>
    <path d="M399.275 210.877L398.285 210.399C398.285 210.399 398.684 211.302 399.275 210.877Z" fill="#263238"/>
    <path d="M400.902 212.736C400.353 213.654 399.683 214.494 398.91 215.233C399.103 215.426 399.336 215.576 399.593 215.671C399.85 215.766 400.124 215.804 400.397 215.784L400.902 212.736Z" fill="#ED893E"/>
    <path d="M402.455 217.876C402.232 217.876 402.01 217.856 401.791 217.816C401.774 217.814 401.758 217.808 401.744 217.799C401.73 217.791 401.717 217.779 401.707 217.766C401.697 217.752 401.69 217.737 401.686 217.72C401.683 217.704 401.682 217.687 401.685 217.67C401.691 217.637 401.71 217.608 401.737 217.588C401.764 217.569 401.798 217.56 401.831 217.564C402.367 217.666 402.919 217.641 403.444 217.491C403.969 217.341 404.451 217.071 404.852 216.701C404.875 216.676 404.907 216.661 404.94 216.66C404.974 216.659 405.007 216.671 405.032 216.694C405.056 216.717 405.071 216.749 405.072 216.782C405.073 216.816 405.061 216.849 405.038 216.873C404.696 217.203 404.291 217.462 403.847 217.634C403.404 217.806 402.931 217.889 402.455 217.876Z" fill="#263238"/>
    <path d="M413.883 217.092C413.354 217.991 412.493 218.647 411.486 218.918C410.158 219.257 409.494 218.055 409.905 216.807C410.257 215.685 411.386 214.151 412.721 214.357C413.011 214.41 413.283 214.534 413.513 214.718C413.743 214.902 413.924 215.14 414.039 215.411C414.154 215.683 414.2 215.978 414.173 216.272C414.146 216.565 414.046 216.847 413.883 217.092Z" fill="#FFB573"/>
    <path d="M406.546 211.867C406.492 211.866 406.44 211.849 406.397 211.816C406.354 211.784 406.322 211.739 406.307 211.688C405.955 210.552 404.501 210.061 404.487 210.061C404.455 210.051 404.424 210.035 404.398 210.013C404.372 209.991 404.35 209.964 404.335 209.934C404.319 209.903 404.31 209.87 404.308 209.836C404.306 209.802 404.31 209.768 404.321 209.735C404.331 209.703 404.348 209.672 404.369 209.646C404.391 209.62 404.418 209.598 404.449 209.583C404.479 209.567 404.512 209.558 404.546 209.556C404.58 209.553 404.615 209.558 404.647 209.569C404.713 209.569 406.367 210.147 406.798 211.561C406.808 211.594 406.812 211.629 406.809 211.663C406.806 211.697 406.796 211.73 406.78 211.76C406.764 211.79 406.742 211.817 406.715 211.839C406.689 211.861 406.658 211.877 406.626 211.887L406.546 211.867Z" fill="#263238"/>
    <path d="M398.445 209.191C398.401 209.19 398.357 209.178 398.319 209.156C398.28 209.134 398.248 209.103 398.226 209.065C398.192 209.005 398.184 208.934 398.203 208.868C398.221 208.802 398.266 208.746 398.325 208.713C398.675 208.501 399.07 208.376 399.478 208.349C399.886 208.321 400.294 208.391 400.669 208.553C400.73 208.585 400.775 208.638 400.796 208.703C400.818 208.767 400.812 208.838 400.782 208.899C400.751 208.959 400.697 209.005 400.633 209.026C400.568 209.047 400.498 209.042 400.437 209.012C400.137 208.889 399.813 208.838 399.49 208.864C399.167 208.889 398.855 208.99 398.578 209.158C398.538 209.182 398.491 209.193 398.445 209.191Z" fill="#263238"/>
    <path d="M418.604 230.823C420.768 233.142 422.783 235.595 424.64 238.167C425.563 239.495 426.466 240.823 427.296 242.211C428.183 243.691 428.913 245.26 429.474 246.892C429.807 247.89 429.977 248.935 429.978 249.986C429.972 250.314 429.941 250.64 429.885 250.963C429.854 251.133 429.814 251.301 429.766 251.467L429.646 251.812C429.567 252.045 429.487 252.284 429.401 252.476L429.135 253.087C428.423 254.563 427.609 255.988 426.698 257.35C424.961 259.959 423.056 262.452 420.994 264.814C420.769 265.064 420.461 265.224 420.127 265.265C419.793 265.305 419.456 265.222 419.178 265.032C418.9 264.842 418.701 264.557 418.617 264.231C418.534 263.905 418.571 263.56 418.723 263.26C420.118 260.564 421.572 257.868 422.873 255.192C423.516 253.912 424.088 252.598 424.587 251.255L424.746 250.797L424.846 250.391L424.899 250.192C424.899 250.152 424.899 250.192 424.899 250.139V249.986C424.843 249.505 424.72 249.033 424.533 248.585C424.029 247.341 423.399 246.15 422.654 245.033C421.897 243.831 421.054 242.636 420.164 241.461C418.385 239.13 416.446 236.812 414.507 234.615L414.467 234.575C414.002 234.024 413.768 233.315 413.815 232.595C413.863 231.876 414.188 231.203 414.721 230.719C415.255 230.234 415.956 229.975 416.676 229.997C417.397 230.019 418.081 230.32 418.584 230.836L418.604 230.823Z" fill="#FFB573"/>
    <path d="M404.162 211.707L403.172 211.229C403.172 211.229 403.564 212.138 404.162 211.707Z" fill="#263238"/>
    <path d="M419.221 262.603L413.75 264.734L418.604 267.39C418.604 267.39 421.545 265.511 421.373 263.253L419.221 262.603Z" fill="#FFB573"/>
    <path d="M411.42 268.646L415.603 270.644L418.604 267.364L413.75 264.715L411.42 268.646Z" fill="#FFB573"/>
    <path d="M415.284 229.588C416.964 229.422 417.648 229.973 417.648 229.973C415.383 237.118 413.073 244.303 417.163 246.149C416.798 249.509 415.835 253.878 416.333 258.008C412.462 257.583 398.849 256.846 392.621 258.214C390.921 235.266 394.354 230.325 394.354 230.325C395.044 230.004 395.786 229.808 396.545 229.748C395.828 232.623 393.823 239.548 403.285 239.462C412.747 239.376 415.284 229.588 415.284 229.588Z" fill="#263238"/>
    <path d="M393.471 232.723C392.953 233.925 388.159 245.292 392.362 247.743C397.256 250.604 393.471 232.723 393.471 232.723Z" fill="#263238"/>
    <path d="M331.1 257.3L337.37 253.68L339.85 250.67L333.59 254.29L331.1 257.3Z" fill="#277FE5"/>
    <path opacity="0.4" d="M331.1 257.3L337.37 253.68L339.85 250.67L333.59 254.29L331.1 257.3Z" fill="black"/>
    <path d="M348.15 267.14L354.42 263.52L359.65 258.89L353.39 262.5L348.15 267.14Z" fill="#277FE5"/>
    <path opacity="0.4" d="M348.15 267.14L354.42 263.52L359.65 258.89L353.39 262.5L348.15 267.14Z" fill="black"/>
    <path d="M401.41 279.63C402.893 281.617 403.79 283.98 404 286.45C402.524 284.459 401.628 282.099 401.41 279.63ZM415.98 279.82C413.87 265.47 406.16 251.28 396.98 245.97C392.57 243.42 388.49 243.33 385.22 245.24L379.32 248.64L378.99 248.84C378.727 248.985 378.474 249.145 378.23 249.32C377.745 249.654 377.29 250.028 376.87 250.44L376.67 250.63C376.49 250.81 376.3 251.02 376.13 251.22C375.96 251.42 375.7 251.73 375.5 252C375.076 252.559 374.691 253.147 374.35 253.76C374.17 254.07 374 254.4 373.84 254.76L322.31 225.02L316.05 228.63V232.63L316.58 232.93L317.08 233.22V234.02L316.08 234.61V236.93L323.65 252.93L331.13 257.26L333.62 254.26L340.22 258.21L344.01 264.7L348.19 267.11L353.42 262.47L359.84 266.18L362 275.09L372.79 281.33C373.323 283.598 373.991 285.832 374.79 288.02C374.86 288.24 374.95 288.47 375.04 288.72C378.62 298.12 384.31 306.17 390.73 309.88C391.499 310.336 392.306 310.728 393.14 311.05C393.581 311.225 394.032 311.376 394.49 311.5C394.89 311.607 395.29 311.697 395.69 311.77C396.953 312 398.247 312 399.51 311.77L400.03 311.64C400.279 311.59 400.523 311.52 400.76 311.43L401.32 311.21C401.518 311.138 401.709 311.048 401.89 310.94C402.075 310.86 402.255 310.77 402.43 310.67L402.69 310.51C402.737 310.495 402.781 310.471 402.82 310.44C404.25 309.62 407.77 307.58 408.73 307.04C413.49 304.28 416.57 297.3 416.57 287.43C416.562 284.882 416.365 282.339 415.98 279.82Z" fill="#277FE5"/>
    <path d="M399.58 291.74C397.1 290.31 395.1 286.07 395.1 282.27C395.1 278.47 397.1 276.54 399.58 277.96C402.06 279.38 404.05 283.63 404.05 287.44C404.05 291.25 402.05 293.17 399.58 291.74ZM409.71 283.43C407.61 269.09 399.9 254.89 390.71 249.59C386.45 247.13 382.51 246.95 379.31 248.64L378.98 248.84C378.717 248.985 378.464 249.145 378.22 249.32C377.735 249.653 377.28 250.028 376.86 250.44L376.66 250.63C376.48 250.81 376.29 251.02 376.12 251.22C375.95 251.42 375.69 251.73 375.49 252C375.066 252.559 374.681 253.147 374.34 253.76C374.16 254.07 373.99 254.4 373.83 254.76C372.898 256.693 372.225 258.741 371.83 260.85L316.04 228.63V232.63L316.57 232.93L317.07 233.22V234.02L316.07 234.61V236.93L323.64 252.93L331.12 257.26L333.61 254.26L340.21 258.21L344 264.7L348.18 267.11L353.41 262.47L359.83 266.18L361.99 275.09L372.79 281.33C373.323 283.598 373.991 285.832 374.79 288.02C374.86 288.24 374.95 288.47 375.04 288.72C378.62 298.12 384.31 306.17 390.73 309.88C391.499 310.336 392.306 310.728 393.14 311.05C393.581 311.225 394.032 311.376 394.49 311.5C394.89 311.607 395.29 311.697 395.69 311.77C396.953 312 398.247 312 399.51 311.77L400.03 311.64C400.279 311.59 400.523 311.52 400.76 311.43L401.32 311.21C401.518 311.138 401.709 311.048 401.89 310.94C402.075 310.86 402.255 310.77 402.43 310.67L402.69 310.51C402.737 310.494 402.781 310.471 402.82 310.44C407.38 307.56 410.31 300.68 410.31 291.05C410.293 288.499 410.093 285.952 409.71 283.43Z" fill="#277FE5"/>
    <path opacity="0.4" d="M404.05 287.43C404.05 291.24 402.05 293.17 399.58 291.74C397.11 290.31 395.1 286.08 395.1 282.27C395.1 278.46 397.1 276.53 399.58 277.96C400.294 278.395 400.916 278.966 401.41 279.64C401.625 282.109 402.522 284.471 404 286.46C404.037 286.782 404.053 287.106 404.05 287.43Z" fill="black"/>
    <path opacity="0.4" d="M416.55 287.42C416.55 297.29 413.47 304.27 408.71 307.03C407.71 307.57 404.23 309.61 402.8 310.43C407.36 307.55 410.29 300.67 410.29 291.04C410.279 288.493 410.086 285.95 409.71 283.43C407.61 269.09 399.9 254.89 390.71 249.59C386.45 247.13 382.51 246.95 379.31 248.64L385.21 245.24C388.48 243.33 392.56 243.42 396.97 245.97C406.16 251.28 413.87 265.47 415.97 279.82C416.351 282.336 416.545 284.876 416.55 287.42Z" fill="white"/>
    <path d="M410.29 291.02C410.29 300.65 407.36 307.53 402.8 310.41C404.23 309.59 407.75 307.55 408.71 307.01C413.47 304.25 416.55 297.27 416.55 287.4C416.55 287.04 416.55 286.67 416.55 286.3L410.29 289.92C410.28 290.31 410.29 290.67 410.29 291.02Z" fill="#277FE5"/>
    <path opacity="0.1" d="M410.29 291.02C410.29 300.65 407.36 307.53 402.8 310.41C404.23 309.59 407.75 307.55 408.71 307.01C413.47 304.25 416.55 297.27 416.55 287.4C416.55 287.04 416.55 286.67 416.55 286.3L410.29 289.92C410.28 290.31 410.29 290.67 410.29 291.02Z" fill="black"/>
    <path opacity="0.15" d="M372.07 264.94V266.97L316.05 234.63L317.08 234.03V233.19L372.07 264.94Z" fill="black"/>
    <path opacity="0.15" d="M372.07 265.78V266.97L316.05 234.63L317.08 234.03V234.02L372.07 265.78Z" fill="black"/>
    <path opacity="0.15" d="M396.43 307.02C394.307 306.965 392.236 306.347 390.43 305.23C381.3 299.96 373.87 284.28 373.87 270.28C373.87 262.11 376.34 256.01 380.65 253.52C383.65 251.78 387.2 252 390.93 254.15C400.05 259.42 407.48 275.15 407.48 289.15C407.48 297.31 405.01 303.42 400.7 305.9C399.4 306.642 397.927 307.029 396.43 307.02ZM384.98 253.37C383.647 253.363 382.336 253.708 381.18 254.37C377.25 256.64 374.9 262.59 374.9 270.27C374.9 283.95 382.1 299.27 390.96 304.35C394.35 306.35 397.56 306.53 400.23 304.99C404.16 302.72 406.51 296.78 406.51 289.1C406.51 275.41 399.31 260.1 390.46 255.01C388.806 254.004 386.916 253.452 384.98 253.41V253.37Z" fill="black"/>
    <path opacity="0.4" d="M373.79 254.74C372.858 256.673 372.185 258.721 371.79 260.83L316 228.61L322.26 225L373.79 254.74Z" fill="white"/>
    <path d="M314.759 422.563C316.305 422.604 317.844 422.335 319.284 421.772C320.724 421.209 322.038 420.362 323.146 419.283C324.254 418.204 325.135 416.914 325.736 415.489C326.337 414.064 326.647 412.533 326.647 410.986C326.647 409.44 326.337 407.909 325.736 406.484C325.135 405.059 324.254 403.768 323.146 402.689C322.038 401.61 320.724 400.764 319.284 400.201C317.844 399.637 316.305 399.368 314.759 399.409H313.004V422.563H314.759Z" fill="#277FE5"/>
    <path opacity="0.2" d="M314.759 422.563C316.305 422.604 317.844 422.335 319.284 421.772C320.724 421.209 322.038 420.362 323.146 419.283C324.254 418.204 325.135 416.914 325.736 415.489C326.337 414.064 326.647 412.533 326.647 410.986C326.647 409.44 326.337 407.909 325.736 406.484C325.135 405.059 324.254 403.768 323.146 402.689C322.038 401.61 320.724 400.764 319.284 400.201C317.844 399.637 316.305 399.368 314.759 399.409H313.004V422.563H314.759Z" fill="black"/>
    <path d="M315.648 422.264C321.869 420.796 325.722 414.563 324.253 408.342C322.785 402.121 316.552 398.269 310.332 399.737C304.111 401.205 300.258 407.438 301.727 413.659C303.195 419.88 309.428 423.732 315.648 422.264Z" fill="#277FE5"/>
    <path opacity="0.3" d="M314.759 399.409H313.004C311.458 399.368 309.919 399.637 308.478 400.201C307.038 400.764 305.725 401.61 304.617 402.689C303.509 403.768 302.628 405.059 302.027 406.484C301.425 407.909 301.115 409.44 301.115 410.986C301.115 412.533 301.425 414.064 302.027 415.489C302.628 416.914 303.509 418.204 304.617 419.283C305.725 420.362 307.038 421.209 308.478 421.772C309.919 422.335 311.458 422.604 313.004 422.563H314.759C316.305 422.604 317.843 422.335 319.284 421.772C320.724 421.209 322.037 420.362 323.146 419.283C324.254 418.204 325.134 416.914 325.736 415.489C326.337 414.064 326.647 412.533 326.647 410.986C326.647 409.44 326.337 407.909 325.736 406.484C325.134 405.059 324.254 403.768 323.146 402.689C322.037 401.61 320.724 400.764 319.284 400.201C317.843 399.637 316.305 399.368 314.759 399.409Z" fill="black"/>
    <path d="M310.67 413.308H290.078V408.656H310.67C311.287 408.656 311.88 408.901 312.317 409.337C312.755 409.773 313.002 410.365 313.004 410.982C313.004 411.288 312.943 411.592 312.826 411.874C312.708 412.157 312.536 412.414 312.32 412.63C312.103 412.846 311.845 413.017 311.562 413.134C311.279 413.25 310.976 413.309 310.67 413.308Z" fill="#277FE5"/>
    <path d="M292.298 422.564C295.315 422.484 298.182 421.229 300.288 419.067C302.394 416.904 303.572 414.005 303.572 410.987C303.572 407.969 302.394 405.07 300.288 402.908C298.182 400.745 295.315 399.49 292.298 399.41H290.535V422.564H292.298Z" fill="#277FE5"/>
    <path opacity="0.2" d="M292.298 422.564C295.315 422.484 298.182 421.229 300.288 419.067C302.394 416.904 303.572 414.005 303.572 410.987C303.572 407.969 302.394 405.07 300.288 402.908C298.182 400.745 295.315 399.49 292.298 399.41H290.535V422.564H292.298Z" fill="black"/>
    <path d="M293.096 423.443C299.423 422.42 303.724 416.462 302.701 410.134C301.679 403.807 295.72 399.506 289.392 400.529C283.065 401.551 278.764 407.51 279.787 413.838C280.81 420.165 286.768 424.466 293.096 423.443Z" fill="#277FE5"/>
    <path d="M290.992 417.014C291.802 417.044 292.61 416.91 293.368 416.621C294.125 416.331 294.816 415.892 295.4 415.329C295.983 414.767 296.448 414.092 296.765 413.346C297.082 412.6 297.245 411.798 297.245 410.987C297.245 410.176 297.082 409.374 296.765 408.628C296.448 407.882 295.983 407.207 295.4 406.644C294.816 406.082 294.125 405.643 293.368 405.353C292.61 405.064 291.802 404.93 290.992 404.96H290.078V417.014H290.992Z" fill="#277FE5"/>
    <path opacity="0.2" d="M290.992 417.014C291.802 417.044 292.61 416.91 293.368 416.621C294.125 416.331 294.816 415.892 295.4 415.329C295.983 414.767 296.448 414.092 296.765 413.346C297.082 412.6 297.245 411.798 297.245 410.987C297.245 410.176 297.082 409.374 296.765 408.628C296.448 407.882 295.983 407.207 295.4 406.644C294.816 406.082 294.125 405.643 293.368 405.353C292.61 405.064 291.802 404.93 290.992 404.96H290.078V417.014H290.992Z" fill="black"/>
    <path d="M290.079 417.013C293.41 417.013 296.11 414.313 296.11 410.982C296.11 407.651 293.41 404.951 290.079 404.951C286.748 404.951 284.047 407.651 284.047 410.982C284.047 414.313 286.748 417.013 290.079 417.013Z" fill="#277FE5"/>
    <path d="M340.247 422.563C342.303 422.563 344.275 421.746 345.729 420.292C347.183 418.838 348 416.866 348 414.81C348 412.754 347.183 410.782 345.729 409.328C344.275 407.874 342.303 407.057 340.247 407.057H339.072V422.563H340.247Z" fill="#277FE5"/>
    <path opacity="0.2" d="M340.247 422.563C342.303 422.563 344.275 421.746 345.729 420.292C347.183 418.838 348 416.866 348 414.81C348 412.754 347.183 410.782 345.729 409.328C344.275 407.874 342.303 407.057 340.247 407.057H339.072V422.563H340.247Z" fill="black"/>
    <path d="M339.072 422.563C343.345 422.563 346.809 419.099 346.809 414.826C346.809 410.553 343.345 407.089 339.072 407.089C334.798 407.089 331.334 410.553 331.334 414.826C331.334 419.099 334.798 422.563 339.072 422.563Z" fill="#277FE5"/>
    <path opacity="0.3" d="M340.247 407.089H339.071C337.015 407.089 335.043 407.906 333.589 409.36C332.135 410.814 331.318 412.786 331.318 414.843C331.318 416.899 332.135 418.871 333.589 420.325C335.043 421.779 337.015 422.596 339.071 422.596H340.247C342.303 422.596 344.275 421.779 345.729 420.325C347.183 418.871 348 416.899 348 414.843C348 412.786 347.183 410.814 345.729 409.36C344.275 407.906 342.303 407.089 340.247 407.089Z" fill="black"/>
    <path d="M337.521 416.377H323.752V413.268H337.521C337.933 413.27 338.327 413.435 338.618 413.727C338.908 414.019 339.071 414.414 339.071 414.826C339.071 415.238 338.908 415.632 338.617 415.923C338.326 416.214 337.932 416.377 337.521 416.377Z" fill="#277FE5"/>
    <path d="M325.238 422.563C327.294 422.563 329.266 421.746 330.72 420.292C332.174 418.838 332.991 416.866 332.991 414.81C332.991 412.754 332.174 410.782 330.72 409.328C329.266 407.874 327.294 407.057 325.238 407.057H324.046V422.563H325.238Z" fill="#277FE5"/>
    <path opacity="0.2" d="M325.238 422.563C327.294 422.563 329.266 421.746 330.72 420.292C332.174 418.838 332.991 416.866 332.991 414.81C332.991 412.754 332.174 410.782 330.72 409.328C329.266 407.874 327.294 407.057 325.238 407.057H324.046V422.563H325.238Z" fill="black"/>
    <path d="M324.063 422.563C328.336 422.563 331.8 419.099 331.8 414.826C331.8 410.553 328.336 407.089 324.063 407.089C319.79 407.089 316.326 410.553 316.326 414.826C316.326 419.099 319.79 422.563 324.063 422.563Z" fill="#277FE5"/>
    <path d="M324.365 418.85C324.909 418.874 325.452 418.788 325.962 418.597C326.472 418.406 326.938 418.113 327.332 417.737C327.726 417.36 328.039 416.908 328.253 416.407C328.467 415.906 328.578 415.367 328.578 414.822C328.578 414.278 328.467 413.738 328.253 413.238C328.039 412.737 327.726 412.284 327.332 411.908C326.938 411.532 326.472 411.239 325.962 411.047C325.452 410.856 324.909 410.77 324.365 410.795H323.752V418.85H324.365Z" fill="#277FE5"/>
    <path opacity="0.2" d="M324.365 418.85C324.909 418.874 325.452 418.788 325.962 418.597C326.472 418.406 326.938 418.113 327.332 417.737C327.726 417.36 328.039 416.908 328.253 416.407C328.467 415.906 328.578 415.367 328.578 414.822C328.578 414.278 328.467 413.738 328.253 413.238C328.039 412.737 327.726 412.284 327.332 411.908C326.938 411.532 326.472 411.239 325.962 411.047C325.452 410.856 324.909 410.77 324.365 410.795H323.752V418.85H324.365Z" fill="black"/>
    <path d="M327.784 414.827C327.786 414.029 327.551 413.248 327.109 412.584C326.667 411.92 326.038 411.402 325.301 411.096C324.565 410.789 323.754 410.708 322.971 410.863C322.188 411.018 321.469 411.401 320.905 411.965C320.34 412.528 319.955 413.246 319.799 414.029C319.643 414.811 319.722 415.622 320.027 416.359C320.332 417.097 320.849 417.727 321.512 418.17C322.175 418.613 322.955 418.85 323.753 418.85C324.82 418.85 325.845 418.426 326.601 417.672C327.356 416.918 327.782 415.894 327.784 414.827Z" fill="#277FE5"/>
    <path d="M175.051 412.501C175.054 415.732 173.809 418.841 171.575 421.176C165.584 422.406 159.406 422.406 153.415 421.176C152 419.692 150.97 417.883 150.415 415.909C149.86 413.934 149.798 411.853 150.233 409.849C150.668 407.845 151.588 405.977 152.912 404.411C154.236 402.844 155.924 401.626 157.828 400.863C159.731 400.099 161.793 399.814 163.833 400.032C165.872 400.25 167.827 400.964 169.527 402.113C171.226 403.261 172.618 404.808 173.582 406.619C174.545 408.43 175.049 410.449 175.051 412.501Z" fill="#277FE5"/>
    <path d="M153.832 405.327C153.636 405.123 149 400.209 149 395.402C149 388 158.198 388 162.132 388C166.066 388 175.263 388 175.263 395.402C175.263 400.209 170.62 405.123 170.424 405.327L168.065 403.074L169.24 404.2L168.065 403.074C169.159 401.923 171.999 398.3 171.999 395.402C171.999 391.966 168.049 391.265 162.132 391.265C156.215 391.265 152.265 391.966 152.265 395.402C152.265 398.316 155.097 401.932 156.19 403.074L153.832 405.327Z" fill="#277FE5"/>
    <path opacity="0.1" d="M167.037 411.986C167.037 412.955 166.75 413.901 166.212 414.707C165.674 415.512 164.909 416.14 164.014 416.51C163.119 416.881 162.135 416.978 161.185 416.789C160.235 416.6 159.362 416.134 158.677 415.449C157.993 414.764 157.526 413.891 157.337 412.942C157.148 411.992 157.245 411.007 157.616 410.112C157.987 409.217 158.614 408.453 159.419 407.915C160.225 407.377 161.172 407.089 162.14 407.089C163.439 407.089 164.684 407.605 165.603 408.524C166.521 409.442 167.037 410.687 167.037 411.986Z" fill="black"/>
</svg>
