<svg width="36" height="36" viewBox="0 0 36 36" fill="none" xmlns="http://www.w3.org/2000/svg">
    <path fill-rule="evenodd" clip-rule="evenodd" d="M21.5655 1.16919C20.5315 0.40992 19.2821 0.000488281 17.9992 0.000488281C16.7164 0.000488281 15.467 0.40992 14.433 1.16919L12.345 2.69919C12.0011 2.95192 11.6013 3.11787 11.1795 3.18294L8.61675 3.57669C7.34981 3.77145 6.178 4.36517 5.27162 5.27155C4.36523 6.17794 3.77151 7.34975 3.57675 8.61669L3.183 11.1817C3.11793 11.6035 2.95198 12.0033 2.69925 12.3472L1.16925 14.4352C0.409981 15.4692 0.000549316 16.7186 0.000549316 18.0014C0.000549316 19.2843 0.409981 20.5337 1.16925 21.5677L2.69925 23.6557C2.9535 23.9999 3.11775 24.3982 3.183 24.8212L3.57675 27.3817C3.77151 28.6486 4.36523 29.8204 5.27162 30.7268C6.178 31.6332 7.34981 32.2269 8.61675 32.4217L11.1772 32.8154C11.598 32.8807 11.9985 33.0449 12.3427 33.2992L14.4307 34.8292C15.4648 35.5885 16.7141 35.9979 17.997 35.9979C19.2799 35.9979 20.5292 35.5885 21.5632 34.8292L23.6512 33.2992C23.9948 33.0458 24.3948 32.8798 24.8167 32.8154L27.3772 32.4217C28.6449 32.2272 29.8175 31.6334 30.7243 30.7265C31.6312 29.8197 32.225 28.6471 32.4195 27.3794L32.8132 24.8189C32.8785 24.3982 33.0427 23.9977 33.297 23.6534L34.827 21.5654C35.5863 20.5314 35.9957 19.282 35.9957 17.9992C35.9957 16.7163 35.5863 15.467 34.827 14.4329L33.297 12.3449C33.0443 12.001 32.8784 11.6012 32.8132 11.1794L32.4217 8.61669C32.227 7.34975 31.6333 6.17794 30.7269 5.27155C29.8205 4.36517 28.6487 3.77145 27.3817 3.57669L24.8212 3.18294C24.3995 3.11778 23.9997 2.95184 23.6557 2.69919L21.5655 1.16919ZM16.431 3.88719C17.3647 3.20094 18.636 3.20094 19.5675 3.88719L21.6555 5.41719C22.4385 5.99319 23.3475 6.36894 24.3105 6.51744L26.8665 6.90894C28.014 7.08444 28.9118 7.98444 29.0872 9.12969L29.4788 11.6879C29.6272 12.6487 30.003 13.5577 30.579 14.3429L32.109 16.4287C32.7952 17.3624 32.7952 18.6337 32.109 19.5652L30.579 21.6532C30.0035 22.4365 29.626 23.3474 29.4788 24.3082L29.0872 26.8642C29.0021 27.4227 28.7407 27.9394 28.3412 28.3389C27.9417 28.7384 27.425 28.9998 26.8665 29.0849L24.3082 29.4764C23.3475 29.6237 22.4366 30.0012 21.6532 30.5767L19.5675 32.1067C18.6337 32.7929 17.3625 32.7929 16.431 32.1067L14.343 30.5767C13.5597 30.0012 12.6488 29.6237 11.688 29.4764L9.132 29.0849C8.57348 28.9998 8.05678 28.7384 7.65729 28.3389C7.25779 27.9394 6.9964 27.4227 6.91125 26.8642L6.51975 24.3059C6.37251 23.3451 5.99503 22.4342 5.4195 21.6509L3.8895 19.5652C3.55573 19.1104 3.37576 18.561 3.37576 17.9969C3.37576 17.4328 3.55573 16.8834 3.8895 16.4287L5.4195 14.3407C5.9955 13.5577 6.37125 12.6487 6.51975 11.6857L6.91125 9.12969C7.08675 7.98219 7.98675 7.08444 9.132 6.90894L11.6902 6.51744C12.651 6.3702 13.5619 5.99272 14.3452 5.41719L16.431 3.88719ZM25.3792 15.2542C25.6773 14.9343 25.8396 14.5112 25.8319 14.074C25.8242 13.6368 25.6471 13.2197 25.3379 12.9105C25.0287 12.6014 24.6116 12.4243 24.1744 12.4165C23.7372 12.4088 23.3141 12.5711 22.9942 12.8692L15.7492 20.1142L13.0042 17.3692C12.6844 17.0711 12.2613 16.9088 11.8241 16.9165C11.3869 16.9243 10.9698 17.1014 10.6606 17.4105C10.3514 17.7197 10.1743 18.1368 10.1666 18.574C10.1589 19.0112 10.3212 19.4343 10.6192 19.7542L14.5567 23.6917C14.8732 24.0077 15.3021 24.1852 15.7492 24.1852C16.1964 24.1852 16.6253 24.0077 16.9417 23.6917L25.3792 15.2542Z" fill="#277FE5"/>
</svg>
