<svg width="36" height="36" viewBox="0 0 36 36" fill="none" xmlns="http://www.w3.org/2000/svg">
    <path d="M18.0002 0.499512C8.5134 0.499512 0.500153 8.51276 0.500153 17.9995C0.500153 27.4863 8.5134 35.4995 18.0002 35.4995C27.4869 35.4995 35.5002 27.4863 35.5002 17.9995C35.5002 8.51276 27.4869 0.499512 18.0002 0.499512ZM18.0002 9.24951C21.0224 9.24951 23.2502 11.4755 23.2502 14.4995C23.2502 17.5235 21.0224 19.7495 18.0002 19.7495C14.9797 19.7495 12.7502 17.5235 12.7502 14.4995C12.7502 11.4755 14.9797 9.24951 18.0002 9.24951ZM9.06465 26.3505C10.6344 24.0405 13.2524 22.5005 16.2502 22.5005H19.7502C22.7497 22.5005 25.3659 24.0405 26.9357 26.3505C24.6992 28.7445 21.5264 30.2495 18.0002 30.2495C14.4739 30.2495 11.3012 28.7445 9.06465 26.3505Z" fill="#F6F6F6"/>
</svg>
