<svg width="25" height="23" viewBox="0 0 25 23" fill="none" xmlns="http://www.w3.org/2000/svg">
    <path fill-rule="evenodd" clip-rule="evenodd" d="M12.5049 22.1924C12.1885 22.5084 11.7596 22.6859 11.3124 22.6859C10.8653 22.6859 10.4364 22.5084 10.1199 22.1924L0.55745 12.6299C0.241436 12.3135 0.0639343 11.8846 0.0639343 11.4374C0.0639343 10.9902 0.241436 10.5613 0.55745 10.2449L10.1199 0.682399C10.4398 0.384319 10.8629 0.222042 11.3001 0.229755C11.7373 0.237469 12.1544 0.414571 12.4636 0.72375C12.7728 1.03293 12.9499 1.45005 12.9576 1.88722C12.9653 2.3244 12.803 2.74751 12.5049 3.0674L5.82245 9.7499H22.5625C23.01 9.7499 23.4392 9.92769 23.7557 10.2442C24.0722 10.5606 24.25 10.9898 24.25 11.4374C24.25 11.885 24.0722 12.3142 23.7557 12.6306C23.4392 12.9471 23.01 13.1249 22.5625 13.1249H5.82245L12.5049 19.8074C12.821 20.1238 12.9985 20.5527 12.9985 20.9999C12.9985 21.4471 12.821 21.876 12.5049 22.1924Z" fill="#277FE5"/>
</svg>
