<svg width="9" height="16" viewBox="0 0 9 16" fill="none" xmlns="http://www.w3.org/2000/svg">
    <path fill-rule="evenodd" clip-rule="evenodd" d="M0.330108 0.829987C0.541046 0.619311 0.826983 0.500977 1.12511 0.500977C1.42323 0.500977 1.70917 0.619311 1.92011 0.829987L8.29511 7.20499C8.50578 7.41593 8.62412 7.70186 8.62412 7.99999C8.62412 8.29811 8.50578 8.58405 8.29511 8.79499L1.92011 15.17C1.70685 15.3687 1.42478 15.4769 1.13332 15.4718C0.841873 15.4666 0.563795 15.3485 0.357676 15.1424C0.151556 14.9363 0.0334886 14.6582 0.0283463 14.3668C0.023204 14.0753 0.131388 13.7933 0.330108 13.58L5.91011 7.99999L0.330108 2.41999C0.119433 2.20905 0.00109863 1.92311 0.00109863 1.62499C0.00109863 1.32686 0.119433 1.04092 0.330108 0.829987Z" fill="#277FE5"/>
</svg>
