<svg width="25" height="25" viewBox="0 0 25 25" fill="none" xmlns="http://www.w3.org/2000/svg">
    <path fill-rule="evenodd" clip-rule="evenodd" d="M9.30715 3.20157C7.66154 3.20157 6.08334 3.85525 4.91972 5.01881C3.7561 6.18238 3.10238 7.76051 3.10238 9.40604C3.10238 11.0516 3.7561 12.6297 4.91972 13.7933C6.08334 14.9568 7.66154 15.6105 9.30715 15.6105C10.9528 15.6105 12.531 14.9568 13.6946 13.7933C14.8582 12.6297 15.5119 11.0516 15.5119 9.40604C15.5119 7.76051 14.8582 6.18238 13.6946 5.01881C12.531 3.85525 10.9528 3.20157 9.30715 3.20157ZM1.76e-07 9.40604C-0.000186747 7.94132 0.345361 6.49724 1.00854 5.19125C1.67172 3.88525 2.6338 2.75422 3.81654 1.89014C4.99929 1.02605 6.36929 0.453317 7.81513 0.21851C9.26097 -0.0162966 10.7418 0.0934563 12.1372 0.538843C13.5327 0.984229 14.8033 1.75267 15.8457 2.78167C16.8881 3.81068 17.6729 5.07118 18.1363 6.46067C18.5997 7.85016 18.7286 9.3294 18.5124 10.7781C18.2963 12.2268 17.7413 13.604 16.8925 14.7977L24.3646 22.2694C24.6471 22.562 24.8035 22.9538 24.7999 23.3605C24.7964 23.7672 24.6333 24.1562 24.3457 24.4438C24.0581 24.7314 23.669 24.8946 23.2623 24.8981C22.8556 24.9016 22.4637 24.7453 22.1712 24.4627L14.7006 16.9925C13.3082 17.9826 11.6702 18.5703 9.9659 18.6912C8.26165 18.8121 6.557 18.4616 5.03874 17.6781C3.52047 16.8946 2.24719 15.7083 1.35841 14.2492C0.469639 12.7901 -0.000332034 11.1145 1.76e-07 9.40604V9.40604Z" fill="#1D2026"/>
</svg>
