<svg width="438" height="425" viewBox="0 0 438 425" fill="none" xmlns="http://www.w3.org/2000/svg">
    <path d="M218.724 425C339.521 425 437.447 368.463 437.447 298.722C437.447 228.98 339.521 172.443 218.724 172.443C97.9259 172.443 0 228.98 0 298.722C0 368.463 97.9259 425 218.724 425Z" fill="#F5F5F5"/>
    <path d="M308.404 387.001C333.561 387.001 353.954 375.999 353.954 362.427C353.954 348.855 333.561 337.854 308.404 337.854C283.248 337.854 262.854 348.855 262.854 362.427C262.854 375.999 283.248 387.001 308.404 387.001Z" fill="#E6E6E6"/>
    <path d="M369.139 351.065C394.295 351.065 414.689 340.063 414.689 326.492C414.689 312.92 394.295 301.918 369.139 301.918C343.982 301.918 323.589 312.92 323.589 326.492C323.589 340.063 343.982 351.065 369.139 351.065Z" fill="#E6E6E6"/>
    <path d="M230.823 285.249L171.024 319.82L170.884 319.745L148.151 306.618C146.171 305.346 144.599 303.532 143.621 301.391C142.644 299.251 142.303 296.875 142.638 294.546L151.047 250.706L210.846 216.135L202.437 259.975C202.101 262.304 202.443 264.68 203.42 266.82C204.398 268.961 205.97 270.775 207.95 272.046L230.823 285.249Z" fill="#37474F"/>
    <path d="M151.047 250.686L142.685 294.143L202.493 259.618L210.229 219.422L206.464 218.666L151.047 250.686Z" fill="#263238"/>
    <path d="M171.024 319.8L148.151 306.598C146.171 305.326 144.599 303.512 143.621 301.371C142.644 299.231 142.303 296.855 142.638 294.526L151.047 250.686L141.068 244.921L131.426 295.077C130.155 301.711 133.893 309.905 139.742 313.278L171.024 331.311V319.8Z" fill="#263238"/>
    <path d="M230.813 285.24L170.995 319.802V331.322L230.813 296.761V285.24Z" fill="#455A64"/>
    <path d="M289.331 1.14755C292.088 2.7453 294.321 6.7537 294.321 10.1734V193.737C294.221 195.581 293.687 197.376 292.763 198.975C291.84 200.574 290.552 201.933 289.004 202.941L60.199 335.049C57.2558 336.741 52.6401 336.825 49.9211 335.236C47.2021 333.648 44.9316 329.63 44.9316 326.21V142.656C45.0326 140.811 45.5665 139.015 46.4901 137.415C47.4137 135.814 48.7011 134.454 50.2481 133.443L279.025 1.34377C281.959 -0.384791 286.575 -0.440853 289.331 1.14755Z" fill="#455A64"/>
    <path d="M59.5639 335.367C56.6301 336.74 52.4535 336.712 49.884 335.236C47.1276 333.648 44.8945 329.63 44.8945 326.219V142.656C44.9609 140.804 45.4979 139 46.4549 137.414L56.4338 143.179C55.4761 144.761 54.939 146.563 54.8735 148.411V331.975C54.8735 335.124 56.9197 336.535 59.5639 335.367Z" fill="#263238"/>
    <path d="M294.359 193.737V10.1734C294.359 6.78168 291.976 5.40818 289.042 7.09937L60.1993 139.199C58.6507 140.208 57.3622 141.568 56.4384 143.169C55.5145 144.77 54.9816 146.566 54.8828 148.412V331.975C54.8828 335.367 57.2654 336.741 60.2087 335.049L289.005 202.941C290.559 201.937 291.854 200.58 292.784 198.98C293.715 197.381 294.254 195.585 294.359 193.737Z" fill="#37474F"/>
    <path d="M282.641 16.4337L64.1227 142.693C62.8807 143.496 61.8452 144.58 61.1001 145.858C60.3551 147.135 59.9213 148.57 59.834 150.047V313.045C59.834 315.755 61.7027 316.858 64.0853 315.503L282.641 189.29C283.882 188.483 284.914 187.394 285.651 186.11C286.389 184.827 286.811 183.387 286.883 181.908V18.9285C286.883 16.2188 285.014 15.1163 282.641 16.4337Z" fill="#277FE5"/>
    <path d="M68.0273 299.385C68.0273 302.188 69.9988 303.327 72.4282 301.926L274.333 185.356C275.614 184.52 276.68 183.394 277.445 182.069C278.209 180.745 278.651 179.258 278.734 177.731V41.8103L68.0273 163.464V299.385Z" fill="#FAFAFA"/>
    <path d="M277.8 43.4267V177.731C277.714 179.094 277.315 180.42 276.633 181.603C275.95 182.786 275.003 183.795 273.866 184.552L71.9797 301.113C71.5286 301.401 71.0099 301.565 70.4754 301.59C69.1205 301.59 68.9804 300.048 68.9804 299.385V164.006L277.819 43.4735L277.8 43.4267ZM278.753 41.857L68.0273 163.464V299.385C68.0273 301.375 69.0178 302.524 70.4567 302.524C71.1551 302.502 71.8352 302.296 72.4282 301.926L274.333 185.356C275.614 184.52 276.68 183.394 277.445 182.069C278.209 180.745 278.651 179.258 278.734 177.731V41.8103L278.753 41.857Z" fill="#E0E0E0"/>
    <path d="M78.052 167.033L119.547 143.076C120.659 142.431 121.565 142.954 121.565 144.244V262.281C121.526 262.982 121.324 263.665 120.973 264.273C120.623 264.882 120.134 265.4 119.547 265.785L78.052 289.742C76.9307 290.387 76.0244 289.863 76.0244 288.574V170.537C76.0625 169.834 76.2661 169.151 76.6184 168.542C76.9708 167.933 77.4619 167.416 78.052 167.033Z" fill="#F0F0F0"/>
    <path d="M85.6399 171.415L111.961 156.223C113.073 155.578 113.979 156.036 113.979 157.25C113.928 157.929 113.72 158.585 113.369 159.168C113.018 159.75 112.536 160.243 111.961 160.605L85.6399 175.797C84.5186 176.442 83.6123 175.984 83.6123 174.779C83.6617 174.098 83.871 173.439 84.2233 172.854C84.5757 172.27 85.061 171.777 85.6399 171.415Z" fill="#FAFAFA"/>
    <path d="M83.6123 182.75V184.329C83.6123 185.104 84.1636 185.422 84.827 185.029L86.2005 184.245C86.554 184.014 86.8483 183.704 87.0594 183.339C87.2704 182.974 87.3923 182.564 87.4151 182.142V180.563C87.4151 179.788 86.8639 179.47 86.2005 179.863L84.827 180.647C84.4755 180.88 84.1827 181.191 83.9719 181.555C83.7612 181.92 83.638 182.329 83.6123 182.75Z" fill="#277FE5"/>
    <path d="M91.209 179.161C91.209 180.367 92.1433 180.824 93.2272 180.18L111.914 169.369C112.49 169.007 112.972 168.515 113.323 167.932C113.673 167.35 113.882 166.693 113.933 166.015C113.933 164.8 112.998 164.342 111.914 164.987L93.2272 175.798C92.6506 176.161 92.1675 176.654 91.8169 177.239C91.4663 177.823 91.258 178.482 91.209 179.161Z" fill="#FAFAFA"/>
    <path d="M83.6123 191.523V193.102C83.6123 193.877 84.1636 194.195 84.827 193.802L86.2005 193.018C86.5546 192.788 86.8492 192.478 87.0604 192.112C87.2715 191.747 87.3931 191.337 87.4151 190.915V189.336C87.4151 188.561 86.8639 188.243 86.2005 188.635L84.827 189.42C84.4755 189.653 84.1827 189.964 83.9719 190.328C83.7612 190.693 83.638 191.102 83.6123 191.523Z" fill="#277FE5"/>
    <path d="M91.209 187.935C91.209 189.14 92.1433 189.598 93.2272 188.953L111.914 178.143C112.49 177.781 112.972 177.289 113.323 176.706C113.673 176.123 113.882 175.467 113.933 174.789C113.933 173.574 112.998 173.116 111.914 173.761L93.2272 184.571C92.6506 184.934 92.1675 185.428 91.8169 186.012C91.4663 186.597 91.258 187.255 91.209 187.935Z" fill="#FAFAFA"/>
    <path d="M83.6123 200.287V201.866C83.6123 202.642 84.1636 202.95 84.827 202.567L86.2005 201.773C86.5546 201.543 86.8492 201.233 87.0604 200.868C87.2715 200.502 87.3931 200.092 87.4151 199.67V198.091C87.4151 197.316 86.8639 197.008 86.2005 197.391L84.827 198.185C84.4739 198.416 84.18 198.726 83.9691 199.091C83.7581 199.456 83.6359 199.866 83.6123 200.287Z" fill="#277FE5"/>
    <path d="M91.209 196.69C91.209 197.905 92.1433 198.363 93.2272 197.718L111.914 186.908C112.491 186.544 112.974 186.051 113.325 185.466C113.675 184.882 113.883 184.224 113.933 183.544C113.933 182.339 112.998 181.881 111.914 182.525L93.2272 193.336C92.6518 193.698 92.1694 194.19 91.8189 194.773C91.4684 195.356 91.2595 196.012 91.209 196.69Z" fill="#FAFAFA"/>
    <path d="M83.6123 209.042V210.621C83.6123 211.397 84.1636 211.705 84.827 211.322L86.2005 210.528C86.5546 210.298 86.8492 209.988 87.0604 209.623C87.2715 209.257 87.3931 208.847 87.4151 208.426V206.847C87.4151 206.071 86.8639 205.763 86.2005 206.146L84.827 206.94C84.4739 207.171 84.18 207.481 83.9691 207.846C83.7581 208.212 83.6359 208.621 83.6123 209.042Z" fill="#277FE5"/>
    <path d="M91.209 205.444C91.209 206.659 92.1433 207.117 93.2272 206.472L111.914 195.662C112.491 195.298 112.974 194.805 113.325 194.22C113.675 193.636 113.883 192.977 113.933 192.298C113.933 191.092 112.998 190.635 111.914 191.279L93.2272 202.09C92.6518 202.452 92.1694 202.944 91.8189 203.527C91.4684 204.109 91.2595 204.766 91.209 205.444Z" fill="#FAFAFA"/>
    <path d="M85.4807 219.713L111.792 204.52C112.913 203.875 113.82 204.333 113.82 205.539C113.77 206.219 113.561 206.879 113.209 207.463C112.856 208.048 112.371 208.541 111.792 208.902L85.4807 224.095C84.3594 224.74 83.4531 224.282 83.4531 223.076C83.5025 222.396 83.7118 221.736 84.0642 221.152C84.4165 220.567 84.9018 220.074 85.4807 219.713Z" fill="#FAFAFA"/>
    <path d="M83.4531 231.046V232.625C83.4531 233.401 83.9951 233.719 84.6678 233.326L86.0413 232.541C86.3936 232.311 86.6865 232 86.896 231.635C87.1054 231.269 87.2256 230.86 87.2466 230.439V228.86C87.2466 228.084 86.7047 227.767 86.0413 228.159L84.6678 228.944C84.3142 229.174 84.02 229.485 83.8089 229.85C83.5978 230.215 83.4759 230.625 83.4531 231.046Z" fill="#277FE5"/>
    <path d="M91.0488 227.458C91.0488 228.664 91.9832 229.122 93.067 228.477L111.754 217.666C112.332 217.306 112.816 216.814 113.169 216.231C113.521 215.649 113.731 214.991 113.782 214.312C113.782 213.097 112.847 212.64 111.754 213.284L93.067 224.095C92.4904 224.458 92.0073 224.952 91.6567 225.536C91.3061 226.12 91.0979 226.779 91.0488 227.458Z" fill="#FAFAFA"/>
    <path d="M83.4531 239.82V241.399C83.4531 242.175 83.9951 242.492 84.6678 242.1L86.0413 241.315C86.3936 241.084 86.6865 240.774 86.896 240.408C87.1054 240.043 87.2256 239.633 87.2466 239.213V237.634C87.2466 236.858 86.7047 236.54 86.0413 236.933L84.6678 237.718C84.3142 237.948 84.02 238.258 83.8089 238.623C83.5978 238.989 83.4759 239.399 83.4531 239.82Z" fill="#277FE5"/>
    <path d="M91.0488 236.232C91.0488 237.437 91.9832 237.895 93.067 237.251L111.754 226.44C112.332 226.079 112.816 225.588 113.169 225.005C113.521 224.422 113.731 223.765 113.782 223.086C113.782 221.871 112.847 221.413 111.754 222.058L93.067 232.868C92.4904 233.232 92.0073 233.725 91.6567 234.31C91.3061 234.894 91.0979 235.552 91.0488 236.232Z" fill="#FAFAFA"/>
    <path d="M83.4531 248.584V250.163C83.4531 250.938 83.9951 251.247 84.6678 250.864L86.0413 250.069C86.3942 249.839 86.6874 249.529 86.897 249.163C87.1065 248.798 87.2263 248.388 87.2466 247.967V246.388C87.2466 245.613 86.7047 245.304 86.0413 245.687L84.6678 246.481C84.3137 246.711 84.019 247.021 83.8079 247.387C83.5968 247.752 83.4752 248.162 83.4531 248.584Z" fill="#277FE5"/>
    <path d="M91.0488 244.987C91.0488 246.202 91.9832 246.659 93.067 246.015L111.754 235.204C112.333 234.843 112.818 234.35 113.171 233.765C113.523 233.181 113.732 232.521 113.782 231.841C113.782 230.635 112.847 230.177 111.754 230.822L93.067 241.633C92.4916 241.995 92.0093 242.487 91.6587 243.07C91.3082 243.652 91.0993 244.309 91.0488 244.987Z" fill="#FAFAFA"/>
    <path d="M83.4531 257.338V258.917C83.4531 259.693 83.9951 260.001 84.6678 259.618L86.0413 258.824C86.3942 258.594 86.6874 258.283 86.897 257.918C87.1065 257.552 87.2263 257.143 87.2466 256.722V255.143C87.2466 254.367 86.7047 254.059 86.0413 254.442L84.6678 255.236C84.3137 255.466 84.019 255.776 83.8079 256.141C83.5968 256.507 83.4752 256.917 83.4531 257.338Z" fill="#277FE5"/>
    <path d="M91.0488 253.76C91.0488 254.975 91.9832 255.433 93.067 254.788L111.754 243.978C112.333 243.616 112.818 243.123 113.171 242.539C113.523 241.954 113.732 241.295 113.782 240.614C113.782 239.409 112.847 238.951 111.754 239.596L93.067 250.406C92.4916 250.768 92.0093 251.26 91.6587 251.843C91.3082 252.426 91.0993 253.082 91.0488 253.76Z" fill="#FAFAFA"/>
    <path d="M68.0283 154.242C68.1115 152.713 68.5532 151.226 69.3177 149.9C70.0822 148.574 71.1481 147.446 72.4291 146.608L274.334 30.0472C276.764 28.6363 278.735 29.7763 278.735 32.5887V41.8108L68.0283 163.464V154.242Z" fill="#37474F"/>
    <path d="M253.947 46.5668C253.346 46.9597 252.846 47.4883 252.488 48.1099C252.129 48.7315 251.921 49.4288 251.882 50.1454C251.882 51.4628 252.816 52.0141 253.947 51.3414C254.555 50.9537 255.063 50.4272 255.429 49.8051C255.794 49.183 256.007 48.483 256.049 47.7628C256.049 46.4453 255.115 45.9127 253.947 46.5668Z" fill="#277FE5"/>
    <path d="M261.178 42.4085C260.577 42.8003 260.076 43.3286 259.717 43.9505C259.358 44.5723 259.151 45.2701 259.113 45.9871C259.113 47.3045 260.048 47.8558 261.178 47.1737C261.78 46.7825 262.281 46.2543 262.64 45.6323C262.999 45.0103 263.206 44.3122 263.243 43.5951C263.243 42.2777 262.318 41.7451 261.178 42.4085Z" fill="#277FE5"/>
    <path d="M268.411 38.2411C267.806 38.6308 267.301 39.1582 266.939 39.7802C266.577 40.4022 266.367 41.1011 266.327 41.8197C266.327 43.1371 267.262 43.6884 268.401 43.0157C269.002 42.6228 269.502 42.0942 269.86 41.4725C270.219 40.8509 270.427 40.1537 270.466 39.4371C270.476 38.1196 269.551 37.5871 268.411 38.2411Z" fill="#277FE5"/>
    <path d="M145.964 132.145L256.031 68.5994V86.1279L145.964 149.674V132.145Z" fill="#277FE5"/>
    <path opacity="0.05" d="M145.964 132.145L256.031 68.5994V86.1279L145.964 149.674V132.145Z" fill="black"/>
    <path d="M142.16 129.958L145.963 132.145V149.673L142.16 147.487V129.958Z" fill="#277FE5"/>
    <path opacity="0.2" d="M142.16 129.958L145.963 132.145V149.673L142.16 147.487V129.958Z" fill="black"/>
    <path d="M256.03 68.5995L252.237 66.4131L142.16 129.959L145.963 132.145L256.03 68.5995Z" fill="#277FE5"/>
    <path opacity="0.4" d="M256.03 68.5995L252.237 66.4131L142.16 129.959L145.963 132.145L256.03 68.5995Z" fill="white"/>
    <path d="M145.964 149.673L256.031 86.1274V186.926L145.964 250.472V149.673Z" fill="#277FE5"/>
    <path d="M142.16 147.487L145.963 149.673V250.472L142.169 248.285L142.16 147.487Z" fill="#277FE5"/>
    <path opacity="0.15" d="M142.16 147.487L145.963 149.673V250.472L142.169 248.285L142.16 147.487Z" fill="black"/>
    <path d="M208.482 113.747L208.36 113.859C208.271 113.96 208.163 114.042 208.043 114.102C207.809 114.252 207.688 114.102 207.473 113.962L205.716 112.934C204.997 112.514 204.147 112 203.259 111.467C202.371 110.935 201.39 110.346 200.456 109.748C200.176 109.561 200.689 108.627 201.007 108.814C202.007 109.337 202.979 109.879 203.904 110.384C204.829 110.888 205.67 111.318 206.408 111.785L208.164 112.785C208.37 112.925 208.585 112.934 208.575 113.215C208.582 113.344 208.567 113.474 208.529 113.598L208.482 113.747Z" fill="#E0E0E0"/>
    <path d="M210.265 115.009C208.91 117.354 206.705 118.625 204.379 117.363L204.248 117.298H204.192C203.849 117.038 203.579 116.694 203.407 116.3C203.236 115.906 203.168 115.474 203.211 115.046C203.277 113.822 203.631 112.63 204.243 111.567C204.855 110.504 205.708 109.599 206.733 108.926C207.074 108.691 207.467 108.54 207.878 108.486C208.289 108.432 208.707 108.478 209.097 108.618L209.228 108.683L209.443 108.823C211.639 110.188 211.62 112.673 210.265 115.009Z" fill="#37474F"/>
    <path d="M213.125 119.653L215.741 115.187C213.744 114.164 211.89 112.882 210.229 111.374L210.126 111.272L210.042 111.188C209.78 111.02 209.473 110.936 209.162 110.948C208.852 110.96 208.552 111.066 208.304 111.253C207.635 111.689 207.078 112.277 206.679 112.969C206.28 113.66 206.049 114.436 206.005 115.233C205.977 115.518 206.024 115.806 206.142 116.067C206.26 116.328 206.445 116.553 206.678 116.719C206.814 116.792 206.963 116.836 207.117 116.85C209.241 117.498 211.264 118.442 213.125 119.653Z" fill="#455A64"/>
    <path d="M217.992 116.037C217.98 115.302 217.679 114.601 217.155 114.085C216.63 113.57 215.924 113.281 215.189 113.281C214.869 113.29 214.553 113.354 214.255 113.468H214.199H214.096C213.944 113.525 213.797 113.593 213.657 113.673C212.842 114.201 212.164 114.914 211.677 115.753C211.19 116.592 210.908 117.535 210.854 118.504C210.856 118.74 210.884 118.975 210.938 119.205C211.063 119.878 211.434 120.48 211.98 120.895C212.525 121.309 213.205 121.505 213.887 121.446C214.569 121.386 215.205 121.075 215.67 120.573C216.135 120.07 216.397 119.413 216.404 118.728C216.409 118.641 216.409 118.554 216.404 118.466C216.865 118.245 217.257 117.902 217.537 117.473C217.817 117.045 217.974 116.548 217.992 116.037Z" fill="#37474F"/>
    <path d="M215.237 114.635C216.778 113.748 218.04 114.467 218.04 116.252C217.986 117.221 217.705 118.164 217.217 119.003C216.73 119.843 216.052 120.555 215.237 121.082C213.695 121.97 212.434 121.251 212.434 119.475C212.488 118.505 212.77 117.561 213.257 116.72C213.744 115.88 214.422 115.165 215.237 114.635Z" fill="#455A64"/>
    <path d="M155.795 150.981C157.898 149.767 159.598 150.748 159.598 153.177C159.519 154.489 159.134 155.763 158.474 156.899C157.814 158.035 156.896 159 155.795 159.718C153.702 160.932 152.002 159.951 152.002 157.531C152.078 156.219 152.461 154.943 153.12 153.805C153.779 152.668 154.695 151.701 155.795 150.981Z" fill="#FAFAFA"/>
    <path d="M164.061 146.31L182.515 135.668C183.449 135.135 184.168 135.509 184.168 136.5C184.135 137.064 183.967 137.613 183.68 138.101C183.392 138.588 182.993 139 182.515 139.303L164.061 149.954C163.127 150.477 162.407 150.104 162.407 149.113C162.441 148.548 162.608 148 162.896 147.512C163.184 147.025 163.583 146.613 164.061 146.31Z" fill="#455A64"/>
    <path d="M163.622 152.608L180.169 143.05C180.842 142.667 181.384 142.779 181.384 143.302C181.318 143.65 181.176 143.978 180.967 144.264C180.759 144.55 180.489 144.786 180.179 144.956L163.613 154.785C162.949 155.178 162.407 155.009 162.407 154.402C162.457 154.029 162.593 153.674 162.804 153.362C163.014 153.051 163.294 152.793 163.622 152.608Z" fill="#455A64"/>
    <path opacity="0.3" d="M153.551 166.735C153.551 167.669 154.28 168.043 155.167 167.529L246.818 114.616C247.278 114.331 247.664 113.941 247.945 113.478C248.226 113.016 248.394 112.493 248.435 111.953C248.435 111.019 247.715 110.655 246.818 111.168L155.139 164.062C154.684 164.353 154.303 164.746 154.028 165.21C153.752 165.674 153.589 166.196 153.551 166.735Z" fill="black"/>
    <path opacity="0.3" d="M153.551 173.313C153.551 174.247 154.28 174.621 155.167 174.098L210.061 142.404C210.519 142.119 210.904 141.731 211.185 141.27C211.466 140.809 211.634 140.289 211.677 139.751C211.677 138.816 210.948 138.442 210.061 138.956L155.139 170.659C154.686 170.947 154.307 171.337 154.031 171.798C153.755 172.259 153.591 172.777 153.551 173.313Z" fill="black"/>
    <path d="M153.551 180.368L248.435 125.586V182.554L153.551 237.336V180.368Z" fill="#277FE5"/>
    <path opacity="0.7" d="M153.551 180.368L248.435 125.586V182.554L153.551 237.336V180.368Z" fill="white"/>
    <path d="M153.551 237.335V219.807L187.711 173.79L217.993 186.983L208.033 180.367L221.871 162.839L248.435 172.818V182.554L153.551 237.335Z" fill="#FAFAFA"/>
    <path d="M234.822 144.441C237.784 142.731 240.185 144.114 240.185 147.534C240.085 149.395 239.547 151.206 238.615 152.819C237.683 154.433 236.384 155.804 234.822 156.822C231.86 158.531 229.459 157.149 229.459 153.729C229.56 151.868 230.098 150.057 231.029 148.443C231.961 146.83 233.261 145.459 234.822 144.441Z" fill="#FAFAFA"/>
    <path d="M384.329 164.062C388.403 163.128 392.822 166.099 395.355 172.471C397.887 178.844 402.904 195.204 403.932 199.474C404.399 201.39 389.702 218.087 390.225 217.844C390.384 217.769 385.609 209.547 385.609 209.547L392.776 198.82L388.524 187.019L384.329 164.062Z" fill="#FFB7A7"/>
    <path d="M391.729 315.25C392.271 315.465 392.402 316.521 392.458 318.604C392.458 320.183 392.804 322.94 390.944 323.463C389.085 323.986 386.394 323.668 385.226 322.173C383.778 320.305 382.797 318.651 380.723 316.362C378.919 314.372 376.985 312.512 376.256 309.756C375.621 307.252 376.191 306.187 377.901 305.486C380.246 304.551 383.871 307.812 385.693 308.354C387.263 308.812 391.178 315.035 391.729 315.25Z" fill="#263238"/>
    <path d="M384.488 308.4C384.077 308.225 383.635 308.134 383.189 308.134C382.742 308.134 382.301 308.225 381.89 308.4C380.134 308.914 379.601 310.176 380.956 311.596C382.311 313.016 385.534 316.128 385.534 316.128L387.076 312.185L384.488 308.4Z" fill="#FFB7A7"/>
    <path d="M372.519 328.603C372.519 328.603 373.22 330.836 373.594 332.788C373.884 334.339 374.304 336.928 373.743 338.086C373.183 339.245 371.062 339.955 367.792 339.899C365.671 339.852 362.344 341.254 360.064 342.487C357.785 343.72 355.178 343.73 352.702 343.421C349.796 343.048 346.797 341.319 346.339 340.104C345.881 338.89 346.498 338.32 353.402 335.479C353.468 335.479 360.69 332.303 364.063 328.677L372.519 328.603Z" fill="#263238"/>
    <path d="M353.402 335.461C352.468 335.853 351.627 336.199 350.898 336.517C350.711 337.171 350.963 338.199 354.009 338.712C358.681 339.488 370.734 331.06 370.734 331.06C370.734 331.06 370.37 329.743 369.996 328.621H364.063C360.699 332.247 353.468 335.433 353.402 335.461Z" fill="#FFB7A7"/>
    <path d="M394.727 277.895C394.237 273.398 393.247 268.969 391.774 264.692C391.774 264.692 393.4 253.396 394.334 242.548C396.091 223.085 394.97 216.694 391.251 207.911C391.251 207.911 358.595 204.174 357.418 217.741C355.951 234.653 357.184 267.374 357.549 273.363C357.913 279.352 358.483 282.043 360.398 294.564C361.884 304.094 364.211 329.948 364.211 329.948C365.257 332.527 371.779 332.143 372.498 329.191C372.498 329.191 375.563 298.675 375.376 291.817C375.227 286.7 374.414 281.624 372.956 276.717C372.956 276.717 375.339 249.173 375.984 244.79C375.984 244.79 376.918 253.545 377.264 259.535C377.609 265.524 379.338 271.251 380.926 282.38C382.3 292.032 385.495 316.157 385.495 316.157C388.569 319.324 391.475 317.427 391.709 315.942C391.718 315.886 395.792 286.267 394.727 277.895Z" fill="#FFB7A7"/>
    <path d="M367.911 161.427L369.285 174.078L380.403 173.228L379.32 159.185L367.911 161.427Z" fill="#FFB7A7"/>
    <path d="M392.336 170.48C391.159 167.135 387.047 163.379 382.768 164.117C381.656 164.313 380.787 164.435 379.741 164.64C379.601 167.546 373.985 169.004 368.528 167.163C366.884 167.621 365.352 168.041 363.997 168.546C362.016 169.284 356.101 179.609 355.466 186.215C354.943 191.587 359.138 195.287 359.138 195.287C357.335 206.798 355.653 252.825 355.653 252.825C357.396 253.665 359.33 254.029 361.259 253.881L362.904 244.154L363.483 254.208C366.566 254.75 375.228 254.058 380.731 252.339C386.761 250.398 392.292 247.158 396.933 242.846C396.933 242.846 397.045 227.102 395.699 219.394C394.354 211.685 393.962 209.854 387.169 199.062C393.279 183.468 394.083 175.432 392.336 170.48Z" fill="#277FE5"/>
    <g opacity="0.6">
        <path opacity="0.6" d="M392.336 170.48C391.159 167.135 387.047 163.379 382.768 164.117C381.656 164.313 380.787 164.435 379.741 164.64C379.601 167.546 373.985 169.004 368.528 167.163C366.884 167.621 365.352 168.041 363.997 168.546C362.016 169.284 356.101 179.609 355.466 186.215C354.943 191.587 359.138 195.287 359.138 195.287C357.335 206.798 355.653 252.825 355.653 252.825C357.396 253.665 359.33 254.029 361.259 253.881L362.904 244.154L363.483 254.208C366.566 254.75 375.228 254.058 380.731 252.339C386.761 250.398 392.292 247.158 396.933 242.846C396.933 242.846 397.045 227.102 395.699 219.394C394.354 211.685 393.962 209.854 387.169 199.062C393.279 183.468 394.083 175.432 392.336 170.48Z" fill="black"/>
    </g>
    <path d="M366.249 210.5C371.855 181.806 371.425 172.191 363.764 168.641C357.793 170.332 357.737 177.872 358.073 185.067C358.073 185.067 358.428 200.016 356.205 210.593C354.999 216.321 353.159 224.609 350.954 228.972C350.558 229.745 349.893 230.346 349.085 230.663C346.917 231.523 346.282 232.775 344.563 234.046C343.189 235.036 342.161 235.158 342.245 235.569C342.39 236.029 342.704 236.419 343.122 236.659C343.541 236.9 344.035 236.974 344.506 236.867C345.408 236.706 346.282 236.42 347.104 236.017C346.069 237.537 344.827 238.905 343.413 240.082C340.068 242.941 339.573 244.978 345.086 246.033C348.534 246.697 351.682 245.099 355.681 237.923C357.201 235.314 358.535 232.601 359.671 229.804C362.353 222.506 365.072 216.489 366.249 210.5Z" fill="#FFB7A7"/>
    <path d="M361.867 145.767C361.867 145.767 357.597 140.815 360.82 135.891C364.632 130.079 371.827 129.173 380.32 131.574C384.525 132.761 389.047 137.386 389.468 145.487C389.795 151.747 373.64 156.064 373.985 160.353L361.867 145.767Z" fill="#263238"/>
    <path d="M359.456 147.636C359.456 147.636 357.045 151.373 357.372 151.785C357.944 152.156 358.577 152.425 359.241 152.579L359.456 147.636Z" fill="#F28F8F"/>
    <path d="M366.828 135.723C364.445 136.994 360.334 139.339 359.4 148.187C358.465 157.26 360.493 160.381 361.745 161.549C362.586 162.343 366.893 162.576 369.126 161.848C371.929 160.913 377.965 157.839 380.75 153.121C384.029 147.58 384.618 140.236 380.75 137.414C375.2 133.443 368.837 134.649 366.828 135.723Z" fill="#FFB7A7"/>
    <path d="M366.128 136.115C366.128 136.115 364.147 144.412 366.726 149.598C366.726 149.598 368.146 146.355 370.931 147.234C373.715 148.112 373.538 151.859 371.361 153.774C370.801 154.319 370.099 154.695 369.336 154.86C368.573 155.025 367.779 154.973 367.044 154.709C367.958 157.075 369.344 159.23 371.118 161.043C371.118 161.043 379.359 164.837 386.628 156.839C392.318 150.579 389.552 135.919 382.264 133.611C372.342 130.518 366.128 136.115 366.128 136.115Z" fill="#263238"/>
    <path d="M393.654 160.044C392.342 160.432 390.945 160.422 389.639 160.015C388.333 159.609 387.177 158.824 386.317 157.761C385.457 156.697 384.932 155.403 384.808 154.041C384.684 152.678 384.966 151.31 385.62 150.109C386.274 148.907 387.269 147.927 388.48 147.291C389.691 146.656 391.063 146.393 392.423 146.538C393.783 146.682 395.07 147.226 396.121 148.102C397.171 148.978 397.938 150.145 398.325 151.457C398.844 153.215 398.643 155.108 397.767 156.718C396.891 158.328 395.411 159.524 393.654 160.044Z" fill="#263238"/>
    <path d="M393.671 150.812C392.876 151.053 392.028 151.053 391.233 150.811C390.439 150.57 389.734 150.098 389.208 149.455C388.682 148.812 388.358 148.028 388.278 147.201C388.198 146.374 388.366 145.542 388.759 144.811C389.152 144.079 389.754 143.481 390.488 143.092C391.221 142.702 392.054 142.54 392.88 142.624C393.706 142.708 394.489 143.036 395.129 143.566C395.769 144.095 396.237 144.803 396.474 145.599C396.794 146.662 396.678 147.808 396.153 148.786C395.627 149.764 394.734 150.493 393.671 150.812Z" fill="#263238"/>
    <path d="M388.355 162.379C387.56 162.62 386.712 162.62 385.917 162.378C385.122 162.137 384.417 161.665 383.891 161.022C383.365 160.379 383.042 159.595 382.962 158.768C382.882 157.941 383.049 157.11 383.443 156.378C383.836 155.647 384.437 155.048 385.171 154.659C385.905 154.27 386.737 154.107 387.564 154.191C388.39 154.275 389.173 154.603 389.812 155.133C390.452 155.662 390.921 156.37 391.158 157.166C391.475 158.229 391.358 159.374 390.833 160.351C390.307 161.328 389.417 162.058 388.355 162.379Z" fill="#263238"/>
    <path d="M359.709 132.49C356.084 136.283 356.028 147.094 366.726 149.598L376.658 130.733C370.043 127.229 362.951 129.098 359.709 132.49Z" fill="#263238"/>
    <path d="M365.686 152.579C365.167 152.388 364.743 152.001 364.506 151.501C364.269 151.001 364.238 150.428 364.419 149.905C364.6 149.382 364.979 148.952 365.475 148.706C365.97 148.459 366.543 148.418 367.069 148.589L365.686 152.579Z" fill="#263238"/>
    <path d="M335.247 242.38C336.584 215.471 334.565 208.977 327.511 203.875L324.381 219.414C324.381 219.414 327.231 237.877 326.745 243.987C326.315 249.36 325.642 256.078 324.269 260.395C324.018 261.158 323.496 261.803 322.802 262.207C320.933 263.31 320.186 264.469 318.784 265.879C317.681 266.982 316.756 267.234 316.915 267.599C317.112 267.998 317.452 268.309 317.868 268.468C318.284 268.628 318.744 268.624 319.158 268.458C320.083 268.111 320.964 267.656 321.783 267.103C321.115 268.744 320.184 270.265 319.027 271.607C316.401 274.69 316.224 276.615 321.41 276.774C324.642 276.877 327.277 274.905 329.875 267.851C330.881 265.259 331.702 262.598 332.332 259.89C333.706 252.826 335.032 246.706 335.247 242.38Z" fill="#FFA8A7"/>
    <path d="M321.521 201.698C323.732 201.353 325.996 201.735 327.971 202.789C329.946 203.842 331.526 205.509 332.471 207.538C335.358 212.985 335.882 222.244 336.022 231.438C336.022 231.438 329.939 236.297 322.838 233.681L321.521 201.698Z" fill="#277FE5"/>
    <path d="M328.259 349.999C328.792 350.223 328.913 351.26 328.941 353.316C328.941 354.876 329.24 357.604 327.409 358.1C325.578 358.595 322.905 358.268 321.803 356.773C320.383 354.904 319.43 353.278 317.402 350.989C315.636 349.008 313.73 347.158 313.057 344.449C312.459 341.982 313.057 340.926 314.721 340.253C317.047 339.319 320.598 342.608 322.392 343.159C323.905 343.598 327.717 349.784 328.259 349.999Z" fill="#263238"/>
    <path d="M328.296 348.13L328.24 350.662C327.277 351.244 326.174 351.552 325.049 351.552C323.924 351.552 322.821 351.244 321.858 350.662C321.746 350.419 321.27 347.037 321.27 347.037L328.296 348.13Z" fill="#FFA8A7"/>
    <path d="M307.441 364.099C307.441 364.099 308.114 366.313 308.469 368.247C308.74 369.779 309.132 372.34 308.571 373.479C308.011 374.619 305.899 375.348 302.666 375.208C300.573 375.152 297.275 376.497 295.014 377.693C292.753 378.889 287.866 379.338 285.427 378.992C282.559 378.59 279.616 376.852 279.177 375.657C278.737 374.461 279.382 373.227 286.231 370.49C286.296 370.49 295.724 367.63 299.088 364.08L307.441 364.099Z" fill="#263238"/>
    <path d="M307.535 361.37C307.535 361.37 307.479 363.239 307.469 364.313C307.46 365.388 306.152 366.958 302.872 366.761C300.574 366.631 298.985 365.977 299.135 364.08L299.2 361.352L307.535 361.37Z" fill="#FFA8A7"/>
    <path d="M330.697 314.606C330.232 310.13 329.328 305.711 327.997 301.412C327.997 301.412 329.155 290.079 329.866 279.334C330.594 267.71 330.426 253.088 330.716 250.191C330.716 250.191 293.342 241.782 292.407 255.18C291.473 268.579 292.818 302.833 293.127 308.775C293.435 314.718 294.341 319.931 295.35 329.537C296.359 339.142 299.209 361.38 299.209 361.38C300.495 362.065 301.929 362.424 303.386 362.424C304.843 362.424 306.277 362.065 307.562 361.38C307.562 361.38 310.805 334.563 310.683 327.743C310.587 322.683 309.83 317.657 308.431 312.793C308.431 312.793 309.366 301.73 310.235 292.106C311.104 282.482 311.851 277.867 312.103 273.681L312.916 273.298C312.916 273.298 313.365 289.939 313.682 295.853C314 301.768 314.804 307.448 316.261 318.455C317.532 328.004 321.484 348.224 321.484 348.224C325.717 350.644 328.333 348.074 328.333 348.074C328.333 348.074 331.669 322.903 330.697 314.606Z" fill="#37474F"/>
    <path d="M312.112 273.698C312.112 273.698 321.316 269.419 325.959 265.476C325.959 265.476 321.596 271.334 315.981 273.885C315.981 273.885 313.542 294.497 313.561 294.086L312.878 273.708L312.112 273.698Z" fill="#263238"/>
    <path d="M305.686 197.082L307.629 209.35L318.692 208.79L317.393 194.447L305.686 197.082Z" fill="#FFA8A7"/>
    <path d="M330.36 208.164C329.341 204.819 325.211 201.11 321.016 201.792L318.147 202.278C317.634 204.352 312.345 205.95 306.935 204.67C305.303 205.1 303.808 205.539 302.45 205.987C298.554 207.286 294.975 210.538 294.359 223.236C294.359 223.236 292.397 252.808 292.247 258.536C301.852 262.591 311.943 262.703 317.54 261.61C329.201 259.33 330.705 254.555 330.705 254.555C330.705 254.555 331.341 233.271 331.2 224.067C331.032 216.247 331.06 210.463 330.36 208.164Z" fill="#E6E6E6"/>
    <path d="M297.509 182.03C297.509 182.03 294.613 186.431 294.94 186.86C295.267 187.29 297.407 187.683 297.407 187.683L297.509 182.03Z" fill="#F28F8F"/>
    <path d="M305.573 169.864C299.714 171.097 298.014 173.676 297.462 183.001C296.883 192.737 297.883 195.792 299.163 197.11C300.023 197.988 304.825 198.147 307.245 197.484C310.272 196.652 317.121 194.223 320.326 189.327C324.064 183.562 325.091 175.75 321.055 172.508C315.346 168.042 307.946 169.359 305.573 169.864Z" fill="#FFA8A7"/>
    <path d="M296.799 172.91L296.977 173.079C298.098 174.153 299.546 174.826 300.714 175.882C302.001 177.003 302.931 178.478 303.386 180.124C303.769 181.469 303.928 183.076 305.386 183.702C305.386 183.702 306.32 180.096 309.347 180.553C312.375 181.011 312.814 184.898 310.889 187.262C308.964 189.626 307.152 188.72 307.152 188.72C307.152 188.72 307.254 193.868 309.525 196.783C309.525 196.783 312.122 197.624 316.897 196.606C319.831 195.98 323.97 192.308 325.717 188.43C329.455 180.217 329.66 172.826 324.419 170.621C323.858 166.884 320.877 165.137 317.476 164.352C312.403 163.193 307.647 166.22 302.629 165.08C301.574 164.847 300.555 164.464 299.481 164.333C299.361 164.3 299.235 164.3 299.116 164.333C298.864 164.464 298.883 164.828 298.957 165.108C299.222 166.118 299.729 167.048 300.434 167.818C298.506 167.934 296.573 167.69 294.734 167.099C294.638 168.159 294.773 169.228 295.13 170.231C295.486 171.234 296.056 172.148 296.799 172.91Z" fill="#263238"/>
    <path d="M324.54 171.845L328.053 169.78C327.917 169.55 327.738 169.348 327.524 169.187C327.311 169.026 327.067 168.908 326.808 168.841C326.549 168.774 326.28 168.758 326.015 168.795C325.75 168.832 325.495 168.921 325.264 169.056C325.033 169.192 324.831 169.372 324.67 169.585C324.509 169.799 324.391 170.042 324.324 170.301C324.257 170.56 324.241 170.83 324.278 171.095C324.315 171.36 324.404 171.615 324.54 171.845Z" fill="#263238"/>
    <path d="M305.338 185.711L305.44 181.637C304.9 181.624 304.377 181.825 303.985 182.198C303.594 182.57 303.366 183.083 303.352 183.623C303.339 184.163 303.54 184.687 303.912 185.078C304.285 185.47 304.798 185.698 305.338 185.711Z" fill="#263238"/>
    <path d="M255.239 226.935C257.042 227.776 278.065 244.062 281.401 242.296C284.736 240.53 302.33 220.937 302.33 220.937C303.816 218.74 304.637 216.162 304.697 213.511C304.757 210.86 304.052 208.248 302.667 205.987C302.667 205.987 297.163 206.874 294.192 211.144C291.221 215.414 278.485 230.682 278.485 230.682C275.458 229.087 272.443 227.468 269.441 225.823C266.965 224.468 264.479 223.114 262.059 221.665C261.389 221.332 260.761 220.918 260.191 220.432C259.004 219.208 259.256 216.321 259.331 214.751C259.347 214.014 259.4 213.278 259.49 212.546C259.611 211.612 259.836 209.453 258.201 210.117C257.89 210.26 257.62 210.478 257.416 210.752C257.153 211.076 256.947 211.442 256.808 211.836C256.481 212.77 256.556 213.826 256.257 214.779C256.225 214.92 256.154 215.05 256.052 215.153C255.98 215.211 255.898 215.254 255.81 215.28C255.722 215.306 255.629 215.313 255.538 215.302C253.183 215.181 251.025 211.827 249.988 210.051C249.616 209.204 249.01 208.481 248.24 207.968C246.97 207.342 245.437 208.164 244.503 209.304C243.457 210.811 243.001 212.65 243.223 214.471C243.382 216.931 244.42 219.252 246.147 221.011C248.817 223.491 251.892 225.495 255.239 226.935Z" fill="#FFA8A7"/>
    <path d="M304.461 205.343C302.097 205.557 298.173 205.651 294.239 209.912C289.642 214.892 283.541 223.058 283.541 223.058C284.088 225.518 285.334 227.767 287.129 229.536C288.925 231.305 291.192 232.517 293.66 233.028C293.66 233.028 301.938 224.917 304.293 220.404C306.648 215.891 307.171 208.482 304.461 205.343Z" fill="#277FE5"/>
</svg>
