<svg width="500" height="500" viewBox="0 0 500 500" fill="none" xmlns="http://www.w3.org/2000/svg">
    <path d="M500 382.4H0V382.65H500V382.4Z" fill="#EBEBEB"/>
    <path d="M449.9 398.49H435V398.74H449.9V398.49Z" fill="#EBEBEB"/>
    <path d="M331.22 401.21H322.53V401.46H331.22V401.21Z" fill="#EBEBEB"/>
    <path d="M430.78 389.21H396.59V389.46H430.78V389.21Z" fill="#EBEBEB"/>
    <path d="M109.63 394.37H66.4399V394.62H109.63V394.37Z" fill="#EBEBEB"/>
    <path d="M134.11 394.37H118.53V394.62H134.11V394.37Z" fill="#EBEBEB"/>
    <path d="M254.76 391.01H161.08V391.26H254.76V391.01Z" fill="#EBEBEB"/>
    <path d="M237 337.8H43.91C42.3973 337.797 40.9475 337.195 39.8788 336.124C38.8102 335.053 38.21 333.603 38.21 332.09V60.66C38.2231 59.156 38.8292 57.718 39.8964 56.6582C40.9637 55.5985 42.4059 55.0026 43.91 55H237C238.514 55 239.967 55.6016 241.038 56.6724C242.108 57.7433 242.71 59.1956 242.71 60.71V332.09C242.71 333.604 242.108 335.057 241.038 336.128C239.967 337.198 238.514 337.8 237 337.8ZM43.91 55.2C42.4636 55.2026 41.0774 55.7791 40.0556 56.8027C39.0338 57.8264 38.46 59.2136 38.46 60.66V332.09C38.46 333.536 39.0338 334.924 40.0556 335.947C41.0774 336.971 42.4636 337.547 43.91 337.55H237C238.447 337.547 239.834 336.971 240.858 335.948C241.881 334.924 242.457 333.537 242.46 332.09V60.66C242.457 59.2127 241.881 57.8255 240.858 56.8021C239.834 55.7787 238.447 55.2026 237 55.2H43.91Z" fill="#EBEBEB"/>
    <path d="M453.31 337.8H260.21C258.696 337.797 257.246 337.195 256.175 336.125C255.105 335.054 254.503 333.604 254.5 332.09V60.66C254.516 59.1551 255.124 57.7171 256.193 56.6576C257.262 55.5981 258.705 55.0025 260.21 55H453.31C454.812 55.0052 456.252 55.6022 457.317 56.6617C458.382 57.7212 458.987 59.1578 459 60.66V332.09C459 333.601 458.401 335.05 457.335 336.121C456.268 337.191 454.821 337.795 453.31 337.8ZM260.21 55.2C258.763 55.2026 257.375 55.7787 256.352 56.8021C255.329 57.8255 254.753 59.2127 254.75 60.66V332.09C254.753 333.537 255.329 334.924 256.352 335.948C257.375 336.971 258.763 337.547 260.21 337.55H453.31C454.757 337.547 456.145 336.971 457.168 335.948C458.191 334.924 458.767 333.537 458.77 332.09V60.66C458.767 59.2127 458.191 57.8255 457.168 56.8021C456.145 55.7787 454.757 55.2026 453.31 55.2H260.21Z" fill="#EBEBEB"/>
    <path d="M270.91 382.4H300.31V245.04H270.91V382.4Z" fill="#E6E6E6"/>
    <path d="M276.49 382.4H270.9V366.51H282.34L276.49 382.4Z" fill="#F0F0F0"/>
    <path d="M418.7 382.4H448.1V245.04H418.7V382.4Z" fill="#E6E6E6"/>
    <path d="M270.91 372.65H423.57V245.04H270.91V372.65Z" fill="#F0F0F0"/>
    <path d="M414.12 281.24H280.35C278.839 281.237 277.391 280.636 276.322 279.568C275.254 278.499 274.653 277.051 274.65 275.54V254.49C274.653 252.979 275.254 251.531 276.322 250.462C277.391 249.394 278.839 248.793 280.35 248.79H414.12C415.631 248.793 417.079 249.394 418.148 250.462C419.216 251.531 419.817 252.979 419.82 254.49V275.54C419.817 277.051 419.216 278.499 418.148 279.568C417.079 280.636 415.631 281.237 414.12 281.24ZM280.35 250C279.149 250 277.996 250.477 277.147 251.327C276.297 252.176 275.82 253.329 275.82 254.53V275.58C275.82 276.781 276.297 277.934 277.147 278.783C277.996 279.633 279.149 280.11 280.35 280.11H414.12C415.321 280.11 416.474 279.633 417.323 278.783C418.173 277.934 418.65 276.781 418.65 275.58V254.49C418.65 253.289 418.173 252.136 417.323 251.287C416.474 250.437 415.321 249.96 414.12 249.96L280.35 250Z" fill="#E6E6E6"/>
    <path d="M340.24 353.38H280.35C278.839 353.377 277.391 352.776 276.322 351.707C275.254 350.639 274.653 349.191 274.65 347.68V289.36C274.65 287.848 275.251 286.398 276.32 285.329C277.388 284.26 278.838 283.66 280.35 283.66H340.24C341.752 283.66 343.202 284.26 344.271 285.329C345.339 286.398 345.94 287.848 345.94 289.36V347.68C345.94 349.192 345.339 350.641 344.271 351.71C343.202 352.779 341.752 353.38 340.24 353.38ZM280.35 284.83C279.149 284.83 277.996 285.307 277.147 286.157C276.297 287.006 275.82 288.158 275.82 289.36V347.68C275.82 348.881 276.297 350.034 277.147 350.883C277.996 351.733 279.149 352.21 280.35 352.21H340.24C341.442 352.21 342.596 351.733 343.447 350.884C344.298 350.034 344.777 348.882 344.78 347.68V289.36C344.777 288.158 344.298 287.005 343.447 286.156C342.596 285.307 341.442 284.83 340.24 284.83H280.35Z" fill="#E6E6E6"/>
    <path d="M414.12 353.38H354.23C352.717 353.38 351.267 352.78 350.196 351.711C349.125 350.642 348.523 349.193 348.52 347.68V289.36C348.523 287.847 349.125 286.397 350.196 285.329C351.267 284.26 352.717 283.66 354.23 283.66H414.12C415.632 283.66 417.082 284.26 418.151 285.329C419.219 286.398 419.82 287.848 419.82 289.36V347.68C419.817 349.191 419.216 350.639 418.148 351.707C417.079 352.776 415.631 353.377 414.12 353.38ZM354.23 284.83C353.028 284.83 351.874 285.307 351.023 286.156C350.172 287.005 349.693 288.158 349.69 289.36V347.68C349.693 348.882 350.172 350.034 351.023 350.884C351.874 351.733 353.028 352.21 354.23 352.21H414.12C415.321 352.21 416.474 351.733 417.323 350.883C418.173 350.034 418.65 348.881 418.65 347.68V289.36C418.65 288.158 418.173 287.006 417.323 286.157C416.474 285.307 415.321 284.83 414.12 284.83H354.23Z" fill="#E6E6E6"/>
    <path d="M359.83 301C358.732 301 357.658 300.674 356.746 300.064C355.833 299.454 355.121 298.586 354.702 297.571C354.282 296.557 354.172 295.44 354.387 294.363C354.602 293.287 355.132 292.298 355.909 291.522C356.686 290.746 357.676 290.218 358.753 290.005C359.831 289.792 360.947 289.904 361.961 290.325C362.975 290.747 363.841 291.46 364.45 292.374C365.058 293.288 365.382 294.362 365.38 295.46C365.377 296.93 364.791 298.339 363.751 299.378C362.71 300.417 361.3 301 359.83 301ZM359.83 291.08C358.964 291.08 358.117 291.337 357.397 291.818C356.676 292.299 356.115 292.983 355.783 293.784C355.452 294.584 355.365 295.465 355.534 296.314C355.703 297.164 356.12 297.944 356.733 298.557C357.345 299.17 358.126 299.587 358.976 299.756C359.825 299.925 360.706 299.838 361.506 299.506C362.307 299.175 362.991 298.614 363.472 297.893C363.953 297.173 364.21 296.326 364.21 295.46C364.21 294.298 363.749 293.184 362.927 292.363C362.106 291.541 360.992 291.08 359.83 291.08Z" fill="#FAFAFA"/>
    <path d="M334.64 301C333.542 301 332.468 300.674 331.556 300.064C330.643 299.454 329.931 298.586 329.511 297.571C329.092 296.557 328.982 295.44 329.197 294.363C329.412 293.287 329.942 292.298 330.719 291.522C331.496 290.746 332.486 290.218 333.563 290.005C334.641 289.792 335.757 289.904 336.771 290.325C337.785 290.747 338.651 291.46 339.259 292.374C339.868 293.288 340.192 294.362 340.19 295.46C340.187 296.93 339.601 298.339 338.561 299.378C337.52 300.417 336.11 301 334.64 301ZM334.64 291.08C333.774 291.08 332.927 291.337 332.207 291.818C331.486 292.299 330.925 292.983 330.593 293.784C330.262 294.584 330.175 295.465 330.344 296.314C330.513 297.164 330.93 297.944 331.543 298.557C332.155 299.17 332.936 299.587 333.785 299.756C334.635 299.925 335.516 299.838 336.316 299.506C337.116 299.175 337.801 298.614 338.282 297.893C338.763 297.173 339.02 296.326 339.02 295.46C339.02 294.298 338.558 293.184 337.737 292.363C336.916 291.541 335.802 291.08 334.64 291.08Z" fill="#FAFAFA"/>
    <path d="M417.98 382.4H423.57V366.51H412.13L417.98 382.4Z" fill="#F0F0F0"/>
    <path d="M346.58 270.79C345.482 270.79 344.409 270.464 343.497 269.855C342.584 269.245 341.873 268.378 341.453 267.364C341.032 266.35 340.923 265.234 341.137 264.157C341.351 263.081 341.879 262.092 342.656 261.316C343.432 260.539 344.421 260.011 345.497 259.797C346.574 259.582 347.69 259.692 348.704 260.112C349.718 260.532 350.585 261.244 351.195 262.157C351.805 263.069 352.13 264.142 352.13 265.24C352.127 266.711 351.542 268.121 350.502 269.161C349.461 270.202 348.051 270.787 346.58 270.79ZM346.58 260.86C345.714 260.86 344.867 261.117 344.147 261.598C343.426 262.079 342.865 262.763 342.533 263.564C342.202 264.364 342.115 265.245 342.284 266.094C342.453 266.944 342.87 267.725 343.483 268.337C344.095 268.95 344.876 269.367 345.726 269.536C346.575 269.705 347.456 269.618 348.256 269.287C349.057 268.955 349.741 268.394 350.222 267.673C350.703 266.953 350.96 266.106 350.96 265.24C350.957 264.079 350.495 262.967 349.674 262.146C348.853 261.325 347.741 260.863 346.58 260.86Z" fill="#FAFAFA"/>
    <path d="M277.14 155.9L424.3 155.9V98.0799L277.14 98.0799V155.9Z" fill="#F0F0F0"/>
    <path d="M421.51 152.74V101.23L279.95 101.23V152.74H421.51Z" fill="#E6E6E6"/>
    <path d="M373.41 155.25H376.21V98.72H373.41V155.25Z" fill="#F0F0F0"/>
    <path d="M391.72 101.23H376.22V152.74H391.72V101.23Z" fill="#E0E0E0"/>
    <path d="M343.64 101.23H328.14V152.74H343.64V101.23Z" fill="#E0E0E0"/>
    <path d="M295.44 101.23H279.94V152.74H295.44V101.23Z" fill="#E0E0E0"/>
    <path d="M325.33 155.25H328.13V98.72H325.33V155.25Z" fill="#F0F0F0"/>
    <path d="M438.23 98.0701H424.3V155.89H438.23V98.0701Z" fill="#E6E6E6"/>
    <path d="M385.83 152.74H411.63L405.57 108.81H379.77L385.83 152.74Z" fill="#EBEBEB"/>
    <path d="M335.39 152.74H361.2L356.72 108.81H330.92L335.39 152.74Z" fill="#F5F5F5"/>
    <path d="M347.73 152.74H371.2L361.32 112.78H337.85L347.73 152.74Z" fill="#E0E0E0"/>
    <path d="M395.7 152.74H421.5V105.27H395.7V152.74Z" fill="#F5F5F5"/>
    <path d="M285.61 152.74H311.41V105.27H285.61V152.74Z" fill="#F5F5F5"/>
    <path d="M303.87 152.74H323.87L316.92 112.78H296.92L303.87 152.74Z" fill="#E0E0E0"/>
    <path d="M313.82 152.74H325.33V115.69H302.83L313.82 152.74Z" fill="#F5F5F5"/>
    <path d="M285.6 152.74H291.48V105.27H285.6V152.74Z" fill="#FAFAFA"/>
    <path d="M403.13 149.19C403.337 149.19 403.535 149.108 403.681 148.962C403.828 148.815 403.91 148.617 403.91 148.41V109.59C403.91 109.383 403.828 109.185 403.681 109.039C403.535 108.892 403.337 108.81 403.13 108.81C403.028 108.81 402.927 108.83 402.833 108.87C402.739 108.909 402.654 108.967 402.582 109.039C402.51 109.112 402.454 109.198 402.416 109.292C402.378 109.387 402.359 109.488 402.36 109.59V148.41C402.359 148.512 402.378 148.613 402.416 148.708C402.454 148.802 402.51 148.888 402.582 148.961C402.654 149.034 402.739 149.091 402.833 149.131C402.927 149.17 403.028 149.19 403.13 149.19Z" fill="#F0F0F0"/>
    <path d="M400.52 217.41C403.25 204.35 405.15 183.15 403.68 176.07C403.63 175.82 403.34 175.6 402.91 175.45C401.64 175.02 399.85 175.45 399.91 176.18C400.17 179.7 400.47 188.47 398.85 203.62C398.04 211.16 396.85 216.32 397.68 217.41H400.52Z" fill="#F0F0F0"/>
    <path d="M408.35 189.32C414.59 185.61 427.48 182.68 440.71 182.23C445.9 182.06 425.05 186.84 416.46 191.61C409.8 195.32 402.34 201.42 399.85 204.75C401.31 197.87 402.11 193 408.35 189.32Z" fill="#F0F0F0"/>
    <path d="M395.29 188.52C388.83 184.37 373.93 181.18 357.81 180.82C351.48 180.67 375.56 185.88 384.55 191.22C391.55 195.37 398.69 202.22 400.66 206.01C401.13 198.19 401.75 192.67 395.29 188.52Z" fill="#F0F0F0"/>
    <path d="M407.92 177.11C412.85 174.02 423.72 171.48 435.24 170.96C439.77 170.75 422.19 174.89 415.37 178.88C410.07 181.98 404.44 187.04 402.74 189.79C403 184.17 403 180.2 407.92 177.11Z" fill="#F0F0F0"/>
    <path d="M398 177.74C392.53 174.23 379.91 171.52 366.26 171.22C360.9 171.1 381.26 175.51 388.9 180.03C394.81 183.54 400.9 189.36 402.55 192.55C402.94 185.93 403.46 181.26 398 177.74Z" fill="#F0F0F0"/>
    <path d="M404.61 203.27C408.17 200.94 416.16 198.97 424.71 198.51C428.06 198.33 415.14 201.51 410.21 204.51C406.37 206.85 402.35 210.65 401.21 212.7C401.19 208.54 401.06 205.6 404.61 203.27Z" fill="#F0F0F0"/>
    <path d="M398.15 202C395.06 199.68 387.41 197.73 378.89 197.26C375.54 197.08 387.89 200.26 392.23 203.26C395.6 205.58 398.84 209.35 399.58 211.38C400.46 207.19 401.24 204.27 398.15 202Z" fill="#F0F0F0"/>
    <path d="M399.37 245C406.17 245 411.8 243.2 412.19 234.63L413.32 209.84H385.42L386.55 234.63C386.94 243.24 392.56 245 399.37 245Z" fill="#E6E6E6"/>
    <path d="M64.97 352.7H218.89L218.89 80.7699H64.97L64.97 352.7Z" fill="#E6E6E6"/>
    <path d="M48.48 75.51H228.86C229.258 75.5124 229.64 75.6689 229.925 75.9467C230.21 76.2245 230.377 76.602 230.39 77C230.387 77.405 230.225 77.7926 229.939 78.079C229.653 78.3654 229.265 78.5274 228.86 78.53H48.48C48.0838 78.5146 47.7088 78.3469 47.4331 78.0619C47.1574 77.7769 47.0023 77.3965 47 77C47.0124 76.6105 47.172 76.2401 47.4466 75.9636C47.7213 75.6871 48.0906 75.525 48.48 75.51Z" fill="#E6E6E6"/>
    <path d="M58.44 352.7H215.84L215.84 80.7699H58.44L58.44 352.7Z" fill="#F0F0F0"/>
    <path d="M206.7 343.55L206.7 89.9099L67.5899 89.9099L67.5899 343.55H206.7Z" fill="#FAFAFA"/>
    <path d="M175.12 343.56L121.45 89.9099H96.12L149.79 343.56H175.12Z" fill="white"/>
    <path d="M144.34 343.56L90.68 89.9099H80.8L134.47 343.56H144.34Z" fill="white"/>
    <path d="M68.75 343.55L68.75 89.9099H67.59L67.59 343.55H68.75Z" fill="#E6E6E6"/>
    <g opacity="0.6">
        <path opacity="0.6" d="M210.47 372.32H229.8L226.74 72.78H207.41L210.47 372.32Z" fill="#F0F0F0"/>
        <path opacity="0.6" d="M202.95 372.32H218L214.94 72.78H199.88L202.95 372.32Z" fill="#E6E6E6"/>
        <path opacity="0.6" d="M191.15 372.32H210.47L207.41 72.78H188.08L191.15 372.32Z" fill="#F0F0F0"/>
        <path opacity="0.6" d="M183.62 372.32H198.68L195.61 72.78H180.55L183.62 372.32Z" fill="#E6E6E6"/>
        <path opacity="0.6" d="M171.82 372.32H191.15L188.08 72.78H168.75L171.82 372.32Z" fill="#F0F0F0"/>
    </g>
    <g opacity="0.6">
        <path opacity="0.6" d="M61.63 372.32H50.71L49.25 72.78H60.17L61.63 372.32Z" fill="#F0F0F0"/>
        <path opacity="0.6" d="M65.89 372.32H57.38L55.91 72.78H64.42L65.89 372.32Z" fill="#E6E6E6"/>
        <path opacity="0.6" d="M72.56 372.32H61.63L60.17 72.78H71.09L72.56 372.32Z" fill="#F0F0F0"/>
        <path opacity="0.6" d="M76.81 372.32H68.3L66.84 72.78H75.34L76.81 372.32Z" fill="#E6E6E6"/>
        <path opacity="0.6" d="M83.48 372.32H72.56L71.09 72.78H82.01L83.48 372.32Z" fill="#F0F0F0"/>
    </g>
    <path d="M250 427.56C357.082 427.56 443.89 422.492 443.89 416.24C443.89 409.988 357.082 404.92 250 404.92C142.917 404.92 56.11 409.988 56.11 416.24C56.11 422.492 142.917 427.56 250 427.56Z" fill="#F5F5F5"/>
    <path d="M202.57 171.08H193.8C193.585 171.078 193.378 170.994 193.222 170.846C193.066 170.697 192.973 170.495 192.96 170.28L192.19 152.28C192.185 152.176 192.2 152.071 192.237 151.973C192.273 151.875 192.329 151.785 192.401 151.709C192.473 151.634 192.56 151.573 192.656 151.532C192.752 151.491 192.855 151.47 192.96 151.47H201.72C201.937 151.472 202.145 151.557 202.301 151.708C202.457 151.859 202.55 152.063 202.56 152.28L203.34 170.28C203.345 170.384 203.33 170.488 203.293 170.585C203.257 170.683 203.201 170.772 203.129 170.847C203.056 170.922 202.97 170.981 202.873 171.022C202.777 171.062 202.674 171.081 202.57 171.08Z" fill="#277FE5"/>
    <path d="M196.21 355.65H88.51C85.8587 355.618 83.3186 354.58 81.4042 352.746C79.4898 350.911 78.3444 348.417 78.2 345.77L68.7 124.45C68.636 123.171 68.8337 121.892 69.2809 120.691C69.7281 119.491 70.4155 118.394 71.3009 117.469C72.1864 116.543 73.2514 115.807 74.4307 115.307C75.61 114.807 76.879 114.553 78.16 114.56H185.86C188.512 114.594 191.052 115.634 192.966 117.471C194.881 119.307 196.026 121.801 196.17 124.45L205.67 345.77C205.732 347.049 205.534 348.326 205.086 349.526C204.638 350.725 203.951 351.82 203.065 352.745C202.18 353.669 201.115 354.404 199.937 354.903C198.758 355.403 197.49 355.657 196.21 355.65Z" fill="#263238"/>
    <path d="M88.68 183.64H71.15C70.7135 183.633 70.2964 183.459 69.984 183.154C69.6717 182.849 69.4878 182.436 69.47 182L67.93 146C67.919 145.792 67.9509 145.583 68.0235 145.387C68.0961 145.192 68.208 145.013 68.3522 144.862C68.4965 144.712 68.67 144.592 68.8622 144.511C69.0545 144.429 69.2613 144.388 69.47 144.39H87C87.4304 144.397 87.8423 144.567 88.1522 144.866C88.4622 145.165 88.6472 145.57 88.67 146L90.22 182C90.2337 182.21 90.204 182.421 90.1327 182.62C90.0615 182.819 89.9502 183 89.8058 183.154C89.6614 183.308 89.487 183.43 89.2933 183.514C89.0997 183.597 88.8909 183.64 88.68 183.64Z" fill="#263238"/>
    <path d="M209.41 263.792L208.411 263.835L208.756 271.847L209.755 271.804L209.41 263.792Z" fill="#277FE5"/>
    <path d="M207.851 227.455L206.852 227.498L208.006 254.343L209.005 254.3L207.851 227.455Z" fill="#277FE5"/>
    <path d="M200 355.65H92.2599C89.6173 355.606 87.0896 354.562 85.1859 352.729C83.2821 350.895 82.1437 348.409 81.9999 345.77L72.4999 124.45C72.436 123.171 72.6336 121.892 73.0809 120.691C73.5281 119.491 74.2154 118.394 75.1009 117.469C75.9863 116.543 77.0513 115.807 78.2306 115.307C79.41 114.807 80.6789 114.553 81.9599 114.56H189.66C192.312 114.592 194.852 115.632 196.765 117.469C198.678 119.305 199.82 121.802 199.96 124.45L209.46 345.77C209.524 347.049 209.326 348.327 208.879 349.527C208.432 350.727 207.744 351.823 206.858 352.748C205.973 353.673 204.908 354.407 203.728 354.906C202.549 355.405 201.28 355.658 200 355.65Z" fill="#277FE5"/>
    <path d="M200 351.72H92.2599C90.6229 351.686 89.0584 351.037 87.8768 349.904C86.6951 348.77 85.9824 347.234 85.8799 345.6L76.3799 124.28C76.3388 123.531 76.4518 122.782 76.7119 122.079C76.972 121.376 77.3737 120.733 77.8921 120.191C78.4104 119.65 79.0345 119.22 79.7256 118.929C80.4167 118.638 81.1602 118.492 81.9099 118.5H189.61C191.246 118.537 192.809 119.186 193.991 120.319C195.172 121.452 195.885 122.987 195.99 124.62L205.49 345.94C205.53 346.688 205.416 347.437 205.155 348.14C204.894 348.842 204.493 349.484 203.974 350.026C203.456 350.567 202.833 350.997 202.143 351.288C201.452 351.58 200.709 351.727 199.96 351.72H200ZM81.9999 119.21C81.3495 119.202 80.7044 119.328 80.1043 119.579C79.5041 119.83 78.9617 120.201 78.5102 120.669C78.0588 121.138 77.7079 121.693 77.4791 122.302C77.2503 122.911 77.1485 123.56 77.1799 124.21L86.6799 345.53C86.7612 346.973 87.3784 348.334 88.4106 349.346C89.4427 350.358 90.8155 350.948 92.2599 351H200C200.65 351.008 201.295 350.882 201.894 350.631C202.494 350.38 203.036 350.009 203.486 349.54C203.937 349.072 204.287 348.516 204.515 347.907C204.742 347.298 204.843 346.649 204.81 346L195.31 124.68C195.22 123.229 194.588 121.864 193.54 120.857C192.492 119.849 191.104 119.272 189.65 119.24L81.9999 119.21Z" fill="white"/>
    <path opacity="0.1" d="M124.12 355.65L142.49 114.56H171.08L152.71 355.65H124.12Z" fill="white"/>
    <path opacity="0.1" d="M102.52 355.65L120.89 114.56H135.37L117.01 355.65H102.52Z" fill="white"/>
    <path d="M189.2 165C190.744 165.325 192.235 165.864 193.63 166.6C195.002 167.289 196.317 168.088 197.56 168.99L205.04 174.3C210.04 177.8 214.94 181.41 219.85 184.4C221.08 185.15 222.29 185.82 223.46 186.4C224.03 186.7 224.67 186.98 225.09 187.2C225.185 187.321 225.296 187.429 225.42 187.52C225.957 187.756 226.563 187.785 227.12 187.6C228.138 187.343 229.112 186.935 230.01 186.39C234.23 183.93 238.59 179.3 242.07 174.79L242.23 174.58C242.838 173.856 243.683 173.37 244.615 173.21C245.548 173.049 246.506 173.225 247.322 173.704C248.137 174.184 248.756 174.937 249.069 175.829C249.381 176.722 249.368 177.697 249.03 178.58C248.31 180.26 247.62 181.7 246.84 183.22C246.06 184.74 245.23 186.22 244.3 187.64C242.415 190.735 240.129 193.566 237.5 196.06C235.954 197.506 234.226 198.743 232.36 199.74C230.067 200.971 227.521 201.656 224.92 201.74C223.475 201.78 222.031 201.618 220.63 201.26C219.56 200.97 218.73 200.72 217.84 200.43C216.1 199.85 214.45 199.23 212.84 198.58C206.728 196.059 200.794 193.126 195.08 189.8C192.28 188.18 189.55 186.48 186.84 184.73C185.478 183.844 184.196 182.84 183.01 181.73C181.78 180.634 180.7 179.38 179.8 178C178.927 176.582 178.484 174.942 178.523 173.277C178.563 171.612 179.084 169.995 180.023 168.619C180.962 167.244 182.279 166.171 183.816 165.529C185.352 164.886 187.042 164.703 188.68 165H189.2Z" fill="#803E3C"/>
    <path d="M241.61 175.73L245.54 169.87C246.354 168.655 247.422 167.632 248.67 166.87L251.76 164.98C252.124 164.756 252.529 164.607 252.951 164.542C253.373 164.477 253.804 164.496 254.218 164.6C254.633 164.703 255.022 164.888 255.364 165.144C255.706 165.4 255.994 165.722 256.21 166.09L258.21 169.5C258.595 170.158 258.733 170.931 258.602 171.682C258.47 172.433 258.076 173.112 257.49 173.6L253.91 176.6C253.91 176.6 248.39 183.01 244.51 180.6L241.61 175.73Z" fill="#7F3E3B"/>
    <path d="M250.203 185.037C255.785 182.725 258.436 176.326 256.124 170.744C253.811 165.162 247.412 162.511 241.83 164.823C236.248 167.135 233.597 173.535 235.909 179.117C238.221 184.699 244.621 187.35 250.203 185.037Z" fill="#263238"/>
    <path d="M247.14 161.9H244.89V166.51H247.14V161.9Z" fill="#263238"/>
    <path d="M248.32 161.75V161.18C248.32 160.716 247.944 160.34 247.48 160.34H244.55C244.086 160.34 243.71 160.716 243.71 161.18V161.75C243.71 162.214 244.086 162.59 244.55 162.59H247.48C247.944 162.59 248.32 162.214 248.32 161.75Z" fill="#263238"/>
    <path d="M255.239 177.102C256.443 172.001 253.284 166.889 248.183 165.686C243.082 164.482 237.971 167.641 236.767 172.742C235.563 177.843 238.722 182.954 243.823 184.158C248.924 185.362 254.035 182.203 255.239 177.102Z" fill="white"/>
    <path d="M247.89 173.68C248.136 174.053 248.267 174.491 248.265 174.938C248.262 175.385 248.128 175.821 247.877 176.191C247.627 176.562 247.272 176.85 246.859 177.019C246.445 177.188 245.99 177.23 245.552 177.14C245.114 177.051 244.712 176.833 244.398 176.516C244.083 176.198 243.87 175.794 243.786 175.355C243.701 174.916 243.748 174.462 243.922 174.05C244.095 173.638 244.387 173.286 244.76 173.04C245.26 172.71 245.87 172.592 246.457 172.712C247.044 172.832 247.56 173.18 247.89 173.68Z" fill="#263238"/>
    <path d="M241.37 167.94C242.127 170.272 243.193 172.491 244.54 174.54L246.22 173.42C244.861 171.38 243.229 169.536 241.37 167.94Z" fill="#263238"/>
    <path d="M139.93 165.26L165.16 160.93L186.61 164.45C191.11 165.19 194.44 168.45 194.74 174.03C195.99 197.8 192.13 208.75 191.46 246.3C189.89 246.3 143.46 247.09 143.46 247.09C144.6 226.7 134.1 201.16 131.88 175.67C131.67 173.241 132.381 170.822 133.873 168.893C135.364 166.965 137.526 165.668 139.93 165.26Z" fill="#263238"/>
    <path d="M154.05 140C154.52 146.56 154.76 155.18 152.96 163C151.26 165.25 160.96 168.44 170.8 168.94C177.41 166.31 176.8 164 174.88 162.5C167.34 161.27 169.11 153.92 170.23 148.63L154.05 140Z" fill="#7F3E3B"/>
    <path opacity="0.2" d="M169.52 148.28L170.23 148.66C169.681 150.856 169.346 153.099 169.23 155.36C165.82 155.36 162.28 154.36 160.42 152.27C159.094 150.851 158.04 149.2 157.31 147.4L169.52 148.28Z" fill="black"/>
    <path opacity="0.2" d="M136.89 173.92C138.8 174.74 142.06 179.98 141.75 185.55C141.543 191.27 139.627 196.798 136.25 201.42C134.72 194.53 133.31 187.52 132.43 180.47L136.89 173.92Z" fill="black"/>
    <path d="M151.68 132C153.12 141 153.51 146.3 158.52 150.45C166.07 156.68 176.82 151.35 178.09 142.11C179.23 133.78 176.68 120.51 167.49 117.87C165.454 117.283 163.303 117.223 161.237 117.694C159.172 118.166 157.259 119.153 155.68 120.565C154.1 121.977 152.904 123.767 152.205 125.767C151.505 127.767 151.325 129.911 151.68 132Z" fill="#7F3E3B"/>
    <path d="M154.42 141.61C158.67 139.71 161.03 130.33 155.42 126.99C159.03 126.66 165.42 124.31 165.56 122.53C170.36 124.13 174.32 124.62 175.2 121.97C176.64 117.62 174.72 112.97 172.01 110.24C171.37 112.55 164.69 113.87 160.09 112.36C152.39 109.84 144.52 111.95 147.09 118.36C137.85 121.69 144.18 133.77 154.42 141.61Z" fill="#263238"/>
    <path d="M175.42 124.32C168.63 124.96 151.86 129.23 146.48 132.51C146.365 132.584 146.232 132.623 146.095 132.623C145.958 132.623 145.825 132.584 145.71 132.51C144.338 131.435 143.433 129.874 143.18 128.15C143.18 126.59 169.71 119.03 175.68 118.75C175.831 118.739 175.981 118.779 176.108 118.862C176.234 118.945 176.33 119.067 176.38 119.21C176.739 120.768 176.61 122.398 176.01 123.88C175.962 124.001 175.882 124.106 175.777 124.184C175.673 124.262 175.549 124.309 175.42 124.32Z" fill="white"/>
    <path d="M148.13 140.63C148.632 141.651 149.332 142.56 150.191 143.306C151.05 144.051 152.049 144.617 153.13 144.97C156 145.92 157.6 143.38 156.94 140.59C156.35 138.09 154.13 134.59 151.18 134.84C148.23 135.09 146.93 138.11 148.13 140.63Z" fill="#7F3E3B"/>
    <path d="M191.35 246.3C191.35 246.3 191.85 313.09 189.1 340.76C188.77 344.05 188.49 347.6 188.25 351.36H164.6C164.72 346.43 165.02 341.71 165.53 337.28C165.13 322.41 162.14 307.59 159.31 294.45C154.15 270.57 154.86 246.92 154.86 246.92L174.99 246.56L191.35 246.3Z" fill="white"/>
    <path opacity="0.2" d="M166.82 274.61C164.93 269.41 160.89 274.69 157.08 281.89C157.66 285.98 158.4 290.21 159.31 294.45C161.666 304.747 163.476 315.162 164.73 325.65C169.36 314.68 170.58 285 166.82 274.61Z" fill="black"/>
    <path d="M165.37 133.11C165.44 133.84 165.89 134.39 166.37 134.34C166.85 134.29 167.18 133.65 167.11 132.92C167.04 132.19 166.59 131.63 166.11 131.68C165.63 131.73 165.3 132.37 165.37 133.11Z" fill="#263238"/>
    <path d="M175 132.34C175.07 133.07 175.52 133.63 176 133.58C176.48 133.53 176.81 132.89 176.74 132.15C176.67 131.41 176.22 130.86 175.74 130.91C175.26 130.96 174.89 131.6 175 132.34Z" fill="#263238"/>
    <path d="M171.34 132.85C172.437 135.005 173.827 136.997 175.47 138.77C174.29 140.12 172.02 139.77 172.02 139.77L171.34 132.85Z" fill="#630F0F"/>
    <path d="M169.11 142.1C168.28 142.089 167.461 141.905 166.705 141.561C165.949 141.216 165.274 140.719 164.72 140.1C164.679 140.059 164.656 140.003 164.656 139.945C164.656 139.887 164.679 139.831 164.72 139.79C164.762 139.751 164.818 139.73 164.875 139.73C164.932 139.73 164.988 139.751 165.03 139.79C165.661 140.463 166.445 140.976 167.315 141.284C168.185 141.592 169.116 141.686 170.03 141.56C170.087 141.554 170.144 141.571 170.188 141.606C170.233 141.642 170.262 141.693 170.27 141.75C170.273 141.779 170.27 141.808 170.261 141.836C170.253 141.864 170.239 141.889 170.22 141.912C170.201 141.934 170.179 141.952 170.153 141.966C170.127 141.979 170.099 141.988 170.07 141.99C169.753 142.051 169.432 142.088 169.11 142.1Z" fill="#263238"/>
    <path d="M163.21 129.8C163.136 129.799 163.063 129.778 163 129.74C162.951 129.711 162.909 129.673 162.875 129.627C162.841 129.582 162.817 129.53 162.804 129.475C162.791 129.42 162.789 129.363 162.799 129.307C162.808 129.251 162.829 129.198 162.86 129.15C163.203 128.55 163.686 128.041 164.267 127.667C164.849 127.293 165.512 127.064 166.2 127C166.256 126.997 166.313 127.006 166.366 127.025C166.419 127.044 166.468 127.074 166.51 127.112C166.552 127.15 166.586 127.196 166.61 127.247C166.634 127.298 166.647 127.354 166.65 127.41C166.653 127.525 166.61 127.637 166.532 127.721C166.453 127.805 166.345 127.855 166.23 127.86C165.686 127.925 165.165 128.116 164.709 128.418C164.252 128.72 163.872 129.125 163.6 129.6C163.558 129.665 163.5 129.717 163.432 129.752C163.363 129.787 163.287 129.804 163.21 129.8Z" fill="#263238"/>
    <path d="M177.09 128.19C177.02 128.197 176.949 128.185 176.884 128.157C176.82 128.129 176.763 128.086 176.72 128.03C176.397 127.591 175.973 127.236 175.484 126.996C174.995 126.756 174.455 126.637 173.91 126.65C173.795 126.658 173.681 126.621 173.593 126.546C173.505 126.471 173.45 126.365 173.44 126.25C173.434 126.135 173.472 126.023 173.547 125.936C173.621 125.848 173.726 125.793 173.84 125.78C174.527 125.761 175.208 125.906 175.827 126.203C176.447 126.501 176.986 126.942 177.4 127.49C177.47 127.581 177.502 127.695 177.489 127.809C177.476 127.923 177.419 128.028 177.33 128.1C177.258 128.149 177.176 128.18 177.09 128.19Z" fill="#263238"/>
    <path d="M177.11 246.56C177.11 246.56 170.61 269.56 164.79 294.45C160.9 311.05 156.58 328.16 153.79 339.14C152.847 343.3 151.596 347.385 150.05 351.36H126C127.222 346.16 128.86 341.067 130.9 336.13C137.25 294.93 137.42 255.76 143.52 246.56H177.11Z" fill="white"/>
    <path d="M191.57 242.35L143.21 243.46C143.139 243.461 143.069 243.477 143.004 243.505C142.939 243.533 142.88 243.574 142.831 243.625C142.782 243.676 142.743 243.736 142.717 243.803C142.691 243.869 142.679 243.939 142.68 244.01V247.17C142.679 247.243 142.692 247.315 142.719 247.382C142.746 247.449 142.787 247.511 142.838 247.562C142.889 247.613 142.95 247.654 143.018 247.681C143.085 247.708 143.157 247.721 143.23 247.72L191.34 247.41C191.477 247.408 191.609 247.354 191.709 247.26C191.809 247.165 191.87 247.037 191.88 246.9L192.12 242.9C192.121 242.827 192.108 242.755 192.081 242.688C192.054 242.621 192.013 242.559 191.962 242.508C191.91 242.457 191.849 242.416 191.782 242.389C191.715 242.362 191.643 242.349 191.57 242.35Z" fill="white"/>
    <path d="M137.41 237L144.41 236.48C145.874 236.371 147.344 236.579 148.72 237.09L152.11 238.35C152.511 238.499 152.878 238.727 153.19 239.021C153.501 239.314 153.751 239.667 153.924 240.058C154.098 240.449 154.191 240.872 154.199 241.299C154.207 241.727 154.129 242.153 153.97 242.55L152.52 246.23C152.248 246.947 151.728 247.542 151.055 247.909C150.382 248.276 149.6 248.39 148.85 248.23L144.31 247.23C144.31 247.23 135.86 246.84 135.31 242.31L137.41 237Z" fill="#7F3E3B"/>
    <path d="M147.8 177.2C147.146 180.501 145.781 183.62 143.8 186.34L138.4 194.58L133 202.71C131.24 205.39 129.5 208.13 128.15 210.65C127.82 211.27 127.52 211.86 127.27 212.37L127.12 212.71L127.05 212.86V212.94C127.05 212.94 127.05 212.89 127.05 212.87C127.05 212.55 127.05 212.43 126.99 212.38C126.93 212.33 126.85 212.62 126.9 213.05C126.972 213.585 127.086 214.113 127.24 214.63C128.164 217.419 129.384 220.101 130.88 222.63C132.42 225.37 134.14 228.12 135.95 230.82C137.76 233.52 139.67 236.26 141.6 238.82V238.9C142.131 239.693 142.362 240.649 142.25 241.597C142.138 242.544 141.691 243.421 140.99 244.068C140.289 244.715 139.379 245.09 138.425 245.125C137.472 245.16 136.537 244.854 135.79 244.26C130.537 239.668 125.633 234.691 121.12 229.37C118.655 226.476 116.5 223.333 114.69 219.99C114.167 218.976 113.716 217.927 113.34 216.85C112.851 215.474 112.555 214.037 112.46 212.58C112.403 211.576 112.47 210.568 112.66 209.58L112.74 209.2V208.98L112.85 208.53C112.92 208.24 112.99 207.91 113.07 207.67C113.36 206.59 113.68 205.67 113.99 204.67C115.28 201.04 116.65 197.84 118.08 194.67C119.51 191.5 121.08 188.4 122.61 185.35C124.14 182.3 125.86 179.35 127.61 176.41C128.437 174.918 129.391 173.5 130.46 172.17C131.562 170.781 132.863 169.561 134.32 168.55C135.723 167.605 137.372 167.089 139.064 167.067C140.756 167.046 142.417 167.518 143.844 168.427C145.271 169.336 146.402 170.642 147.098 172.184C147.793 173.727 148.023 175.439 147.76 177.11L147.8 177.2Z" fill="#803E3C"/>
    <path d="M336.23 269.78C339.608 272.991 342.787 276.404 345.75 280C347.22 281.83 348.68 283.71 350.02 285.76C350.7 286.76 351.35 287.86 352.02 289.03C352.716 290.297 353.267 291.639 353.66 293.03C353.924 293.997 354.039 294.999 354 296C353.94 296.866 353.792 297.724 353.56 298.56C353.184 299.861 352.692 301.126 352.09 302.34C351.009 304.509 349.769 306.594 348.38 308.58C345.737 312.397 342.783 315.989 339.55 319.32C339.153 319.728 338.621 319.977 338.053 320.02C337.486 320.064 336.922 319.899 336.467 319.557C336.013 319.215 335.698 318.719 335.582 318.162C335.467 317.605 335.559 317.025 335.84 316.53V316.47C338.03 312.66 340.23 308.76 342.16 304.91C343.104 303.051 343.945 301.141 344.68 299.19C344.986 298.35 345.227 297.487 345.4 296.61L345.47 296.09V295.83C345.47 295.92 345.42 295.71 345.32 295.46C345.024 294.726 344.662 294.02 344.24 293.35C343.75 292.55 343.19 291.73 342.58 290.91C341.36 289.28 340.01 287.63 338.58 286.02C335.76 282.8 332.69 279.57 329.68 276.54L329.62 276.48C328.761 275.601 328.28 274.42 328.281 273.191C328.282 271.962 328.764 270.782 329.625 269.904C330.486 269.026 331.656 268.521 332.885 268.496C334.114 268.471 335.304 268.928 336.2 269.77L336.23 269.78Z" fill="#FFB573"/>
    <path d="M336.92 315.24L327.69 318.88L337.11 322.41C337.11 322.41 340.87 320.12 340.56 316.31L336.92 315.24Z" fill="#FFB573"/>
    <path d="M327.71 324.6L331.2 326.24C331.647 326.449 332.149 326.514 332.635 326.424C333.121 326.335 333.567 326.095 333.91 325.74L337.11 322.41L327.69 318.88L326.55 321.53C326.31 322.092 326.296 322.726 326.513 323.298C326.729 323.87 327.158 324.337 327.71 324.6Z" fill="#FFB573"/>
    <path d="M320.41 247.35C319.34 252.81 318.28 262.8 322.09 266.43C322.09 266.43 318.87 275.36 306.92 277.02C300.17 271.44 305.15 266.43 305.15 266.43C311.23 264.98 311.07 260.43 310.01 256.24L320.41 247.35Z" fill="#FFB573"/>
    <path d="M288.54 274.94C288.39 281.6 289.32 295.45 294.01 324.24H331.32C330.74 310.18 330.06 300.98 335.73 274.94C335.92 274.074 335.929 273.178 335.755 272.308C335.582 271.439 335.23 270.614 334.721 269.888C334.213 269.161 333.559 268.548 332.801 268.087C332.044 267.626 331.199 267.328 330.32 267.21C327.91 266.88 325.07 266.58 322.09 266.43C316.45 266.03 310.79 266.03 305.15 266.43C301.5 266.77 297.6 267.36 294.63 267.86C292.949 268.146 291.421 269.01 290.309 270.303C289.197 271.595 288.572 273.235 288.54 274.94Z" fill="#263238"/>
    <path d="M302.52 234.65C302.27 235.34 301.7 235.78 301.24 235.65C300.78 235.52 300.62 234.78 300.87 234.09C301.12 233.4 301.69 232.95 302.14 233.09C302.59 233.23 302.77 234 302.52 234.65Z" fill="#263238"/>
    <path d="M302.33 233.2L300.83 232.12C300.83 232.12 301.22 233.73 302.33 233.2Z" fill="#263238"/>
    <path d="M301 236.44C299.983 237.934 298.765 239.28 297.38 240.44C297.687 240.787 298.066 241.063 298.491 241.248C298.916 241.433 299.377 241.522 299.84 241.51L301 236.44Z" fill="#ED893E"/>
    <path d="M303.14 228.93C303.118 228.88 303.107 228.825 303.107 228.77C303.107 228.715 303.118 228.66 303.14 228.61C303.188 228.507 303.275 228.426 303.382 228.387C303.488 228.348 303.607 228.352 303.71 228.4C304.343 228.679 304.9 229.106 305.334 229.646C305.767 230.185 306.064 230.821 306.2 231.5C306.216 231.614 306.186 231.73 306.116 231.822C306.047 231.913 305.944 231.974 305.83 231.99C305.716 232.006 305.6 231.976 305.508 231.906C305.416 231.837 305.356 231.734 305.34 231.62C305.226 231.084 304.985 230.583 304.637 230.16C304.289 229.737 303.844 229.405 303.34 229.19C303.242 229.133 303.17 229.04 303.14 228.93Z" fill="#263238"/>
    <path d="M326.89 240.38C323.3 248.76 321.97 252.38 316.07 255.24C307.19 259.54 297.68 253.3 298.69 244.02C299.59 235.66 305.3 223.35 314.91 222.93C317.028 222.828 319.138 223.269 321.038 224.211C322.938 225.154 324.565 226.566 325.766 228.315C326.966 230.063 327.699 232.089 327.896 234.201C328.093 236.313 327.747 238.44 326.89 240.38Z" fill="#FFB573"/>
    <path d="M306.72 238.52C304.67 234.35 306.94 231.11 309.24 229.52C308.5 227.29 306.16 228.03 305.85 226.02C305.54 224.01 304.99 218.18 311.99 220.4C313.05 217.12 323.86 217.71 326.51 219.91C336.71 214.05 330.68 201 344.42 204.19C354.17 206.46 353.24 216.48 362.04 222.1C376.97 231.64 359.84 239.01 354.7 254.29C350.78 265.94 330.62 255.9 329.83 245.43C326.7 242.6 327.93 255.16 316.89 254.82C308.31 254.57 301.45 245.2 306.72 238.52Z" fill="#263238"/>
    <path d="M328.07 247.81C327.76 247.81 327.453 247.75 327.166 247.631C326.88 247.513 326.619 247.339 326.4 247.12C322 242.76 315.66 231.3 323.19 219.12C323.352 218.849 323.566 218.613 323.819 218.426C324.073 218.238 324.362 218.103 324.668 218.028C324.975 217.953 325.293 217.94 325.605 217.989C325.917 218.038 326.215 218.149 326.484 218.314C326.752 218.48 326.985 218.698 327.169 218.954C327.353 219.211 327.483 219.501 327.554 219.809C327.624 220.117 327.633 220.435 327.579 220.746C327.525 221.057 327.41 221.354 327.24 221.62C319.86 233.62 329.35 243.35 329.76 243.76C329.982 243.981 330.157 244.244 330.277 244.533C330.397 244.822 330.459 245.132 330.459 245.445C330.459 245.758 330.397 246.068 330.277 246.357C330.157 246.646 329.982 246.909 329.76 247.13C329.307 247.568 328.7 247.812 328.07 247.81Z" fill="#277FE5"/>
    <path d="M297.33 329.39C297.33 329.39 221.61 301.86 226.89 329.39C232.09 356.53 236.49 405.95 236.49 405.95L244.11 405.46C244.11 405.46 252.38 367.28 247.11 342.69C278.42 354.01 303.11 351.5 303.11 351.5L297.33 329.39Z" fill="#FFB573"/>
    <path d="M236.16 406.79C235.1 398.2 232.98 375.63 231.81 368.79C237.698 368.503 243.6 368.893 249.4 369.95C249.4 369.95 246.4 399.36 244.53 405.71C241.788 406.374 238.981 406.736 236.16 406.79Z" fill="#277FE5"/>
    <path d="M236.4 404.42L244.53 404.23C244.612 404.222 244.695 404.233 244.773 404.261C244.851 404.289 244.922 404.333 244.981 404.391C245.04 404.449 245.086 404.519 245.115 404.597C245.144 404.674 245.156 404.757 245.15 404.84L245.01 412.12C244.955 412.567 244.744 412.982 244.416 413.29C244.087 413.599 243.66 413.783 243.21 413.81C239.57 413.81 238.21 413.34 233.59 413.46C230.75 413.54 227.71 413.92 223.85 413.81C219.99 413.7 222.13 410.17 223.85 410.02C228.64 409.59 231.66 407.32 234.77 405.02C235.242 404.664 235.809 404.455 236.4 404.42Z" fill="#263238"/>
    <path d="M307.05 336.54C307.05 336.54 324.39 414.54 344.3 413.81C372.3 412.81 410.94 400.91 410.94 400.91L409.73 394.33C409.73 394.33 369.51 391.82 351.08 396.72C344.4 366.63 334.39 336.54 334.39 336.54H307.05Z" fill="#FFB573"/>
    <path d="M410.7 401.67C402.34 403.86 380.25 408.96 373.58 411.03C372.516 405.234 372.12 399.336 372.4 393.45C372.4 393.45 401.94 392.53 408.49 393.52C409.527 396.146 410.268 398.88 410.7 401.67Z" fill="#277FE5"/>
    <path d="M408.79 401.17L406.86 393.28C406.834 393.2 406.827 393.115 406.837 393.031C406.848 392.948 406.876 392.867 406.921 392.796C406.966 392.725 407.026 392.664 407.096 392.618C407.167 392.572 407.247 392.542 407.33 392.53L414.46 391.12C414.903 391.083 415.345 391.201 415.71 391.455C416.075 391.709 416.34 392.082 416.46 392.51C417.27 396.06 416.77 398.86 417.72 403.37C419.44 411.56 417.48 413.82 413.61 413.83C409.74 413.84 409.82 412.6 411.12 411.51C415.12 408.14 412.6 405.21 409.7 402.67C409.254 402.272 408.937 401.75 408.79 401.17Z" fill="#263238"/>
    <path d="M310.32 239.85C309.381 241.341 307.888 242.399 306.17 242.79C303.88 243.29 302.88 241.21 303.62 239.13C304.29 237.25 306.29 234.73 308.53 235.13C309.022 235.234 309.479 235.46 309.861 235.787C310.242 236.114 310.536 236.531 310.714 237.001C310.892 237.471 310.949 237.978 310.881 238.476C310.812 238.974 310.619 239.446 310.32 239.85Z" fill="#FFB573"/>
    <path d="M294.13 326.27L332 325.05C332.082 325.047 332.162 325.026 332.235 324.987C332.308 324.948 332.37 324.894 332.419 324.827C332.467 324.761 332.499 324.684 332.513 324.603C332.527 324.522 332.523 324.439 332.5 324.36L331.93 322.36C331.895 322.244 331.824 322.142 331.727 322.07C331.629 321.998 331.511 321.959 331.39 321.96L294 323.18C293.856 323.185 293.72 323.247 293.62 323.352C293.521 323.456 293.467 323.596 293.47 323.74L293.54 325.74C293.541 325.814 293.557 325.888 293.588 325.956C293.619 326.024 293.664 326.084 293.719 326.134C293.774 326.184 293.84 326.222 293.91 326.245C293.981 326.268 294.056 326.277 294.13 326.27Z" fill="#277FE5"/>
    <path d="M299.59 324.34C299.59 324.34 304.5 350.12 312.2 365.52C320.03 365.18 344.2 361.84 345.98 358.08C342.05 337.46 334.26 327.17 331.3 323.66C314.13 323.92 299.59 324.34 299.59 324.34Z" fill="#277FE5"/>
    <path opacity="0.2" d="M307 352.76C307.82 355.2 308.71 357.61 309.65 359.92C312.176 356.957 314.004 353.464 315 349.7L307 352.76Z" fill="black"/>
    <path d="M303.64 358.07C295.328 358.16 287.021 357.621 278.79 356.46C272.67 346.92 269.1 323.18 272.56 320.85C281.89 322.28 291.11 324.24 294.8 324.69C318.07 321.78 323.72 330.02 323.55 338.98C323.34 349.64 314.31 358 303.64 358.07Z" fill="#277FE5"/>
    <path d="M331 267.29C335.126 267.912 338.853 270.104 341.4 273.41C340.627 278.375 338.759 283.107 335.93 287.26C326.98 282.53 324.66 277.62 326.81 271.21C327.62 268.63 331 267.29 331 267.29Z" fill="#263238"/>
    <path d="M296.18 277.24C293.18 280.24 290.1 283.5 287.29 286.72C285.87 288.33 284.52 289.98 283.29 291.61C282.68 292.43 282.12 293.25 281.64 294.05C281.211 294.717 280.846 295.424 280.55 296.16C280.45 296.41 280.41 296.62 280.4 296.53V296.84L280.47 297.35C280.643 298.227 280.884 299.09 281.19 299.93C281.924 301.883 282.769 303.793 283.72 305.65C285.64 309.5 287.84 313.4 290.03 317.21V317.27C290.321 317.766 290.419 318.351 290.305 318.915C290.192 319.478 289.875 319.98 289.415 320.325C288.955 320.67 288.385 320.834 287.812 320.785C287.239 320.736 286.705 320.478 286.31 320.06C283.082 316.724 280.129 313.132 277.48 309.32C276.095 307.334 274.858 305.248 273.78 303.08C273.175 301.867 272.68 300.602 272.3 299.3C272.067 298.467 271.923 297.613 271.87 296.75C271.841 295.754 271.962 294.76 272.23 293.8C272.623 292.409 273.173 291.067 273.87 289.8C274.49 288.63 275.15 287.56 275.82 286.53C277.149 284.542 278.577 282.623 280.1 280.78C283.058 277.176 286.237 273.759 289.62 270.55C290.52 269.741 291.698 269.31 292.908 269.348C294.118 269.386 295.266 269.889 296.115 270.753C296.963 271.616 297.445 272.774 297.461 273.984C297.477 275.195 297.025 276.364 296.2 277.25L296.18 277.24Z" fill="#FFB573"/>
    <path d="M285.7 317.74L288.25 327.33L292.85 318.39C292.85 318.39 291 314.39 287.19 314.25L285.7 317.74Z" fill="#FFB573"/>
    <path d="M293.93 328L295.93 324.73C296.19 324.309 296.312 323.818 296.278 323.324C296.244 322.831 296.056 322.361 295.74 321.98L292.81 318.42L288.21 327.36L290.71 328.8C291.243 329.12 291.882 329.215 292.485 329.065C293.089 328.915 293.608 328.532 293.93 328Z" fill="#FFB573"/>
    <path d="M294.94 268C285.1 269.54 283.35 275.68 283.35 275.68C284.114 279.932 285.617 284.017 287.79 287.75C299.66 285.75 301.29 278.33 299.14 271.92C298.27 269.32 294.94 268 294.94 268Z" fill="#263238"/>
</svg>
