<svg width="90" height="90" viewBox="0 0 90 90" fill="none" xmlns="http://www.w3.org/2000/svg">
<path d="M74.6333 9.74895H71.922V6.79068C71.922 3.0447 68.9662 0 65.3288 0C61.689 0 58.7357 3.0447 58.7357 6.79068V9.74648H51.9697V6.79068C51.9697 3.0447 49.0139 0 45.3766 0C41.7392 0 38.7834 3.0447 38.7834 6.79068V9.74648H32.0175V6.79068C32.0175 3.0447 29.0617 0 25.4243 0C21.787 0 18.8312 3.0447 18.8312 6.79068V9.74648H15.3692C9.58351 9.74648 4.87448 14.4555 4.87448 20.2412V79.5053C4.87448 85.291 9.58351 90 15.3692 90H74.6333C80.4214 90 85.128 85.291 85.128 79.5053V20.2412C85.128 14.458 80.419 9.74895 74.6333 9.74895ZM62.4397 6.79068C62.4397 5.08931 63.7361 3.70401 65.3288 3.70401C66.924 3.70401 68.218 5.08931 68.218 6.79068V18.8806C68.218 20.5819 66.924 21.9672 65.3288 21.9672C63.7361 21.9672 62.4397 20.5819 62.4397 18.8806V6.79068ZM42.4874 6.79068C42.4874 5.08931 43.7839 3.70401 45.3766 3.70401C46.9693 3.70401 48.2657 5.08931 48.2657 6.79068V18.8806C48.2657 20.5819 46.9693 21.9672 45.3766 21.9672C43.7839 21.9672 42.4874 20.5819 42.4874 18.8806V6.79068ZM22.5327 6.79068C22.5327 5.08931 23.8291 3.70401 25.4219 3.70401C27.0146 3.70401 28.311 5.08931 28.311 6.79068V18.8806C28.311 20.5819 27.0146 21.9672 25.4219 21.9672C23.8291 21.9672 22.5327 20.5819 22.5327 18.8806V6.79068ZM78.9547 79.5078C78.9547 81.8907 77.0162 83.8291 74.6333 83.8291H15.3692C12.9863 83.8291 11.0478 81.8907 11.0478 79.5078V25.1823H78.9547V79.5078Z" fill="#277FE5"/>
<path d="M27.9505 36.1166H16.6039V46.2137H27.9505V36.1166Z" fill="#277FE5"/>
<path d="M43.0974 36.1166H31.7483V46.2137H43.0974V36.1166Z" fill="#277FE5"/>
<path d="M58.2517 36.1166H46.9051V46.2137H58.2517V36.1166Z" fill="#277FE5"/>
<path d="M73.3986 36.1166H62.0495V46.2137H73.3986V36.1166Z" fill="#277FE5"/>
<path d="M27.9505 49.5942H16.6039V59.6839H27.9505V49.5942Z" fill="#277FE5"/>
<path d="M43.0974 49.5942H31.7483V59.6839H43.0974V49.5942Z" fill="#277FE5"/>
<path d="M58.2517 49.5942H46.9051V59.6839H58.2517V49.5942Z" fill="#277FE5"/>
<path d="M73.3986 49.5942H62.0495V59.6839H73.3986V49.5942Z" fill="#277FE5"/>
<path d="M27.9505 63.0669H16.6039V73.1566H27.9505V63.0669Z" fill="#277FE5"/>
<path d="M43.0974 63.0669H31.7483V73.1566H43.0974V63.0669Z" fill="#277FE5"/>
<path d="M58.2517 63.0669H46.9051V73.1566H58.2517V63.0669Z" fill="#277FE5"/>
<path d="M73.3986 63.0669H62.0495V73.1566H73.3986V63.0669Z" fill="#277FE5"/>
</svg>
