<svg width="32" height="35" viewBox="0 0 32 35" fill="none" xmlns="http://www.w3.org/2000/svg">
<path d="M12.6135 0H2.38627C1.07041 0 0 1.17745 0 2.62489V9.37484C0 10.8225 1.07041 12 2.38627 12H12.6135C13.9296 12 15 10.8225 15 9.37484V2.62489C15 1.17745 13.9296 0 12.6135 0Z" fill="#277FE5"/>
<path d="M12.6135 15H2.38627C1.07041 15 0 16.1214 0 17.5002V32.5001C0 33.8786 1.07041 35 2.38627 35H12.6135C13.9296 35 15 33.8786 15 32.5001V17.5002C15 16.1214 13.9296 15 12.6135 15V15Z" fill="#277FE5"/>
<path d="M29.6137 23H19.3865C18.0704 23 17 24.1775 17 25.6252V32.3751C17 33.8225 18.0704 35 19.3865 35H29.6137C30.9296 35 32 33.8225 32 32.3751V25.6252C32 24.1775 30.9296 23 29.6137 23V23Z" fill="#277FE5"/>
<path d="M29.6137 0H19.3865C18.0704 0 17 1.12139 17 2.4999V17.4998C17 18.8786 18.0704 20 19.3865 20H29.6137C30.9296 20 32 18.8786 32 17.4998V2.4999C32 1.12139 30.9296 0 29.6137 0V0Z" fill="#277FE5"/>
</svg>


