<svg width="100" height="100" viewBox="0 0 100 100" fill="none" xmlns="http://www.w3.org/2000/svg">
<path d="M1.3639 42.7509L46.7635 1.47866L47.1973 1.08432C47.4953 0.813426 47.8227 0.593309 48.1686 0.423973C48.184 0.416551 48.2 0.411082 48.2155 0.403661C49.3428 -0.131105 50.6575 -0.131105 51.785 0.403661C51.8004 0.410887 51.8164 0.416356 51.8319 0.423973C52.1778 0.593309 52.5051 0.813426 52.8032 1.08432L53.2307 1.473L98.6362 42.7509C100.339 44.2988 100.464 46.9341 98.9164 48.6369C97.3686 50.3396 94.7332 50.4652 93.0305 48.9171L91.6666 47.6773V95.8341C91.6666 98.1353 89.8012 100.001 87.5 100.001H66.6666H33.3332H12.5C10.1989 100.001 8.33343 98.1353 8.33343 95.8341V47.6773L6.96956 48.9171C5.26683 50.4652 2.63167 50.3396 1.08363 48.6369C-0.46442 46.9341 -0.338835 44.299 1.3639 42.7509ZM58.3334 91.6675V66.6675C58.3334 62.0646 54.6032 58.3341 50 58.3341C45.3969 58.3341 41.6666 62.0644 41.6666 66.6675V91.6675H58.3334V91.6675ZM16.6666 91.6675H33.3332V66.6675C33.3332 57.4621 40.7946 50.0007 50 50.0007C59.2055 50.0007 66.6666 57.4621 66.6666 66.6673V91.6673H83.3334V40.1023L50 9.79858L16.6666 40.1023V91.6675Z" fill="#277FE5"/>
</svg>
