<svg width="86" height="111" viewBox="0 0 86 111" fill="none" xmlns="http://www.w3.org/2000/svg">
<path d="M78.3196 39.5982C61.0014 27.2402 46.6452 43.7176 43.2279 43.7176C43.1638 43.7176 42.8363 43.7176 42.7721 43.7176C39.3545 43.7176 24.9982 27.2402 7.68047 39.5982C-9.63765 51.9561 3.35085 111 36.3918 111C39.0338 111 41.2024 111 43.3989 111C45.332 111 47.2873 111 49.609 111C82.6488 111.001 95.6377 51.9565 78.3196 39.5982V39.5982Z" fill="#277FE5"/>
<path d="M43.8376 38.6788C53.0396 33.7869 75.7368 12.4551 58.1793 1.71541C42.1323 -8.09994 37.6138 26.9914 40.1756 36.5046C42.7382 38.4089 42.3232 37.7817 43.8376 38.6788V38.6788Z" fill="#277FE5"/>
</svg>

