<svg width="86" height="100" viewBox="0 0 86 100" fill="none" xmlns="http://www.w3.org/2000/svg">
<path d="M62.2284 42.8157C52.8016 36.1178 44.987 45.0484 43.1269 45.0484C43.092 45.0484 42.9137 45.0484 42.8788 45.0484C41.0184 45.0484 33.2039 36.1178 23.7773 42.8157C14.3504 49.5136 21.4205 81.5148 39.4058 81.5148C40.8439 81.5148 42.0243 81.5148 43.22 81.5148C44.2722 81.5148 45.3365 81.5148 46.6003 81.5148C64.5849 81.5153 71.6552 49.5138 62.2284 42.8157Z" fill="#277FE5"/>
<path d="M43.4587 42.3174C48.4677 39.666 60.8225 28.1044 51.2654 22.2836C42.5305 16.9637 40.0709 35.9829 41.4654 41.139C42.8603 42.1711 42.6344 41.8312 43.4587 42.3174Z" fill="#277FE5"/>
<path d="M70.1311 0H18.1569V0.035532C18.154 0.0218179 18.1522 0.0120518 18.1522 0.0120518L0.403985 17.7562H0.400037V17.7602L0.39505 17.7652C0.39505 17.7652 0.398167 17.7656 0.400037 17.7658V84.5261C0.400037 93.0584 7.34168 100 15.874 100H70.1309C78.6633 100 85.6052 93.0586 85.6052 84.5261V15.4739C85.6052 6.94163 78.6635 0 70.1311 0ZM78.3325 84.5261C78.3325 89.0484 74.6534 92.7278 70.1309 92.7278H15.874C11.3518 92.7278 7.67269 89.0484 7.67269 84.5261V24.9792C14.5202 24.766 18.9721 23.7936 21.8857 20.6113C24.6516 17.5904 25.2708 13.2626 25.3984 7.27284H70.1309C74.6534 7.27284 78.3325 10.952 78.3325 15.4741V84.5261Z" fill="#277FE5"/>
</svg>
