<svg width="100" height="96" viewBox="0 0 100 96" fill="none" xmlns="http://www.w3.org/2000/svg">
<path d="M82.5963 35.4203C75.0149 35.4203 68.5708 30.5727 66.1834 23.8093H33.817C31.4296 30.5727 24.9847 35.4203 17.4041 35.4203C7.79192 35.4203 0 27.6283 0 18.0161C0 8.40393 7.79192 0.612007 17.4041 0.612007C24.9847 0.612007 31.4296 5.45955 33.817 12.2229H66.1834C68.5708 5.45935 75.0149 0.612007 82.5963 0.612007C92.2085 0.612007 100 8.40352 100 18.0161C100 27.6283 92.2085 35.4203 82.5963 35.4203Z" fill="#277FE5"/>
<path d="M23.7711 42.5954C31.0326 44.7714 35.8151 51.2648 36.1607 58.4287L67.1653 67.7188C71.3928 61.925 78.9582 59.1313 86.2199 61.307C95.4277 64.066 100.655 73.7664 97.8961 82.9744C95.1375 92.1822 85.4367 97.4098 76.2291 94.651C68.9674 92.4747 64.1849 85.9816 63.8395 78.8175L32.8353 69.5276C28.6072 75.321 21.0418 78.1148 13.7801 75.9393C4.57232 73.1801 -0.655245 63.4799 2.10373 54.2718C4.86311 45.064 14.5633 39.8365 23.7711 42.5954Z" fill="#277FE5"/>
</svg>
