<svg width="100" height="100" viewBox="0 0 100 100" fill="none" xmlns="http://www.w3.org/2000/svg">
<path d="M77.1311 0H25.1569V0.035532C25.154 0.0218179 25.1522 0.0120518 25.1522 0.0120518L7.40398 17.7562H7.40004V17.7602L7.39505 17.7652C7.39505 17.7652 7.39817 17.7656 7.40004 17.7658V84.5261C7.40004 93.0584 14.3417 100 22.874 100H77.1309C85.6633 100 92.6052 93.0586 92.6052 84.5261V15.4739C92.6052 6.94163 85.6635 0 77.1311 0ZM85.3325 84.5261C85.3325 89.0484 81.6534 92.7278 77.1309 92.7278H22.874C18.3518 92.7278 14.6727 89.0484 14.6727 84.5261V24.9792C21.5202 24.766 25.9721 23.7936 28.8857 20.6113C31.6516 17.5904 32.2708 13.2626 32.3984 7.27284H77.1309C81.6534 7.27284 85.3325 10.952 85.3325 15.4741V84.5261Z" fill="#277FE5"/>
<path d="M66.9362 58.0634C62.9978 58.0634 59.6503 60.5816 58.4101 64.095H41.5965C40.3564 60.5816 37.0084 58.0634 33.0705 58.0634C28.0772 58.0634 24.0294 62.1111 24.0294 67.1044C24.0294 72.0977 28.0772 76.1454 33.0705 76.1454C37.0084 76.1454 40.3564 73.6272 41.5965 70.1138H58.4101C59.6503 73.6273 62.9978 76.1454 66.9362 76.1454C71.9295 76.1454 75.977 72.0979 75.977 67.1044C75.977 62.1111 71.9295 58.0634 66.9362 58.0634Z" fill="#277FE5"/>
<path d="M36.378 54.3361C40.1501 53.2058 42.6345 49.8326 42.8141 46.1111L58.9202 41.2852C61.1162 44.2949 65.0463 45.7462 68.8186 44.6159C73.6018 43.1827 76.3174 38.1436 74.8841 33.3603C73.451 28.577 68.4117 25.8615 63.6286 27.2946C59.8563 28.4251 57.3719 31.7981 57.1925 35.5197L41.0866 40.3455C38.8902 37.336 34.9602 35.8847 31.1879 37.0148C26.4047 38.4482 23.6891 43.4872 25.1223 48.2705C26.5557 53.0537 31.5947 55.7693 36.378 54.3361Z" fill="#277FE5"/>
</svg>
